M48
; DRILL file {KiCad 5.1.5+dfsg1-2build2} date Thu 21 Jul 2022 14:43:38 CEST
; FORMAT={-:-/ absolute / inch / decimal}
; #@! TF.CreationDate,2022-07-21T14:43:38+02:00
; #@! TF.GenerationSoftware,Kicad,Pcbnew,5.1.5+dfsg1-2build2
; #@! TF.FileFunction,Plated,1,2,PTH
FMAT,2
INCH
T1C0.0157
T2C0.0315
T3C0.0394
T4C0.0520
%
G90
G05
T1
X2.825Y-5.0
X2.875Y-4.675
X2.925Y-3.8
X2.925Y-4.025
X3.0Y-4.9
X3.125Y-3.15
X3.3Y-4.05
X3.475Y-4.75
X3.6Y-3.8
X3.675Y-3.6
X3.7419Y-3.85
X3.775Y-3.475
X3.8215Y-5.0715
X3.825Y-5.15
X3.875Y-3.525
X3.875Y-3.625
X3.875Y-5.1
X3.975Y-3.525
X4.0035Y-5.0715
X4.025Y-3.475
X4.05Y-5.1
X4.075Y-3.625
X4.1Y-5.0
X4.1Y-5.15
X4.125Y-3.575
T2
X3.125Y-3.4
X3.125Y-3.7
X3.225Y-3.4
X3.225Y-3.7
X3.325Y-3.4
X3.325Y-3.7
X3.425Y-3.4
X3.425Y-3.7
X3.525Y-3.4
X3.525Y-3.7
X3.625Y-3.4
X3.625Y-3.7
X3.725Y-3.4
X3.725Y-3.7
X3.825Y-3.4
X3.825Y-3.7
X3.6Y-4.45
X3.6Y-4.75
X3.8Y-4.45
X3.8Y-4.75
X3.1Y-4.45
X3.1Y-4.75
X3.3Y-4.45
X3.3Y-4.75
X4.275Y-3.7
X4.275Y-3.8
X4.275Y-3.9
X4.275Y-4.0
X4.275Y-4.1
X4.275Y-4.2
X4.275Y-4.3
X4.275Y-4.4
X4.275Y-4.5
X4.275Y-4.6
X4.275Y-4.7
X4.275Y-4.8
X4.275Y-4.9
X4.275Y-5.0
X4.275Y-5.1
X4.875Y-3.7
X4.875Y-3.8
X4.875Y-3.9
X4.875Y-4.0
X4.875Y-4.1
X4.875Y-4.2
X4.875Y-4.3
X4.875Y-4.4
X4.875Y-4.5
X4.875Y-4.6
X4.875Y-4.7
X4.875Y-4.8
X4.875Y-4.9
X4.875Y-5.0
X4.875Y-5.1
X2.6Y-5.125
X2.6Y-5.2037
X3.125Y-5.0
X3.125Y-5.3
X3.225Y-5.0
X3.225Y-5.3
X3.325Y-5.0
X3.325Y-5.3
X3.425Y-5.0
X3.425Y-5.3
X3.525Y-5.0
X3.525Y-5.3
X3.625Y-5.0
X3.625Y-5.3
X3.725Y-5.0
X3.725Y-5.3
X3.825Y-5.0
X3.825Y-5.3
X3.6Y-3.925
X3.6Y-4.225
X3.8Y-3.925
X3.8Y-4.225
X3.1Y-3.925
X3.1Y-4.225
X3.3Y-3.925
X3.3Y-4.225
T3
X5.075Y-3.7
X5.075Y-3.8
X5.075Y-3.9
X5.075Y-4.0
X5.075Y-4.1
X5.075Y-4.2
X5.075Y-4.3
X5.075Y-4.4
X5.075Y-4.5
T4
X2.5Y-3.4063
X2.5Y-3.6031
X2.5Y-3.8
X4.15Y-3.2
X4.3469Y-3.2
X2.5Y-4.0031
X2.5Y-4.2
X2.5Y-4.4
X2.5Y-4.5969
X2.5Y-4.7937
T0
M30
