G04 #@! TF.GenerationSoftware,KiCad,Pcbnew,5.1.5+dfsg1-2build2*
G04 #@! TF.CreationDate,2022-06-06T13:39:04+02:00*
G04 #@! TF.ProjectId,Toro_Stepper_Differential,546f726f-5f53-4746-9570-7065725f4469,rev?*
G04 #@! TF.SameCoordinates,Original*
G04 #@! TF.FileFunction,Legend,Bot*
G04 #@! TF.FilePolarity,Positive*
%FSLAX46Y46*%
G04 Gerber Fmt 4.6, Leading zero omitted, Abs format (unit mm)*
G04 Created by KiCad (PCBNEW 5.1.5+dfsg1-2build2) date 2022-06-06 13:39:04*
%MOMM*%
%LPD*%
G04 APERTURE LIST*
%ADD10C,0.150000*%
%ADD11C,0.300000*%
%ADD12C,3.200000*%
%ADD13O,1.700000X1.700000*%
%ADD14R,1.700000X1.700000*%
%ADD15C,1.600000*%
%ADD16R,1.600000X1.600000*%
%ADD17O,1.600000X1.600000*%
%ADD18R,3.960000X1.980000*%
%ADD19O,3.960000X1.980000*%
%ADD20O,1.980000X3.960000*%
%ADD21R,1.980000X3.960000*%
%ADD22R,1.600000X2.400000*%
%ADD23O,1.600000X2.400000*%
G04 APERTURE END LIST*
D10*
X130357619Y-115068571D02*
X130357619Y-115640000D01*
X130357619Y-115354285D02*
X131357619Y-115354285D01*
X131214761Y-115449523D01*
X131119523Y-115544761D01*
X131071904Y-115640000D01*
X131357619Y-114735238D02*
X131357619Y-114116190D01*
X130976666Y-114449523D01*
X130976666Y-114306666D01*
X130929047Y-114211428D01*
X130881428Y-114163809D01*
X130786190Y-114116190D01*
X130548095Y-114116190D01*
X130452857Y-114163809D01*
X130405238Y-114211428D01*
X130357619Y-114306666D01*
X130357619Y-114592380D01*
X130405238Y-114687619D01*
X130452857Y-114735238D01*
X130738571Y-113687619D02*
X130738571Y-112925714D01*
X130643333Y-112497142D02*
X130643333Y-112020952D01*
X130357619Y-112592380D02*
X131357619Y-112259047D01*
X130357619Y-111925714D01*
X131357619Y-111401904D02*
X131357619Y-111306666D01*
X131310000Y-111211428D01*
X131262380Y-111163809D01*
X131167142Y-111116190D01*
X130976666Y-111068571D01*
X130738571Y-111068571D01*
X130548095Y-111116190D01*
X130452857Y-111163809D01*
X130405238Y-111211428D01*
X130357619Y-111306666D01*
X130357619Y-111401904D01*
X130405238Y-111497142D01*
X130452857Y-111544761D01*
X130548095Y-111592380D01*
X130738571Y-111640000D01*
X130976666Y-111640000D01*
X131167142Y-111592380D01*
X131262380Y-111544761D01*
X131310000Y-111497142D01*
X131357619Y-111401904D01*
X130643333Y-110687619D02*
X130643333Y-110211428D01*
X130357619Y-110782857D02*
X131357619Y-110449523D01*
X130357619Y-110116190D01*
X130357619Y-109259047D02*
X130357619Y-109830476D01*
X130357619Y-109544761D02*
X131357619Y-109544761D01*
X131214761Y-109640000D01*
X131119523Y-109735238D01*
X131071904Y-109830476D01*
X130738571Y-108830476D02*
X130738571Y-108068571D01*
X130643333Y-107640000D02*
X130643333Y-107163809D01*
X130357619Y-107735238D02*
X131357619Y-107401904D01*
X130357619Y-107068571D01*
X131024285Y-106306666D02*
X130357619Y-106306666D01*
X131405238Y-106544761D02*
X130690952Y-106782857D01*
X130690952Y-106163809D01*
X130643333Y-105830476D02*
X130643333Y-105354285D01*
X130357619Y-105925714D02*
X131357619Y-105592380D01*
X130357619Y-105259047D01*
X131357619Y-104449523D02*
X131357619Y-104925714D01*
X130881428Y-104973333D01*
X130929047Y-104925714D01*
X130976666Y-104830476D01*
X130976666Y-104592380D01*
X130929047Y-104497142D01*
X130881428Y-104449523D01*
X130786190Y-104401904D01*
X130548095Y-104401904D01*
X130452857Y-104449523D01*
X130405238Y-104497142D01*
X130357619Y-104592380D01*
X130357619Y-104830476D01*
X130405238Y-104925714D01*
X130452857Y-104973333D01*
X130738571Y-103973333D02*
X130738571Y-103211428D01*
X131357619Y-102259047D02*
X131357619Y-102735238D01*
X130881428Y-102782857D01*
X130929047Y-102735238D01*
X130976666Y-102640000D01*
X130976666Y-102401904D01*
X130929047Y-102306666D01*
X130881428Y-102259047D01*
X130786190Y-102211428D01*
X130548095Y-102211428D01*
X130452857Y-102259047D01*
X130405238Y-102306666D01*
X130357619Y-102401904D01*
X130357619Y-102640000D01*
X130405238Y-102735238D01*
X130452857Y-102782857D01*
X131357619Y-101925714D02*
X130357619Y-101592380D01*
X131357619Y-101259047D01*
X131310000Y-100401904D02*
X131357619Y-100497142D01*
X131357619Y-100640000D01*
X131310000Y-100782857D01*
X131214761Y-100878095D01*
X131119523Y-100925714D01*
X130929047Y-100973333D01*
X130786190Y-100973333D01*
X130595714Y-100925714D01*
X130500476Y-100878095D01*
X130405238Y-100782857D01*
X130357619Y-100640000D01*
X130357619Y-100544761D01*
X130405238Y-100401904D01*
X130452857Y-100354285D01*
X130786190Y-100354285D01*
X130786190Y-100544761D01*
X130357619Y-99925714D02*
X131357619Y-99925714D01*
X130357619Y-99354285D01*
X131357619Y-99354285D01*
X130357619Y-98878095D02*
X131357619Y-98878095D01*
X131357619Y-98640000D01*
X131310000Y-98497142D01*
X131214761Y-98401904D01*
X131119523Y-98354285D01*
X130929047Y-98306666D01*
X130786190Y-98306666D01*
X130595714Y-98354285D01*
X130500476Y-98401904D01*
X130405238Y-98497142D01*
X130357619Y-98640000D01*
X130357619Y-98878095D01*
X130738571Y-97878095D02*
X130738571Y-97116190D01*
X131357619Y-96782857D02*
X130357619Y-96449523D01*
X131357619Y-96116190D01*
X130357619Y-95782857D02*
X131024285Y-95782857D01*
X131357619Y-95782857D02*
X131310000Y-95830476D01*
X131262380Y-95782857D01*
X131310000Y-95735238D01*
X131357619Y-95782857D01*
X131262380Y-95782857D01*
X131024285Y-95306666D02*
X130357619Y-95306666D01*
X130929047Y-95306666D02*
X130976666Y-95259047D01*
X131024285Y-95163809D01*
X131024285Y-95020952D01*
X130976666Y-94925714D01*
X130881428Y-94878095D01*
X130357619Y-94878095D01*
X130738571Y-94401904D02*
X130738571Y-93640000D01*
X131262380Y-93211428D02*
X131310000Y-93163809D01*
X131357619Y-93068571D01*
X131357619Y-92830476D01*
X131310000Y-92735238D01*
X131262380Y-92687619D01*
X131167142Y-92640000D01*
X131071904Y-92640000D01*
X130929047Y-92687619D01*
X130357619Y-93259047D01*
X130357619Y-92640000D01*
D11*
X112648809Y-75835000D02*
X112839285Y-75739761D01*
X113125000Y-75739761D01*
X113410714Y-75835000D01*
X113601190Y-76025476D01*
X113696428Y-76215952D01*
X113791666Y-76596904D01*
X113791666Y-76882619D01*
X113696428Y-77263571D01*
X113601190Y-77454047D01*
X113410714Y-77644523D01*
X113125000Y-77739761D01*
X112934523Y-77739761D01*
X112648809Y-77644523D01*
X112553571Y-77549285D01*
X112553571Y-76882619D01*
X112934523Y-76882619D01*
X111696428Y-77739761D02*
X111696428Y-75739761D01*
X110553571Y-77739761D01*
X110553571Y-75739761D01*
X109601190Y-77739761D02*
X109601190Y-75739761D01*
X109125000Y-75739761D01*
X108839285Y-75835000D01*
X108648809Y-76025476D01*
X108553571Y-76215952D01*
X108458333Y-76596904D01*
X108458333Y-76882619D01*
X108553571Y-77263571D01*
X108648809Y-77454047D01*
X108839285Y-77644523D01*
X109125000Y-77739761D01*
X109601190Y-77739761D01*
X107663809Y-76977857D02*
X106140000Y-76977857D01*
X106901904Y-77739761D02*
X106901904Y-76215952D01*
X104140000Y-77739761D02*
X105282857Y-77739761D01*
X104711428Y-77739761D02*
X104711428Y-75739761D01*
X104901904Y-76025476D01*
X105092380Y-76215952D01*
X105282857Y-76311190D01*
X103378095Y-75930238D02*
X103282857Y-75835000D01*
X103092380Y-75739761D01*
X102616190Y-75739761D01*
X102425714Y-75835000D01*
X102330476Y-75930238D01*
X102235238Y-76120714D01*
X102235238Y-76311190D01*
X102330476Y-76596904D01*
X103473333Y-77739761D01*
X102235238Y-77739761D01*
X101663809Y-75739761D02*
X100997142Y-77739761D01*
X100330476Y-75739761D01*
D10*
X67737619Y-101551428D02*
X67737619Y-102122857D01*
X67737619Y-101837142D02*
X68737619Y-101837142D01*
X68594761Y-101932380D01*
X68499523Y-102027619D01*
X68451904Y-102122857D01*
X68118571Y-99599047D02*
X68118571Y-98837142D01*
X68642380Y-96884761D02*
X68690000Y-96837142D01*
X68737619Y-96741904D01*
X68737619Y-96503809D01*
X68690000Y-96408571D01*
X68642380Y-96360952D01*
X68547142Y-96313333D01*
X68451904Y-96313333D01*
X68309047Y-96360952D01*
X67737619Y-96932380D01*
X67737619Y-96313333D01*
X68118571Y-94360952D02*
X68118571Y-93599047D01*
X68737619Y-91694285D02*
X68737619Y-91075238D01*
X68356666Y-91408571D01*
X68356666Y-91265714D01*
X68309047Y-91170476D01*
X68261428Y-91122857D01*
X68166190Y-91075238D01*
X67928095Y-91075238D01*
X67832857Y-91122857D01*
X67785238Y-91170476D01*
X67737619Y-91265714D01*
X67737619Y-91551428D01*
X67785238Y-91646666D01*
X67832857Y-91694285D01*
X68118571Y-89122857D02*
X68118571Y-88360952D01*
X68404285Y-85932380D02*
X67737619Y-85932380D01*
X68785238Y-86170476D02*
X68070952Y-86408571D01*
X68070952Y-85789523D01*
X69683333Y-102551428D02*
X69683333Y-102075238D01*
X69397619Y-102646666D02*
X70397619Y-102313333D01*
X69397619Y-101980000D01*
X69778571Y-100122857D02*
X69778571Y-99360952D01*
X69683333Y-97408571D02*
X69683333Y-96932380D01*
X69397619Y-97503809D02*
X70397619Y-97170476D01*
X69397619Y-96837142D01*
X70397619Y-96456190D02*
X70207142Y-96551428D01*
X69778571Y-94503809D02*
X69778571Y-93741904D01*
X69921428Y-91408571D02*
X69873809Y-91265714D01*
X69826190Y-91218095D01*
X69730952Y-91170476D01*
X69588095Y-91170476D01*
X69492857Y-91218095D01*
X69445238Y-91265714D01*
X69397619Y-91360952D01*
X69397619Y-91741904D01*
X70397619Y-91741904D01*
X70397619Y-91408571D01*
X70350000Y-91313333D01*
X70302380Y-91265714D01*
X70207142Y-91218095D01*
X70111904Y-91218095D01*
X70016666Y-91265714D01*
X69969047Y-91313333D01*
X69921428Y-91408571D01*
X69921428Y-91741904D01*
X69778571Y-89218095D02*
X69778571Y-88456190D01*
X69921428Y-86122857D02*
X69873809Y-85980000D01*
X69826190Y-85932380D01*
X69730952Y-85884761D01*
X69588095Y-85884761D01*
X69492857Y-85932380D01*
X69445238Y-85980000D01*
X69397619Y-86075238D01*
X69397619Y-86456190D01*
X70397619Y-86456190D01*
X70397619Y-86122857D01*
X70350000Y-86027619D01*
X70302380Y-85980000D01*
X70207142Y-85932380D01*
X70111904Y-85932380D01*
X70016666Y-85980000D01*
X69969047Y-86027619D01*
X69921428Y-86122857D01*
X69921428Y-86456190D01*
X70397619Y-85408571D02*
X70207142Y-85503809D01*
X70023333Y-122236428D02*
X70023333Y-121760238D01*
X69737619Y-122331666D02*
X70737619Y-121998333D01*
X69737619Y-121665000D01*
X70118571Y-119807857D02*
X70118571Y-119045952D01*
X70023333Y-117093571D02*
X70023333Y-116617380D01*
X69737619Y-117188809D02*
X70737619Y-116855476D01*
X69737619Y-116522142D01*
X70737619Y-116141190D02*
X70547142Y-116236428D01*
X70118571Y-114188809D02*
X70118571Y-113426904D01*
X70261428Y-111093571D02*
X70213809Y-110950714D01*
X70166190Y-110903095D01*
X70070952Y-110855476D01*
X69928095Y-110855476D01*
X69832857Y-110903095D01*
X69785238Y-110950714D01*
X69737619Y-111045952D01*
X69737619Y-111426904D01*
X70737619Y-111426904D01*
X70737619Y-111093571D01*
X70690000Y-110998333D01*
X70642380Y-110950714D01*
X70547142Y-110903095D01*
X70451904Y-110903095D01*
X70356666Y-110950714D01*
X70309047Y-110998333D01*
X70261428Y-111093571D01*
X70261428Y-111426904D01*
X70118571Y-108903095D02*
X70118571Y-108141190D01*
X70261428Y-105807857D02*
X70213809Y-105665000D01*
X70166190Y-105617380D01*
X70070952Y-105569761D01*
X69928095Y-105569761D01*
X69832857Y-105617380D01*
X69785238Y-105665000D01*
X69737619Y-105760238D01*
X69737619Y-106141190D01*
X70737619Y-106141190D01*
X70737619Y-105807857D01*
X70690000Y-105712619D01*
X70642380Y-105665000D01*
X70547142Y-105617380D01*
X70451904Y-105617380D01*
X70356666Y-105665000D01*
X70309047Y-105712619D01*
X70261428Y-105807857D01*
X70261428Y-106141190D01*
X70737619Y-105093571D02*
X70547142Y-105188809D01*
X67737619Y-121571428D02*
X67737619Y-122142857D01*
X67737619Y-121857142D02*
X68737619Y-121857142D01*
X68594761Y-121952380D01*
X68499523Y-122047619D01*
X68451904Y-122142857D01*
X68118571Y-119619047D02*
X68118571Y-118857142D01*
X68642380Y-116904761D02*
X68690000Y-116857142D01*
X68737619Y-116761904D01*
X68737619Y-116523809D01*
X68690000Y-116428571D01*
X68642380Y-116380952D01*
X68547142Y-116333333D01*
X68451904Y-116333333D01*
X68309047Y-116380952D01*
X67737619Y-116952380D01*
X67737619Y-116333333D01*
X68118571Y-114380952D02*
X68118571Y-113619047D01*
X68737619Y-111714285D02*
X68737619Y-111095238D01*
X68356666Y-111428571D01*
X68356666Y-111285714D01*
X68309047Y-111190476D01*
X68261428Y-111142857D01*
X68166190Y-111095238D01*
X67928095Y-111095238D01*
X67832857Y-111142857D01*
X67785238Y-111190476D01*
X67737619Y-111285714D01*
X67737619Y-111571428D01*
X67785238Y-111666666D01*
X67832857Y-111714285D01*
X68118571Y-109142857D02*
X68118571Y-108380952D01*
X68404285Y-105952380D02*
X67737619Y-105952380D01*
X68785238Y-106190476D02*
X68070952Y-106428571D01*
X68070952Y-105809523D01*
X119822261Y-136232380D02*
X119250833Y-136232380D01*
X119536547Y-137232380D02*
X119536547Y-136232380D01*
X118774642Y-137232380D02*
X118869880Y-137184761D01*
X118917500Y-137137142D01*
X118965119Y-137041904D01*
X118965119Y-136756190D01*
X118917500Y-136660952D01*
X118869880Y-136613333D01*
X118774642Y-136565714D01*
X118631785Y-136565714D01*
X118536547Y-136613333D01*
X118488928Y-136660952D01*
X118441309Y-136756190D01*
X118441309Y-137041904D01*
X118488928Y-137137142D01*
X118536547Y-137184761D01*
X118631785Y-137232380D01*
X118774642Y-137232380D01*
X118012738Y-137232380D02*
X118012738Y-136565714D01*
X118012738Y-136756190D02*
X117965119Y-136660952D01*
X117917500Y-136613333D01*
X117822261Y-136565714D01*
X117727023Y-136565714D01*
X117250833Y-137232380D02*
X117346071Y-137184761D01*
X117393690Y-137137142D01*
X117441309Y-137041904D01*
X117441309Y-136756190D01*
X117393690Y-136660952D01*
X117346071Y-136613333D01*
X117250833Y-136565714D01*
X117107976Y-136565714D01*
X117012738Y-136613333D01*
X116965119Y-136660952D01*
X116917500Y-136756190D01*
X116917500Y-137041904D01*
X116965119Y-137137142D01*
X117012738Y-137184761D01*
X117107976Y-137232380D01*
X117250833Y-137232380D01*
X115727023Y-137232380D02*
X115727023Y-136232380D01*
X115393690Y-136946666D01*
X115060357Y-136232380D01*
X115060357Y-137232380D01*
X114441309Y-137232380D02*
X114536547Y-137184761D01*
X114584166Y-137137142D01*
X114631785Y-137041904D01*
X114631785Y-136756190D01*
X114584166Y-136660952D01*
X114536547Y-136613333D01*
X114441309Y-136565714D01*
X114298452Y-136565714D01*
X114203214Y-136613333D01*
X114155595Y-136660952D01*
X114107976Y-136756190D01*
X114107976Y-137041904D01*
X114155595Y-137137142D01*
X114203214Y-137184761D01*
X114298452Y-137232380D01*
X114441309Y-137232380D01*
X113822261Y-136565714D02*
X113441309Y-136565714D01*
X113679404Y-136232380D02*
X113679404Y-137089523D01*
X113631785Y-137184761D01*
X113536547Y-137232380D01*
X113441309Y-137232380D01*
X112965119Y-137232380D02*
X113060357Y-137184761D01*
X113107976Y-137137142D01*
X113155595Y-137041904D01*
X113155595Y-136756190D01*
X113107976Y-136660952D01*
X113060357Y-136613333D01*
X112965119Y-136565714D01*
X112822261Y-136565714D01*
X112727023Y-136613333D01*
X112679404Y-136660952D01*
X112631785Y-136756190D01*
X112631785Y-137041904D01*
X112679404Y-137137142D01*
X112727023Y-137184761D01*
X112822261Y-137232380D01*
X112965119Y-137232380D01*
X112203214Y-137232380D02*
X112203214Y-136565714D01*
X112203214Y-136756190D02*
X112155595Y-136660952D01*
X112107976Y-136613333D01*
X112012738Y-136565714D01*
X111917500Y-136565714D01*
X110822261Y-137232380D02*
X110822261Y-136232380D01*
X110584166Y-136232380D01*
X110441309Y-136280000D01*
X110346071Y-136375238D01*
X110298452Y-136470476D01*
X110250833Y-136660952D01*
X110250833Y-136803809D01*
X110298452Y-136994285D01*
X110346071Y-137089523D01*
X110441309Y-137184761D01*
X110584166Y-137232380D01*
X110822261Y-137232380D01*
X109822261Y-137232380D02*
X109822261Y-136565714D01*
X109822261Y-136756190D02*
X109774642Y-136660952D01*
X109727023Y-136613333D01*
X109631785Y-136565714D01*
X109536547Y-136565714D01*
X109203214Y-137232380D02*
X109203214Y-136565714D01*
X109203214Y-136232380D02*
X109250833Y-136280000D01*
X109203214Y-136327619D01*
X109155595Y-136280000D01*
X109203214Y-136232380D01*
X109203214Y-136327619D01*
X108822261Y-136565714D02*
X108584166Y-137232380D01*
X108346071Y-136565714D01*
X107584166Y-137184761D02*
X107679404Y-137232380D01*
X107869880Y-137232380D01*
X107965119Y-137184761D01*
X108012738Y-137089523D01*
X108012738Y-136708571D01*
X107965119Y-136613333D01*
X107869880Y-136565714D01*
X107679404Y-136565714D01*
X107584166Y-136613333D01*
X107536547Y-136708571D01*
X107536547Y-136803809D01*
X108012738Y-136899047D01*
X107107976Y-137232380D02*
X107107976Y-136565714D01*
X107107976Y-136756190D02*
X107060357Y-136660952D01*
X107012738Y-136613333D01*
X106917500Y-136565714D01*
X106822261Y-136565714D01*
X105155595Y-137232380D02*
X105488928Y-136756190D01*
X105727023Y-137232380D02*
X105727023Y-136232380D01*
X105346071Y-136232380D01*
X105250833Y-136280000D01*
X105203214Y-136327619D01*
X105155595Y-136422857D01*
X105155595Y-136565714D01*
X105203214Y-136660952D01*
X105250833Y-136708571D01*
X105346071Y-136756190D01*
X105727023Y-136756190D01*
X104346071Y-137184761D02*
X104441309Y-137232380D01*
X104631785Y-137232380D01*
X104727023Y-137184761D01*
X104774642Y-137089523D01*
X104774642Y-136708571D01*
X104727023Y-136613333D01*
X104631785Y-136565714D01*
X104441309Y-136565714D01*
X104346071Y-136613333D01*
X104298452Y-136708571D01*
X104298452Y-136803809D01*
X104774642Y-136899047D01*
X103965119Y-136565714D02*
X103727023Y-137232380D01*
X103488928Y-136565714D01*
X103203214Y-136232380D02*
X102584166Y-136232380D01*
X102917500Y-136613333D01*
X102774642Y-136613333D01*
X102679404Y-136660952D01*
X102631785Y-136708571D01*
X102584166Y-136803809D01*
X102584166Y-137041904D01*
X102631785Y-137137142D01*
X102679404Y-137184761D01*
X102774642Y-137232380D01*
X103060357Y-137232380D01*
X103155595Y-137184761D01*
X103203214Y-137137142D01*
X119727023Y-137977619D02*
X119679404Y-137930000D01*
X119584166Y-137882380D01*
X119346071Y-137882380D01*
X119250833Y-137930000D01*
X119203214Y-137977619D01*
X119155595Y-138072857D01*
X119155595Y-138168095D01*
X119203214Y-138310952D01*
X119774642Y-138882380D01*
X119155595Y-138882380D01*
X118536547Y-137882380D02*
X118441309Y-137882380D01*
X118346071Y-137930000D01*
X118298452Y-137977619D01*
X118250833Y-138072857D01*
X118203214Y-138263333D01*
X118203214Y-138501428D01*
X118250833Y-138691904D01*
X118298452Y-138787142D01*
X118346071Y-138834761D01*
X118441309Y-138882380D01*
X118536547Y-138882380D01*
X118631785Y-138834761D01*
X118679404Y-138787142D01*
X118727023Y-138691904D01*
X118774642Y-138501428D01*
X118774642Y-138263333D01*
X118727023Y-138072857D01*
X118679404Y-137977619D01*
X118631785Y-137930000D01*
X118536547Y-137882380D01*
X117822261Y-137977619D02*
X117774642Y-137930000D01*
X117679404Y-137882380D01*
X117441309Y-137882380D01*
X117346071Y-137930000D01*
X117298452Y-137977619D01*
X117250833Y-138072857D01*
X117250833Y-138168095D01*
X117298452Y-138310952D01*
X117869880Y-138882380D01*
X117250833Y-138882380D01*
X116869880Y-137977619D02*
X116822261Y-137930000D01*
X116727023Y-137882380D01*
X116488928Y-137882380D01*
X116393690Y-137930000D01*
X116346071Y-137977619D01*
X116298452Y-138072857D01*
X116298452Y-138168095D01*
X116346071Y-138310952D01*
X116917500Y-138882380D01*
X116298452Y-138882380D01*
X115869880Y-138501428D02*
X115107976Y-138501428D01*
X114441309Y-137882380D02*
X114346071Y-137882380D01*
X114250833Y-137930000D01*
X114203214Y-137977619D01*
X114155595Y-138072857D01*
X114107976Y-138263333D01*
X114107976Y-138501428D01*
X114155595Y-138691904D01*
X114203214Y-138787142D01*
X114250833Y-138834761D01*
X114346071Y-138882380D01*
X114441309Y-138882380D01*
X114536547Y-138834761D01*
X114584166Y-138787142D01*
X114631785Y-138691904D01*
X114679404Y-138501428D01*
X114679404Y-138263333D01*
X114631785Y-138072857D01*
X114584166Y-137977619D01*
X114536547Y-137930000D01*
X114441309Y-137882380D01*
X113250833Y-137882380D02*
X113441309Y-137882380D01*
X113536547Y-137930000D01*
X113584166Y-137977619D01*
X113679404Y-138120476D01*
X113727023Y-138310952D01*
X113727023Y-138691904D01*
X113679404Y-138787142D01*
X113631785Y-138834761D01*
X113536547Y-138882380D01*
X113346071Y-138882380D01*
X113250833Y-138834761D01*
X113203214Y-138787142D01*
X113155595Y-138691904D01*
X113155595Y-138453809D01*
X113203214Y-138358571D01*
X113250833Y-138310952D01*
X113346071Y-138263333D01*
X113536547Y-138263333D01*
X113631785Y-138310952D01*
X113679404Y-138358571D01*
X113727023Y-138453809D01*
X112727023Y-138501428D02*
X111965119Y-138501428D01*
X111298452Y-137882380D02*
X111203214Y-137882380D01*
X111107976Y-137930000D01*
X111060357Y-137977619D01*
X111012738Y-138072857D01*
X110965119Y-138263333D01*
X110965119Y-138501428D01*
X111012738Y-138691904D01*
X111060357Y-138787142D01*
X111107976Y-138834761D01*
X111203214Y-138882380D01*
X111298452Y-138882380D01*
X111393690Y-138834761D01*
X111441309Y-138787142D01*
X111488928Y-138691904D01*
X111536547Y-138501428D01*
X111536547Y-138263333D01*
X111488928Y-138072857D01*
X111441309Y-137977619D01*
X111393690Y-137930000D01*
X111298452Y-137882380D01*
X110107976Y-137882380D02*
X110298452Y-137882380D01*
X110393690Y-137930000D01*
X110441309Y-137977619D01*
X110536547Y-138120476D01*
X110584166Y-138310952D01*
X110584166Y-138691904D01*
X110536547Y-138787142D01*
X110488928Y-138834761D01*
X110393690Y-138882380D01*
X110203214Y-138882380D01*
X110107976Y-138834761D01*
X110060357Y-138787142D01*
X110012738Y-138691904D01*
X110012738Y-138453809D01*
X110060357Y-138358571D01*
X110107976Y-138310952D01*
X110203214Y-138263333D01*
X110393690Y-138263333D01*
X110488928Y-138310952D01*
X110536547Y-138358571D01*
X110584166Y-138453809D01*
X119679404Y-140532380D02*
X119679404Y-139532380D01*
X119107976Y-140532380D01*
X119107976Y-139532380D01*
X118631785Y-140532380D02*
X118631785Y-139865714D01*
X118631785Y-139532380D02*
X118679404Y-139580000D01*
X118631785Y-139627619D01*
X118584166Y-139580000D01*
X118631785Y-139532380D01*
X118631785Y-139627619D01*
X117584166Y-140532380D02*
X117917500Y-140056190D01*
X118155595Y-140532380D02*
X118155595Y-139532380D01*
X117774642Y-139532380D01*
X117679404Y-139580000D01*
X117631785Y-139627619D01*
X117584166Y-139722857D01*
X117584166Y-139865714D01*
X117631785Y-139960952D01*
X117679404Y-140008571D01*
X117774642Y-140056190D01*
X118155595Y-140056190D01*
X117012738Y-140532380D02*
X117107976Y-140484761D01*
X117155595Y-140437142D01*
X117203214Y-140341904D01*
X117203214Y-140056190D01*
X117155595Y-139960952D01*
X117107976Y-139913333D01*
X117012738Y-139865714D01*
X116869880Y-139865714D01*
X116774642Y-139913333D01*
X116727023Y-139960952D01*
X116679404Y-140056190D01*
X116679404Y-140341904D01*
X116727023Y-140437142D01*
X116774642Y-140484761D01*
X116869880Y-140532380D01*
X117012738Y-140532380D01*
X115488928Y-140151428D02*
X114727023Y-140151428D01*
X113488928Y-140532380D02*
X113488928Y-139532380D01*
X112917500Y-140532380D01*
X112917500Y-139532380D01*
X112012738Y-139865714D02*
X112012738Y-140532380D01*
X112441309Y-139865714D02*
X112441309Y-140389523D01*
X112393690Y-140484761D01*
X112298452Y-140532380D01*
X112155595Y-140532380D01*
X112060357Y-140484761D01*
X112012738Y-140437142D01*
X111536547Y-140532380D02*
X111536547Y-139865714D01*
X111536547Y-140056190D02*
X111488928Y-139960952D01*
X111441309Y-139913333D01*
X111346071Y-139865714D01*
X111250833Y-139865714D01*
X109727023Y-140532380D02*
X109727023Y-139532380D01*
X109727023Y-140484761D02*
X109822261Y-140532380D01*
X110012738Y-140532380D01*
X110107976Y-140484761D01*
X110155595Y-140437142D01*
X110203214Y-140341904D01*
X110203214Y-140056190D01*
X110155595Y-139960952D01*
X110107976Y-139913333D01*
X110012738Y-139865714D01*
X109822261Y-139865714D01*
X109727023Y-139913333D01*
X108869880Y-140484761D02*
X108965119Y-140532380D01*
X109155595Y-140532380D01*
X109250833Y-140484761D01*
X109298452Y-140389523D01*
X109298452Y-140008571D01*
X109250833Y-139913333D01*
X109155595Y-139865714D01*
X108965119Y-139865714D01*
X108869880Y-139913333D01*
X108822261Y-140008571D01*
X108822261Y-140103809D01*
X109298452Y-140199047D01*
X108393690Y-140532380D02*
X108393690Y-139865714D01*
X108393690Y-140056190D02*
X108346071Y-139960952D01*
X108298452Y-139913333D01*
X108203214Y-139865714D01*
X108107976Y-139865714D01*
X107060357Y-140484761D02*
X106917500Y-140532380D01*
X106679404Y-140532380D01*
X106584166Y-140484761D01*
X106536547Y-140437142D01*
X106488928Y-140341904D01*
X106488928Y-140246666D01*
X106536547Y-140151428D01*
X106584166Y-140103809D01*
X106679404Y-140056190D01*
X106869880Y-140008571D01*
X106965119Y-139960952D01*
X107012738Y-139913333D01*
X107060357Y-139818095D01*
X107060357Y-139722857D01*
X107012738Y-139627619D01*
X106965119Y-139580000D01*
X106869880Y-139532380D01*
X106631785Y-139532380D01*
X106488928Y-139580000D01*
X105869880Y-139532380D02*
X105774642Y-139532380D01*
X105679404Y-139580000D01*
X105631785Y-139627619D01*
X105584166Y-139722857D01*
X105536547Y-139913333D01*
X105536547Y-140151428D01*
X105584166Y-140341904D01*
X105631785Y-140437142D01*
X105679404Y-140484761D01*
X105774642Y-140532380D01*
X105869880Y-140532380D01*
X105965119Y-140484761D01*
X106012738Y-140437142D01*
X106060357Y-140341904D01*
X106107976Y-140151428D01*
X106107976Y-139913333D01*
X106060357Y-139722857D01*
X106012738Y-139627619D01*
X105965119Y-139580000D01*
X105869880Y-139532380D01*
X104679404Y-139865714D02*
X104679404Y-140532380D01*
X104917500Y-139484761D02*
X105155595Y-140199047D01*
X104536547Y-140199047D01*
%LPC*%
D12*
X64000000Y-77000000D03*
X64000000Y-140000000D03*
X127000000Y-140000000D03*
X127000000Y-77000000D03*
D13*
X128905000Y-93980000D03*
X128905000Y-96520000D03*
X128905000Y-99060000D03*
X128905000Y-101600000D03*
X128905000Y-104140000D03*
X128905000Y-106680000D03*
X128905000Y-109220000D03*
X128905000Y-111760000D03*
D14*
X128905000Y-114300000D03*
D15*
X66040000Y-132175000D03*
D16*
X66040000Y-130175000D03*
D17*
X83820000Y-120650000D03*
X78740000Y-113030000D03*
X78740000Y-120650000D03*
D16*
X83820000Y-113030000D03*
D17*
X78740000Y-99695000D03*
X83820000Y-107315000D03*
X83820000Y-99695000D03*
D16*
X78740000Y-107315000D03*
D17*
X91440000Y-99695000D03*
X96520000Y-107315000D03*
X96520000Y-99695000D03*
D16*
X91440000Y-107315000D03*
D17*
X96520000Y-120650000D03*
X91440000Y-113030000D03*
X91440000Y-120650000D03*
D16*
X96520000Y-113030000D03*
X108585000Y-93980000D03*
D17*
X123825000Y-127000000D03*
X108585000Y-96520000D03*
X123825000Y-124460000D03*
X108585000Y-99060000D03*
X123825000Y-121920000D03*
X108585000Y-101600000D03*
X123825000Y-119380000D03*
X108585000Y-104140000D03*
X123825000Y-116840000D03*
X108585000Y-106680000D03*
X123825000Y-114300000D03*
X108585000Y-109220000D03*
X123825000Y-111760000D03*
X108585000Y-111760000D03*
X123825000Y-109220000D03*
X108585000Y-114300000D03*
X123825000Y-106680000D03*
X108585000Y-116840000D03*
X123825000Y-104140000D03*
X108585000Y-119380000D03*
X123825000Y-101600000D03*
X108585000Y-121920000D03*
X123825000Y-99060000D03*
X108585000Y-124460000D03*
X123825000Y-96520000D03*
X108585000Y-127000000D03*
X123825000Y-93980000D03*
X108585000Y-129540000D03*
X123825000Y-129540000D03*
D18*
X63500000Y-96520000D03*
D19*
X63500000Y-91520000D03*
X63500000Y-86520000D03*
D18*
X63500000Y-106680000D03*
D19*
X63500000Y-101680000D03*
X63500000Y-111760000D03*
X63500000Y-116760000D03*
D18*
X63500000Y-121760000D03*
D20*
X110410000Y-81280000D03*
D21*
X105410000Y-81280000D03*
D22*
X79375000Y-93980000D03*
D23*
X97155000Y-86360000D03*
X81915000Y-93980000D03*
X94615000Y-86360000D03*
X84455000Y-93980000D03*
X92075000Y-86360000D03*
X86995000Y-93980000D03*
X89535000Y-86360000D03*
X89535000Y-93980000D03*
X86995000Y-86360000D03*
X92075000Y-93980000D03*
X84455000Y-86360000D03*
X94615000Y-93980000D03*
X81915000Y-86360000D03*
X97155000Y-93980000D03*
X79375000Y-86360000D03*
X79375000Y-127000000D03*
X97155000Y-134620000D03*
X81915000Y-127000000D03*
X94615000Y-134620000D03*
X84455000Y-127000000D03*
X92075000Y-134620000D03*
X86995000Y-127000000D03*
X89535000Y-134620000D03*
X89535000Y-127000000D03*
X86995000Y-134620000D03*
X92075000Y-127000000D03*
X84455000Y-134620000D03*
X94615000Y-127000000D03*
X81915000Y-134620000D03*
X97155000Y-127000000D03*
D22*
X79375000Y-134620000D03*
M02*
