G04 #@! TF.GenerationSoftware,KiCad,Pcbnew,5.1.5+dfsg1-2build2*
G04 #@! TF.CreationDate,2022-06-06T13:39:04+02:00*
G04 #@! TF.ProjectId,Toro_Stepper_Differential,546f726f-5f53-4746-9570-7065725f4469,rev?*
G04 #@! TF.SameCoordinates,Original*
G04 #@! TF.FileFunction,Copper,L2,Bot*
G04 #@! TF.FilePolarity,Positive*
%FSLAX46Y46*%
G04 Gerber Fmt 4.6, Leading zero omitted, Abs format (unit mm)*
G04 Created by KiCad (PCBNEW 5.1.5+dfsg1-2build2) date 2022-06-06 13:39:04*
%MOMM*%
%LPD*%
G04 APERTURE LIST*
%ADD10O,1.700000X1.700000*%
%ADD11R,1.700000X1.700000*%
%ADD12C,1.600000*%
%ADD13R,1.600000X1.600000*%
%ADD14O,1.600000X1.600000*%
%ADD15R,3.960000X1.980000*%
%ADD16O,3.960000X1.980000*%
%ADD17O,1.980000X3.960000*%
%ADD18R,1.980000X3.960000*%
%ADD19R,1.600000X2.400000*%
%ADD20O,1.600000X2.400000*%
%ADD21C,0.800000*%
%ADD22C,0.250000*%
%ADD23C,0.500000*%
%ADD24C,0.254000*%
G04 APERTURE END LIST*
D10*
X128905000Y-93980000D03*
X128905000Y-96520000D03*
X128905000Y-99060000D03*
X128905000Y-101600000D03*
X128905000Y-104140000D03*
X128905000Y-106680000D03*
X128905000Y-109220000D03*
X128905000Y-111760000D03*
D11*
X128905000Y-114300000D03*
D12*
X66040000Y-132175000D03*
D13*
X66040000Y-130175000D03*
D14*
X83820000Y-120650000D03*
X78740000Y-113030000D03*
X78740000Y-120650000D03*
D13*
X83820000Y-113030000D03*
D14*
X78740000Y-99695000D03*
X83820000Y-107315000D03*
X83820000Y-99695000D03*
D13*
X78740000Y-107315000D03*
D14*
X91440000Y-99695000D03*
X96520000Y-107315000D03*
X96520000Y-99695000D03*
D13*
X91440000Y-107315000D03*
D14*
X96520000Y-120650000D03*
X91440000Y-113030000D03*
X91440000Y-120650000D03*
D13*
X96520000Y-113030000D03*
X108585000Y-93980000D03*
D14*
X123825000Y-127000000D03*
X108585000Y-96520000D03*
X123825000Y-124460000D03*
X108585000Y-99060000D03*
X123825000Y-121920000D03*
X108585000Y-101600000D03*
X123825000Y-119380000D03*
X108585000Y-104140000D03*
X123825000Y-116840000D03*
X108585000Y-106680000D03*
X123825000Y-114300000D03*
X108585000Y-109220000D03*
X123825000Y-111760000D03*
X108585000Y-111760000D03*
X123825000Y-109220000D03*
X108585000Y-114300000D03*
X123825000Y-106680000D03*
X108585000Y-116840000D03*
X123825000Y-104140000D03*
X108585000Y-119380000D03*
X123825000Y-101600000D03*
X108585000Y-121920000D03*
X123825000Y-99060000D03*
X108585000Y-124460000D03*
X123825000Y-96520000D03*
X108585000Y-127000000D03*
X123825000Y-93980000D03*
X108585000Y-129540000D03*
X123825000Y-129540000D03*
D15*
X63500000Y-96520000D03*
D16*
X63500000Y-91520000D03*
X63500000Y-86520000D03*
D15*
X63500000Y-106680000D03*
D16*
X63500000Y-101680000D03*
X63500000Y-111760000D03*
X63500000Y-116760000D03*
D15*
X63500000Y-121760000D03*
D17*
X110410000Y-81280000D03*
D18*
X105410000Y-81280000D03*
D19*
X79375000Y-93980000D03*
D20*
X97155000Y-86360000D03*
X81915000Y-93980000D03*
X94615000Y-86360000D03*
X84455000Y-93980000D03*
X92075000Y-86360000D03*
X86995000Y-93980000D03*
X89535000Y-86360000D03*
X89535000Y-93980000D03*
X86995000Y-86360000D03*
X92075000Y-93980000D03*
X84455000Y-86360000D03*
X94615000Y-93980000D03*
X81915000Y-86360000D03*
X97155000Y-93980000D03*
X79375000Y-86360000D03*
X79375000Y-127000000D03*
X97155000Y-134620000D03*
X81915000Y-127000000D03*
X94615000Y-134620000D03*
X84455000Y-127000000D03*
X92075000Y-134620000D03*
X86995000Y-127000000D03*
X89535000Y-134620000D03*
X89535000Y-127000000D03*
X86995000Y-134620000D03*
X92075000Y-127000000D03*
X84455000Y-134620000D03*
X94615000Y-127000000D03*
X81915000Y-134620000D03*
X97155000Y-127000000D03*
D19*
X79375000Y-134620000D03*
D21*
X98425000Y-92075000D03*
X103505000Y-92075000D03*
X95885000Y-88265000D03*
X102235000Y-88265000D03*
X98425000Y-89535000D03*
X100965000Y-89535000D03*
X79375000Y-80010000D03*
X71755000Y-127000000D03*
X97064999Y-128814999D03*
X101690001Y-128814999D03*
X98425000Y-129540000D03*
X102870000Y-129540000D03*
X97155000Y-130810000D03*
X104140000Y-130810000D03*
X104140000Y-127000000D03*
X93345000Y-91440000D03*
X104775000Y-90805000D03*
X95045000Y-97790000D03*
X74295000Y-102235000D03*
X88265000Y-120650000D03*
X91440000Y-96520000D03*
X74295000Y-96520000D03*
X83820000Y-102870000D03*
X73025000Y-118745000D03*
X76200000Y-124460000D03*
D22*
X98425000Y-92075000D02*
X103505000Y-92075000D01*
X103505000Y-92075000D02*
X103505000Y-92075000D01*
X95885000Y-88265000D02*
X102235000Y-88265000D01*
X102235000Y-88265000D02*
X102235000Y-88265000D01*
X98425000Y-89535000D02*
X100965000Y-89535000D01*
X79375000Y-127000000D02*
X78325000Y-127000000D01*
X78325000Y-127000000D02*
X71755000Y-127000000D01*
X79375000Y-86360000D02*
X79375000Y-84910000D01*
X79375000Y-84910000D02*
X79375000Y-80010000D01*
X79375000Y-80010000D02*
X79375000Y-80010000D01*
X71755000Y-127000000D02*
X71755000Y-127000000D01*
X97064999Y-128814999D02*
X101690001Y-128814999D01*
X101690001Y-128814999D02*
X101690001Y-128814999D01*
X98425000Y-129540000D02*
X100965000Y-129540000D01*
X100965000Y-129540000D02*
X102870000Y-129540000D01*
X102870000Y-129540000D02*
X102870000Y-129540000D01*
X97155000Y-130810000D02*
X104140000Y-130810000D01*
X104140000Y-130810000D02*
X104140000Y-130810000D01*
X97155000Y-127000000D02*
X104140000Y-127000000D01*
X104140000Y-127000000D02*
X104140000Y-127000000D01*
X93345000Y-91440000D02*
X93980000Y-90805000D01*
X93980000Y-90805000D02*
X102870000Y-90805000D01*
X102870000Y-90805000D02*
X104775000Y-90805000D01*
X104775000Y-90805000D02*
X104775000Y-90805000D01*
D23*
X95045000Y-97790000D02*
X91494998Y-97790000D01*
X91494998Y-97790000D02*
X74930000Y-97790000D01*
X74930000Y-97790000D02*
X74295000Y-98425000D01*
X74295000Y-98425000D02*
X74295000Y-102235000D01*
X74295000Y-102235000D02*
X74295000Y-102235000D01*
X88265000Y-120650000D02*
X91440000Y-120650000D01*
X74295000Y-96520000D02*
X91440000Y-96520000D01*
X83820000Y-99695000D02*
X83820000Y-102870000D01*
X73025000Y-118745000D02*
X73025000Y-124460000D01*
X73025000Y-124460000D02*
X76200000Y-124460000D01*
D24*
G36*
X130683000Y-143383000D02*
G01*
X59182000Y-143383000D01*
X59182000Y-139779872D01*
X61765000Y-139779872D01*
X61765000Y-140220128D01*
X61850890Y-140651925D01*
X62019369Y-141058669D01*
X62263962Y-141424729D01*
X62575271Y-141736038D01*
X62941331Y-141980631D01*
X63348075Y-142149110D01*
X63779872Y-142235000D01*
X64220128Y-142235000D01*
X64651925Y-142149110D01*
X65058669Y-141980631D01*
X65424729Y-141736038D01*
X65736038Y-141424729D01*
X65980631Y-141058669D01*
X66149110Y-140651925D01*
X66235000Y-140220128D01*
X66235000Y-139779872D01*
X124765000Y-139779872D01*
X124765000Y-140220128D01*
X124850890Y-140651925D01*
X125019369Y-141058669D01*
X125263962Y-141424729D01*
X125575271Y-141736038D01*
X125941331Y-141980631D01*
X126348075Y-142149110D01*
X126779872Y-142235000D01*
X127220128Y-142235000D01*
X127651925Y-142149110D01*
X128058669Y-141980631D01*
X128424729Y-141736038D01*
X128736038Y-141424729D01*
X128980631Y-141058669D01*
X129149110Y-140651925D01*
X129235000Y-140220128D01*
X129235000Y-139779872D01*
X129149110Y-139348075D01*
X128980631Y-138941331D01*
X128736038Y-138575271D01*
X128424729Y-138263962D01*
X128058669Y-138019369D01*
X127651925Y-137850890D01*
X127220128Y-137765000D01*
X126779872Y-137765000D01*
X126348075Y-137850890D01*
X125941331Y-138019369D01*
X125575271Y-138263962D01*
X125263962Y-138575271D01*
X125019369Y-138941331D01*
X124850890Y-139348075D01*
X124765000Y-139779872D01*
X66235000Y-139779872D01*
X66149110Y-139348075D01*
X65980631Y-138941331D01*
X65736038Y-138575271D01*
X65424729Y-138263962D01*
X65058669Y-138019369D01*
X64651925Y-137850890D01*
X64220128Y-137765000D01*
X63779872Y-137765000D01*
X63348075Y-137850890D01*
X62941331Y-138019369D01*
X62575271Y-138263962D01*
X62263962Y-138575271D01*
X62019369Y-138941331D01*
X61850890Y-139348075D01*
X61765000Y-139779872D01*
X59182000Y-139779872D01*
X59182000Y-133167702D01*
X65226903Y-133167702D01*
X65298486Y-133411671D01*
X65553996Y-133532571D01*
X65828184Y-133601300D01*
X66110512Y-133615217D01*
X66390130Y-133573787D01*
X66656292Y-133478603D01*
X66765931Y-133420000D01*
X77936928Y-133420000D01*
X77936928Y-135820000D01*
X77949188Y-135944482D01*
X77985498Y-136064180D01*
X78044463Y-136174494D01*
X78123815Y-136271185D01*
X78220506Y-136350537D01*
X78330820Y-136409502D01*
X78450518Y-136445812D01*
X78575000Y-136458072D01*
X80175000Y-136458072D01*
X80299482Y-136445812D01*
X80419180Y-136409502D01*
X80529494Y-136350537D01*
X80626185Y-136271185D01*
X80705537Y-136174494D01*
X80764502Y-136064180D01*
X80800812Y-135944482D01*
X80802581Y-135926517D01*
X80895393Y-136039608D01*
X81113900Y-136218932D01*
X81363193Y-136352182D01*
X81633692Y-136434236D01*
X81915000Y-136461943D01*
X82196309Y-136434236D01*
X82466808Y-136352182D01*
X82716101Y-136218932D01*
X82934608Y-136039608D01*
X83113932Y-135821101D01*
X83185000Y-135688142D01*
X83256068Y-135821101D01*
X83435393Y-136039608D01*
X83653900Y-136218932D01*
X83903193Y-136352182D01*
X84173692Y-136434236D01*
X84455000Y-136461943D01*
X84736309Y-136434236D01*
X85006808Y-136352182D01*
X85256101Y-136218932D01*
X85474608Y-136039608D01*
X85653932Y-135821101D01*
X85722265Y-135693259D01*
X85872399Y-135922839D01*
X86070105Y-136124500D01*
X86303354Y-136283715D01*
X86563182Y-136394367D01*
X86645961Y-136411904D01*
X86868000Y-136289915D01*
X86868000Y-134747000D01*
X87122000Y-134747000D01*
X87122000Y-136289915D01*
X87344039Y-136411904D01*
X87426818Y-136394367D01*
X87686646Y-136283715D01*
X87919895Y-136124500D01*
X88117601Y-135922839D01*
X88265000Y-135697441D01*
X88412399Y-135922839D01*
X88610105Y-136124500D01*
X88843354Y-136283715D01*
X89103182Y-136394367D01*
X89185961Y-136411904D01*
X89408000Y-136289915D01*
X89408000Y-134747000D01*
X87122000Y-134747000D01*
X86868000Y-134747000D01*
X86848000Y-134747000D01*
X86848000Y-134493000D01*
X86868000Y-134493000D01*
X86868000Y-132950085D01*
X87122000Y-132950085D01*
X87122000Y-134493000D01*
X89408000Y-134493000D01*
X89408000Y-132950085D01*
X89662000Y-132950085D01*
X89662000Y-134493000D01*
X89682000Y-134493000D01*
X89682000Y-134747000D01*
X89662000Y-134747000D01*
X89662000Y-136289915D01*
X89884039Y-136411904D01*
X89966818Y-136394367D01*
X90226646Y-136283715D01*
X90459895Y-136124500D01*
X90657601Y-135922839D01*
X90807735Y-135693259D01*
X90876068Y-135821101D01*
X91055393Y-136039608D01*
X91273900Y-136218932D01*
X91523193Y-136352182D01*
X91793692Y-136434236D01*
X92075000Y-136461943D01*
X92356309Y-136434236D01*
X92626808Y-136352182D01*
X92876101Y-136218932D01*
X93094608Y-136039608D01*
X93273932Y-135821101D01*
X93345000Y-135688142D01*
X93416068Y-135821101D01*
X93595393Y-136039608D01*
X93813900Y-136218932D01*
X94063193Y-136352182D01*
X94333692Y-136434236D01*
X94615000Y-136461943D01*
X94896309Y-136434236D01*
X95166808Y-136352182D01*
X95416101Y-136218932D01*
X95634608Y-136039608D01*
X95813932Y-135821101D01*
X95885000Y-135688142D01*
X95956068Y-135821101D01*
X96135393Y-136039608D01*
X96353900Y-136218932D01*
X96603193Y-136352182D01*
X96873692Y-136434236D01*
X97155000Y-136461943D01*
X97436309Y-136434236D01*
X97706808Y-136352182D01*
X97956101Y-136218932D01*
X98174608Y-136039608D01*
X98353932Y-135821101D01*
X98487182Y-135571808D01*
X98569236Y-135301309D01*
X98590000Y-135090491D01*
X98590000Y-134149508D01*
X98569236Y-133938691D01*
X98487182Y-133668192D01*
X98353932Y-133418899D01*
X98174607Y-133200392D01*
X97956100Y-133021068D01*
X97706807Y-132887818D01*
X97436308Y-132805764D01*
X97155000Y-132778057D01*
X96873691Y-132805764D01*
X96603192Y-132887818D01*
X96353899Y-133021068D01*
X96135392Y-133200393D01*
X95956068Y-133418900D01*
X95885000Y-133551858D01*
X95813932Y-133418899D01*
X95634607Y-133200392D01*
X95416100Y-133021068D01*
X95166807Y-132887818D01*
X94896308Y-132805764D01*
X94615000Y-132778057D01*
X94333691Y-132805764D01*
X94063192Y-132887818D01*
X93813899Y-133021068D01*
X93595392Y-133200393D01*
X93416068Y-133418900D01*
X93345000Y-133551858D01*
X93273932Y-133418899D01*
X93094607Y-133200392D01*
X92876100Y-133021068D01*
X92626807Y-132887818D01*
X92356308Y-132805764D01*
X92075000Y-132778057D01*
X91793691Y-132805764D01*
X91523192Y-132887818D01*
X91273899Y-133021068D01*
X91055392Y-133200393D01*
X90876068Y-133418900D01*
X90807735Y-133546742D01*
X90657601Y-133317161D01*
X90459895Y-133115500D01*
X90226646Y-132956285D01*
X89966818Y-132845633D01*
X89884039Y-132828096D01*
X89662000Y-132950085D01*
X89408000Y-132950085D01*
X89185961Y-132828096D01*
X89103182Y-132845633D01*
X88843354Y-132956285D01*
X88610105Y-133115500D01*
X88412399Y-133317161D01*
X88265000Y-133542559D01*
X88117601Y-133317161D01*
X87919895Y-133115500D01*
X87686646Y-132956285D01*
X87426818Y-132845633D01*
X87344039Y-132828096D01*
X87122000Y-132950085D01*
X86868000Y-132950085D01*
X86645961Y-132828096D01*
X86563182Y-132845633D01*
X86303354Y-132956285D01*
X86070105Y-133115500D01*
X85872399Y-133317161D01*
X85722265Y-133546741D01*
X85653932Y-133418899D01*
X85474607Y-133200392D01*
X85256100Y-133021068D01*
X85006807Y-132887818D01*
X84736308Y-132805764D01*
X84455000Y-132778057D01*
X84173691Y-132805764D01*
X83903192Y-132887818D01*
X83653899Y-133021068D01*
X83435392Y-133200393D01*
X83256068Y-133418900D01*
X83185000Y-133551858D01*
X83113932Y-133418899D01*
X82934607Y-133200392D01*
X82716100Y-133021068D01*
X82466807Y-132887818D01*
X82196308Y-132805764D01*
X81915000Y-132778057D01*
X81633691Y-132805764D01*
X81363192Y-132887818D01*
X81113899Y-133021068D01*
X80895392Y-133200393D01*
X80802581Y-133313483D01*
X80800812Y-133295518D01*
X80764502Y-133175820D01*
X80705537Y-133065506D01*
X80626185Y-132968815D01*
X80529494Y-132889463D01*
X80419180Y-132830498D01*
X80299482Y-132794188D01*
X80175000Y-132781928D01*
X78575000Y-132781928D01*
X78450518Y-132794188D01*
X78330820Y-132830498D01*
X78220506Y-132889463D01*
X78123815Y-132968815D01*
X78044463Y-133065506D01*
X77985498Y-133175820D01*
X77949188Y-133295518D01*
X77936928Y-133420000D01*
X66765931Y-133420000D01*
X66781514Y-133411671D01*
X66853097Y-133167702D01*
X66040000Y-132354605D01*
X65226903Y-133167702D01*
X59182000Y-133167702D01*
X59182000Y-132245512D01*
X64599783Y-132245512D01*
X64641213Y-132525130D01*
X64736397Y-132791292D01*
X64803329Y-132916514D01*
X65047298Y-132988097D01*
X65860395Y-132175000D01*
X65846253Y-132160858D01*
X66025858Y-131981253D01*
X66040000Y-131995395D01*
X66054143Y-131981253D01*
X66233748Y-132160858D01*
X66219605Y-132175000D01*
X67032702Y-132988097D01*
X67276671Y-132916514D01*
X67397571Y-132661004D01*
X67466300Y-132386816D01*
X67480217Y-132104488D01*
X67438787Y-131824870D01*
X67343603Y-131558708D01*
X67278384Y-131436691D01*
X67291185Y-131426185D01*
X67370537Y-131329494D01*
X67429502Y-131219180D01*
X67465812Y-131099482D01*
X67478072Y-130975000D01*
X67478072Y-129375000D01*
X67465812Y-129250518D01*
X67429502Y-129130820D01*
X67370537Y-129020506D01*
X67291185Y-128923815D01*
X67194494Y-128844463D01*
X67084180Y-128785498D01*
X66964482Y-128749188D01*
X66840000Y-128736928D01*
X65240000Y-128736928D01*
X65115518Y-128749188D01*
X64995820Y-128785498D01*
X64885506Y-128844463D01*
X64788815Y-128923815D01*
X64709463Y-129020506D01*
X64650498Y-129130820D01*
X64614188Y-129250518D01*
X64601928Y-129375000D01*
X64601928Y-130975000D01*
X64614188Y-131099482D01*
X64650498Y-131219180D01*
X64709463Y-131329494D01*
X64788815Y-131426185D01*
X64801758Y-131436807D01*
X64682429Y-131688996D01*
X64613700Y-131963184D01*
X64599783Y-132245512D01*
X59182000Y-132245512D01*
X59182000Y-126898061D01*
X70720000Y-126898061D01*
X70720000Y-127101939D01*
X70759774Y-127301898D01*
X70837795Y-127490256D01*
X70951063Y-127659774D01*
X71095226Y-127803937D01*
X71264744Y-127917205D01*
X71453102Y-127995226D01*
X71653061Y-128035000D01*
X71856939Y-128035000D01*
X72056898Y-127995226D01*
X72245256Y-127917205D01*
X72414774Y-127803937D01*
X72458711Y-127760000D01*
X77984634Y-127760000D01*
X78042818Y-127951808D01*
X78176068Y-128201101D01*
X78355393Y-128419608D01*
X78573900Y-128598932D01*
X78823193Y-128732182D01*
X79093692Y-128814236D01*
X79375000Y-128841943D01*
X79656309Y-128814236D01*
X79926808Y-128732182D01*
X80176101Y-128598932D01*
X80394608Y-128419608D01*
X80573932Y-128201101D01*
X80645000Y-128068142D01*
X80716068Y-128201101D01*
X80895393Y-128419608D01*
X81113900Y-128598932D01*
X81363193Y-128732182D01*
X81633692Y-128814236D01*
X81915000Y-128841943D01*
X82196309Y-128814236D01*
X82466808Y-128732182D01*
X82716101Y-128598932D01*
X82934608Y-128419608D01*
X83113932Y-128201101D01*
X83185000Y-128068142D01*
X83256068Y-128201101D01*
X83435393Y-128419608D01*
X83653900Y-128598932D01*
X83903193Y-128732182D01*
X84173692Y-128814236D01*
X84455000Y-128841943D01*
X84736309Y-128814236D01*
X85006808Y-128732182D01*
X85256101Y-128598932D01*
X85474608Y-128419608D01*
X85653932Y-128201101D01*
X85722265Y-128073259D01*
X85872399Y-128302839D01*
X86070105Y-128504500D01*
X86303354Y-128663715D01*
X86563182Y-128774367D01*
X86645961Y-128791904D01*
X86868000Y-128669915D01*
X86868000Y-127127000D01*
X87122000Y-127127000D01*
X87122000Y-128669915D01*
X87344039Y-128791904D01*
X87426818Y-128774367D01*
X87686646Y-128663715D01*
X87919895Y-128504500D01*
X88117601Y-128302839D01*
X88265000Y-128077441D01*
X88412399Y-128302839D01*
X88610105Y-128504500D01*
X88843354Y-128663715D01*
X89103182Y-128774367D01*
X89185961Y-128791904D01*
X89408000Y-128669915D01*
X89408000Y-127127000D01*
X87122000Y-127127000D01*
X86868000Y-127127000D01*
X86848000Y-127127000D01*
X86848000Y-126873000D01*
X86868000Y-126873000D01*
X86868000Y-125330085D01*
X87122000Y-125330085D01*
X87122000Y-126873000D01*
X89408000Y-126873000D01*
X89408000Y-125330085D01*
X89662000Y-125330085D01*
X89662000Y-126873000D01*
X89682000Y-126873000D01*
X89682000Y-127127000D01*
X89662000Y-127127000D01*
X89662000Y-128669915D01*
X89884039Y-128791904D01*
X89966818Y-128774367D01*
X90226646Y-128663715D01*
X90459895Y-128504500D01*
X90657601Y-128302839D01*
X90807735Y-128073259D01*
X90876068Y-128201101D01*
X91055393Y-128419608D01*
X91273900Y-128598932D01*
X91523193Y-128732182D01*
X91793692Y-128814236D01*
X92075000Y-128841943D01*
X92356309Y-128814236D01*
X92626808Y-128732182D01*
X92876101Y-128598932D01*
X93094608Y-128419608D01*
X93273932Y-128201101D01*
X93345000Y-128068142D01*
X93416068Y-128201101D01*
X93595393Y-128419608D01*
X93813900Y-128598932D01*
X94063193Y-128732182D01*
X94333692Y-128814236D01*
X94615000Y-128841943D01*
X94896309Y-128814236D01*
X95166808Y-128732182D01*
X95416101Y-128598932D01*
X95634608Y-128419608D01*
X95813932Y-128201101D01*
X95885000Y-128068142D01*
X95956068Y-128201101D01*
X96117520Y-128397830D01*
X96069773Y-128513101D01*
X96029999Y-128713060D01*
X96029999Y-128916938D01*
X96069773Y-129116897D01*
X96147794Y-129305255D01*
X96261062Y-129474773D01*
X96405225Y-129618936D01*
X96574743Y-129732204D01*
X96763101Y-129810225D01*
X96831323Y-129823795D01*
X96664744Y-129892795D01*
X96495226Y-130006063D01*
X96351063Y-130150226D01*
X96237795Y-130319744D01*
X96159774Y-130508102D01*
X96120000Y-130708061D01*
X96120000Y-130911939D01*
X96159774Y-131111898D01*
X96237795Y-131300256D01*
X96351063Y-131469774D01*
X96495226Y-131613937D01*
X96664744Y-131727205D01*
X96853102Y-131805226D01*
X97053061Y-131845000D01*
X97256939Y-131845000D01*
X97456898Y-131805226D01*
X97645256Y-131727205D01*
X97814774Y-131613937D01*
X97858711Y-131570000D01*
X103436289Y-131570000D01*
X103480226Y-131613937D01*
X103649744Y-131727205D01*
X103838102Y-131805226D01*
X104038061Y-131845000D01*
X104241939Y-131845000D01*
X104441898Y-131805226D01*
X104630256Y-131727205D01*
X104799774Y-131613937D01*
X104943937Y-131469774D01*
X105057205Y-131300256D01*
X105135226Y-131111898D01*
X105175000Y-130911939D01*
X105175000Y-130708061D01*
X105135226Y-130508102D01*
X105057205Y-130319744D01*
X104943937Y-130150226D01*
X104799774Y-130006063D01*
X104630256Y-129892795D01*
X104441898Y-129814774D01*
X104241939Y-129775000D01*
X104038061Y-129775000D01*
X103871961Y-129808039D01*
X103905000Y-129641939D01*
X103905000Y-129438061D01*
X103865226Y-129238102D01*
X103787205Y-129049744D01*
X103673937Y-128880226D01*
X103529774Y-128736063D01*
X103360256Y-128622795D01*
X103171898Y-128544774D01*
X102971939Y-128505000D01*
X102768061Y-128505000D01*
X102686830Y-128521158D01*
X102685227Y-128513101D01*
X102607206Y-128324743D01*
X102493938Y-128155225D01*
X102349775Y-128011062D01*
X102180257Y-127897794D01*
X101991899Y-127819773D01*
X101791940Y-127779999D01*
X101588062Y-127779999D01*
X101388103Y-127819773D01*
X101199745Y-127897794D01*
X101030227Y-128011062D01*
X100986290Y-128054999D01*
X98432025Y-128054999D01*
X98487182Y-127951808D01*
X98545366Y-127760000D01*
X103436289Y-127760000D01*
X103480226Y-127803937D01*
X103649744Y-127917205D01*
X103838102Y-127995226D01*
X104038061Y-128035000D01*
X104241939Y-128035000D01*
X104441898Y-127995226D01*
X104630256Y-127917205D01*
X104799774Y-127803937D01*
X104943937Y-127659774D01*
X105057205Y-127490256D01*
X105135226Y-127301898D01*
X105175000Y-127101939D01*
X105175000Y-126898061D01*
X105135226Y-126698102D01*
X105057205Y-126509744D01*
X104943937Y-126340226D01*
X104799774Y-126196063D01*
X104630256Y-126082795D01*
X104441898Y-126004774D01*
X104241939Y-125965000D01*
X104038061Y-125965000D01*
X103838102Y-126004774D01*
X103649744Y-126082795D01*
X103480226Y-126196063D01*
X103436289Y-126240000D01*
X98545366Y-126240000D01*
X98487182Y-126048192D01*
X98353932Y-125798899D01*
X98174607Y-125580392D01*
X97956100Y-125401068D01*
X97706807Y-125267818D01*
X97436308Y-125185764D01*
X97155000Y-125158057D01*
X96873691Y-125185764D01*
X96603192Y-125267818D01*
X96353899Y-125401068D01*
X96135392Y-125580393D01*
X95956068Y-125798900D01*
X95885000Y-125931858D01*
X95813932Y-125798899D01*
X95634607Y-125580392D01*
X95416100Y-125401068D01*
X95166807Y-125267818D01*
X94896308Y-125185764D01*
X94615000Y-125158057D01*
X94333691Y-125185764D01*
X94063192Y-125267818D01*
X93813899Y-125401068D01*
X93595392Y-125580393D01*
X93416068Y-125798900D01*
X93345000Y-125931858D01*
X93273932Y-125798899D01*
X93094607Y-125580392D01*
X92876100Y-125401068D01*
X92626807Y-125267818D01*
X92356308Y-125185764D01*
X92075000Y-125158057D01*
X91793691Y-125185764D01*
X91523192Y-125267818D01*
X91273899Y-125401068D01*
X91055392Y-125580393D01*
X90876068Y-125798900D01*
X90807735Y-125926742D01*
X90657601Y-125697161D01*
X90459895Y-125495500D01*
X90226646Y-125336285D01*
X89966818Y-125225633D01*
X89884039Y-125208096D01*
X89662000Y-125330085D01*
X89408000Y-125330085D01*
X89185961Y-125208096D01*
X89103182Y-125225633D01*
X88843354Y-125336285D01*
X88610105Y-125495500D01*
X88412399Y-125697161D01*
X88265000Y-125922559D01*
X88117601Y-125697161D01*
X87919895Y-125495500D01*
X87686646Y-125336285D01*
X87426818Y-125225633D01*
X87344039Y-125208096D01*
X87122000Y-125330085D01*
X86868000Y-125330085D01*
X86645961Y-125208096D01*
X86563182Y-125225633D01*
X86303354Y-125336285D01*
X86070105Y-125495500D01*
X85872399Y-125697161D01*
X85722265Y-125926741D01*
X85653932Y-125798899D01*
X85474607Y-125580392D01*
X85256100Y-125401068D01*
X85006807Y-125267818D01*
X84736308Y-125185764D01*
X84455000Y-125158057D01*
X84173691Y-125185764D01*
X83903192Y-125267818D01*
X83653899Y-125401068D01*
X83435392Y-125580393D01*
X83256068Y-125798900D01*
X83185000Y-125931858D01*
X83113932Y-125798899D01*
X82934607Y-125580392D01*
X82716100Y-125401068D01*
X82466807Y-125267818D01*
X82196308Y-125185764D01*
X81915000Y-125158057D01*
X81633691Y-125185764D01*
X81363192Y-125267818D01*
X81113899Y-125401068D01*
X80895392Y-125580393D01*
X80716068Y-125798900D01*
X80645000Y-125931858D01*
X80573932Y-125798899D01*
X80394607Y-125580392D01*
X80176100Y-125401068D01*
X79926807Y-125267818D01*
X79656308Y-125185764D01*
X79375000Y-125158057D01*
X79093691Y-125185764D01*
X78823192Y-125267818D01*
X78573899Y-125401068D01*
X78355392Y-125580393D01*
X78176068Y-125798900D01*
X78042818Y-126048193D01*
X77984635Y-126240000D01*
X72458711Y-126240000D01*
X72414774Y-126196063D01*
X72245256Y-126082795D01*
X72056898Y-126004774D01*
X71856939Y-125965000D01*
X71653061Y-125965000D01*
X71453102Y-126004774D01*
X71264744Y-126082795D01*
X71095226Y-126196063D01*
X70951063Y-126340226D01*
X70837795Y-126509744D01*
X70759774Y-126698102D01*
X70720000Y-126898061D01*
X59182000Y-126898061D01*
X59182000Y-120770000D01*
X60881928Y-120770000D01*
X60881928Y-122750000D01*
X60894188Y-122874482D01*
X60930498Y-122994180D01*
X60989463Y-123104494D01*
X61068815Y-123201185D01*
X61165506Y-123280537D01*
X61275820Y-123339502D01*
X61395518Y-123375812D01*
X61520000Y-123388072D01*
X65480000Y-123388072D01*
X65604482Y-123375812D01*
X65724180Y-123339502D01*
X65834494Y-123280537D01*
X65931185Y-123201185D01*
X66010537Y-123104494D01*
X66069502Y-122994180D01*
X66105812Y-122874482D01*
X66118072Y-122750000D01*
X66118072Y-120770000D01*
X66105812Y-120645518D01*
X66069502Y-120525820D01*
X66010537Y-120415506D01*
X65931185Y-120318815D01*
X65834494Y-120239463D01*
X65724180Y-120180498D01*
X65604482Y-120144188D01*
X65480000Y-120131928D01*
X61520000Y-120131928D01*
X61395518Y-120144188D01*
X61275820Y-120180498D01*
X61165506Y-120239463D01*
X61068815Y-120318815D01*
X60989463Y-120415506D01*
X60930498Y-120525820D01*
X60894188Y-120645518D01*
X60881928Y-120770000D01*
X59182000Y-120770000D01*
X59182000Y-118643061D01*
X71990000Y-118643061D01*
X71990000Y-118846939D01*
X72029774Y-119046898D01*
X72107795Y-119235256D01*
X72140000Y-119283454D01*
X72140001Y-124416513D01*
X72135718Y-124460000D01*
X72152805Y-124633490D01*
X72203411Y-124800313D01*
X72285589Y-124954059D01*
X72396183Y-125088817D01*
X72530941Y-125199411D01*
X72684687Y-125281589D01*
X72851510Y-125332195D01*
X72981523Y-125345000D01*
X72981524Y-125345000D01*
X73025000Y-125349282D01*
X73068477Y-125345000D01*
X75661546Y-125345000D01*
X75709744Y-125377205D01*
X75898102Y-125455226D01*
X76098061Y-125495000D01*
X76301939Y-125495000D01*
X76501898Y-125455226D01*
X76690256Y-125377205D01*
X76859774Y-125263937D01*
X77003937Y-125119774D01*
X77117205Y-124950256D01*
X77195226Y-124761898D01*
X77235000Y-124561939D01*
X77235000Y-124358061D01*
X77195226Y-124158102D01*
X77117205Y-123969744D01*
X77003937Y-123800226D01*
X76859774Y-123656063D01*
X76690256Y-123542795D01*
X76501898Y-123464774D01*
X76301939Y-123425000D01*
X76098061Y-123425000D01*
X75898102Y-123464774D01*
X75709744Y-123542795D01*
X75661546Y-123575000D01*
X73910000Y-123575000D01*
X73910000Y-120508665D01*
X77305000Y-120508665D01*
X77305000Y-120791335D01*
X77360147Y-121068574D01*
X77468320Y-121329727D01*
X77625363Y-121564759D01*
X77825241Y-121764637D01*
X78060273Y-121921680D01*
X78321426Y-122029853D01*
X78598665Y-122085000D01*
X78881335Y-122085000D01*
X79158574Y-122029853D01*
X79419727Y-121921680D01*
X79654759Y-121764637D01*
X79854637Y-121564759D01*
X80011680Y-121329727D01*
X80119853Y-121068574D01*
X80175000Y-120791335D01*
X80175000Y-120508665D01*
X82385000Y-120508665D01*
X82385000Y-120791335D01*
X82440147Y-121068574D01*
X82548320Y-121329727D01*
X82705363Y-121564759D01*
X82905241Y-121764637D01*
X83140273Y-121921680D01*
X83401426Y-122029853D01*
X83678665Y-122085000D01*
X83961335Y-122085000D01*
X84238574Y-122029853D01*
X84499727Y-121921680D01*
X84734759Y-121764637D01*
X84934637Y-121564759D01*
X85091680Y-121329727D01*
X85199853Y-121068574D01*
X85255000Y-120791335D01*
X85255000Y-120548061D01*
X87230000Y-120548061D01*
X87230000Y-120751939D01*
X87269774Y-120951898D01*
X87347795Y-121140256D01*
X87461063Y-121309774D01*
X87605226Y-121453937D01*
X87774744Y-121567205D01*
X87963102Y-121645226D01*
X88163061Y-121685000D01*
X88366939Y-121685000D01*
X88566898Y-121645226D01*
X88755256Y-121567205D01*
X88803454Y-121535000D01*
X90305479Y-121535000D01*
X90325363Y-121564759D01*
X90525241Y-121764637D01*
X90760273Y-121921680D01*
X91021426Y-122029853D01*
X91298665Y-122085000D01*
X91581335Y-122085000D01*
X91858574Y-122029853D01*
X92119727Y-121921680D01*
X92354759Y-121764637D01*
X92554637Y-121564759D01*
X92711680Y-121329727D01*
X92819853Y-121068574D01*
X92875000Y-120791335D01*
X92875000Y-120508665D01*
X95085000Y-120508665D01*
X95085000Y-120791335D01*
X95140147Y-121068574D01*
X95248320Y-121329727D01*
X95405363Y-121564759D01*
X95605241Y-121764637D01*
X95840273Y-121921680D01*
X96101426Y-122029853D01*
X96378665Y-122085000D01*
X96661335Y-122085000D01*
X96938574Y-122029853D01*
X97199727Y-121921680D01*
X97434759Y-121764637D01*
X97634637Y-121564759D01*
X97791680Y-121329727D01*
X97899853Y-121068574D01*
X97955000Y-120791335D01*
X97955000Y-120508665D01*
X97899853Y-120231426D01*
X97791680Y-119970273D01*
X97634637Y-119735241D01*
X97434759Y-119535363D01*
X97199727Y-119378320D01*
X96938574Y-119270147D01*
X96661335Y-119215000D01*
X96378665Y-119215000D01*
X96101426Y-119270147D01*
X95840273Y-119378320D01*
X95605241Y-119535363D01*
X95405363Y-119735241D01*
X95248320Y-119970273D01*
X95140147Y-120231426D01*
X95085000Y-120508665D01*
X92875000Y-120508665D01*
X92819853Y-120231426D01*
X92711680Y-119970273D01*
X92554637Y-119735241D01*
X92354759Y-119535363D01*
X92119727Y-119378320D01*
X91858574Y-119270147D01*
X91581335Y-119215000D01*
X91298665Y-119215000D01*
X91021426Y-119270147D01*
X90760273Y-119378320D01*
X90525241Y-119535363D01*
X90325363Y-119735241D01*
X90305479Y-119765000D01*
X88803454Y-119765000D01*
X88755256Y-119732795D01*
X88566898Y-119654774D01*
X88366939Y-119615000D01*
X88163061Y-119615000D01*
X87963102Y-119654774D01*
X87774744Y-119732795D01*
X87605226Y-119846063D01*
X87461063Y-119990226D01*
X87347795Y-120159744D01*
X87269774Y-120348102D01*
X87230000Y-120548061D01*
X85255000Y-120548061D01*
X85255000Y-120508665D01*
X85199853Y-120231426D01*
X85091680Y-119970273D01*
X84934637Y-119735241D01*
X84734759Y-119535363D01*
X84499727Y-119378320D01*
X84238574Y-119270147D01*
X83961335Y-119215000D01*
X83678665Y-119215000D01*
X83401426Y-119270147D01*
X83140273Y-119378320D01*
X82905241Y-119535363D01*
X82705363Y-119735241D01*
X82548320Y-119970273D01*
X82440147Y-120231426D01*
X82385000Y-120508665D01*
X80175000Y-120508665D01*
X80119853Y-120231426D01*
X80011680Y-119970273D01*
X79854637Y-119735241D01*
X79654759Y-119535363D01*
X79419727Y-119378320D01*
X79158574Y-119270147D01*
X78881335Y-119215000D01*
X78598665Y-119215000D01*
X78321426Y-119270147D01*
X78060273Y-119378320D01*
X77825241Y-119535363D01*
X77625363Y-119735241D01*
X77468320Y-119970273D01*
X77360147Y-120231426D01*
X77305000Y-120508665D01*
X73910000Y-120508665D01*
X73910000Y-119283454D01*
X73942205Y-119235256D01*
X74020226Y-119046898D01*
X74060000Y-118846939D01*
X74060000Y-118643061D01*
X74020226Y-118443102D01*
X73942205Y-118254744D01*
X73828937Y-118085226D01*
X73684774Y-117941063D01*
X73515256Y-117827795D01*
X73326898Y-117749774D01*
X73126939Y-117710000D01*
X72923061Y-117710000D01*
X72723102Y-117749774D01*
X72534744Y-117827795D01*
X72365226Y-117941063D01*
X72221063Y-118085226D01*
X72107795Y-118254744D01*
X72029774Y-118443102D01*
X71990000Y-118643061D01*
X59182000Y-118643061D01*
X59182000Y-116760000D01*
X60877138Y-116760000D01*
X60908513Y-117078556D01*
X61001432Y-117384869D01*
X61152325Y-117667170D01*
X61355392Y-117914608D01*
X61602830Y-118117675D01*
X61885131Y-118268568D01*
X62191444Y-118361487D01*
X62430176Y-118385000D01*
X64569824Y-118385000D01*
X64808556Y-118361487D01*
X65114869Y-118268568D01*
X65397170Y-118117675D01*
X65644608Y-117914608D01*
X65847675Y-117667170D01*
X65998568Y-117384869D01*
X66091487Y-117078556D01*
X66122862Y-116760000D01*
X66091487Y-116441444D01*
X65998568Y-116135131D01*
X65847675Y-115852830D01*
X65644608Y-115605392D01*
X65397170Y-115402325D01*
X65114869Y-115251432D01*
X64808556Y-115158513D01*
X64569824Y-115135000D01*
X62430176Y-115135000D01*
X62191444Y-115158513D01*
X61885131Y-115251432D01*
X61602830Y-115402325D01*
X61355392Y-115605392D01*
X61152325Y-115852830D01*
X61001432Y-116135131D01*
X60908513Y-116441444D01*
X60877138Y-116760000D01*
X59182000Y-116760000D01*
X59182000Y-111760000D01*
X60877138Y-111760000D01*
X60908513Y-112078556D01*
X61001432Y-112384869D01*
X61152325Y-112667170D01*
X61355392Y-112914608D01*
X61602830Y-113117675D01*
X61885131Y-113268568D01*
X62191444Y-113361487D01*
X62430176Y-113385000D01*
X64569824Y-113385000D01*
X64630337Y-113379040D01*
X77348091Y-113379040D01*
X77442930Y-113643881D01*
X77587615Y-113885131D01*
X77776586Y-114093519D01*
X78002580Y-114261037D01*
X78256913Y-114381246D01*
X78390961Y-114421904D01*
X78613000Y-114299915D01*
X78613000Y-113157000D01*
X78867000Y-113157000D01*
X78867000Y-114299915D01*
X79089039Y-114421904D01*
X79223087Y-114381246D01*
X79477420Y-114261037D01*
X79703414Y-114093519D01*
X79892385Y-113885131D01*
X80037070Y-113643881D01*
X80131909Y-113379040D01*
X80010624Y-113157000D01*
X78867000Y-113157000D01*
X78613000Y-113157000D01*
X77469376Y-113157000D01*
X77348091Y-113379040D01*
X64630337Y-113379040D01*
X64808556Y-113361487D01*
X65114869Y-113268568D01*
X65397170Y-113117675D01*
X65644608Y-112914608D01*
X65836357Y-112680960D01*
X77348091Y-112680960D01*
X77469376Y-112903000D01*
X78613000Y-112903000D01*
X78613000Y-111760085D01*
X78867000Y-111760085D01*
X78867000Y-112903000D01*
X80010624Y-112903000D01*
X80131909Y-112680960D01*
X80037070Y-112416119D01*
X79925449Y-112230000D01*
X82381928Y-112230000D01*
X82381928Y-113830000D01*
X82394188Y-113954482D01*
X82430498Y-114074180D01*
X82489463Y-114184494D01*
X82568815Y-114281185D01*
X82665506Y-114360537D01*
X82775820Y-114419502D01*
X82895518Y-114455812D01*
X83020000Y-114468072D01*
X84620000Y-114468072D01*
X84744482Y-114455812D01*
X84864180Y-114419502D01*
X84974494Y-114360537D01*
X85071185Y-114281185D01*
X85150537Y-114184494D01*
X85209502Y-114074180D01*
X85245812Y-113954482D01*
X85258072Y-113830000D01*
X85258072Y-113379040D01*
X90048091Y-113379040D01*
X90142930Y-113643881D01*
X90287615Y-113885131D01*
X90476586Y-114093519D01*
X90702580Y-114261037D01*
X90956913Y-114381246D01*
X91090961Y-114421904D01*
X91313000Y-114299915D01*
X91313000Y-113157000D01*
X91567000Y-113157000D01*
X91567000Y-114299915D01*
X91789039Y-114421904D01*
X91923087Y-114381246D01*
X92177420Y-114261037D01*
X92403414Y-114093519D01*
X92592385Y-113885131D01*
X92737070Y-113643881D01*
X92831909Y-113379040D01*
X92710624Y-113157000D01*
X91567000Y-113157000D01*
X91313000Y-113157000D01*
X90169376Y-113157000D01*
X90048091Y-113379040D01*
X85258072Y-113379040D01*
X85258072Y-112680960D01*
X90048091Y-112680960D01*
X90169376Y-112903000D01*
X91313000Y-112903000D01*
X91313000Y-111760085D01*
X91567000Y-111760085D01*
X91567000Y-112903000D01*
X92710624Y-112903000D01*
X92831909Y-112680960D01*
X92737070Y-112416119D01*
X92625449Y-112230000D01*
X95081928Y-112230000D01*
X95081928Y-113830000D01*
X95094188Y-113954482D01*
X95130498Y-114074180D01*
X95189463Y-114184494D01*
X95268815Y-114281185D01*
X95365506Y-114360537D01*
X95475820Y-114419502D01*
X95595518Y-114455812D01*
X95720000Y-114468072D01*
X97320000Y-114468072D01*
X97444482Y-114455812D01*
X97564180Y-114419502D01*
X97674494Y-114360537D01*
X97771185Y-114281185D01*
X97850537Y-114184494D01*
X97909502Y-114074180D01*
X97945812Y-113954482D01*
X97958072Y-113830000D01*
X97958072Y-112230000D01*
X97945812Y-112105518D01*
X97909502Y-111985820D01*
X97850537Y-111875506D01*
X97771185Y-111778815D01*
X97674494Y-111699463D01*
X97564180Y-111640498D01*
X97444482Y-111604188D01*
X97320000Y-111591928D01*
X95720000Y-111591928D01*
X95595518Y-111604188D01*
X95475820Y-111640498D01*
X95365506Y-111699463D01*
X95268815Y-111778815D01*
X95189463Y-111875506D01*
X95130498Y-111985820D01*
X95094188Y-112105518D01*
X95081928Y-112230000D01*
X92625449Y-112230000D01*
X92592385Y-112174869D01*
X92403414Y-111966481D01*
X92177420Y-111798963D01*
X91923087Y-111678754D01*
X91789039Y-111638096D01*
X91567000Y-111760085D01*
X91313000Y-111760085D01*
X91090961Y-111638096D01*
X90956913Y-111678754D01*
X90702580Y-111798963D01*
X90476586Y-111966481D01*
X90287615Y-112174869D01*
X90142930Y-112416119D01*
X90048091Y-112680960D01*
X85258072Y-112680960D01*
X85258072Y-112230000D01*
X85245812Y-112105518D01*
X85209502Y-111985820D01*
X85150537Y-111875506D01*
X85071185Y-111778815D01*
X84974494Y-111699463D01*
X84864180Y-111640498D01*
X84744482Y-111604188D01*
X84620000Y-111591928D01*
X83020000Y-111591928D01*
X82895518Y-111604188D01*
X82775820Y-111640498D01*
X82665506Y-111699463D01*
X82568815Y-111778815D01*
X82489463Y-111875506D01*
X82430498Y-111985820D01*
X82394188Y-112105518D01*
X82381928Y-112230000D01*
X79925449Y-112230000D01*
X79892385Y-112174869D01*
X79703414Y-111966481D01*
X79477420Y-111798963D01*
X79223087Y-111678754D01*
X79089039Y-111638096D01*
X78867000Y-111760085D01*
X78613000Y-111760085D01*
X78390961Y-111638096D01*
X78256913Y-111678754D01*
X78002580Y-111798963D01*
X77776586Y-111966481D01*
X77587615Y-112174869D01*
X77442930Y-112416119D01*
X77348091Y-112680960D01*
X65836357Y-112680960D01*
X65847675Y-112667170D01*
X65998568Y-112384869D01*
X66091487Y-112078556D01*
X66122862Y-111760000D01*
X66091487Y-111441444D01*
X65998568Y-111135131D01*
X65847675Y-110852830D01*
X65644608Y-110605392D01*
X65397170Y-110402325D01*
X65114869Y-110251432D01*
X64808556Y-110158513D01*
X64569824Y-110135000D01*
X62430176Y-110135000D01*
X62191444Y-110158513D01*
X61885131Y-110251432D01*
X61602830Y-110402325D01*
X61355392Y-110605392D01*
X61152325Y-110852830D01*
X61001432Y-111135131D01*
X60908513Y-111441444D01*
X60877138Y-111760000D01*
X59182000Y-111760000D01*
X59182000Y-105690000D01*
X60881928Y-105690000D01*
X60881928Y-107670000D01*
X60894188Y-107794482D01*
X60930498Y-107914180D01*
X60989463Y-108024494D01*
X61068815Y-108121185D01*
X61165506Y-108200537D01*
X61275820Y-108259502D01*
X61395518Y-108295812D01*
X61520000Y-108308072D01*
X65480000Y-108308072D01*
X65604482Y-108295812D01*
X65724180Y-108259502D01*
X65834494Y-108200537D01*
X65931185Y-108121185D01*
X66010537Y-108024494D01*
X66069502Y-107914180D01*
X66105812Y-107794482D01*
X66118072Y-107670000D01*
X66118072Y-106515000D01*
X77301928Y-106515000D01*
X77301928Y-108115000D01*
X77314188Y-108239482D01*
X77350498Y-108359180D01*
X77409463Y-108469494D01*
X77488815Y-108566185D01*
X77585506Y-108645537D01*
X77695820Y-108704502D01*
X77815518Y-108740812D01*
X77940000Y-108753072D01*
X79540000Y-108753072D01*
X79664482Y-108740812D01*
X79784180Y-108704502D01*
X79894494Y-108645537D01*
X79991185Y-108566185D01*
X80070537Y-108469494D01*
X80129502Y-108359180D01*
X80165812Y-108239482D01*
X80178072Y-108115000D01*
X80178072Y-107664040D01*
X82428091Y-107664040D01*
X82522930Y-107928881D01*
X82667615Y-108170131D01*
X82856586Y-108378519D01*
X83082580Y-108546037D01*
X83336913Y-108666246D01*
X83470961Y-108706904D01*
X83693000Y-108584915D01*
X83693000Y-107442000D01*
X83947000Y-107442000D01*
X83947000Y-108584915D01*
X84169039Y-108706904D01*
X84303087Y-108666246D01*
X84557420Y-108546037D01*
X84783414Y-108378519D01*
X84972385Y-108170131D01*
X85117070Y-107928881D01*
X85211909Y-107664040D01*
X85090624Y-107442000D01*
X83947000Y-107442000D01*
X83693000Y-107442000D01*
X82549376Y-107442000D01*
X82428091Y-107664040D01*
X80178072Y-107664040D01*
X80178072Y-106965960D01*
X82428091Y-106965960D01*
X82549376Y-107188000D01*
X83693000Y-107188000D01*
X83693000Y-106045085D01*
X83947000Y-106045085D01*
X83947000Y-107188000D01*
X85090624Y-107188000D01*
X85211909Y-106965960D01*
X85117070Y-106701119D01*
X85005449Y-106515000D01*
X90001928Y-106515000D01*
X90001928Y-108115000D01*
X90014188Y-108239482D01*
X90050498Y-108359180D01*
X90109463Y-108469494D01*
X90188815Y-108566185D01*
X90285506Y-108645537D01*
X90395820Y-108704502D01*
X90515518Y-108740812D01*
X90640000Y-108753072D01*
X92240000Y-108753072D01*
X92364482Y-108740812D01*
X92484180Y-108704502D01*
X92594494Y-108645537D01*
X92691185Y-108566185D01*
X92770537Y-108469494D01*
X92829502Y-108359180D01*
X92865812Y-108239482D01*
X92878072Y-108115000D01*
X92878072Y-107664040D01*
X95128091Y-107664040D01*
X95222930Y-107928881D01*
X95367615Y-108170131D01*
X95556586Y-108378519D01*
X95782580Y-108546037D01*
X96036913Y-108666246D01*
X96170961Y-108706904D01*
X96393000Y-108584915D01*
X96393000Y-107442000D01*
X96647000Y-107442000D01*
X96647000Y-108584915D01*
X96869039Y-108706904D01*
X97003087Y-108666246D01*
X97257420Y-108546037D01*
X97483414Y-108378519D01*
X97672385Y-108170131D01*
X97817070Y-107928881D01*
X97911909Y-107664040D01*
X97790624Y-107442000D01*
X96647000Y-107442000D01*
X96393000Y-107442000D01*
X95249376Y-107442000D01*
X95128091Y-107664040D01*
X92878072Y-107664040D01*
X92878072Y-106965960D01*
X95128091Y-106965960D01*
X95249376Y-107188000D01*
X96393000Y-107188000D01*
X96393000Y-106045085D01*
X96647000Y-106045085D01*
X96647000Y-107188000D01*
X97790624Y-107188000D01*
X97911909Y-106965960D01*
X97817070Y-106701119D01*
X97672385Y-106459869D01*
X97483414Y-106251481D01*
X97257420Y-106083963D01*
X97003087Y-105963754D01*
X96869039Y-105923096D01*
X96647000Y-106045085D01*
X96393000Y-106045085D01*
X96170961Y-105923096D01*
X96036913Y-105963754D01*
X95782580Y-106083963D01*
X95556586Y-106251481D01*
X95367615Y-106459869D01*
X95222930Y-106701119D01*
X95128091Y-106965960D01*
X92878072Y-106965960D01*
X92878072Y-106515000D01*
X92865812Y-106390518D01*
X92829502Y-106270820D01*
X92770537Y-106160506D01*
X92691185Y-106063815D01*
X92594494Y-105984463D01*
X92484180Y-105925498D01*
X92364482Y-105889188D01*
X92240000Y-105876928D01*
X90640000Y-105876928D01*
X90515518Y-105889188D01*
X90395820Y-105925498D01*
X90285506Y-105984463D01*
X90188815Y-106063815D01*
X90109463Y-106160506D01*
X90050498Y-106270820D01*
X90014188Y-106390518D01*
X90001928Y-106515000D01*
X85005449Y-106515000D01*
X84972385Y-106459869D01*
X84783414Y-106251481D01*
X84557420Y-106083963D01*
X84303087Y-105963754D01*
X84169039Y-105923096D01*
X83947000Y-106045085D01*
X83693000Y-106045085D01*
X83470961Y-105923096D01*
X83336913Y-105963754D01*
X83082580Y-106083963D01*
X82856586Y-106251481D01*
X82667615Y-106459869D01*
X82522930Y-106701119D01*
X82428091Y-106965960D01*
X80178072Y-106965960D01*
X80178072Y-106515000D01*
X80165812Y-106390518D01*
X80129502Y-106270820D01*
X80070537Y-106160506D01*
X79991185Y-106063815D01*
X79894494Y-105984463D01*
X79784180Y-105925498D01*
X79664482Y-105889188D01*
X79540000Y-105876928D01*
X77940000Y-105876928D01*
X77815518Y-105889188D01*
X77695820Y-105925498D01*
X77585506Y-105984463D01*
X77488815Y-106063815D01*
X77409463Y-106160506D01*
X77350498Y-106270820D01*
X77314188Y-106390518D01*
X77301928Y-106515000D01*
X66118072Y-106515000D01*
X66118072Y-105690000D01*
X66105812Y-105565518D01*
X66069502Y-105445820D01*
X66010537Y-105335506D01*
X65931185Y-105238815D01*
X65834494Y-105159463D01*
X65724180Y-105100498D01*
X65604482Y-105064188D01*
X65480000Y-105051928D01*
X61520000Y-105051928D01*
X61395518Y-105064188D01*
X61275820Y-105100498D01*
X61165506Y-105159463D01*
X61068815Y-105238815D01*
X60989463Y-105335506D01*
X60930498Y-105445820D01*
X60894188Y-105565518D01*
X60881928Y-105690000D01*
X59182000Y-105690000D01*
X59182000Y-103998665D01*
X107150000Y-103998665D01*
X107150000Y-104281335D01*
X107205147Y-104558574D01*
X107313320Y-104819727D01*
X107470363Y-105054759D01*
X107670241Y-105254637D01*
X107902759Y-105410000D01*
X107670241Y-105565363D01*
X107470363Y-105765241D01*
X107313320Y-106000273D01*
X107205147Y-106261426D01*
X107150000Y-106538665D01*
X107150000Y-106821335D01*
X107205147Y-107098574D01*
X107313320Y-107359727D01*
X107470363Y-107594759D01*
X107670241Y-107794637D01*
X107902759Y-107950000D01*
X107670241Y-108105363D01*
X107470363Y-108305241D01*
X107313320Y-108540273D01*
X107205147Y-108801426D01*
X107150000Y-109078665D01*
X107150000Y-109361335D01*
X107205147Y-109638574D01*
X107313320Y-109899727D01*
X107470363Y-110134759D01*
X107670241Y-110334637D01*
X107902759Y-110490000D01*
X107670241Y-110645363D01*
X107470363Y-110845241D01*
X107313320Y-111080273D01*
X107205147Y-111341426D01*
X107150000Y-111618665D01*
X107150000Y-111901335D01*
X107205147Y-112178574D01*
X107313320Y-112439727D01*
X107470363Y-112674759D01*
X107670241Y-112874637D01*
X107902759Y-113030000D01*
X107670241Y-113185363D01*
X107470363Y-113385241D01*
X107313320Y-113620273D01*
X107205147Y-113881426D01*
X107150000Y-114158665D01*
X107150000Y-114441335D01*
X107205147Y-114718574D01*
X107313320Y-114979727D01*
X107470363Y-115214759D01*
X107670241Y-115414637D01*
X107902759Y-115570000D01*
X107670241Y-115725363D01*
X107470363Y-115925241D01*
X107313320Y-116160273D01*
X107205147Y-116421426D01*
X107150000Y-116698665D01*
X107150000Y-116981335D01*
X107205147Y-117258574D01*
X107313320Y-117519727D01*
X107470363Y-117754759D01*
X107670241Y-117954637D01*
X107902759Y-118110000D01*
X107670241Y-118265363D01*
X107470363Y-118465241D01*
X107313320Y-118700273D01*
X107205147Y-118961426D01*
X107150000Y-119238665D01*
X107150000Y-119521335D01*
X107205147Y-119798574D01*
X107313320Y-120059727D01*
X107470363Y-120294759D01*
X107670241Y-120494637D01*
X107902759Y-120650000D01*
X107670241Y-120805363D01*
X107470363Y-121005241D01*
X107313320Y-121240273D01*
X107205147Y-121501426D01*
X107150000Y-121778665D01*
X107150000Y-122061335D01*
X107205147Y-122338574D01*
X107313320Y-122599727D01*
X107470363Y-122834759D01*
X107670241Y-123034637D01*
X107902759Y-123190000D01*
X107670241Y-123345363D01*
X107470363Y-123545241D01*
X107313320Y-123780273D01*
X107205147Y-124041426D01*
X107150000Y-124318665D01*
X107150000Y-124601335D01*
X107205147Y-124878574D01*
X107313320Y-125139727D01*
X107470363Y-125374759D01*
X107670241Y-125574637D01*
X107902759Y-125730000D01*
X107670241Y-125885363D01*
X107470363Y-126085241D01*
X107313320Y-126320273D01*
X107205147Y-126581426D01*
X107150000Y-126858665D01*
X107150000Y-127141335D01*
X107205147Y-127418574D01*
X107313320Y-127679727D01*
X107470363Y-127914759D01*
X107670241Y-128114637D01*
X107902759Y-128270000D01*
X107670241Y-128425363D01*
X107470363Y-128625241D01*
X107313320Y-128860273D01*
X107205147Y-129121426D01*
X107150000Y-129398665D01*
X107150000Y-129681335D01*
X107205147Y-129958574D01*
X107313320Y-130219727D01*
X107470363Y-130454759D01*
X107670241Y-130654637D01*
X107905273Y-130811680D01*
X108166426Y-130919853D01*
X108443665Y-130975000D01*
X108726335Y-130975000D01*
X109003574Y-130919853D01*
X109264727Y-130811680D01*
X109499759Y-130654637D01*
X109699637Y-130454759D01*
X109856680Y-130219727D01*
X109964853Y-129958574D01*
X110020000Y-129681335D01*
X110020000Y-129398665D01*
X109964853Y-129121426D01*
X109856680Y-128860273D01*
X109699637Y-128625241D01*
X109499759Y-128425363D01*
X109267241Y-128270000D01*
X109499759Y-128114637D01*
X109699637Y-127914759D01*
X109856680Y-127679727D01*
X109964853Y-127418574D01*
X110020000Y-127141335D01*
X110020000Y-126858665D01*
X109964853Y-126581426D01*
X109856680Y-126320273D01*
X109699637Y-126085241D01*
X109499759Y-125885363D01*
X109267241Y-125730000D01*
X109499759Y-125574637D01*
X109699637Y-125374759D01*
X109856680Y-125139727D01*
X109964853Y-124878574D01*
X110020000Y-124601335D01*
X110020000Y-124318665D01*
X109964853Y-124041426D01*
X109856680Y-123780273D01*
X109699637Y-123545241D01*
X109499759Y-123345363D01*
X109267241Y-123190000D01*
X109499759Y-123034637D01*
X109699637Y-122834759D01*
X109856680Y-122599727D01*
X109964853Y-122338574D01*
X110020000Y-122061335D01*
X110020000Y-121778665D01*
X109964853Y-121501426D01*
X109856680Y-121240273D01*
X109699637Y-121005241D01*
X109499759Y-120805363D01*
X109267241Y-120650000D01*
X109499759Y-120494637D01*
X109699637Y-120294759D01*
X109856680Y-120059727D01*
X109964853Y-119798574D01*
X110020000Y-119521335D01*
X110020000Y-119238665D01*
X109964853Y-118961426D01*
X109856680Y-118700273D01*
X109699637Y-118465241D01*
X109499759Y-118265363D01*
X109267241Y-118110000D01*
X109499759Y-117954637D01*
X109699637Y-117754759D01*
X109856680Y-117519727D01*
X109964853Y-117258574D01*
X110020000Y-116981335D01*
X110020000Y-116698665D01*
X109964853Y-116421426D01*
X109856680Y-116160273D01*
X109699637Y-115925241D01*
X109499759Y-115725363D01*
X109267241Y-115570000D01*
X109499759Y-115414637D01*
X109699637Y-115214759D01*
X109856680Y-114979727D01*
X109964853Y-114718574D01*
X110020000Y-114441335D01*
X110020000Y-114158665D01*
X109964853Y-113881426D01*
X109856680Y-113620273D01*
X109699637Y-113385241D01*
X109499759Y-113185363D01*
X109267241Y-113030000D01*
X109499759Y-112874637D01*
X109699637Y-112674759D01*
X109856680Y-112439727D01*
X109964853Y-112178574D01*
X110020000Y-111901335D01*
X110020000Y-111618665D01*
X109964853Y-111341426D01*
X109856680Y-111080273D01*
X109699637Y-110845241D01*
X109499759Y-110645363D01*
X109267241Y-110490000D01*
X109499759Y-110334637D01*
X109699637Y-110134759D01*
X109856680Y-109899727D01*
X109964853Y-109638574D01*
X110020000Y-109361335D01*
X110020000Y-109078665D01*
X109964853Y-108801426D01*
X109856680Y-108540273D01*
X109699637Y-108305241D01*
X109499759Y-108105363D01*
X109267241Y-107950000D01*
X109499759Y-107794637D01*
X109699637Y-107594759D01*
X109856680Y-107359727D01*
X109964853Y-107098574D01*
X110020000Y-106821335D01*
X110020000Y-106538665D01*
X109964853Y-106261426D01*
X109856680Y-106000273D01*
X109699637Y-105765241D01*
X109499759Y-105565363D01*
X109267241Y-105410000D01*
X109499759Y-105254637D01*
X109699637Y-105054759D01*
X109856680Y-104819727D01*
X109964853Y-104558574D01*
X110020000Y-104281335D01*
X110020000Y-103998665D01*
X109964853Y-103721426D01*
X109856680Y-103460273D01*
X109699637Y-103225241D01*
X109499759Y-103025363D01*
X109264727Y-102868320D01*
X109254135Y-102863933D01*
X109440131Y-102752385D01*
X109648519Y-102563414D01*
X109816037Y-102337420D01*
X109936246Y-102083087D01*
X109976904Y-101949039D01*
X109854915Y-101727000D01*
X108712000Y-101727000D01*
X108712000Y-101747000D01*
X108458000Y-101747000D01*
X108458000Y-101727000D01*
X107315085Y-101727000D01*
X107193096Y-101949039D01*
X107233754Y-102083087D01*
X107353963Y-102337420D01*
X107521481Y-102563414D01*
X107729869Y-102752385D01*
X107915865Y-102863933D01*
X107905273Y-102868320D01*
X107670241Y-103025363D01*
X107470363Y-103225241D01*
X107313320Y-103460273D01*
X107205147Y-103721426D01*
X107150000Y-103998665D01*
X59182000Y-103998665D01*
X59182000Y-101680000D01*
X60877138Y-101680000D01*
X60908513Y-101998556D01*
X61001432Y-102304869D01*
X61152325Y-102587170D01*
X61355392Y-102834608D01*
X61602830Y-103037675D01*
X61885131Y-103188568D01*
X62191444Y-103281487D01*
X62430176Y-103305000D01*
X64569824Y-103305000D01*
X64808556Y-103281487D01*
X65114869Y-103188568D01*
X65397170Y-103037675D01*
X65644608Y-102834608D01*
X65847675Y-102587170D01*
X65998568Y-102304869D01*
X66091487Y-101998556D01*
X66122862Y-101680000D01*
X66091487Y-101361444D01*
X65998568Y-101055131D01*
X65847675Y-100772830D01*
X65644608Y-100525392D01*
X65397170Y-100322325D01*
X65114869Y-100171432D01*
X64808556Y-100078513D01*
X64569824Y-100055000D01*
X62430176Y-100055000D01*
X62191444Y-100078513D01*
X61885131Y-100171432D01*
X61602830Y-100322325D01*
X61355392Y-100525392D01*
X61152325Y-100772830D01*
X61001432Y-101055131D01*
X60908513Y-101361444D01*
X60877138Y-101680000D01*
X59182000Y-101680000D01*
X59182000Y-95530000D01*
X60881928Y-95530000D01*
X60881928Y-97510000D01*
X60894188Y-97634482D01*
X60930498Y-97754180D01*
X60989463Y-97864494D01*
X61068815Y-97961185D01*
X61165506Y-98040537D01*
X61275820Y-98099502D01*
X61395518Y-98135812D01*
X61520000Y-98148072D01*
X65480000Y-98148072D01*
X65604482Y-98135812D01*
X65724180Y-98099502D01*
X65834494Y-98040537D01*
X65931185Y-97961185D01*
X66010537Y-97864494D01*
X66069502Y-97754180D01*
X66105812Y-97634482D01*
X66118072Y-97510000D01*
X66118072Y-96418061D01*
X73260000Y-96418061D01*
X73260000Y-96621939D01*
X73299774Y-96821898D01*
X73377795Y-97010256D01*
X73491063Y-97179774D01*
X73635226Y-97323937D01*
X73804744Y-97437205D01*
X73964884Y-97503538D01*
X73699956Y-97768466D01*
X73666183Y-97796183D01*
X73555589Y-97930942D01*
X73473411Y-98084688D01*
X73422805Y-98251511D01*
X73410000Y-98381524D01*
X73410000Y-98381531D01*
X73405719Y-98425000D01*
X73410000Y-98468469D01*
X73410001Y-101696544D01*
X73377795Y-101744744D01*
X73299774Y-101933102D01*
X73260000Y-102133061D01*
X73260000Y-102336939D01*
X73299774Y-102536898D01*
X73377795Y-102725256D01*
X73491063Y-102894774D01*
X73635226Y-103038937D01*
X73804744Y-103152205D01*
X73993102Y-103230226D01*
X74193061Y-103270000D01*
X74396939Y-103270000D01*
X74596898Y-103230226D01*
X74785256Y-103152205D01*
X74954774Y-103038937D01*
X75098937Y-102894774D01*
X75212205Y-102725256D01*
X75290226Y-102536898D01*
X75330000Y-102336939D01*
X75330000Y-102133061D01*
X75290226Y-101933102D01*
X75212205Y-101744744D01*
X75180000Y-101696546D01*
X75180000Y-98791578D01*
X75296579Y-98675000D01*
X77730604Y-98675000D01*
X77625363Y-98780241D01*
X77468320Y-99015273D01*
X77360147Y-99276426D01*
X77305000Y-99553665D01*
X77305000Y-99836335D01*
X77360147Y-100113574D01*
X77468320Y-100374727D01*
X77625363Y-100609759D01*
X77825241Y-100809637D01*
X78060273Y-100966680D01*
X78321426Y-101074853D01*
X78598665Y-101130000D01*
X78881335Y-101130000D01*
X79158574Y-101074853D01*
X79419727Y-100966680D01*
X79654759Y-100809637D01*
X79854637Y-100609759D01*
X80011680Y-100374727D01*
X80119853Y-100113574D01*
X80175000Y-99836335D01*
X80175000Y-99553665D01*
X80119853Y-99276426D01*
X80011680Y-99015273D01*
X79854637Y-98780241D01*
X79749396Y-98675000D01*
X82810604Y-98675000D01*
X82705363Y-98780241D01*
X82548320Y-99015273D01*
X82440147Y-99276426D01*
X82385000Y-99553665D01*
X82385000Y-99836335D01*
X82440147Y-100113574D01*
X82548320Y-100374727D01*
X82705363Y-100609759D01*
X82905241Y-100809637D01*
X82935000Y-100829522D01*
X82935001Y-102331544D01*
X82902795Y-102379744D01*
X82824774Y-102568102D01*
X82785000Y-102768061D01*
X82785000Y-102971939D01*
X82824774Y-103171898D01*
X82902795Y-103360256D01*
X83016063Y-103529774D01*
X83160226Y-103673937D01*
X83329744Y-103787205D01*
X83518102Y-103865226D01*
X83718061Y-103905000D01*
X83921939Y-103905000D01*
X84121898Y-103865226D01*
X84310256Y-103787205D01*
X84479774Y-103673937D01*
X84623937Y-103529774D01*
X84737205Y-103360256D01*
X84815226Y-103171898D01*
X84855000Y-102971939D01*
X84855000Y-102768061D01*
X84815226Y-102568102D01*
X84737205Y-102379744D01*
X84705000Y-102331546D01*
X84705000Y-100829521D01*
X84734759Y-100809637D01*
X84934637Y-100609759D01*
X85091680Y-100374727D01*
X85199853Y-100113574D01*
X85255000Y-99836335D01*
X85255000Y-99553665D01*
X85199853Y-99276426D01*
X85091680Y-99015273D01*
X84934637Y-98780241D01*
X84829396Y-98675000D01*
X90430604Y-98675000D01*
X90325363Y-98780241D01*
X90168320Y-99015273D01*
X90060147Y-99276426D01*
X90005000Y-99553665D01*
X90005000Y-99836335D01*
X90060147Y-100113574D01*
X90168320Y-100374727D01*
X90325363Y-100609759D01*
X90525241Y-100809637D01*
X90760273Y-100966680D01*
X91021426Y-101074853D01*
X91298665Y-101130000D01*
X91581335Y-101130000D01*
X91858574Y-101074853D01*
X92119727Y-100966680D01*
X92354759Y-100809637D01*
X92554637Y-100609759D01*
X92711680Y-100374727D01*
X92819853Y-100113574D01*
X92875000Y-99836335D01*
X92875000Y-99553665D01*
X92819853Y-99276426D01*
X92711680Y-99015273D01*
X92554637Y-98780241D01*
X92449396Y-98675000D01*
X94506546Y-98675000D01*
X94554744Y-98707205D01*
X94743102Y-98785226D01*
X94943061Y-98825000D01*
X95146939Y-98825000D01*
X95346898Y-98785226D01*
X95438195Y-98747409D01*
X95405363Y-98780241D01*
X95248320Y-99015273D01*
X95140147Y-99276426D01*
X95085000Y-99553665D01*
X95085000Y-99836335D01*
X95140147Y-100113574D01*
X95248320Y-100374727D01*
X95405363Y-100609759D01*
X95605241Y-100809637D01*
X95840273Y-100966680D01*
X96101426Y-101074853D01*
X96378665Y-101130000D01*
X96661335Y-101130000D01*
X96938574Y-101074853D01*
X97199727Y-100966680D01*
X97434759Y-100809637D01*
X97634637Y-100609759D01*
X97791680Y-100374727D01*
X97899853Y-100113574D01*
X97955000Y-99836335D01*
X97955000Y-99553665D01*
X97899853Y-99276426D01*
X97791680Y-99015273D01*
X97634637Y-98780241D01*
X97434759Y-98580363D01*
X97199727Y-98423320D01*
X96938574Y-98315147D01*
X96661335Y-98260000D01*
X96378665Y-98260000D01*
X96101426Y-98315147D01*
X95876693Y-98408234D01*
X95962205Y-98280256D01*
X96040226Y-98091898D01*
X96080000Y-97891939D01*
X96080000Y-97688061D01*
X96040226Y-97488102D01*
X95962205Y-97299744D01*
X95848937Y-97130226D01*
X95704774Y-96986063D01*
X95535256Y-96872795D01*
X95346898Y-96794774D01*
X95146939Y-96755000D01*
X94943061Y-96755000D01*
X94743102Y-96794774D01*
X94554744Y-96872795D01*
X94506546Y-96905000D01*
X92400804Y-96905000D01*
X92435226Y-96821898D01*
X92475000Y-96621939D01*
X92475000Y-96418061D01*
X92435226Y-96218102D01*
X92357205Y-96029744D01*
X92243937Y-95860226D01*
X92193939Y-95810228D01*
X92356309Y-95794236D01*
X92626808Y-95712182D01*
X92876101Y-95578932D01*
X93094608Y-95399608D01*
X93273932Y-95181101D01*
X93345000Y-95048142D01*
X93416068Y-95181101D01*
X93595393Y-95399608D01*
X93813900Y-95578932D01*
X94063193Y-95712182D01*
X94333692Y-95794236D01*
X94615000Y-95821943D01*
X94896309Y-95794236D01*
X95166808Y-95712182D01*
X95416101Y-95578932D01*
X95634608Y-95399608D01*
X95813932Y-95181101D01*
X95885000Y-95048142D01*
X95956068Y-95181101D01*
X96135393Y-95399608D01*
X96353900Y-95578932D01*
X96603193Y-95712182D01*
X96873692Y-95794236D01*
X97155000Y-95821943D01*
X97436309Y-95794236D01*
X97706808Y-95712182D01*
X97956101Y-95578932D01*
X98174608Y-95399608D01*
X98353932Y-95181101D01*
X98487182Y-94931808D01*
X98569236Y-94661309D01*
X98590000Y-94450491D01*
X98590000Y-93509508D01*
X98569236Y-93298691D01*
X98533232Y-93180000D01*
X107146928Y-93180000D01*
X107146928Y-94780000D01*
X107159188Y-94904482D01*
X107195498Y-95024180D01*
X107254463Y-95134494D01*
X107333815Y-95231185D01*
X107430506Y-95310537D01*
X107540820Y-95369502D01*
X107660518Y-95405812D01*
X107668961Y-95406643D01*
X107470363Y-95605241D01*
X107313320Y-95840273D01*
X107205147Y-96101426D01*
X107150000Y-96378665D01*
X107150000Y-96661335D01*
X107205147Y-96938574D01*
X107313320Y-97199727D01*
X107470363Y-97434759D01*
X107670241Y-97634637D01*
X107902759Y-97790000D01*
X107670241Y-97945363D01*
X107470363Y-98145241D01*
X107313320Y-98380273D01*
X107205147Y-98641426D01*
X107150000Y-98918665D01*
X107150000Y-99201335D01*
X107205147Y-99478574D01*
X107313320Y-99739727D01*
X107470363Y-99974759D01*
X107670241Y-100174637D01*
X107905273Y-100331680D01*
X107915865Y-100336067D01*
X107729869Y-100447615D01*
X107521481Y-100636586D01*
X107353963Y-100862580D01*
X107233754Y-101116913D01*
X107193096Y-101250961D01*
X107315085Y-101473000D01*
X108458000Y-101473000D01*
X108458000Y-101453000D01*
X108712000Y-101453000D01*
X108712000Y-101473000D01*
X109854915Y-101473000D01*
X109976904Y-101250961D01*
X109936246Y-101116913D01*
X109816037Y-100862580D01*
X109648519Y-100636586D01*
X109440131Y-100447615D01*
X109254135Y-100336067D01*
X109264727Y-100331680D01*
X109499759Y-100174637D01*
X109699637Y-99974759D01*
X109856680Y-99739727D01*
X109964853Y-99478574D01*
X110020000Y-99201335D01*
X110020000Y-98918665D01*
X122390000Y-98918665D01*
X122390000Y-99201335D01*
X122445147Y-99478574D01*
X122553320Y-99739727D01*
X122710363Y-99974759D01*
X122910241Y-100174637D01*
X123142759Y-100330000D01*
X122910241Y-100485363D01*
X122710363Y-100685241D01*
X122553320Y-100920273D01*
X122445147Y-101181426D01*
X122390000Y-101458665D01*
X122390000Y-101741335D01*
X122445147Y-102018574D01*
X122553320Y-102279727D01*
X122710363Y-102514759D01*
X122910241Y-102714637D01*
X123142759Y-102870000D01*
X122910241Y-103025363D01*
X122710363Y-103225241D01*
X122553320Y-103460273D01*
X122445147Y-103721426D01*
X122390000Y-103998665D01*
X122390000Y-104281335D01*
X122445147Y-104558574D01*
X122553320Y-104819727D01*
X122710363Y-105054759D01*
X122910241Y-105254637D01*
X123142759Y-105410000D01*
X122910241Y-105565363D01*
X122710363Y-105765241D01*
X122553320Y-106000273D01*
X122445147Y-106261426D01*
X122390000Y-106538665D01*
X122390000Y-106821335D01*
X122445147Y-107098574D01*
X122553320Y-107359727D01*
X122710363Y-107594759D01*
X122910241Y-107794637D01*
X123142759Y-107950000D01*
X122910241Y-108105363D01*
X122710363Y-108305241D01*
X122553320Y-108540273D01*
X122445147Y-108801426D01*
X122390000Y-109078665D01*
X122390000Y-109361335D01*
X122445147Y-109638574D01*
X122553320Y-109899727D01*
X122710363Y-110134759D01*
X122910241Y-110334637D01*
X123142759Y-110490000D01*
X122910241Y-110645363D01*
X122710363Y-110845241D01*
X122553320Y-111080273D01*
X122445147Y-111341426D01*
X122390000Y-111618665D01*
X122390000Y-111901335D01*
X122445147Y-112178574D01*
X122553320Y-112439727D01*
X122710363Y-112674759D01*
X122910241Y-112874637D01*
X123142759Y-113030000D01*
X122910241Y-113185363D01*
X122710363Y-113385241D01*
X122553320Y-113620273D01*
X122445147Y-113881426D01*
X122390000Y-114158665D01*
X122390000Y-114441335D01*
X122445147Y-114718574D01*
X122553320Y-114979727D01*
X122710363Y-115214759D01*
X122910241Y-115414637D01*
X123142759Y-115570000D01*
X122910241Y-115725363D01*
X122710363Y-115925241D01*
X122553320Y-116160273D01*
X122445147Y-116421426D01*
X122390000Y-116698665D01*
X122390000Y-116981335D01*
X122445147Y-117258574D01*
X122553320Y-117519727D01*
X122710363Y-117754759D01*
X122910241Y-117954637D01*
X123142759Y-118110000D01*
X122910241Y-118265363D01*
X122710363Y-118465241D01*
X122553320Y-118700273D01*
X122445147Y-118961426D01*
X122390000Y-119238665D01*
X122390000Y-119521335D01*
X122445147Y-119798574D01*
X122553320Y-120059727D01*
X122710363Y-120294759D01*
X122910241Y-120494637D01*
X123142759Y-120650000D01*
X122910241Y-120805363D01*
X122710363Y-121005241D01*
X122553320Y-121240273D01*
X122445147Y-121501426D01*
X122390000Y-121778665D01*
X122390000Y-122061335D01*
X122445147Y-122338574D01*
X122553320Y-122599727D01*
X122710363Y-122834759D01*
X122910241Y-123034637D01*
X123142759Y-123190000D01*
X122910241Y-123345363D01*
X122710363Y-123545241D01*
X122553320Y-123780273D01*
X122445147Y-124041426D01*
X122390000Y-124318665D01*
X122390000Y-124601335D01*
X122445147Y-124878574D01*
X122553320Y-125139727D01*
X122710363Y-125374759D01*
X122910241Y-125574637D01*
X123142759Y-125730000D01*
X122910241Y-125885363D01*
X122710363Y-126085241D01*
X122553320Y-126320273D01*
X122445147Y-126581426D01*
X122390000Y-126858665D01*
X122390000Y-127141335D01*
X122445147Y-127418574D01*
X122553320Y-127679727D01*
X122710363Y-127914759D01*
X122910241Y-128114637D01*
X123142759Y-128270000D01*
X122910241Y-128425363D01*
X122710363Y-128625241D01*
X122553320Y-128860273D01*
X122445147Y-129121426D01*
X122390000Y-129398665D01*
X122390000Y-129681335D01*
X122445147Y-129958574D01*
X122553320Y-130219727D01*
X122710363Y-130454759D01*
X122910241Y-130654637D01*
X123145273Y-130811680D01*
X123406426Y-130919853D01*
X123683665Y-130975000D01*
X123966335Y-130975000D01*
X124243574Y-130919853D01*
X124504727Y-130811680D01*
X124739759Y-130654637D01*
X124939637Y-130454759D01*
X125096680Y-130219727D01*
X125204853Y-129958574D01*
X125260000Y-129681335D01*
X125260000Y-129398665D01*
X125204853Y-129121426D01*
X125096680Y-128860273D01*
X124939637Y-128625241D01*
X124739759Y-128425363D01*
X124507241Y-128270000D01*
X124739759Y-128114637D01*
X124939637Y-127914759D01*
X125096680Y-127679727D01*
X125204853Y-127418574D01*
X125260000Y-127141335D01*
X125260000Y-126858665D01*
X125204853Y-126581426D01*
X125096680Y-126320273D01*
X124939637Y-126085241D01*
X124739759Y-125885363D01*
X124507241Y-125730000D01*
X124739759Y-125574637D01*
X124939637Y-125374759D01*
X125096680Y-125139727D01*
X125204853Y-124878574D01*
X125260000Y-124601335D01*
X125260000Y-124318665D01*
X125204853Y-124041426D01*
X125096680Y-123780273D01*
X124939637Y-123545241D01*
X124739759Y-123345363D01*
X124507241Y-123190000D01*
X124739759Y-123034637D01*
X124939637Y-122834759D01*
X125096680Y-122599727D01*
X125204853Y-122338574D01*
X125260000Y-122061335D01*
X125260000Y-121778665D01*
X125204853Y-121501426D01*
X125096680Y-121240273D01*
X124939637Y-121005241D01*
X124739759Y-120805363D01*
X124507241Y-120650000D01*
X124739759Y-120494637D01*
X124939637Y-120294759D01*
X125096680Y-120059727D01*
X125204853Y-119798574D01*
X125260000Y-119521335D01*
X125260000Y-119238665D01*
X125204853Y-118961426D01*
X125096680Y-118700273D01*
X124939637Y-118465241D01*
X124739759Y-118265363D01*
X124507241Y-118110000D01*
X124739759Y-117954637D01*
X124939637Y-117754759D01*
X125096680Y-117519727D01*
X125204853Y-117258574D01*
X125260000Y-116981335D01*
X125260000Y-116698665D01*
X125204853Y-116421426D01*
X125096680Y-116160273D01*
X124939637Y-115925241D01*
X124739759Y-115725363D01*
X124507241Y-115570000D01*
X124739759Y-115414637D01*
X124939637Y-115214759D01*
X125096680Y-114979727D01*
X125204853Y-114718574D01*
X125260000Y-114441335D01*
X125260000Y-114158665D01*
X125204853Y-113881426D01*
X125096680Y-113620273D01*
X124982908Y-113450000D01*
X127416928Y-113450000D01*
X127416928Y-115150000D01*
X127429188Y-115274482D01*
X127465498Y-115394180D01*
X127524463Y-115504494D01*
X127603815Y-115601185D01*
X127700506Y-115680537D01*
X127810820Y-115739502D01*
X127930518Y-115775812D01*
X128055000Y-115788072D01*
X129755000Y-115788072D01*
X129879482Y-115775812D01*
X129999180Y-115739502D01*
X130109494Y-115680537D01*
X130206185Y-115601185D01*
X130285537Y-115504494D01*
X130344502Y-115394180D01*
X130380812Y-115274482D01*
X130393072Y-115150000D01*
X130393072Y-113450000D01*
X130380812Y-113325518D01*
X130344502Y-113205820D01*
X130285537Y-113095506D01*
X130206185Y-112998815D01*
X130109494Y-112919463D01*
X129999180Y-112860498D01*
X129926620Y-112838487D01*
X130058475Y-112706632D01*
X130220990Y-112463411D01*
X130332932Y-112193158D01*
X130390000Y-111906260D01*
X130390000Y-111613740D01*
X130332932Y-111326842D01*
X130220990Y-111056589D01*
X130058475Y-110813368D01*
X129851632Y-110606525D01*
X129677240Y-110490000D01*
X129851632Y-110373475D01*
X130058475Y-110166632D01*
X130220990Y-109923411D01*
X130332932Y-109653158D01*
X130390000Y-109366260D01*
X130390000Y-109073740D01*
X130332932Y-108786842D01*
X130220990Y-108516589D01*
X130058475Y-108273368D01*
X129851632Y-108066525D01*
X129677240Y-107950000D01*
X129851632Y-107833475D01*
X130058475Y-107626632D01*
X130220990Y-107383411D01*
X130332932Y-107113158D01*
X130390000Y-106826260D01*
X130390000Y-106533740D01*
X130332932Y-106246842D01*
X130220990Y-105976589D01*
X130058475Y-105733368D01*
X129851632Y-105526525D01*
X129677240Y-105410000D01*
X129851632Y-105293475D01*
X130058475Y-105086632D01*
X130220990Y-104843411D01*
X130332932Y-104573158D01*
X130390000Y-104286260D01*
X130390000Y-103993740D01*
X130332932Y-103706842D01*
X130220990Y-103436589D01*
X130058475Y-103193368D01*
X129851632Y-102986525D01*
X129677240Y-102870000D01*
X129851632Y-102753475D01*
X130058475Y-102546632D01*
X130220990Y-102303411D01*
X130332932Y-102033158D01*
X130390000Y-101746260D01*
X130390000Y-101453740D01*
X130332932Y-101166842D01*
X130220990Y-100896589D01*
X130058475Y-100653368D01*
X129851632Y-100446525D01*
X129669466Y-100324805D01*
X129786355Y-100255178D01*
X130002588Y-100060269D01*
X130176641Y-99826920D01*
X130301825Y-99564099D01*
X130346476Y-99416890D01*
X130225155Y-99187000D01*
X129032000Y-99187000D01*
X129032000Y-99207000D01*
X128778000Y-99207000D01*
X128778000Y-99187000D01*
X127584845Y-99187000D01*
X127463524Y-99416890D01*
X127508175Y-99564099D01*
X127633359Y-99826920D01*
X127807412Y-100060269D01*
X128023645Y-100255178D01*
X128140534Y-100324805D01*
X127958368Y-100446525D01*
X127751525Y-100653368D01*
X127589010Y-100896589D01*
X127477068Y-101166842D01*
X127420000Y-101453740D01*
X127420000Y-101746260D01*
X127477068Y-102033158D01*
X127589010Y-102303411D01*
X127751525Y-102546632D01*
X127958368Y-102753475D01*
X128132760Y-102870000D01*
X127958368Y-102986525D01*
X127751525Y-103193368D01*
X127589010Y-103436589D01*
X127477068Y-103706842D01*
X127420000Y-103993740D01*
X127420000Y-104286260D01*
X127477068Y-104573158D01*
X127589010Y-104843411D01*
X127751525Y-105086632D01*
X127958368Y-105293475D01*
X128132760Y-105410000D01*
X127958368Y-105526525D01*
X127751525Y-105733368D01*
X127589010Y-105976589D01*
X127477068Y-106246842D01*
X127420000Y-106533740D01*
X127420000Y-106826260D01*
X127477068Y-107113158D01*
X127589010Y-107383411D01*
X127751525Y-107626632D01*
X127958368Y-107833475D01*
X128132760Y-107950000D01*
X127958368Y-108066525D01*
X127751525Y-108273368D01*
X127589010Y-108516589D01*
X127477068Y-108786842D01*
X127420000Y-109073740D01*
X127420000Y-109366260D01*
X127477068Y-109653158D01*
X127589010Y-109923411D01*
X127751525Y-110166632D01*
X127958368Y-110373475D01*
X128132760Y-110490000D01*
X127958368Y-110606525D01*
X127751525Y-110813368D01*
X127589010Y-111056589D01*
X127477068Y-111326842D01*
X127420000Y-111613740D01*
X127420000Y-111906260D01*
X127477068Y-112193158D01*
X127589010Y-112463411D01*
X127751525Y-112706632D01*
X127883380Y-112838487D01*
X127810820Y-112860498D01*
X127700506Y-112919463D01*
X127603815Y-112998815D01*
X127524463Y-113095506D01*
X127465498Y-113205820D01*
X127429188Y-113325518D01*
X127416928Y-113450000D01*
X124982908Y-113450000D01*
X124939637Y-113385241D01*
X124739759Y-113185363D01*
X124507241Y-113030000D01*
X124739759Y-112874637D01*
X124939637Y-112674759D01*
X125096680Y-112439727D01*
X125204853Y-112178574D01*
X125260000Y-111901335D01*
X125260000Y-111618665D01*
X125204853Y-111341426D01*
X125096680Y-111080273D01*
X124939637Y-110845241D01*
X124739759Y-110645363D01*
X124507241Y-110490000D01*
X124739759Y-110334637D01*
X124939637Y-110134759D01*
X125096680Y-109899727D01*
X125204853Y-109638574D01*
X125260000Y-109361335D01*
X125260000Y-109078665D01*
X125204853Y-108801426D01*
X125096680Y-108540273D01*
X124939637Y-108305241D01*
X124739759Y-108105363D01*
X124507241Y-107950000D01*
X124739759Y-107794637D01*
X124939637Y-107594759D01*
X125096680Y-107359727D01*
X125204853Y-107098574D01*
X125260000Y-106821335D01*
X125260000Y-106538665D01*
X125204853Y-106261426D01*
X125096680Y-106000273D01*
X124939637Y-105765241D01*
X124739759Y-105565363D01*
X124507241Y-105410000D01*
X124739759Y-105254637D01*
X124939637Y-105054759D01*
X125096680Y-104819727D01*
X125204853Y-104558574D01*
X125260000Y-104281335D01*
X125260000Y-103998665D01*
X125204853Y-103721426D01*
X125096680Y-103460273D01*
X124939637Y-103225241D01*
X124739759Y-103025363D01*
X124507241Y-102870000D01*
X124739759Y-102714637D01*
X124939637Y-102514759D01*
X125096680Y-102279727D01*
X125204853Y-102018574D01*
X125260000Y-101741335D01*
X125260000Y-101458665D01*
X125204853Y-101181426D01*
X125096680Y-100920273D01*
X124939637Y-100685241D01*
X124739759Y-100485363D01*
X124507241Y-100330000D01*
X124739759Y-100174637D01*
X124939637Y-99974759D01*
X125096680Y-99739727D01*
X125204853Y-99478574D01*
X125260000Y-99201335D01*
X125260000Y-98918665D01*
X125204853Y-98641426D01*
X125096680Y-98380273D01*
X124939637Y-98145241D01*
X124739759Y-97945363D01*
X124504727Y-97788320D01*
X124494135Y-97783933D01*
X124680131Y-97672385D01*
X124888519Y-97483414D01*
X125056037Y-97257420D01*
X125176246Y-97003087D01*
X125216904Y-96869039D01*
X125094915Y-96647000D01*
X123952000Y-96647000D01*
X123952000Y-96667000D01*
X123698000Y-96667000D01*
X123698000Y-96647000D01*
X122555085Y-96647000D01*
X122433096Y-96869039D01*
X122473754Y-97003087D01*
X122593963Y-97257420D01*
X122761481Y-97483414D01*
X122969869Y-97672385D01*
X123155865Y-97783933D01*
X123145273Y-97788320D01*
X122910241Y-97945363D01*
X122710363Y-98145241D01*
X122553320Y-98380273D01*
X122445147Y-98641426D01*
X122390000Y-98918665D01*
X110020000Y-98918665D01*
X109964853Y-98641426D01*
X109856680Y-98380273D01*
X109699637Y-98145241D01*
X109499759Y-97945363D01*
X109267241Y-97790000D01*
X109499759Y-97634637D01*
X109699637Y-97434759D01*
X109856680Y-97199727D01*
X109964853Y-96938574D01*
X110020000Y-96661335D01*
X110020000Y-96378665D01*
X109964853Y-96101426D01*
X109856680Y-95840273D01*
X109699637Y-95605241D01*
X109501039Y-95406643D01*
X109509482Y-95405812D01*
X109629180Y-95369502D01*
X109739494Y-95310537D01*
X109836185Y-95231185D01*
X109915537Y-95134494D01*
X109974502Y-95024180D01*
X110010812Y-94904482D01*
X110023072Y-94780000D01*
X110023072Y-93838665D01*
X122390000Y-93838665D01*
X122390000Y-94121335D01*
X122445147Y-94398574D01*
X122553320Y-94659727D01*
X122710363Y-94894759D01*
X122910241Y-95094637D01*
X123145273Y-95251680D01*
X123155865Y-95256067D01*
X122969869Y-95367615D01*
X122761481Y-95556586D01*
X122593963Y-95782580D01*
X122473754Y-96036913D01*
X122433096Y-96170961D01*
X122555085Y-96393000D01*
X123698000Y-96393000D01*
X123698000Y-96373000D01*
X123952000Y-96373000D01*
X123952000Y-96393000D01*
X125094915Y-96393000D01*
X125216904Y-96170961D01*
X125176246Y-96036913D01*
X125056037Y-95782580D01*
X124888519Y-95556586D01*
X124680131Y-95367615D01*
X124494135Y-95256067D01*
X124504727Y-95251680D01*
X124739759Y-95094637D01*
X124939637Y-94894759D01*
X125096680Y-94659727D01*
X125204853Y-94398574D01*
X125260000Y-94121335D01*
X125260000Y-93838665D01*
X125259021Y-93833740D01*
X127420000Y-93833740D01*
X127420000Y-94126260D01*
X127477068Y-94413158D01*
X127589010Y-94683411D01*
X127751525Y-94926632D01*
X127958368Y-95133475D01*
X128132760Y-95250000D01*
X127958368Y-95366525D01*
X127751525Y-95573368D01*
X127589010Y-95816589D01*
X127477068Y-96086842D01*
X127420000Y-96373740D01*
X127420000Y-96666260D01*
X127477068Y-96953158D01*
X127589010Y-97223411D01*
X127751525Y-97466632D01*
X127958368Y-97673475D01*
X128140534Y-97795195D01*
X128023645Y-97864822D01*
X127807412Y-98059731D01*
X127633359Y-98293080D01*
X127508175Y-98555901D01*
X127463524Y-98703110D01*
X127584845Y-98933000D01*
X128778000Y-98933000D01*
X128778000Y-98913000D01*
X129032000Y-98913000D01*
X129032000Y-98933000D01*
X130225155Y-98933000D01*
X130346476Y-98703110D01*
X130301825Y-98555901D01*
X130176641Y-98293080D01*
X130002588Y-98059731D01*
X129786355Y-97864822D01*
X129669466Y-97795195D01*
X129851632Y-97673475D01*
X130058475Y-97466632D01*
X130220990Y-97223411D01*
X130332932Y-96953158D01*
X130390000Y-96666260D01*
X130390000Y-96373740D01*
X130332932Y-96086842D01*
X130220990Y-95816589D01*
X130058475Y-95573368D01*
X129851632Y-95366525D01*
X129677240Y-95250000D01*
X129851632Y-95133475D01*
X130058475Y-94926632D01*
X130220990Y-94683411D01*
X130332932Y-94413158D01*
X130390000Y-94126260D01*
X130390000Y-93833740D01*
X130332932Y-93546842D01*
X130220990Y-93276589D01*
X130058475Y-93033368D01*
X129851632Y-92826525D01*
X129608411Y-92664010D01*
X129338158Y-92552068D01*
X129051260Y-92495000D01*
X128758740Y-92495000D01*
X128471842Y-92552068D01*
X128201589Y-92664010D01*
X127958368Y-92826525D01*
X127751525Y-93033368D01*
X127589010Y-93276589D01*
X127477068Y-93546842D01*
X127420000Y-93833740D01*
X125259021Y-93833740D01*
X125204853Y-93561426D01*
X125096680Y-93300273D01*
X124939637Y-93065241D01*
X124739759Y-92865363D01*
X124504727Y-92708320D01*
X124243574Y-92600147D01*
X123966335Y-92545000D01*
X123683665Y-92545000D01*
X123406426Y-92600147D01*
X123145273Y-92708320D01*
X122910241Y-92865363D01*
X122710363Y-93065241D01*
X122553320Y-93300273D01*
X122445147Y-93561426D01*
X122390000Y-93838665D01*
X110023072Y-93838665D01*
X110023072Y-93180000D01*
X110010812Y-93055518D01*
X109974502Y-92935820D01*
X109915537Y-92825506D01*
X109836185Y-92728815D01*
X109739494Y-92649463D01*
X109629180Y-92590498D01*
X109509482Y-92554188D01*
X109385000Y-92541928D01*
X107785000Y-92541928D01*
X107660518Y-92554188D01*
X107540820Y-92590498D01*
X107430506Y-92649463D01*
X107333815Y-92728815D01*
X107254463Y-92825506D01*
X107195498Y-92935820D01*
X107159188Y-93055518D01*
X107146928Y-93180000D01*
X98533232Y-93180000D01*
X98511998Y-93110000D01*
X98526939Y-93110000D01*
X98726898Y-93070226D01*
X98915256Y-92992205D01*
X99084774Y-92878937D01*
X99128711Y-92835000D01*
X102801289Y-92835000D01*
X102845226Y-92878937D01*
X103014744Y-92992205D01*
X103203102Y-93070226D01*
X103403061Y-93110000D01*
X103606939Y-93110000D01*
X103806898Y-93070226D01*
X103995256Y-92992205D01*
X104164774Y-92878937D01*
X104308937Y-92734774D01*
X104422205Y-92565256D01*
X104500226Y-92376898D01*
X104540000Y-92176939D01*
X104540000Y-91973061D01*
X104506961Y-91806961D01*
X104673061Y-91840000D01*
X104876939Y-91840000D01*
X105076898Y-91800226D01*
X105265256Y-91722205D01*
X105434774Y-91608937D01*
X105578937Y-91464774D01*
X105692205Y-91295256D01*
X105770226Y-91106898D01*
X105810000Y-90906939D01*
X105810000Y-90703061D01*
X105770226Y-90503102D01*
X105692205Y-90314744D01*
X105578937Y-90145226D01*
X105434774Y-90001063D01*
X105265256Y-89887795D01*
X105076898Y-89809774D01*
X104876939Y-89770000D01*
X104673061Y-89770000D01*
X104473102Y-89809774D01*
X104284744Y-89887795D01*
X104115226Y-90001063D01*
X104071289Y-90045000D01*
X101869013Y-90045000D01*
X101882205Y-90025256D01*
X101960226Y-89836898D01*
X102000000Y-89636939D01*
X102000000Y-89433061D01*
X101966961Y-89266961D01*
X102133061Y-89300000D01*
X102336939Y-89300000D01*
X102536898Y-89260226D01*
X102725256Y-89182205D01*
X102894774Y-89068937D01*
X103038937Y-88924774D01*
X103152205Y-88755256D01*
X103230226Y-88566898D01*
X103270000Y-88366939D01*
X103270000Y-88163061D01*
X103230226Y-87963102D01*
X103152205Y-87774744D01*
X103038937Y-87605226D01*
X102894774Y-87461063D01*
X102725256Y-87347795D01*
X102536898Y-87269774D01*
X102336939Y-87230000D01*
X102133061Y-87230000D01*
X101933102Y-87269774D01*
X101744744Y-87347795D01*
X101575226Y-87461063D01*
X101531289Y-87505000D01*
X98383919Y-87505000D01*
X98487182Y-87311808D01*
X98569236Y-87041309D01*
X98590000Y-86830491D01*
X98590000Y-85889508D01*
X98569236Y-85678691D01*
X98487182Y-85408192D01*
X98353932Y-85158899D01*
X98174607Y-84940392D01*
X97956100Y-84761068D01*
X97706807Y-84627818D01*
X97436308Y-84545764D01*
X97155000Y-84518057D01*
X96873691Y-84545764D01*
X96603192Y-84627818D01*
X96353899Y-84761068D01*
X96135392Y-84940393D01*
X95956068Y-85158900D01*
X95885000Y-85291858D01*
X95813932Y-85158899D01*
X95634607Y-84940392D01*
X95416100Y-84761068D01*
X95166807Y-84627818D01*
X94896308Y-84545764D01*
X94615000Y-84518057D01*
X94333691Y-84545764D01*
X94063192Y-84627818D01*
X93813899Y-84761068D01*
X93595392Y-84940393D01*
X93416068Y-85158900D01*
X93345000Y-85291858D01*
X93273932Y-85158899D01*
X93094607Y-84940392D01*
X92876100Y-84761068D01*
X92626807Y-84627818D01*
X92356308Y-84545764D01*
X92075000Y-84518057D01*
X91793691Y-84545764D01*
X91523192Y-84627818D01*
X91273899Y-84761068D01*
X91055392Y-84940393D01*
X90876068Y-85158900D01*
X90807735Y-85286742D01*
X90657601Y-85057161D01*
X90459895Y-84855500D01*
X90226646Y-84696285D01*
X89966818Y-84585633D01*
X89884039Y-84568096D01*
X89662000Y-84690085D01*
X89662000Y-86233000D01*
X89682000Y-86233000D01*
X89682000Y-86487000D01*
X89662000Y-86487000D01*
X89662000Y-88029915D01*
X89884039Y-88151904D01*
X89966818Y-88134367D01*
X90226646Y-88023715D01*
X90459895Y-87864500D01*
X90657601Y-87662839D01*
X90807735Y-87433259D01*
X90876068Y-87561101D01*
X91055393Y-87779608D01*
X91273900Y-87958932D01*
X91523193Y-88092182D01*
X91793692Y-88174236D01*
X92075000Y-88201943D01*
X92356309Y-88174236D01*
X92626808Y-88092182D01*
X92876101Y-87958932D01*
X93094608Y-87779608D01*
X93273932Y-87561101D01*
X93345000Y-87428142D01*
X93416068Y-87561101D01*
X93595393Y-87779608D01*
X93813900Y-87958932D01*
X94063193Y-88092182D01*
X94333692Y-88174236D01*
X94615000Y-88201943D01*
X94850000Y-88178797D01*
X94850000Y-88366939D01*
X94889774Y-88566898D01*
X94967795Y-88755256D01*
X95081063Y-88924774D01*
X95225226Y-89068937D01*
X95394744Y-89182205D01*
X95583102Y-89260226D01*
X95783061Y-89300000D01*
X95986939Y-89300000D01*
X96186898Y-89260226D01*
X96375256Y-89182205D01*
X96544774Y-89068937D01*
X96588711Y-89025000D01*
X97520987Y-89025000D01*
X97507795Y-89044744D01*
X97429774Y-89233102D01*
X97390000Y-89433061D01*
X97390000Y-89636939D01*
X97429774Y-89836898D01*
X97507795Y-90025256D01*
X97520987Y-90045000D01*
X94017333Y-90045000D01*
X93980000Y-90041323D01*
X93942667Y-90045000D01*
X93831014Y-90055997D01*
X93687753Y-90099454D01*
X93555724Y-90170026D01*
X93439999Y-90264999D01*
X93416200Y-90293998D01*
X93305198Y-90405000D01*
X93243061Y-90405000D01*
X93043102Y-90444774D01*
X92854744Y-90522795D01*
X92685226Y-90636063D01*
X92541063Y-90780226D01*
X92427795Y-90949744D01*
X92349774Y-91138102D01*
X92310000Y-91338061D01*
X92310000Y-91541939D01*
X92349774Y-91741898D01*
X92427795Y-91930256D01*
X92541063Y-92099774D01*
X92685226Y-92243937D01*
X92854744Y-92357205D01*
X93043102Y-92435226D01*
X93243061Y-92475000D01*
X93446939Y-92475000D01*
X93646898Y-92435226D01*
X93835256Y-92357205D01*
X94004774Y-92243937D01*
X94148937Y-92099774D01*
X94262205Y-91930256D01*
X94340226Y-91741898D01*
X94375413Y-91565000D01*
X97520987Y-91565000D01*
X97507795Y-91584744D01*
X97429774Y-91773102D01*
X97390000Y-91973061D01*
X97390000Y-92161203D01*
X97155000Y-92138057D01*
X96873691Y-92165764D01*
X96603192Y-92247818D01*
X96353899Y-92381068D01*
X96135392Y-92560393D01*
X95956068Y-92778900D01*
X95885000Y-92911858D01*
X95813932Y-92778899D01*
X95634607Y-92560392D01*
X95416100Y-92381068D01*
X95166807Y-92247818D01*
X94896308Y-92165764D01*
X94615000Y-92138057D01*
X94333691Y-92165764D01*
X94063192Y-92247818D01*
X93813899Y-92381068D01*
X93595392Y-92560393D01*
X93416068Y-92778900D01*
X93345000Y-92911858D01*
X93273932Y-92778899D01*
X93094607Y-92560392D01*
X92876100Y-92381068D01*
X92626807Y-92247818D01*
X92356308Y-92165764D01*
X92075000Y-92138057D01*
X91793691Y-92165764D01*
X91523192Y-92247818D01*
X91273899Y-92381068D01*
X91055392Y-92560393D01*
X90876068Y-92778900D01*
X90807735Y-92906742D01*
X90657601Y-92677161D01*
X90459895Y-92475500D01*
X90226646Y-92316285D01*
X89966818Y-92205633D01*
X89884039Y-92188096D01*
X89662000Y-92310085D01*
X89662000Y-93853000D01*
X89682000Y-93853000D01*
X89682000Y-94107000D01*
X89662000Y-94107000D01*
X89662000Y-94127000D01*
X89408000Y-94127000D01*
X89408000Y-94107000D01*
X87122000Y-94107000D01*
X87122000Y-94127000D01*
X86868000Y-94127000D01*
X86868000Y-94107000D01*
X86848000Y-94107000D01*
X86848000Y-93853000D01*
X86868000Y-93853000D01*
X86868000Y-92310085D01*
X87122000Y-92310085D01*
X87122000Y-93853000D01*
X89408000Y-93853000D01*
X89408000Y-92310085D01*
X89185961Y-92188096D01*
X89103182Y-92205633D01*
X88843354Y-92316285D01*
X88610105Y-92475500D01*
X88412399Y-92677161D01*
X88265000Y-92902559D01*
X88117601Y-92677161D01*
X87919895Y-92475500D01*
X87686646Y-92316285D01*
X87426818Y-92205633D01*
X87344039Y-92188096D01*
X87122000Y-92310085D01*
X86868000Y-92310085D01*
X86645961Y-92188096D01*
X86563182Y-92205633D01*
X86303354Y-92316285D01*
X86070105Y-92475500D01*
X85872399Y-92677161D01*
X85722265Y-92906741D01*
X85653932Y-92778899D01*
X85474607Y-92560392D01*
X85256100Y-92381068D01*
X85006807Y-92247818D01*
X84736308Y-92165764D01*
X84455000Y-92138057D01*
X84173691Y-92165764D01*
X83903192Y-92247818D01*
X83653899Y-92381068D01*
X83435392Y-92560393D01*
X83256068Y-92778900D01*
X83185000Y-92911858D01*
X83113932Y-92778899D01*
X82934607Y-92560392D01*
X82716100Y-92381068D01*
X82466807Y-92247818D01*
X82196308Y-92165764D01*
X81915000Y-92138057D01*
X81633691Y-92165764D01*
X81363192Y-92247818D01*
X81113899Y-92381068D01*
X80895392Y-92560393D01*
X80802581Y-92673483D01*
X80800812Y-92655518D01*
X80764502Y-92535820D01*
X80705537Y-92425506D01*
X80626185Y-92328815D01*
X80529494Y-92249463D01*
X80419180Y-92190498D01*
X80299482Y-92154188D01*
X80175000Y-92141928D01*
X78575000Y-92141928D01*
X78450518Y-92154188D01*
X78330820Y-92190498D01*
X78220506Y-92249463D01*
X78123815Y-92328815D01*
X78044463Y-92425506D01*
X77985498Y-92535820D01*
X77949188Y-92655518D01*
X77936928Y-92780000D01*
X77936928Y-95180000D01*
X77949188Y-95304482D01*
X77985498Y-95424180D01*
X78044463Y-95534494D01*
X78123815Y-95631185D01*
X78128464Y-95635000D01*
X74833454Y-95635000D01*
X74785256Y-95602795D01*
X74596898Y-95524774D01*
X74396939Y-95485000D01*
X74193061Y-95485000D01*
X73993102Y-95524774D01*
X73804744Y-95602795D01*
X73635226Y-95716063D01*
X73491063Y-95860226D01*
X73377795Y-96029744D01*
X73299774Y-96218102D01*
X73260000Y-96418061D01*
X66118072Y-96418061D01*
X66118072Y-95530000D01*
X66105812Y-95405518D01*
X66069502Y-95285820D01*
X66010537Y-95175506D01*
X65931185Y-95078815D01*
X65834494Y-94999463D01*
X65724180Y-94940498D01*
X65604482Y-94904188D01*
X65480000Y-94891928D01*
X61520000Y-94891928D01*
X61395518Y-94904188D01*
X61275820Y-94940498D01*
X61165506Y-94999463D01*
X61068815Y-95078815D01*
X60989463Y-95175506D01*
X60930498Y-95285820D01*
X60894188Y-95405518D01*
X60881928Y-95530000D01*
X59182000Y-95530000D01*
X59182000Y-91520000D01*
X60877138Y-91520000D01*
X60908513Y-91838556D01*
X61001432Y-92144869D01*
X61152325Y-92427170D01*
X61355392Y-92674608D01*
X61602830Y-92877675D01*
X61885131Y-93028568D01*
X62191444Y-93121487D01*
X62430176Y-93145000D01*
X64569824Y-93145000D01*
X64808556Y-93121487D01*
X65114869Y-93028568D01*
X65397170Y-92877675D01*
X65644608Y-92674608D01*
X65847675Y-92427170D01*
X65998568Y-92144869D01*
X66091487Y-91838556D01*
X66122862Y-91520000D01*
X66091487Y-91201444D01*
X65998568Y-90895131D01*
X65847675Y-90612830D01*
X65644608Y-90365392D01*
X65397170Y-90162325D01*
X65114869Y-90011432D01*
X64808556Y-89918513D01*
X64569824Y-89895000D01*
X62430176Y-89895000D01*
X62191444Y-89918513D01*
X61885131Y-90011432D01*
X61602830Y-90162325D01*
X61355392Y-90365392D01*
X61152325Y-90612830D01*
X61001432Y-90895131D01*
X60908513Y-91201444D01*
X60877138Y-91520000D01*
X59182000Y-91520000D01*
X59182000Y-86520000D01*
X60877138Y-86520000D01*
X60908513Y-86838556D01*
X61001432Y-87144869D01*
X61152325Y-87427170D01*
X61355392Y-87674608D01*
X61602830Y-87877675D01*
X61885131Y-88028568D01*
X62191444Y-88121487D01*
X62430176Y-88145000D01*
X64569824Y-88145000D01*
X64808556Y-88121487D01*
X65114869Y-88028568D01*
X65397170Y-87877675D01*
X65644608Y-87674608D01*
X65847675Y-87427170D01*
X65998568Y-87144869D01*
X66091487Y-86838556D01*
X66122862Y-86520000D01*
X66091487Y-86201444D01*
X65998568Y-85895131D01*
X65995563Y-85889509D01*
X77940000Y-85889509D01*
X77940000Y-86830492D01*
X77960764Y-87041309D01*
X78042818Y-87311808D01*
X78176068Y-87561101D01*
X78355393Y-87779608D01*
X78573900Y-87958932D01*
X78823193Y-88092182D01*
X79093692Y-88174236D01*
X79375000Y-88201943D01*
X79656309Y-88174236D01*
X79926808Y-88092182D01*
X80176101Y-87958932D01*
X80394608Y-87779608D01*
X80573932Y-87561101D01*
X80645000Y-87428142D01*
X80716068Y-87561101D01*
X80895393Y-87779608D01*
X81113900Y-87958932D01*
X81363193Y-88092182D01*
X81633692Y-88174236D01*
X81915000Y-88201943D01*
X82196309Y-88174236D01*
X82466808Y-88092182D01*
X82716101Y-87958932D01*
X82934608Y-87779608D01*
X83113932Y-87561101D01*
X83185000Y-87428142D01*
X83256068Y-87561101D01*
X83435393Y-87779608D01*
X83653900Y-87958932D01*
X83903193Y-88092182D01*
X84173692Y-88174236D01*
X84455000Y-88201943D01*
X84736309Y-88174236D01*
X85006808Y-88092182D01*
X85256101Y-87958932D01*
X85474608Y-87779608D01*
X85653932Y-87561101D01*
X85722265Y-87433259D01*
X85872399Y-87662839D01*
X86070105Y-87864500D01*
X86303354Y-88023715D01*
X86563182Y-88134367D01*
X86645961Y-88151904D01*
X86868000Y-88029915D01*
X86868000Y-86487000D01*
X87122000Y-86487000D01*
X87122000Y-88029915D01*
X87344039Y-88151904D01*
X87426818Y-88134367D01*
X87686646Y-88023715D01*
X87919895Y-87864500D01*
X88117601Y-87662839D01*
X88265000Y-87437441D01*
X88412399Y-87662839D01*
X88610105Y-87864500D01*
X88843354Y-88023715D01*
X89103182Y-88134367D01*
X89185961Y-88151904D01*
X89408000Y-88029915D01*
X89408000Y-86487000D01*
X87122000Y-86487000D01*
X86868000Y-86487000D01*
X86848000Y-86487000D01*
X86848000Y-86233000D01*
X86868000Y-86233000D01*
X86868000Y-84690085D01*
X87122000Y-84690085D01*
X87122000Y-86233000D01*
X89408000Y-86233000D01*
X89408000Y-84690085D01*
X89185961Y-84568096D01*
X89103182Y-84585633D01*
X88843354Y-84696285D01*
X88610105Y-84855500D01*
X88412399Y-85057161D01*
X88265000Y-85282559D01*
X88117601Y-85057161D01*
X87919895Y-84855500D01*
X87686646Y-84696285D01*
X87426818Y-84585633D01*
X87344039Y-84568096D01*
X87122000Y-84690085D01*
X86868000Y-84690085D01*
X86645961Y-84568096D01*
X86563182Y-84585633D01*
X86303354Y-84696285D01*
X86070105Y-84855500D01*
X85872399Y-85057161D01*
X85722265Y-85286741D01*
X85653932Y-85158899D01*
X85474607Y-84940392D01*
X85256100Y-84761068D01*
X85006807Y-84627818D01*
X84736308Y-84545764D01*
X84455000Y-84518057D01*
X84173691Y-84545764D01*
X83903192Y-84627818D01*
X83653899Y-84761068D01*
X83435392Y-84940393D01*
X83256068Y-85158900D01*
X83185000Y-85291858D01*
X83113932Y-85158899D01*
X82934607Y-84940392D01*
X82716100Y-84761068D01*
X82466807Y-84627818D01*
X82196308Y-84545764D01*
X81915000Y-84518057D01*
X81633691Y-84545764D01*
X81363192Y-84627818D01*
X81113899Y-84761068D01*
X80895392Y-84940393D01*
X80716068Y-85158900D01*
X80645000Y-85291858D01*
X80573932Y-85158899D01*
X80394607Y-84940392D01*
X80176100Y-84761068D01*
X80135000Y-84739100D01*
X80135000Y-80713711D01*
X80178937Y-80669774D01*
X80292205Y-80500256D01*
X80370226Y-80311898D01*
X80410000Y-80111939D01*
X80410000Y-79908061D01*
X80370226Y-79708102D01*
X80292205Y-79519744D01*
X80178937Y-79350226D01*
X80128711Y-79300000D01*
X103781928Y-79300000D01*
X103781928Y-83260000D01*
X103794188Y-83384482D01*
X103830498Y-83504180D01*
X103889463Y-83614494D01*
X103968815Y-83711185D01*
X104065506Y-83790537D01*
X104175820Y-83849502D01*
X104295518Y-83885812D01*
X104420000Y-83898072D01*
X106400000Y-83898072D01*
X106524482Y-83885812D01*
X106644180Y-83849502D01*
X106754494Y-83790537D01*
X106851185Y-83711185D01*
X106930537Y-83614494D01*
X106989502Y-83504180D01*
X107025812Y-83384482D01*
X107038072Y-83260000D01*
X107038072Y-81407000D01*
X108785000Y-81407000D01*
X108785000Y-82397000D01*
X108841000Y-82711582D01*
X108957296Y-83009194D01*
X109129419Y-83278399D01*
X109350754Y-83508852D01*
X109612795Y-83691696D01*
X109905472Y-83819905D01*
X110031135Y-83850218D01*
X110283000Y-83730740D01*
X110283000Y-81407000D01*
X110537000Y-81407000D01*
X110537000Y-83730740D01*
X110788865Y-83850218D01*
X110914528Y-83819905D01*
X111207205Y-83691696D01*
X111469246Y-83508852D01*
X111690581Y-83278399D01*
X111862704Y-83009194D01*
X111979000Y-82711582D01*
X112035000Y-82397000D01*
X112035000Y-81407000D01*
X110537000Y-81407000D01*
X110283000Y-81407000D01*
X108785000Y-81407000D01*
X107038072Y-81407000D01*
X107038072Y-80163000D01*
X108785000Y-80163000D01*
X108785000Y-81153000D01*
X110283000Y-81153000D01*
X110283000Y-78829260D01*
X110537000Y-78829260D01*
X110537000Y-81153000D01*
X112035000Y-81153000D01*
X112035000Y-80163000D01*
X111979000Y-79848418D01*
X111862704Y-79550806D01*
X111690581Y-79281601D01*
X111469246Y-79051148D01*
X111207205Y-78868304D01*
X110914528Y-78740095D01*
X110788865Y-78709782D01*
X110537000Y-78829260D01*
X110283000Y-78829260D01*
X110031135Y-78709782D01*
X109905472Y-78740095D01*
X109612795Y-78868304D01*
X109350754Y-79051148D01*
X109129419Y-79281601D01*
X108957296Y-79550806D01*
X108841000Y-79848418D01*
X108785000Y-80163000D01*
X107038072Y-80163000D01*
X107038072Y-79300000D01*
X107025812Y-79175518D01*
X106989502Y-79055820D01*
X106930537Y-78945506D01*
X106851185Y-78848815D01*
X106754494Y-78769463D01*
X106644180Y-78710498D01*
X106524482Y-78674188D01*
X106400000Y-78661928D01*
X104420000Y-78661928D01*
X104295518Y-78674188D01*
X104175820Y-78710498D01*
X104065506Y-78769463D01*
X103968815Y-78848815D01*
X103889463Y-78945506D01*
X103830498Y-79055820D01*
X103794188Y-79175518D01*
X103781928Y-79300000D01*
X80128711Y-79300000D01*
X80034774Y-79206063D01*
X79865256Y-79092795D01*
X79676898Y-79014774D01*
X79476939Y-78975000D01*
X79273061Y-78975000D01*
X79073102Y-79014774D01*
X78884744Y-79092795D01*
X78715226Y-79206063D01*
X78571063Y-79350226D01*
X78457795Y-79519744D01*
X78379774Y-79708102D01*
X78340000Y-79908061D01*
X78340000Y-80111939D01*
X78379774Y-80311898D01*
X78457795Y-80500256D01*
X78571063Y-80669774D01*
X78615001Y-80713712D01*
X78615000Y-84739099D01*
X78573899Y-84761068D01*
X78355392Y-84940393D01*
X78176068Y-85158900D01*
X78042818Y-85408193D01*
X77960764Y-85678692D01*
X77940000Y-85889509D01*
X65995563Y-85889509D01*
X65847675Y-85612830D01*
X65644608Y-85365392D01*
X65397170Y-85162325D01*
X65114869Y-85011432D01*
X64808556Y-84918513D01*
X64569824Y-84895000D01*
X62430176Y-84895000D01*
X62191444Y-84918513D01*
X61885131Y-85011432D01*
X61602830Y-85162325D01*
X61355392Y-85365392D01*
X61152325Y-85612830D01*
X61001432Y-85895131D01*
X60908513Y-86201444D01*
X60877138Y-86520000D01*
X59182000Y-86520000D01*
X59182000Y-76779872D01*
X61765000Y-76779872D01*
X61765000Y-77220128D01*
X61850890Y-77651925D01*
X62019369Y-78058669D01*
X62263962Y-78424729D01*
X62575271Y-78736038D01*
X62941331Y-78980631D01*
X63348075Y-79149110D01*
X63779872Y-79235000D01*
X64220128Y-79235000D01*
X64651925Y-79149110D01*
X65058669Y-78980631D01*
X65424729Y-78736038D01*
X65736038Y-78424729D01*
X65980631Y-78058669D01*
X66149110Y-77651925D01*
X66235000Y-77220128D01*
X66235000Y-76779872D01*
X124765000Y-76779872D01*
X124765000Y-77220128D01*
X124850890Y-77651925D01*
X125019369Y-78058669D01*
X125263962Y-78424729D01*
X125575271Y-78736038D01*
X125941331Y-78980631D01*
X126348075Y-79149110D01*
X126779872Y-79235000D01*
X127220128Y-79235000D01*
X127651925Y-79149110D01*
X128058669Y-78980631D01*
X128424729Y-78736038D01*
X128736038Y-78424729D01*
X128980631Y-78058669D01*
X129149110Y-77651925D01*
X129235000Y-77220128D01*
X129235000Y-76779872D01*
X129149110Y-76348075D01*
X128980631Y-75941331D01*
X128736038Y-75575271D01*
X128424729Y-75263962D01*
X128058669Y-75019369D01*
X127651925Y-74850890D01*
X127220128Y-74765000D01*
X126779872Y-74765000D01*
X126348075Y-74850890D01*
X125941331Y-75019369D01*
X125575271Y-75263962D01*
X125263962Y-75575271D01*
X125019369Y-75941331D01*
X124850890Y-76348075D01*
X124765000Y-76779872D01*
X66235000Y-76779872D01*
X66149110Y-76348075D01*
X65980631Y-75941331D01*
X65736038Y-75575271D01*
X65424729Y-75263962D01*
X65058669Y-75019369D01*
X64651925Y-74850890D01*
X64220128Y-74765000D01*
X63779872Y-74765000D01*
X63348075Y-74850890D01*
X62941331Y-75019369D01*
X62575271Y-75263962D01*
X62263962Y-75575271D01*
X62019369Y-75941331D01*
X61850890Y-76348075D01*
X61765000Y-76779872D01*
X59182000Y-76779872D01*
X59182000Y-74422000D01*
X130683000Y-74422000D01*
X130683000Y-143383000D01*
G37*
X130683000Y-143383000D02*
X59182000Y-143383000D01*
X59182000Y-139779872D01*
X61765000Y-139779872D01*
X61765000Y-140220128D01*
X61850890Y-140651925D01*
X62019369Y-141058669D01*
X62263962Y-141424729D01*
X62575271Y-141736038D01*
X62941331Y-141980631D01*
X63348075Y-142149110D01*
X63779872Y-142235000D01*
X64220128Y-142235000D01*
X64651925Y-142149110D01*
X65058669Y-141980631D01*
X65424729Y-141736038D01*
X65736038Y-141424729D01*
X65980631Y-141058669D01*
X66149110Y-140651925D01*
X66235000Y-140220128D01*
X66235000Y-139779872D01*
X124765000Y-139779872D01*
X124765000Y-140220128D01*
X124850890Y-140651925D01*
X125019369Y-141058669D01*
X125263962Y-141424729D01*
X125575271Y-141736038D01*
X125941331Y-141980631D01*
X126348075Y-142149110D01*
X126779872Y-142235000D01*
X127220128Y-142235000D01*
X127651925Y-142149110D01*
X128058669Y-141980631D01*
X128424729Y-141736038D01*
X128736038Y-141424729D01*
X128980631Y-141058669D01*
X129149110Y-140651925D01*
X129235000Y-140220128D01*
X129235000Y-139779872D01*
X129149110Y-139348075D01*
X128980631Y-138941331D01*
X128736038Y-138575271D01*
X128424729Y-138263962D01*
X128058669Y-138019369D01*
X127651925Y-137850890D01*
X127220128Y-137765000D01*
X126779872Y-137765000D01*
X126348075Y-137850890D01*
X125941331Y-138019369D01*
X125575271Y-138263962D01*
X125263962Y-138575271D01*
X125019369Y-138941331D01*
X124850890Y-139348075D01*
X124765000Y-139779872D01*
X66235000Y-139779872D01*
X66149110Y-139348075D01*
X65980631Y-138941331D01*
X65736038Y-138575271D01*
X65424729Y-138263962D01*
X65058669Y-138019369D01*
X64651925Y-137850890D01*
X64220128Y-137765000D01*
X63779872Y-137765000D01*
X63348075Y-137850890D01*
X62941331Y-138019369D01*
X62575271Y-138263962D01*
X62263962Y-138575271D01*
X62019369Y-138941331D01*
X61850890Y-139348075D01*
X61765000Y-139779872D01*
X59182000Y-139779872D01*
X59182000Y-133167702D01*
X65226903Y-133167702D01*
X65298486Y-133411671D01*
X65553996Y-133532571D01*
X65828184Y-133601300D01*
X66110512Y-133615217D01*
X66390130Y-133573787D01*
X66656292Y-133478603D01*
X66765931Y-133420000D01*
X77936928Y-133420000D01*
X77936928Y-135820000D01*
X77949188Y-135944482D01*
X77985498Y-136064180D01*
X78044463Y-136174494D01*
X78123815Y-136271185D01*
X78220506Y-136350537D01*
X78330820Y-136409502D01*
X78450518Y-136445812D01*
X78575000Y-136458072D01*
X80175000Y-136458072D01*
X80299482Y-136445812D01*
X80419180Y-136409502D01*
X80529494Y-136350537D01*
X80626185Y-136271185D01*
X80705537Y-136174494D01*
X80764502Y-136064180D01*
X80800812Y-135944482D01*
X80802581Y-135926517D01*
X80895393Y-136039608D01*
X81113900Y-136218932D01*
X81363193Y-136352182D01*
X81633692Y-136434236D01*
X81915000Y-136461943D01*
X82196309Y-136434236D01*
X82466808Y-136352182D01*
X82716101Y-136218932D01*
X82934608Y-136039608D01*
X83113932Y-135821101D01*
X83185000Y-135688142D01*
X83256068Y-135821101D01*
X83435393Y-136039608D01*
X83653900Y-136218932D01*
X83903193Y-136352182D01*
X84173692Y-136434236D01*
X84455000Y-136461943D01*
X84736309Y-136434236D01*
X85006808Y-136352182D01*
X85256101Y-136218932D01*
X85474608Y-136039608D01*
X85653932Y-135821101D01*
X85722265Y-135693259D01*
X85872399Y-135922839D01*
X86070105Y-136124500D01*
X86303354Y-136283715D01*
X86563182Y-136394367D01*
X86645961Y-136411904D01*
X86868000Y-136289915D01*
X86868000Y-134747000D01*
X87122000Y-134747000D01*
X87122000Y-136289915D01*
X87344039Y-136411904D01*
X87426818Y-136394367D01*
X87686646Y-136283715D01*
X87919895Y-136124500D01*
X88117601Y-135922839D01*
X88265000Y-135697441D01*
X88412399Y-135922839D01*
X88610105Y-136124500D01*
X88843354Y-136283715D01*
X89103182Y-136394367D01*
X89185961Y-136411904D01*
X89408000Y-136289915D01*
X89408000Y-134747000D01*
X87122000Y-134747000D01*
X86868000Y-134747000D01*
X86848000Y-134747000D01*
X86848000Y-134493000D01*
X86868000Y-134493000D01*
X86868000Y-132950085D01*
X87122000Y-132950085D01*
X87122000Y-134493000D01*
X89408000Y-134493000D01*
X89408000Y-132950085D01*
X89662000Y-132950085D01*
X89662000Y-134493000D01*
X89682000Y-134493000D01*
X89682000Y-134747000D01*
X89662000Y-134747000D01*
X89662000Y-136289915D01*
X89884039Y-136411904D01*
X89966818Y-136394367D01*
X90226646Y-136283715D01*
X90459895Y-136124500D01*
X90657601Y-135922839D01*
X90807735Y-135693259D01*
X90876068Y-135821101D01*
X91055393Y-136039608D01*
X91273900Y-136218932D01*
X91523193Y-136352182D01*
X91793692Y-136434236D01*
X92075000Y-136461943D01*
X92356309Y-136434236D01*
X92626808Y-136352182D01*
X92876101Y-136218932D01*
X93094608Y-136039608D01*
X93273932Y-135821101D01*
X93345000Y-135688142D01*
X93416068Y-135821101D01*
X93595393Y-136039608D01*
X93813900Y-136218932D01*
X94063193Y-136352182D01*
X94333692Y-136434236D01*
X94615000Y-136461943D01*
X94896309Y-136434236D01*
X95166808Y-136352182D01*
X95416101Y-136218932D01*
X95634608Y-136039608D01*
X95813932Y-135821101D01*
X95885000Y-135688142D01*
X95956068Y-135821101D01*
X96135393Y-136039608D01*
X96353900Y-136218932D01*
X96603193Y-136352182D01*
X96873692Y-136434236D01*
X97155000Y-136461943D01*
X97436309Y-136434236D01*
X97706808Y-136352182D01*
X97956101Y-136218932D01*
X98174608Y-136039608D01*
X98353932Y-135821101D01*
X98487182Y-135571808D01*
X98569236Y-135301309D01*
X98590000Y-135090491D01*
X98590000Y-134149508D01*
X98569236Y-133938691D01*
X98487182Y-133668192D01*
X98353932Y-133418899D01*
X98174607Y-133200392D01*
X97956100Y-133021068D01*
X97706807Y-132887818D01*
X97436308Y-132805764D01*
X97155000Y-132778057D01*
X96873691Y-132805764D01*
X96603192Y-132887818D01*
X96353899Y-133021068D01*
X96135392Y-133200393D01*
X95956068Y-133418900D01*
X95885000Y-133551858D01*
X95813932Y-133418899D01*
X95634607Y-133200392D01*
X95416100Y-133021068D01*
X95166807Y-132887818D01*
X94896308Y-132805764D01*
X94615000Y-132778057D01*
X94333691Y-132805764D01*
X94063192Y-132887818D01*
X93813899Y-133021068D01*
X93595392Y-133200393D01*
X93416068Y-133418900D01*
X93345000Y-133551858D01*
X93273932Y-133418899D01*
X93094607Y-133200392D01*
X92876100Y-133021068D01*
X92626807Y-132887818D01*
X92356308Y-132805764D01*
X92075000Y-132778057D01*
X91793691Y-132805764D01*
X91523192Y-132887818D01*
X91273899Y-133021068D01*
X91055392Y-133200393D01*
X90876068Y-133418900D01*
X90807735Y-133546742D01*
X90657601Y-133317161D01*
X90459895Y-133115500D01*
X90226646Y-132956285D01*
X89966818Y-132845633D01*
X89884039Y-132828096D01*
X89662000Y-132950085D01*
X89408000Y-132950085D01*
X89185961Y-132828096D01*
X89103182Y-132845633D01*
X88843354Y-132956285D01*
X88610105Y-133115500D01*
X88412399Y-133317161D01*
X88265000Y-133542559D01*
X88117601Y-133317161D01*
X87919895Y-133115500D01*
X87686646Y-132956285D01*
X87426818Y-132845633D01*
X87344039Y-132828096D01*
X87122000Y-132950085D01*
X86868000Y-132950085D01*
X86645961Y-132828096D01*
X86563182Y-132845633D01*
X86303354Y-132956285D01*
X86070105Y-133115500D01*
X85872399Y-133317161D01*
X85722265Y-133546741D01*
X85653932Y-133418899D01*
X85474607Y-133200392D01*
X85256100Y-133021068D01*
X85006807Y-132887818D01*
X84736308Y-132805764D01*
X84455000Y-132778057D01*
X84173691Y-132805764D01*
X83903192Y-132887818D01*
X83653899Y-133021068D01*
X83435392Y-133200393D01*
X83256068Y-133418900D01*
X83185000Y-133551858D01*
X83113932Y-133418899D01*
X82934607Y-133200392D01*
X82716100Y-133021068D01*
X82466807Y-132887818D01*
X82196308Y-132805764D01*
X81915000Y-132778057D01*
X81633691Y-132805764D01*
X81363192Y-132887818D01*
X81113899Y-133021068D01*
X80895392Y-133200393D01*
X80802581Y-133313483D01*
X80800812Y-133295518D01*
X80764502Y-133175820D01*
X80705537Y-133065506D01*
X80626185Y-132968815D01*
X80529494Y-132889463D01*
X80419180Y-132830498D01*
X80299482Y-132794188D01*
X80175000Y-132781928D01*
X78575000Y-132781928D01*
X78450518Y-132794188D01*
X78330820Y-132830498D01*
X78220506Y-132889463D01*
X78123815Y-132968815D01*
X78044463Y-133065506D01*
X77985498Y-133175820D01*
X77949188Y-133295518D01*
X77936928Y-133420000D01*
X66765931Y-133420000D01*
X66781514Y-133411671D01*
X66853097Y-133167702D01*
X66040000Y-132354605D01*
X65226903Y-133167702D01*
X59182000Y-133167702D01*
X59182000Y-132245512D01*
X64599783Y-132245512D01*
X64641213Y-132525130D01*
X64736397Y-132791292D01*
X64803329Y-132916514D01*
X65047298Y-132988097D01*
X65860395Y-132175000D01*
X65846253Y-132160858D01*
X66025858Y-131981253D01*
X66040000Y-131995395D01*
X66054143Y-131981253D01*
X66233748Y-132160858D01*
X66219605Y-132175000D01*
X67032702Y-132988097D01*
X67276671Y-132916514D01*
X67397571Y-132661004D01*
X67466300Y-132386816D01*
X67480217Y-132104488D01*
X67438787Y-131824870D01*
X67343603Y-131558708D01*
X67278384Y-131436691D01*
X67291185Y-131426185D01*
X67370537Y-131329494D01*
X67429502Y-131219180D01*
X67465812Y-131099482D01*
X67478072Y-130975000D01*
X67478072Y-129375000D01*
X67465812Y-129250518D01*
X67429502Y-129130820D01*
X67370537Y-129020506D01*
X67291185Y-128923815D01*
X67194494Y-128844463D01*
X67084180Y-128785498D01*
X66964482Y-128749188D01*
X66840000Y-128736928D01*
X65240000Y-128736928D01*
X65115518Y-128749188D01*
X64995820Y-128785498D01*
X64885506Y-128844463D01*
X64788815Y-128923815D01*
X64709463Y-129020506D01*
X64650498Y-129130820D01*
X64614188Y-129250518D01*
X64601928Y-129375000D01*
X64601928Y-130975000D01*
X64614188Y-131099482D01*
X64650498Y-131219180D01*
X64709463Y-131329494D01*
X64788815Y-131426185D01*
X64801758Y-131436807D01*
X64682429Y-131688996D01*
X64613700Y-131963184D01*
X64599783Y-132245512D01*
X59182000Y-132245512D01*
X59182000Y-126898061D01*
X70720000Y-126898061D01*
X70720000Y-127101939D01*
X70759774Y-127301898D01*
X70837795Y-127490256D01*
X70951063Y-127659774D01*
X71095226Y-127803937D01*
X71264744Y-127917205D01*
X71453102Y-127995226D01*
X71653061Y-128035000D01*
X71856939Y-128035000D01*
X72056898Y-127995226D01*
X72245256Y-127917205D01*
X72414774Y-127803937D01*
X72458711Y-127760000D01*
X77984634Y-127760000D01*
X78042818Y-127951808D01*
X78176068Y-128201101D01*
X78355393Y-128419608D01*
X78573900Y-128598932D01*
X78823193Y-128732182D01*
X79093692Y-128814236D01*
X79375000Y-128841943D01*
X79656309Y-128814236D01*
X79926808Y-128732182D01*
X80176101Y-128598932D01*
X80394608Y-128419608D01*
X80573932Y-128201101D01*
X80645000Y-128068142D01*
X80716068Y-128201101D01*
X80895393Y-128419608D01*
X81113900Y-128598932D01*
X81363193Y-128732182D01*
X81633692Y-128814236D01*
X81915000Y-128841943D01*
X82196309Y-128814236D01*
X82466808Y-128732182D01*
X82716101Y-128598932D01*
X82934608Y-128419608D01*
X83113932Y-128201101D01*
X83185000Y-128068142D01*
X83256068Y-128201101D01*
X83435393Y-128419608D01*
X83653900Y-128598932D01*
X83903193Y-128732182D01*
X84173692Y-128814236D01*
X84455000Y-128841943D01*
X84736309Y-128814236D01*
X85006808Y-128732182D01*
X85256101Y-128598932D01*
X85474608Y-128419608D01*
X85653932Y-128201101D01*
X85722265Y-128073259D01*
X85872399Y-128302839D01*
X86070105Y-128504500D01*
X86303354Y-128663715D01*
X86563182Y-128774367D01*
X86645961Y-128791904D01*
X86868000Y-128669915D01*
X86868000Y-127127000D01*
X87122000Y-127127000D01*
X87122000Y-128669915D01*
X87344039Y-128791904D01*
X87426818Y-128774367D01*
X87686646Y-128663715D01*
X87919895Y-128504500D01*
X88117601Y-128302839D01*
X88265000Y-128077441D01*
X88412399Y-128302839D01*
X88610105Y-128504500D01*
X88843354Y-128663715D01*
X89103182Y-128774367D01*
X89185961Y-128791904D01*
X89408000Y-128669915D01*
X89408000Y-127127000D01*
X87122000Y-127127000D01*
X86868000Y-127127000D01*
X86848000Y-127127000D01*
X86848000Y-126873000D01*
X86868000Y-126873000D01*
X86868000Y-125330085D01*
X87122000Y-125330085D01*
X87122000Y-126873000D01*
X89408000Y-126873000D01*
X89408000Y-125330085D01*
X89662000Y-125330085D01*
X89662000Y-126873000D01*
X89682000Y-126873000D01*
X89682000Y-127127000D01*
X89662000Y-127127000D01*
X89662000Y-128669915D01*
X89884039Y-128791904D01*
X89966818Y-128774367D01*
X90226646Y-128663715D01*
X90459895Y-128504500D01*
X90657601Y-128302839D01*
X90807735Y-128073259D01*
X90876068Y-128201101D01*
X91055393Y-128419608D01*
X91273900Y-128598932D01*
X91523193Y-128732182D01*
X91793692Y-128814236D01*
X92075000Y-128841943D01*
X92356309Y-128814236D01*
X92626808Y-128732182D01*
X92876101Y-128598932D01*
X93094608Y-128419608D01*
X93273932Y-128201101D01*
X93345000Y-128068142D01*
X93416068Y-128201101D01*
X93595393Y-128419608D01*
X93813900Y-128598932D01*
X94063193Y-128732182D01*
X94333692Y-128814236D01*
X94615000Y-128841943D01*
X94896309Y-128814236D01*
X95166808Y-128732182D01*
X95416101Y-128598932D01*
X95634608Y-128419608D01*
X95813932Y-128201101D01*
X95885000Y-128068142D01*
X95956068Y-128201101D01*
X96117520Y-128397830D01*
X96069773Y-128513101D01*
X96029999Y-128713060D01*
X96029999Y-128916938D01*
X96069773Y-129116897D01*
X96147794Y-129305255D01*
X96261062Y-129474773D01*
X96405225Y-129618936D01*
X96574743Y-129732204D01*
X96763101Y-129810225D01*
X96831323Y-129823795D01*
X96664744Y-129892795D01*
X96495226Y-130006063D01*
X96351063Y-130150226D01*
X96237795Y-130319744D01*
X96159774Y-130508102D01*
X96120000Y-130708061D01*
X96120000Y-130911939D01*
X96159774Y-131111898D01*
X96237795Y-131300256D01*
X96351063Y-131469774D01*
X96495226Y-131613937D01*
X96664744Y-131727205D01*
X96853102Y-131805226D01*
X97053061Y-131845000D01*
X97256939Y-131845000D01*
X97456898Y-131805226D01*
X97645256Y-131727205D01*
X97814774Y-131613937D01*
X97858711Y-131570000D01*
X103436289Y-131570000D01*
X103480226Y-131613937D01*
X103649744Y-131727205D01*
X103838102Y-131805226D01*
X104038061Y-131845000D01*
X104241939Y-131845000D01*
X104441898Y-131805226D01*
X104630256Y-131727205D01*
X104799774Y-131613937D01*
X104943937Y-131469774D01*
X105057205Y-131300256D01*
X105135226Y-131111898D01*
X105175000Y-130911939D01*
X105175000Y-130708061D01*
X105135226Y-130508102D01*
X105057205Y-130319744D01*
X104943937Y-130150226D01*
X104799774Y-130006063D01*
X104630256Y-129892795D01*
X104441898Y-129814774D01*
X104241939Y-129775000D01*
X104038061Y-129775000D01*
X103871961Y-129808039D01*
X103905000Y-129641939D01*
X103905000Y-129438061D01*
X103865226Y-129238102D01*
X103787205Y-129049744D01*
X103673937Y-128880226D01*
X103529774Y-128736063D01*
X103360256Y-128622795D01*
X103171898Y-128544774D01*
X102971939Y-128505000D01*
X102768061Y-128505000D01*
X102686830Y-128521158D01*
X102685227Y-128513101D01*
X102607206Y-128324743D01*
X102493938Y-128155225D01*
X102349775Y-128011062D01*
X102180257Y-127897794D01*
X101991899Y-127819773D01*
X101791940Y-127779999D01*
X101588062Y-127779999D01*
X101388103Y-127819773D01*
X101199745Y-127897794D01*
X101030227Y-128011062D01*
X100986290Y-128054999D01*
X98432025Y-128054999D01*
X98487182Y-127951808D01*
X98545366Y-127760000D01*
X103436289Y-127760000D01*
X103480226Y-127803937D01*
X103649744Y-127917205D01*
X103838102Y-127995226D01*
X104038061Y-128035000D01*
X104241939Y-128035000D01*
X104441898Y-127995226D01*
X104630256Y-127917205D01*
X104799774Y-127803937D01*
X104943937Y-127659774D01*
X105057205Y-127490256D01*
X105135226Y-127301898D01*
X105175000Y-127101939D01*
X105175000Y-126898061D01*
X105135226Y-126698102D01*
X105057205Y-126509744D01*
X104943937Y-126340226D01*
X104799774Y-126196063D01*
X104630256Y-126082795D01*
X104441898Y-126004774D01*
X104241939Y-125965000D01*
X104038061Y-125965000D01*
X103838102Y-126004774D01*
X103649744Y-126082795D01*
X103480226Y-126196063D01*
X103436289Y-126240000D01*
X98545366Y-126240000D01*
X98487182Y-126048192D01*
X98353932Y-125798899D01*
X98174607Y-125580392D01*
X97956100Y-125401068D01*
X97706807Y-125267818D01*
X97436308Y-125185764D01*
X97155000Y-125158057D01*
X96873691Y-125185764D01*
X96603192Y-125267818D01*
X96353899Y-125401068D01*
X96135392Y-125580393D01*
X95956068Y-125798900D01*
X95885000Y-125931858D01*
X95813932Y-125798899D01*
X95634607Y-125580392D01*
X95416100Y-125401068D01*
X95166807Y-125267818D01*
X94896308Y-125185764D01*
X94615000Y-125158057D01*
X94333691Y-125185764D01*
X94063192Y-125267818D01*
X93813899Y-125401068D01*
X93595392Y-125580393D01*
X93416068Y-125798900D01*
X93345000Y-125931858D01*
X93273932Y-125798899D01*
X93094607Y-125580392D01*
X92876100Y-125401068D01*
X92626807Y-125267818D01*
X92356308Y-125185764D01*
X92075000Y-125158057D01*
X91793691Y-125185764D01*
X91523192Y-125267818D01*
X91273899Y-125401068D01*
X91055392Y-125580393D01*
X90876068Y-125798900D01*
X90807735Y-125926742D01*
X90657601Y-125697161D01*
X90459895Y-125495500D01*
X90226646Y-125336285D01*
X89966818Y-125225633D01*
X89884039Y-125208096D01*
X89662000Y-125330085D01*
X89408000Y-125330085D01*
X89185961Y-125208096D01*
X89103182Y-125225633D01*
X88843354Y-125336285D01*
X88610105Y-125495500D01*
X88412399Y-125697161D01*
X88265000Y-125922559D01*
X88117601Y-125697161D01*
X87919895Y-125495500D01*
X87686646Y-125336285D01*
X87426818Y-125225633D01*
X87344039Y-125208096D01*
X87122000Y-125330085D01*
X86868000Y-125330085D01*
X86645961Y-125208096D01*
X86563182Y-125225633D01*
X86303354Y-125336285D01*
X86070105Y-125495500D01*
X85872399Y-125697161D01*
X85722265Y-125926741D01*
X85653932Y-125798899D01*
X85474607Y-125580392D01*
X85256100Y-125401068D01*
X85006807Y-125267818D01*
X84736308Y-125185764D01*
X84455000Y-125158057D01*
X84173691Y-125185764D01*
X83903192Y-125267818D01*
X83653899Y-125401068D01*
X83435392Y-125580393D01*
X83256068Y-125798900D01*
X83185000Y-125931858D01*
X83113932Y-125798899D01*
X82934607Y-125580392D01*
X82716100Y-125401068D01*
X82466807Y-125267818D01*
X82196308Y-125185764D01*
X81915000Y-125158057D01*
X81633691Y-125185764D01*
X81363192Y-125267818D01*
X81113899Y-125401068D01*
X80895392Y-125580393D01*
X80716068Y-125798900D01*
X80645000Y-125931858D01*
X80573932Y-125798899D01*
X80394607Y-125580392D01*
X80176100Y-125401068D01*
X79926807Y-125267818D01*
X79656308Y-125185764D01*
X79375000Y-125158057D01*
X79093691Y-125185764D01*
X78823192Y-125267818D01*
X78573899Y-125401068D01*
X78355392Y-125580393D01*
X78176068Y-125798900D01*
X78042818Y-126048193D01*
X77984635Y-126240000D01*
X72458711Y-126240000D01*
X72414774Y-126196063D01*
X72245256Y-126082795D01*
X72056898Y-126004774D01*
X71856939Y-125965000D01*
X71653061Y-125965000D01*
X71453102Y-126004774D01*
X71264744Y-126082795D01*
X71095226Y-126196063D01*
X70951063Y-126340226D01*
X70837795Y-126509744D01*
X70759774Y-126698102D01*
X70720000Y-126898061D01*
X59182000Y-126898061D01*
X59182000Y-120770000D01*
X60881928Y-120770000D01*
X60881928Y-122750000D01*
X60894188Y-122874482D01*
X60930498Y-122994180D01*
X60989463Y-123104494D01*
X61068815Y-123201185D01*
X61165506Y-123280537D01*
X61275820Y-123339502D01*
X61395518Y-123375812D01*
X61520000Y-123388072D01*
X65480000Y-123388072D01*
X65604482Y-123375812D01*
X65724180Y-123339502D01*
X65834494Y-123280537D01*
X65931185Y-123201185D01*
X66010537Y-123104494D01*
X66069502Y-122994180D01*
X66105812Y-122874482D01*
X66118072Y-122750000D01*
X66118072Y-120770000D01*
X66105812Y-120645518D01*
X66069502Y-120525820D01*
X66010537Y-120415506D01*
X65931185Y-120318815D01*
X65834494Y-120239463D01*
X65724180Y-120180498D01*
X65604482Y-120144188D01*
X65480000Y-120131928D01*
X61520000Y-120131928D01*
X61395518Y-120144188D01*
X61275820Y-120180498D01*
X61165506Y-120239463D01*
X61068815Y-120318815D01*
X60989463Y-120415506D01*
X60930498Y-120525820D01*
X60894188Y-120645518D01*
X60881928Y-120770000D01*
X59182000Y-120770000D01*
X59182000Y-118643061D01*
X71990000Y-118643061D01*
X71990000Y-118846939D01*
X72029774Y-119046898D01*
X72107795Y-119235256D01*
X72140000Y-119283454D01*
X72140001Y-124416513D01*
X72135718Y-124460000D01*
X72152805Y-124633490D01*
X72203411Y-124800313D01*
X72285589Y-124954059D01*
X72396183Y-125088817D01*
X72530941Y-125199411D01*
X72684687Y-125281589D01*
X72851510Y-125332195D01*
X72981523Y-125345000D01*
X72981524Y-125345000D01*
X73025000Y-125349282D01*
X73068477Y-125345000D01*
X75661546Y-125345000D01*
X75709744Y-125377205D01*
X75898102Y-125455226D01*
X76098061Y-125495000D01*
X76301939Y-125495000D01*
X76501898Y-125455226D01*
X76690256Y-125377205D01*
X76859774Y-125263937D01*
X77003937Y-125119774D01*
X77117205Y-124950256D01*
X77195226Y-124761898D01*
X77235000Y-124561939D01*
X77235000Y-124358061D01*
X77195226Y-124158102D01*
X77117205Y-123969744D01*
X77003937Y-123800226D01*
X76859774Y-123656063D01*
X76690256Y-123542795D01*
X76501898Y-123464774D01*
X76301939Y-123425000D01*
X76098061Y-123425000D01*
X75898102Y-123464774D01*
X75709744Y-123542795D01*
X75661546Y-123575000D01*
X73910000Y-123575000D01*
X73910000Y-120508665D01*
X77305000Y-120508665D01*
X77305000Y-120791335D01*
X77360147Y-121068574D01*
X77468320Y-121329727D01*
X77625363Y-121564759D01*
X77825241Y-121764637D01*
X78060273Y-121921680D01*
X78321426Y-122029853D01*
X78598665Y-122085000D01*
X78881335Y-122085000D01*
X79158574Y-122029853D01*
X79419727Y-121921680D01*
X79654759Y-121764637D01*
X79854637Y-121564759D01*
X80011680Y-121329727D01*
X80119853Y-121068574D01*
X80175000Y-120791335D01*
X80175000Y-120508665D01*
X82385000Y-120508665D01*
X82385000Y-120791335D01*
X82440147Y-121068574D01*
X82548320Y-121329727D01*
X82705363Y-121564759D01*
X82905241Y-121764637D01*
X83140273Y-121921680D01*
X83401426Y-122029853D01*
X83678665Y-122085000D01*
X83961335Y-122085000D01*
X84238574Y-122029853D01*
X84499727Y-121921680D01*
X84734759Y-121764637D01*
X84934637Y-121564759D01*
X85091680Y-121329727D01*
X85199853Y-121068574D01*
X85255000Y-120791335D01*
X85255000Y-120548061D01*
X87230000Y-120548061D01*
X87230000Y-120751939D01*
X87269774Y-120951898D01*
X87347795Y-121140256D01*
X87461063Y-121309774D01*
X87605226Y-121453937D01*
X87774744Y-121567205D01*
X87963102Y-121645226D01*
X88163061Y-121685000D01*
X88366939Y-121685000D01*
X88566898Y-121645226D01*
X88755256Y-121567205D01*
X88803454Y-121535000D01*
X90305479Y-121535000D01*
X90325363Y-121564759D01*
X90525241Y-121764637D01*
X90760273Y-121921680D01*
X91021426Y-122029853D01*
X91298665Y-122085000D01*
X91581335Y-122085000D01*
X91858574Y-122029853D01*
X92119727Y-121921680D01*
X92354759Y-121764637D01*
X92554637Y-121564759D01*
X92711680Y-121329727D01*
X92819853Y-121068574D01*
X92875000Y-120791335D01*
X92875000Y-120508665D01*
X95085000Y-120508665D01*
X95085000Y-120791335D01*
X95140147Y-121068574D01*
X95248320Y-121329727D01*
X95405363Y-121564759D01*
X95605241Y-121764637D01*
X95840273Y-121921680D01*
X96101426Y-122029853D01*
X96378665Y-122085000D01*
X96661335Y-122085000D01*
X96938574Y-122029853D01*
X97199727Y-121921680D01*
X97434759Y-121764637D01*
X97634637Y-121564759D01*
X97791680Y-121329727D01*
X97899853Y-121068574D01*
X97955000Y-120791335D01*
X97955000Y-120508665D01*
X97899853Y-120231426D01*
X97791680Y-119970273D01*
X97634637Y-119735241D01*
X97434759Y-119535363D01*
X97199727Y-119378320D01*
X96938574Y-119270147D01*
X96661335Y-119215000D01*
X96378665Y-119215000D01*
X96101426Y-119270147D01*
X95840273Y-119378320D01*
X95605241Y-119535363D01*
X95405363Y-119735241D01*
X95248320Y-119970273D01*
X95140147Y-120231426D01*
X95085000Y-120508665D01*
X92875000Y-120508665D01*
X92819853Y-120231426D01*
X92711680Y-119970273D01*
X92554637Y-119735241D01*
X92354759Y-119535363D01*
X92119727Y-119378320D01*
X91858574Y-119270147D01*
X91581335Y-119215000D01*
X91298665Y-119215000D01*
X91021426Y-119270147D01*
X90760273Y-119378320D01*
X90525241Y-119535363D01*
X90325363Y-119735241D01*
X90305479Y-119765000D01*
X88803454Y-119765000D01*
X88755256Y-119732795D01*
X88566898Y-119654774D01*
X88366939Y-119615000D01*
X88163061Y-119615000D01*
X87963102Y-119654774D01*
X87774744Y-119732795D01*
X87605226Y-119846063D01*
X87461063Y-119990226D01*
X87347795Y-120159744D01*
X87269774Y-120348102D01*
X87230000Y-120548061D01*
X85255000Y-120548061D01*
X85255000Y-120508665D01*
X85199853Y-120231426D01*
X85091680Y-119970273D01*
X84934637Y-119735241D01*
X84734759Y-119535363D01*
X84499727Y-119378320D01*
X84238574Y-119270147D01*
X83961335Y-119215000D01*
X83678665Y-119215000D01*
X83401426Y-119270147D01*
X83140273Y-119378320D01*
X82905241Y-119535363D01*
X82705363Y-119735241D01*
X82548320Y-119970273D01*
X82440147Y-120231426D01*
X82385000Y-120508665D01*
X80175000Y-120508665D01*
X80119853Y-120231426D01*
X80011680Y-119970273D01*
X79854637Y-119735241D01*
X79654759Y-119535363D01*
X79419727Y-119378320D01*
X79158574Y-119270147D01*
X78881335Y-119215000D01*
X78598665Y-119215000D01*
X78321426Y-119270147D01*
X78060273Y-119378320D01*
X77825241Y-119535363D01*
X77625363Y-119735241D01*
X77468320Y-119970273D01*
X77360147Y-120231426D01*
X77305000Y-120508665D01*
X73910000Y-120508665D01*
X73910000Y-119283454D01*
X73942205Y-119235256D01*
X74020226Y-119046898D01*
X74060000Y-118846939D01*
X74060000Y-118643061D01*
X74020226Y-118443102D01*
X73942205Y-118254744D01*
X73828937Y-118085226D01*
X73684774Y-117941063D01*
X73515256Y-117827795D01*
X73326898Y-117749774D01*
X73126939Y-117710000D01*
X72923061Y-117710000D01*
X72723102Y-117749774D01*
X72534744Y-117827795D01*
X72365226Y-117941063D01*
X72221063Y-118085226D01*
X72107795Y-118254744D01*
X72029774Y-118443102D01*
X71990000Y-118643061D01*
X59182000Y-118643061D01*
X59182000Y-116760000D01*
X60877138Y-116760000D01*
X60908513Y-117078556D01*
X61001432Y-117384869D01*
X61152325Y-117667170D01*
X61355392Y-117914608D01*
X61602830Y-118117675D01*
X61885131Y-118268568D01*
X62191444Y-118361487D01*
X62430176Y-118385000D01*
X64569824Y-118385000D01*
X64808556Y-118361487D01*
X65114869Y-118268568D01*
X65397170Y-118117675D01*
X65644608Y-117914608D01*
X65847675Y-117667170D01*
X65998568Y-117384869D01*
X66091487Y-117078556D01*
X66122862Y-116760000D01*
X66091487Y-116441444D01*
X65998568Y-116135131D01*
X65847675Y-115852830D01*
X65644608Y-115605392D01*
X65397170Y-115402325D01*
X65114869Y-115251432D01*
X64808556Y-115158513D01*
X64569824Y-115135000D01*
X62430176Y-115135000D01*
X62191444Y-115158513D01*
X61885131Y-115251432D01*
X61602830Y-115402325D01*
X61355392Y-115605392D01*
X61152325Y-115852830D01*
X61001432Y-116135131D01*
X60908513Y-116441444D01*
X60877138Y-116760000D01*
X59182000Y-116760000D01*
X59182000Y-111760000D01*
X60877138Y-111760000D01*
X60908513Y-112078556D01*
X61001432Y-112384869D01*
X61152325Y-112667170D01*
X61355392Y-112914608D01*
X61602830Y-113117675D01*
X61885131Y-113268568D01*
X62191444Y-113361487D01*
X62430176Y-113385000D01*
X64569824Y-113385000D01*
X64630337Y-113379040D01*
X77348091Y-113379040D01*
X77442930Y-113643881D01*
X77587615Y-113885131D01*
X77776586Y-114093519D01*
X78002580Y-114261037D01*
X78256913Y-114381246D01*
X78390961Y-114421904D01*
X78613000Y-114299915D01*
X78613000Y-113157000D01*
X78867000Y-113157000D01*
X78867000Y-114299915D01*
X79089039Y-114421904D01*
X79223087Y-114381246D01*
X79477420Y-114261037D01*
X79703414Y-114093519D01*
X79892385Y-113885131D01*
X80037070Y-113643881D01*
X80131909Y-113379040D01*
X80010624Y-113157000D01*
X78867000Y-113157000D01*
X78613000Y-113157000D01*
X77469376Y-113157000D01*
X77348091Y-113379040D01*
X64630337Y-113379040D01*
X64808556Y-113361487D01*
X65114869Y-113268568D01*
X65397170Y-113117675D01*
X65644608Y-112914608D01*
X65836357Y-112680960D01*
X77348091Y-112680960D01*
X77469376Y-112903000D01*
X78613000Y-112903000D01*
X78613000Y-111760085D01*
X78867000Y-111760085D01*
X78867000Y-112903000D01*
X80010624Y-112903000D01*
X80131909Y-112680960D01*
X80037070Y-112416119D01*
X79925449Y-112230000D01*
X82381928Y-112230000D01*
X82381928Y-113830000D01*
X82394188Y-113954482D01*
X82430498Y-114074180D01*
X82489463Y-114184494D01*
X82568815Y-114281185D01*
X82665506Y-114360537D01*
X82775820Y-114419502D01*
X82895518Y-114455812D01*
X83020000Y-114468072D01*
X84620000Y-114468072D01*
X84744482Y-114455812D01*
X84864180Y-114419502D01*
X84974494Y-114360537D01*
X85071185Y-114281185D01*
X85150537Y-114184494D01*
X85209502Y-114074180D01*
X85245812Y-113954482D01*
X85258072Y-113830000D01*
X85258072Y-113379040D01*
X90048091Y-113379040D01*
X90142930Y-113643881D01*
X90287615Y-113885131D01*
X90476586Y-114093519D01*
X90702580Y-114261037D01*
X90956913Y-114381246D01*
X91090961Y-114421904D01*
X91313000Y-114299915D01*
X91313000Y-113157000D01*
X91567000Y-113157000D01*
X91567000Y-114299915D01*
X91789039Y-114421904D01*
X91923087Y-114381246D01*
X92177420Y-114261037D01*
X92403414Y-114093519D01*
X92592385Y-113885131D01*
X92737070Y-113643881D01*
X92831909Y-113379040D01*
X92710624Y-113157000D01*
X91567000Y-113157000D01*
X91313000Y-113157000D01*
X90169376Y-113157000D01*
X90048091Y-113379040D01*
X85258072Y-113379040D01*
X85258072Y-112680960D01*
X90048091Y-112680960D01*
X90169376Y-112903000D01*
X91313000Y-112903000D01*
X91313000Y-111760085D01*
X91567000Y-111760085D01*
X91567000Y-112903000D01*
X92710624Y-112903000D01*
X92831909Y-112680960D01*
X92737070Y-112416119D01*
X92625449Y-112230000D01*
X95081928Y-112230000D01*
X95081928Y-113830000D01*
X95094188Y-113954482D01*
X95130498Y-114074180D01*
X95189463Y-114184494D01*
X95268815Y-114281185D01*
X95365506Y-114360537D01*
X95475820Y-114419502D01*
X95595518Y-114455812D01*
X95720000Y-114468072D01*
X97320000Y-114468072D01*
X97444482Y-114455812D01*
X97564180Y-114419502D01*
X97674494Y-114360537D01*
X97771185Y-114281185D01*
X97850537Y-114184494D01*
X97909502Y-114074180D01*
X97945812Y-113954482D01*
X97958072Y-113830000D01*
X97958072Y-112230000D01*
X97945812Y-112105518D01*
X97909502Y-111985820D01*
X97850537Y-111875506D01*
X97771185Y-111778815D01*
X97674494Y-111699463D01*
X97564180Y-111640498D01*
X97444482Y-111604188D01*
X97320000Y-111591928D01*
X95720000Y-111591928D01*
X95595518Y-111604188D01*
X95475820Y-111640498D01*
X95365506Y-111699463D01*
X95268815Y-111778815D01*
X95189463Y-111875506D01*
X95130498Y-111985820D01*
X95094188Y-112105518D01*
X95081928Y-112230000D01*
X92625449Y-112230000D01*
X92592385Y-112174869D01*
X92403414Y-111966481D01*
X92177420Y-111798963D01*
X91923087Y-111678754D01*
X91789039Y-111638096D01*
X91567000Y-111760085D01*
X91313000Y-111760085D01*
X91090961Y-111638096D01*
X90956913Y-111678754D01*
X90702580Y-111798963D01*
X90476586Y-111966481D01*
X90287615Y-112174869D01*
X90142930Y-112416119D01*
X90048091Y-112680960D01*
X85258072Y-112680960D01*
X85258072Y-112230000D01*
X85245812Y-112105518D01*
X85209502Y-111985820D01*
X85150537Y-111875506D01*
X85071185Y-111778815D01*
X84974494Y-111699463D01*
X84864180Y-111640498D01*
X84744482Y-111604188D01*
X84620000Y-111591928D01*
X83020000Y-111591928D01*
X82895518Y-111604188D01*
X82775820Y-111640498D01*
X82665506Y-111699463D01*
X82568815Y-111778815D01*
X82489463Y-111875506D01*
X82430498Y-111985820D01*
X82394188Y-112105518D01*
X82381928Y-112230000D01*
X79925449Y-112230000D01*
X79892385Y-112174869D01*
X79703414Y-111966481D01*
X79477420Y-111798963D01*
X79223087Y-111678754D01*
X79089039Y-111638096D01*
X78867000Y-111760085D01*
X78613000Y-111760085D01*
X78390961Y-111638096D01*
X78256913Y-111678754D01*
X78002580Y-111798963D01*
X77776586Y-111966481D01*
X77587615Y-112174869D01*
X77442930Y-112416119D01*
X77348091Y-112680960D01*
X65836357Y-112680960D01*
X65847675Y-112667170D01*
X65998568Y-112384869D01*
X66091487Y-112078556D01*
X66122862Y-111760000D01*
X66091487Y-111441444D01*
X65998568Y-111135131D01*
X65847675Y-110852830D01*
X65644608Y-110605392D01*
X65397170Y-110402325D01*
X65114869Y-110251432D01*
X64808556Y-110158513D01*
X64569824Y-110135000D01*
X62430176Y-110135000D01*
X62191444Y-110158513D01*
X61885131Y-110251432D01*
X61602830Y-110402325D01*
X61355392Y-110605392D01*
X61152325Y-110852830D01*
X61001432Y-111135131D01*
X60908513Y-111441444D01*
X60877138Y-111760000D01*
X59182000Y-111760000D01*
X59182000Y-105690000D01*
X60881928Y-105690000D01*
X60881928Y-107670000D01*
X60894188Y-107794482D01*
X60930498Y-107914180D01*
X60989463Y-108024494D01*
X61068815Y-108121185D01*
X61165506Y-108200537D01*
X61275820Y-108259502D01*
X61395518Y-108295812D01*
X61520000Y-108308072D01*
X65480000Y-108308072D01*
X65604482Y-108295812D01*
X65724180Y-108259502D01*
X65834494Y-108200537D01*
X65931185Y-108121185D01*
X66010537Y-108024494D01*
X66069502Y-107914180D01*
X66105812Y-107794482D01*
X66118072Y-107670000D01*
X66118072Y-106515000D01*
X77301928Y-106515000D01*
X77301928Y-108115000D01*
X77314188Y-108239482D01*
X77350498Y-108359180D01*
X77409463Y-108469494D01*
X77488815Y-108566185D01*
X77585506Y-108645537D01*
X77695820Y-108704502D01*
X77815518Y-108740812D01*
X77940000Y-108753072D01*
X79540000Y-108753072D01*
X79664482Y-108740812D01*
X79784180Y-108704502D01*
X79894494Y-108645537D01*
X79991185Y-108566185D01*
X80070537Y-108469494D01*
X80129502Y-108359180D01*
X80165812Y-108239482D01*
X80178072Y-108115000D01*
X80178072Y-107664040D01*
X82428091Y-107664040D01*
X82522930Y-107928881D01*
X82667615Y-108170131D01*
X82856586Y-108378519D01*
X83082580Y-108546037D01*
X83336913Y-108666246D01*
X83470961Y-108706904D01*
X83693000Y-108584915D01*
X83693000Y-107442000D01*
X83947000Y-107442000D01*
X83947000Y-108584915D01*
X84169039Y-108706904D01*
X84303087Y-108666246D01*
X84557420Y-108546037D01*
X84783414Y-108378519D01*
X84972385Y-108170131D01*
X85117070Y-107928881D01*
X85211909Y-107664040D01*
X85090624Y-107442000D01*
X83947000Y-107442000D01*
X83693000Y-107442000D01*
X82549376Y-107442000D01*
X82428091Y-107664040D01*
X80178072Y-107664040D01*
X80178072Y-106965960D01*
X82428091Y-106965960D01*
X82549376Y-107188000D01*
X83693000Y-107188000D01*
X83693000Y-106045085D01*
X83947000Y-106045085D01*
X83947000Y-107188000D01*
X85090624Y-107188000D01*
X85211909Y-106965960D01*
X85117070Y-106701119D01*
X85005449Y-106515000D01*
X90001928Y-106515000D01*
X90001928Y-108115000D01*
X90014188Y-108239482D01*
X90050498Y-108359180D01*
X90109463Y-108469494D01*
X90188815Y-108566185D01*
X90285506Y-108645537D01*
X90395820Y-108704502D01*
X90515518Y-108740812D01*
X90640000Y-108753072D01*
X92240000Y-108753072D01*
X92364482Y-108740812D01*
X92484180Y-108704502D01*
X92594494Y-108645537D01*
X92691185Y-108566185D01*
X92770537Y-108469494D01*
X92829502Y-108359180D01*
X92865812Y-108239482D01*
X92878072Y-108115000D01*
X92878072Y-107664040D01*
X95128091Y-107664040D01*
X95222930Y-107928881D01*
X95367615Y-108170131D01*
X95556586Y-108378519D01*
X95782580Y-108546037D01*
X96036913Y-108666246D01*
X96170961Y-108706904D01*
X96393000Y-108584915D01*
X96393000Y-107442000D01*
X96647000Y-107442000D01*
X96647000Y-108584915D01*
X96869039Y-108706904D01*
X97003087Y-108666246D01*
X97257420Y-108546037D01*
X97483414Y-108378519D01*
X97672385Y-108170131D01*
X97817070Y-107928881D01*
X97911909Y-107664040D01*
X97790624Y-107442000D01*
X96647000Y-107442000D01*
X96393000Y-107442000D01*
X95249376Y-107442000D01*
X95128091Y-107664040D01*
X92878072Y-107664040D01*
X92878072Y-106965960D01*
X95128091Y-106965960D01*
X95249376Y-107188000D01*
X96393000Y-107188000D01*
X96393000Y-106045085D01*
X96647000Y-106045085D01*
X96647000Y-107188000D01*
X97790624Y-107188000D01*
X97911909Y-106965960D01*
X97817070Y-106701119D01*
X97672385Y-106459869D01*
X97483414Y-106251481D01*
X97257420Y-106083963D01*
X97003087Y-105963754D01*
X96869039Y-105923096D01*
X96647000Y-106045085D01*
X96393000Y-106045085D01*
X96170961Y-105923096D01*
X96036913Y-105963754D01*
X95782580Y-106083963D01*
X95556586Y-106251481D01*
X95367615Y-106459869D01*
X95222930Y-106701119D01*
X95128091Y-106965960D01*
X92878072Y-106965960D01*
X92878072Y-106515000D01*
X92865812Y-106390518D01*
X92829502Y-106270820D01*
X92770537Y-106160506D01*
X92691185Y-106063815D01*
X92594494Y-105984463D01*
X92484180Y-105925498D01*
X92364482Y-105889188D01*
X92240000Y-105876928D01*
X90640000Y-105876928D01*
X90515518Y-105889188D01*
X90395820Y-105925498D01*
X90285506Y-105984463D01*
X90188815Y-106063815D01*
X90109463Y-106160506D01*
X90050498Y-106270820D01*
X90014188Y-106390518D01*
X90001928Y-106515000D01*
X85005449Y-106515000D01*
X84972385Y-106459869D01*
X84783414Y-106251481D01*
X84557420Y-106083963D01*
X84303087Y-105963754D01*
X84169039Y-105923096D01*
X83947000Y-106045085D01*
X83693000Y-106045085D01*
X83470961Y-105923096D01*
X83336913Y-105963754D01*
X83082580Y-106083963D01*
X82856586Y-106251481D01*
X82667615Y-106459869D01*
X82522930Y-106701119D01*
X82428091Y-106965960D01*
X80178072Y-106965960D01*
X80178072Y-106515000D01*
X80165812Y-106390518D01*
X80129502Y-106270820D01*
X80070537Y-106160506D01*
X79991185Y-106063815D01*
X79894494Y-105984463D01*
X79784180Y-105925498D01*
X79664482Y-105889188D01*
X79540000Y-105876928D01*
X77940000Y-105876928D01*
X77815518Y-105889188D01*
X77695820Y-105925498D01*
X77585506Y-105984463D01*
X77488815Y-106063815D01*
X77409463Y-106160506D01*
X77350498Y-106270820D01*
X77314188Y-106390518D01*
X77301928Y-106515000D01*
X66118072Y-106515000D01*
X66118072Y-105690000D01*
X66105812Y-105565518D01*
X66069502Y-105445820D01*
X66010537Y-105335506D01*
X65931185Y-105238815D01*
X65834494Y-105159463D01*
X65724180Y-105100498D01*
X65604482Y-105064188D01*
X65480000Y-105051928D01*
X61520000Y-105051928D01*
X61395518Y-105064188D01*
X61275820Y-105100498D01*
X61165506Y-105159463D01*
X61068815Y-105238815D01*
X60989463Y-105335506D01*
X60930498Y-105445820D01*
X60894188Y-105565518D01*
X60881928Y-105690000D01*
X59182000Y-105690000D01*
X59182000Y-103998665D01*
X107150000Y-103998665D01*
X107150000Y-104281335D01*
X107205147Y-104558574D01*
X107313320Y-104819727D01*
X107470363Y-105054759D01*
X107670241Y-105254637D01*
X107902759Y-105410000D01*
X107670241Y-105565363D01*
X107470363Y-105765241D01*
X107313320Y-106000273D01*
X107205147Y-106261426D01*
X107150000Y-106538665D01*
X107150000Y-106821335D01*
X107205147Y-107098574D01*
X107313320Y-107359727D01*
X107470363Y-107594759D01*
X107670241Y-107794637D01*
X107902759Y-107950000D01*
X107670241Y-108105363D01*
X107470363Y-108305241D01*
X107313320Y-108540273D01*
X107205147Y-108801426D01*
X107150000Y-109078665D01*
X107150000Y-109361335D01*
X107205147Y-109638574D01*
X107313320Y-109899727D01*
X107470363Y-110134759D01*
X107670241Y-110334637D01*
X107902759Y-110490000D01*
X107670241Y-110645363D01*
X107470363Y-110845241D01*
X107313320Y-111080273D01*
X107205147Y-111341426D01*
X107150000Y-111618665D01*
X107150000Y-111901335D01*
X107205147Y-112178574D01*
X107313320Y-112439727D01*
X107470363Y-112674759D01*
X107670241Y-112874637D01*
X107902759Y-113030000D01*
X107670241Y-113185363D01*
X107470363Y-113385241D01*
X107313320Y-113620273D01*
X107205147Y-113881426D01*
X107150000Y-114158665D01*
X107150000Y-114441335D01*
X107205147Y-114718574D01*
X107313320Y-114979727D01*
X107470363Y-115214759D01*
X107670241Y-115414637D01*
X107902759Y-115570000D01*
X107670241Y-115725363D01*
X107470363Y-115925241D01*
X107313320Y-116160273D01*
X107205147Y-116421426D01*
X107150000Y-116698665D01*
X107150000Y-116981335D01*
X107205147Y-117258574D01*
X107313320Y-117519727D01*
X107470363Y-117754759D01*
X107670241Y-117954637D01*
X107902759Y-118110000D01*
X107670241Y-118265363D01*
X107470363Y-118465241D01*
X107313320Y-118700273D01*
X107205147Y-118961426D01*
X107150000Y-119238665D01*
X107150000Y-119521335D01*
X107205147Y-119798574D01*
X107313320Y-120059727D01*
X107470363Y-120294759D01*
X107670241Y-120494637D01*
X107902759Y-120650000D01*
X107670241Y-120805363D01*
X107470363Y-121005241D01*
X107313320Y-121240273D01*
X107205147Y-121501426D01*
X107150000Y-121778665D01*
X107150000Y-122061335D01*
X107205147Y-122338574D01*
X107313320Y-122599727D01*
X107470363Y-122834759D01*
X107670241Y-123034637D01*
X107902759Y-123190000D01*
X107670241Y-123345363D01*
X107470363Y-123545241D01*
X107313320Y-123780273D01*
X107205147Y-124041426D01*
X107150000Y-124318665D01*
X107150000Y-124601335D01*
X107205147Y-124878574D01*
X107313320Y-125139727D01*
X107470363Y-125374759D01*
X107670241Y-125574637D01*
X107902759Y-125730000D01*
X107670241Y-125885363D01*
X107470363Y-126085241D01*
X107313320Y-126320273D01*
X107205147Y-126581426D01*
X107150000Y-126858665D01*
X107150000Y-127141335D01*
X107205147Y-127418574D01*
X107313320Y-127679727D01*
X107470363Y-127914759D01*
X107670241Y-128114637D01*
X107902759Y-128270000D01*
X107670241Y-128425363D01*
X107470363Y-128625241D01*
X107313320Y-128860273D01*
X107205147Y-129121426D01*
X107150000Y-129398665D01*
X107150000Y-129681335D01*
X107205147Y-129958574D01*
X107313320Y-130219727D01*
X107470363Y-130454759D01*
X107670241Y-130654637D01*
X107905273Y-130811680D01*
X108166426Y-130919853D01*
X108443665Y-130975000D01*
X108726335Y-130975000D01*
X109003574Y-130919853D01*
X109264727Y-130811680D01*
X109499759Y-130654637D01*
X109699637Y-130454759D01*
X109856680Y-130219727D01*
X109964853Y-129958574D01*
X110020000Y-129681335D01*
X110020000Y-129398665D01*
X109964853Y-129121426D01*
X109856680Y-128860273D01*
X109699637Y-128625241D01*
X109499759Y-128425363D01*
X109267241Y-128270000D01*
X109499759Y-128114637D01*
X109699637Y-127914759D01*
X109856680Y-127679727D01*
X109964853Y-127418574D01*
X110020000Y-127141335D01*
X110020000Y-126858665D01*
X109964853Y-126581426D01*
X109856680Y-126320273D01*
X109699637Y-126085241D01*
X109499759Y-125885363D01*
X109267241Y-125730000D01*
X109499759Y-125574637D01*
X109699637Y-125374759D01*
X109856680Y-125139727D01*
X109964853Y-124878574D01*
X110020000Y-124601335D01*
X110020000Y-124318665D01*
X109964853Y-124041426D01*
X109856680Y-123780273D01*
X109699637Y-123545241D01*
X109499759Y-123345363D01*
X109267241Y-123190000D01*
X109499759Y-123034637D01*
X109699637Y-122834759D01*
X109856680Y-122599727D01*
X109964853Y-122338574D01*
X110020000Y-122061335D01*
X110020000Y-121778665D01*
X109964853Y-121501426D01*
X109856680Y-121240273D01*
X109699637Y-121005241D01*
X109499759Y-120805363D01*
X109267241Y-120650000D01*
X109499759Y-120494637D01*
X109699637Y-120294759D01*
X109856680Y-120059727D01*
X109964853Y-119798574D01*
X110020000Y-119521335D01*
X110020000Y-119238665D01*
X109964853Y-118961426D01*
X109856680Y-118700273D01*
X109699637Y-118465241D01*
X109499759Y-118265363D01*
X109267241Y-118110000D01*
X109499759Y-117954637D01*
X109699637Y-117754759D01*
X109856680Y-117519727D01*
X109964853Y-117258574D01*
X110020000Y-116981335D01*
X110020000Y-116698665D01*
X109964853Y-116421426D01*
X109856680Y-116160273D01*
X109699637Y-115925241D01*
X109499759Y-115725363D01*
X109267241Y-115570000D01*
X109499759Y-115414637D01*
X109699637Y-115214759D01*
X109856680Y-114979727D01*
X109964853Y-114718574D01*
X110020000Y-114441335D01*
X110020000Y-114158665D01*
X109964853Y-113881426D01*
X109856680Y-113620273D01*
X109699637Y-113385241D01*
X109499759Y-113185363D01*
X109267241Y-113030000D01*
X109499759Y-112874637D01*
X109699637Y-112674759D01*
X109856680Y-112439727D01*
X109964853Y-112178574D01*
X110020000Y-111901335D01*
X110020000Y-111618665D01*
X109964853Y-111341426D01*
X109856680Y-111080273D01*
X109699637Y-110845241D01*
X109499759Y-110645363D01*
X109267241Y-110490000D01*
X109499759Y-110334637D01*
X109699637Y-110134759D01*
X109856680Y-109899727D01*
X109964853Y-109638574D01*
X110020000Y-109361335D01*
X110020000Y-109078665D01*
X109964853Y-108801426D01*
X109856680Y-108540273D01*
X109699637Y-108305241D01*
X109499759Y-108105363D01*
X109267241Y-107950000D01*
X109499759Y-107794637D01*
X109699637Y-107594759D01*
X109856680Y-107359727D01*
X109964853Y-107098574D01*
X110020000Y-106821335D01*
X110020000Y-106538665D01*
X109964853Y-106261426D01*
X109856680Y-106000273D01*
X109699637Y-105765241D01*
X109499759Y-105565363D01*
X109267241Y-105410000D01*
X109499759Y-105254637D01*
X109699637Y-105054759D01*
X109856680Y-104819727D01*
X109964853Y-104558574D01*
X110020000Y-104281335D01*
X110020000Y-103998665D01*
X109964853Y-103721426D01*
X109856680Y-103460273D01*
X109699637Y-103225241D01*
X109499759Y-103025363D01*
X109264727Y-102868320D01*
X109254135Y-102863933D01*
X109440131Y-102752385D01*
X109648519Y-102563414D01*
X109816037Y-102337420D01*
X109936246Y-102083087D01*
X109976904Y-101949039D01*
X109854915Y-101727000D01*
X108712000Y-101727000D01*
X108712000Y-101747000D01*
X108458000Y-101747000D01*
X108458000Y-101727000D01*
X107315085Y-101727000D01*
X107193096Y-101949039D01*
X107233754Y-102083087D01*
X107353963Y-102337420D01*
X107521481Y-102563414D01*
X107729869Y-102752385D01*
X107915865Y-102863933D01*
X107905273Y-102868320D01*
X107670241Y-103025363D01*
X107470363Y-103225241D01*
X107313320Y-103460273D01*
X107205147Y-103721426D01*
X107150000Y-103998665D01*
X59182000Y-103998665D01*
X59182000Y-101680000D01*
X60877138Y-101680000D01*
X60908513Y-101998556D01*
X61001432Y-102304869D01*
X61152325Y-102587170D01*
X61355392Y-102834608D01*
X61602830Y-103037675D01*
X61885131Y-103188568D01*
X62191444Y-103281487D01*
X62430176Y-103305000D01*
X64569824Y-103305000D01*
X64808556Y-103281487D01*
X65114869Y-103188568D01*
X65397170Y-103037675D01*
X65644608Y-102834608D01*
X65847675Y-102587170D01*
X65998568Y-102304869D01*
X66091487Y-101998556D01*
X66122862Y-101680000D01*
X66091487Y-101361444D01*
X65998568Y-101055131D01*
X65847675Y-100772830D01*
X65644608Y-100525392D01*
X65397170Y-100322325D01*
X65114869Y-100171432D01*
X64808556Y-100078513D01*
X64569824Y-100055000D01*
X62430176Y-100055000D01*
X62191444Y-100078513D01*
X61885131Y-100171432D01*
X61602830Y-100322325D01*
X61355392Y-100525392D01*
X61152325Y-100772830D01*
X61001432Y-101055131D01*
X60908513Y-101361444D01*
X60877138Y-101680000D01*
X59182000Y-101680000D01*
X59182000Y-95530000D01*
X60881928Y-95530000D01*
X60881928Y-97510000D01*
X60894188Y-97634482D01*
X60930498Y-97754180D01*
X60989463Y-97864494D01*
X61068815Y-97961185D01*
X61165506Y-98040537D01*
X61275820Y-98099502D01*
X61395518Y-98135812D01*
X61520000Y-98148072D01*
X65480000Y-98148072D01*
X65604482Y-98135812D01*
X65724180Y-98099502D01*
X65834494Y-98040537D01*
X65931185Y-97961185D01*
X66010537Y-97864494D01*
X66069502Y-97754180D01*
X66105812Y-97634482D01*
X66118072Y-97510000D01*
X66118072Y-96418061D01*
X73260000Y-96418061D01*
X73260000Y-96621939D01*
X73299774Y-96821898D01*
X73377795Y-97010256D01*
X73491063Y-97179774D01*
X73635226Y-97323937D01*
X73804744Y-97437205D01*
X73964884Y-97503538D01*
X73699956Y-97768466D01*
X73666183Y-97796183D01*
X73555589Y-97930942D01*
X73473411Y-98084688D01*
X73422805Y-98251511D01*
X73410000Y-98381524D01*
X73410000Y-98381531D01*
X73405719Y-98425000D01*
X73410000Y-98468469D01*
X73410001Y-101696544D01*
X73377795Y-101744744D01*
X73299774Y-101933102D01*
X73260000Y-102133061D01*
X73260000Y-102336939D01*
X73299774Y-102536898D01*
X73377795Y-102725256D01*
X73491063Y-102894774D01*
X73635226Y-103038937D01*
X73804744Y-103152205D01*
X73993102Y-103230226D01*
X74193061Y-103270000D01*
X74396939Y-103270000D01*
X74596898Y-103230226D01*
X74785256Y-103152205D01*
X74954774Y-103038937D01*
X75098937Y-102894774D01*
X75212205Y-102725256D01*
X75290226Y-102536898D01*
X75330000Y-102336939D01*
X75330000Y-102133061D01*
X75290226Y-101933102D01*
X75212205Y-101744744D01*
X75180000Y-101696546D01*
X75180000Y-98791578D01*
X75296579Y-98675000D01*
X77730604Y-98675000D01*
X77625363Y-98780241D01*
X77468320Y-99015273D01*
X77360147Y-99276426D01*
X77305000Y-99553665D01*
X77305000Y-99836335D01*
X77360147Y-100113574D01*
X77468320Y-100374727D01*
X77625363Y-100609759D01*
X77825241Y-100809637D01*
X78060273Y-100966680D01*
X78321426Y-101074853D01*
X78598665Y-101130000D01*
X78881335Y-101130000D01*
X79158574Y-101074853D01*
X79419727Y-100966680D01*
X79654759Y-100809637D01*
X79854637Y-100609759D01*
X80011680Y-100374727D01*
X80119853Y-100113574D01*
X80175000Y-99836335D01*
X80175000Y-99553665D01*
X80119853Y-99276426D01*
X80011680Y-99015273D01*
X79854637Y-98780241D01*
X79749396Y-98675000D01*
X82810604Y-98675000D01*
X82705363Y-98780241D01*
X82548320Y-99015273D01*
X82440147Y-99276426D01*
X82385000Y-99553665D01*
X82385000Y-99836335D01*
X82440147Y-100113574D01*
X82548320Y-100374727D01*
X82705363Y-100609759D01*
X82905241Y-100809637D01*
X82935000Y-100829522D01*
X82935001Y-102331544D01*
X82902795Y-102379744D01*
X82824774Y-102568102D01*
X82785000Y-102768061D01*
X82785000Y-102971939D01*
X82824774Y-103171898D01*
X82902795Y-103360256D01*
X83016063Y-103529774D01*
X83160226Y-103673937D01*
X83329744Y-103787205D01*
X83518102Y-103865226D01*
X83718061Y-103905000D01*
X83921939Y-103905000D01*
X84121898Y-103865226D01*
X84310256Y-103787205D01*
X84479774Y-103673937D01*
X84623937Y-103529774D01*
X84737205Y-103360256D01*
X84815226Y-103171898D01*
X84855000Y-102971939D01*
X84855000Y-102768061D01*
X84815226Y-102568102D01*
X84737205Y-102379744D01*
X84705000Y-102331546D01*
X84705000Y-100829521D01*
X84734759Y-100809637D01*
X84934637Y-100609759D01*
X85091680Y-100374727D01*
X85199853Y-100113574D01*
X85255000Y-99836335D01*
X85255000Y-99553665D01*
X85199853Y-99276426D01*
X85091680Y-99015273D01*
X84934637Y-98780241D01*
X84829396Y-98675000D01*
X90430604Y-98675000D01*
X90325363Y-98780241D01*
X90168320Y-99015273D01*
X90060147Y-99276426D01*
X90005000Y-99553665D01*
X90005000Y-99836335D01*
X90060147Y-100113574D01*
X90168320Y-100374727D01*
X90325363Y-100609759D01*
X90525241Y-100809637D01*
X90760273Y-100966680D01*
X91021426Y-101074853D01*
X91298665Y-101130000D01*
X91581335Y-101130000D01*
X91858574Y-101074853D01*
X92119727Y-100966680D01*
X92354759Y-100809637D01*
X92554637Y-100609759D01*
X92711680Y-100374727D01*
X92819853Y-100113574D01*
X92875000Y-99836335D01*
X92875000Y-99553665D01*
X92819853Y-99276426D01*
X92711680Y-99015273D01*
X92554637Y-98780241D01*
X92449396Y-98675000D01*
X94506546Y-98675000D01*
X94554744Y-98707205D01*
X94743102Y-98785226D01*
X94943061Y-98825000D01*
X95146939Y-98825000D01*
X95346898Y-98785226D01*
X95438195Y-98747409D01*
X95405363Y-98780241D01*
X95248320Y-99015273D01*
X95140147Y-99276426D01*
X95085000Y-99553665D01*
X95085000Y-99836335D01*
X95140147Y-100113574D01*
X95248320Y-100374727D01*
X95405363Y-100609759D01*
X95605241Y-100809637D01*
X95840273Y-100966680D01*
X96101426Y-101074853D01*
X96378665Y-101130000D01*
X96661335Y-101130000D01*
X96938574Y-101074853D01*
X97199727Y-100966680D01*
X97434759Y-100809637D01*
X97634637Y-100609759D01*
X97791680Y-100374727D01*
X97899853Y-100113574D01*
X97955000Y-99836335D01*
X97955000Y-99553665D01*
X97899853Y-99276426D01*
X97791680Y-99015273D01*
X97634637Y-98780241D01*
X97434759Y-98580363D01*
X97199727Y-98423320D01*
X96938574Y-98315147D01*
X96661335Y-98260000D01*
X96378665Y-98260000D01*
X96101426Y-98315147D01*
X95876693Y-98408234D01*
X95962205Y-98280256D01*
X96040226Y-98091898D01*
X96080000Y-97891939D01*
X96080000Y-97688061D01*
X96040226Y-97488102D01*
X95962205Y-97299744D01*
X95848937Y-97130226D01*
X95704774Y-96986063D01*
X95535256Y-96872795D01*
X95346898Y-96794774D01*
X95146939Y-96755000D01*
X94943061Y-96755000D01*
X94743102Y-96794774D01*
X94554744Y-96872795D01*
X94506546Y-96905000D01*
X92400804Y-96905000D01*
X92435226Y-96821898D01*
X92475000Y-96621939D01*
X92475000Y-96418061D01*
X92435226Y-96218102D01*
X92357205Y-96029744D01*
X92243937Y-95860226D01*
X92193939Y-95810228D01*
X92356309Y-95794236D01*
X92626808Y-95712182D01*
X92876101Y-95578932D01*
X93094608Y-95399608D01*
X93273932Y-95181101D01*
X93345000Y-95048142D01*
X93416068Y-95181101D01*
X93595393Y-95399608D01*
X93813900Y-95578932D01*
X94063193Y-95712182D01*
X94333692Y-95794236D01*
X94615000Y-95821943D01*
X94896309Y-95794236D01*
X95166808Y-95712182D01*
X95416101Y-95578932D01*
X95634608Y-95399608D01*
X95813932Y-95181101D01*
X95885000Y-95048142D01*
X95956068Y-95181101D01*
X96135393Y-95399608D01*
X96353900Y-95578932D01*
X96603193Y-95712182D01*
X96873692Y-95794236D01*
X97155000Y-95821943D01*
X97436309Y-95794236D01*
X97706808Y-95712182D01*
X97956101Y-95578932D01*
X98174608Y-95399608D01*
X98353932Y-95181101D01*
X98487182Y-94931808D01*
X98569236Y-94661309D01*
X98590000Y-94450491D01*
X98590000Y-93509508D01*
X98569236Y-93298691D01*
X98533232Y-93180000D01*
X107146928Y-93180000D01*
X107146928Y-94780000D01*
X107159188Y-94904482D01*
X107195498Y-95024180D01*
X107254463Y-95134494D01*
X107333815Y-95231185D01*
X107430506Y-95310537D01*
X107540820Y-95369502D01*
X107660518Y-95405812D01*
X107668961Y-95406643D01*
X107470363Y-95605241D01*
X107313320Y-95840273D01*
X107205147Y-96101426D01*
X107150000Y-96378665D01*
X107150000Y-96661335D01*
X107205147Y-96938574D01*
X107313320Y-97199727D01*
X107470363Y-97434759D01*
X107670241Y-97634637D01*
X107902759Y-97790000D01*
X107670241Y-97945363D01*
X107470363Y-98145241D01*
X107313320Y-98380273D01*
X107205147Y-98641426D01*
X107150000Y-98918665D01*
X107150000Y-99201335D01*
X107205147Y-99478574D01*
X107313320Y-99739727D01*
X107470363Y-99974759D01*
X107670241Y-100174637D01*
X107905273Y-100331680D01*
X107915865Y-100336067D01*
X107729869Y-100447615D01*
X107521481Y-100636586D01*
X107353963Y-100862580D01*
X107233754Y-101116913D01*
X107193096Y-101250961D01*
X107315085Y-101473000D01*
X108458000Y-101473000D01*
X108458000Y-101453000D01*
X108712000Y-101453000D01*
X108712000Y-101473000D01*
X109854915Y-101473000D01*
X109976904Y-101250961D01*
X109936246Y-101116913D01*
X109816037Y-100862580D01*
X109648519Y-100636586D01*
X109440131Y-100447615D01*
X109254135Y-100336067D01*
X109264727Y-100331680D01*
X109499759Y-100174637D01*
X109699637Y-99974759D01*
X109856680Y-99739727D01*
X109964853Y-99478574D01*
X110020000Y-99201335D01*
X110020000Y-98918665D01*
X122390000Y-98918665D01*
X122390000Y-99201335D01*
X122445147Y-99478574D01*
X122553320Y-99739727D01*
X122710363Y-99974759D01*
X122910241Y-100174637D01*
X123142759Y-100330000D01*
X122910241Y-100485363D01*
X122710363Y-100685241D01*
X122553320Y-100920273D01*
X122445147Y-101181426D01*
X122390000Y-101458665D01*
X122390000Y-101741335D01*
X122445147Y-102018574D01*
X122553320Y-102279727D01*
X122710363Y-102514759D01*
X122910241Y-102714637D01*
X123142759Y-102870000D01*
X122910241Y-103025363D01*
X122710363Y-103225241D01*
X122553320Y-103460273D01*
X122445147Y-103721426D01*
X122390000Y-103998665D01*
X122390000Y-104281335D01*
X122445147Y-104558574D01*
X122553320Y-104819727D01*
X122710363Y-105054759D01*
X122910241Y-105254637D01*
X123142759Y-105410000D01*
X122910241Y-105565363D01*
X122710363Y-105765241D01*
X122553320Y-106000273D01*
X122445147Y-106261426D01*
X122390000Y-106538665D01*
X122390000Y-106821335D01*
X122445147Y-107098574D01*
X122553320Y-107359727D01*
X122710363Y-107594759D01*
X122910241Y-107794637D01*
X123142759Y-107950000D01*
X122910241Y-108105363D01*
X122710363Y-108305241D01*
X122553320Y-108540273D01*
X122445147Y-108801426D01*
X122390000Y-109078665D01*
X122390000Y-109361335D01*
X122445147Y-109638574D01*
X122553320Y-109899727D01*
X122710363Y-110134759D01*
X122910241Y-110334637D01*
X123142759Y-110490000D01*
X122910241Y-110645363D01*
X122710363Y-110845241D01*
X122553320Y-111080273D01*
X122445147Y-111341426D01*
X122390000Y-111618665D01*
X122390000Y-111901335D01*
X122445147Y-112178574D01*
X122553320Y-112439727D01*
X122710363Y-112674759D01*
X122910241Y-112874637D01*
X123142759Y-113030000D01*
X122910241Y-113185363D01*
X122710363Y-113385241D01*
X122553320Y-113620273D01*
X122445147Y-113881426D01*
X122390000Y-114158665D01*
X122390000Y-114441335D01*
X122445147Y-114718574D01*
X122553320Y-114979727D01*
X122710363Y-115214759D01*
X122910241Y-115414637D01*
X123142759Y-115570000D01*
X122910241Y-115725363D01*
X122710363Y-115925241D01*
X122553320Y-116160273D01*
X122445147Y-116421426D01*
X122390000Y-116698665D01*
X122390000Y-116981335D01*
X122445147Y-117258574D01*
X122553320Y-117519727D01*
X122710363Y-117754759D01*
X122910241Y-117954637D01*
X123142759Y-118110000D01*
X122910241Y-118265363D01*
X122710363Y-118465241D01*
X122553320Y-118700273D01*
X122445147Y-118961426D01*
X122390000Y-119238665D01*
X122390000Y-119521335D01*
X122445147Y-119798574D01*
X122553320Y-120059727D01*
X122710363Y-120294759D01*
X122910241Y-120494637D01*
X123142759Y-120650000D01*
X122910241Y-120805363D01*
X122710363Y-121005241D01*
X122553320Y-121240273D01*
X122445147Y-121501426D01*
X122390000Y-121778665D01*
X122390000Y-122061335D01*
X122445147Y-122338574D01*
X122553320Y-122599727D01*
X122710363Y-122834759D01*
X122910241Y-123034637D01*
X123142759Y-123190000D01*
X122910241Y-123345363D01*
X122710363Y-123545241D01*
X122553320Y-123780273D01*
X122445147Y-124041426D01*
X122390000Y-124318665D01*
X122390000Y-124601335D01*
X122445147Y-124878574D01*
X122553320Y-125139727D01*
X122710363Y-125374759D01*
X122910241Y-125574637D01*
X123142759Y-125730000D01*
X122910241Y-125885363D01*
X122710363Y-126085241D01*
X122553320Y-126320273D01*
X122445147Y-126581426D01*
X122390000Y-126858665D01*
X122390000Y-127141335D01*
X122445147Y-127418574D01*
X122553320Y-127679727D01*
X122710363Y-127914759D01*
X122910241Y-128114637D01*
X123142759Y-128270000D01*
X122910241Y-128425363D01*
X122710363Y-128625241D01*
X122553320Y-128860273D01*
X122445147Y-129121426D01*
X122390000Y-129398665D01*
X122390000Y-129681335D01*
X122445147Y-129958574D01*
X122553320Y-130219727D01*
X122710363Y-130454759D01*
X122910241Y-130654637D01*
X123145273Y-130811680D01*
X123406426Y-130919853D01*
X123683665Y-130975000D01*
X123966335Y-130975000D01*
X124243574Y-130919853D01*
X124504727Y-130811680D01*
X124739759Y-130654637D01*
X124939637Y-130454759D01*
X125096680Y-130219727D01*
X125204853Y-129958574D01*
X125260000Y-129681335D01*
X125260000Y-129398665D01*
X125204853Y-129121426D01*
X125096680Y-128860273D01*
X124939637Y-128625241D01*
X124739759Y-128425363D01*
X124507241Y-128270000D01*
X124739759Y-128114637D01*
X124939637Y-127914759D01*
X125096680Y-127679727D01*
X125204853Y-127418574D01*
X125260000Y-127141335D01*
X125260000Y-126858665D01*
X125204853Y-126581426D01*
X125096680Y-126320273D01*
X124939637Y-126085241D01*
X124739759Y-125885363D01*
X124507241Y-125730000D01*
X124739759Y-125574637D01*
X124939637Y-125374759D01*
X125096680Y-125139727D01*
X125204853Y-124878574D01*
X125260000Y-124601335D01*
X125260000Y-124318665D01*
X125204853Y-124041426D01*
X125096680Y-123780273D01*
X124939637Y-123545241D01*
X124739759Y-123345363D01*
X124507241Y-123190000D01*
X124739759Y-123034637D01*
X124939637Y-122834759D01*
X125096680Y-122599727D01*
X125204853Y-122338574D01*
X125260000Y-122061335D01*
X125260000Y-121778665D01*
X125204853Y-121501426D01*
X125096680Y-121240273D01*
X124939637Y-121005241D01*
X124739759Y-120805363D01*
X124507241Y-120650000D01*
X124739759Y-120494637D01*
X124939637Y-120294759D01*
X125096680Y-120059727D01*
X125204853Y-119798574D01*
X125260000Y-119521335D01*
X125260000Y-119238665D01*
X125204853Y-118961426D01*
X125096680Y-118700273D01*
X124939637Y-118465241D01*
X124739759Y-118265363D01*
X124507241Y-118110000D01*
X124739759Y-117954637D01*
X124939637Y-117754759D01*
X125096680Y-117519727D01*
X125204853Y-117258574D01*
X125260000Y-116981335D01*
X125260000Y-116698665D01*
X125204853Y-116421426D01*
X125096680Y-116160273D01*
X124939637Y-115925241D01*
X124739759Y-115725363D01*
X124507241Y-115570000D01*
X124739759Y-115414637D01*
X124939637Y-115214759D01*
X125096680Y-114979727D01*
X125204853Y-114718574D01*
X125260000Y-114441335D01*
X125260000Y-114158665D01*
X125204853Y-113881426D01*
X125096680Y-113620273D01*
X124982908Y-113450000D01*
X127416928Y-113450000D01*
X127416928Y-115150000D01*
X127429188Y-115274482D01*
X127465498Y-115394180D01*
X127524463Y-115504494D01*
X127603815Y-115601185D01*
X127700506Y-115680537D01*
X127810820Y-115739502D01*
X127930518Y-115775812D01*
X128055000Y-115788072D01*
X129755000Y-115788072D01*
X129879482Y-115775812D01*
X129999180Y-115739502D01*
X130109494Y-115680537D01*
X130206185Y-115601185D01*
X130285537Y-115504494D01*
X130344502Y-115394180D01*
X130380812Y-115274482D01*
X130393072Y-115150000D01*
X130393072Y-113450000D01*
X130380812Y-113325518D01*
X130344502Y-113205820D01*
X130285537Y-113095506D01*
X130206185Y-112998815D01*
X130109494Y-112919463D01*
X129999180Y-112860498D01*
X129926620Y-112838487D01*
X130058475Y-112706632D01*
X130220990Y-112463411D01*
X130332932Y-112193158D01*
X130390000Y-111906260D01*
X130390000Y-111613740D01*
X130332932Y-111326842D01*
X130220990Y-111056589D01*
X130058475Y-110813368D01*
X129851632Y-110606525D01*
X129677240Y-110490000D01*
X129851632Y-110373475D01*
X130058475Y-110166632D01*
X130220990Y-109923411D01*
X130332932Y-109653158D01*
X130390000Y-109366260D01*
X130390000Y-109073740D01*
X130332932Y-108786842D01*
X130220990Y-108516589D01*
X130058475Y-108273368D01*
X129851632Y-108066525D01*
X129677240Y-107950000D01*
X129851632Y-107833475D01*
X130058475Y-107626632D01*
X130220990Y-107383411D01*
X130332932Y-107113158D01*
X130390000Y-106826260D01*
X130390000Y-106533740D01*
X130332932Y-106246842D01*
X130220990Y-105976589D01*
X130058475Y-105733368D01*
X129851632Y-105526525D01*
X129677240Y-105410000D01*
X129851632Y-105293475D01*
X130058475Y-105086632D01*
X130220990Y-104843411D01*
X130332932Y-104573158D01*
X130390000Y-104286260D01*
X130390000Y-103993740D01*
X130332932Y-103706842D01*
X130220990Y-103436589D01*
X130058475Y-103193368D01*
X129851632Y-102986525D01*
X129677240Y-102870000D01*
X129851632Y-102753475D01*
X130058475Y-102546632D01*
X130220990Y-102303411D01*
X130332932Y-102033158D01*
X130390000Y-101746260D01*
X130390000Y-101453740D01*
X130332932Y-101166842D01*
X130220990Y-100896589D01*
X130058475Y-100653368D01*
X129851632Y-100446525D01*
X129669466Y-100324805D01*
X129786355Y-100255178D01*
X130002588Y-100060269D01*
X130176641Y-99826920D01*
X130301825Y-99564099D01*
X130346476Y-99416890D01*
X130225155Y-99187000D01*
X129032000Y-99187000D01*
X129032000Y-99207000D01*
X128778000Y-99207000D01*
X128778000Y-99187000D01*
X127584845Y-99187000D01*
X127463524Y-99416890D01*
X127508175Y-99564099D01*
X127633359Y-99826920D01*
X127807412Y-100060269D01*
X128023645Y-100255178D01*
X128140534Y-100324805D01*
X127958368Y-100446525D01*
X127751525Y-100653368D01*
X127589010Y-100896589D01*
X127477068Y-101166842D01*
X127420000Y-101453740D01*
X127420000Y-101746260D01*
X127477068Y-102033158D01*
X127589010Y-102303411D01*
X127751525Y-102546632D01*
X127958368Y-102753475D01*
X128132760Y-102870000D01*
X127958368Y-102986525D01*
X127751525Y-103193368D01*
X127589010Y-103436589D01*
X127477068Y-103706842D01*
X127420000Y-103993740D01*
X127420000Y-104286260D01*
X127477068Y-104573158D01*
X127589010Y-104843411D01*
X127751525Y-105086632D01*
X127958368Y-105293475D01*
X128132760Y-105410000D01*
X127958368Y-105526525D01*
X127751525Y-105733368D01*
X127589010Y-105976589D01*
X127477068Y-106246842D01*
X127420000Y-106533740D01*
X127420000Y-106826260D01*
X127477068Y-107113158D01*
X127589010Y-107383411D01*
X127751525Y-107626632D01*
X127958368Y-107833475D01*
X128132760Y-107950000D01*
X127958368Y-108066525D01*
X127751525Y-108273368D01*
X127589010Y-108516589D01*
X127477068Y-108786842D01*
X127420000Y-109073740D01*
X127420000Y-109366260D01*
X127477068Y-109653158D01*
X127589010Y-109923411D01*
X127751525Y-110166632D01*
X127958368Y-110373475D01*
X128132760Y-110490000D01*
X127958368Y-110606525D01*
X127751525Y-110813368D01*
X127589010Y-111056589D01*
X127477068Y-111326842D01*
X127420000Y-111613740D01*
X127420000Y-111906260D01*
X127477068Y-112193158D01*
X127589010Y-112463411D01*
X127751525Y-112706632D01*
X127883380Y-112838487D01*
X127810820Y-112860498D01*
X127700506Y-112919463D01*
X127603815Y-112998815D01*
X127524463Y-113095506D01*
X127465498Y-113205820D01*
X127429188Y-113325518D01*
X127416928Y-113450000D01*
X124982908Y-113450000D01*
X124939637Y-113385241D01*
X124739759Y-113185363D01*
X124507241Y-113030000D01*
X124739759Y-112874637D01*
X124939637Y-112674759D01*
X125096680Y-112439727D01*
X125204853Y-112178574D01*
X125260000Y-111901335D01*
X125260000Y-111618665D01*
X125204853Y-111341426D01*
X125096680Y-111080273D01*
X124939637Y-110845241D01*
X124739759Y-110645363D01*
X124507241Y-110490000D01*
X124739759Y-110334637D01*
X124939637Y-110134759D01*
X125096680Y-109899727D01*
X125204853Y-109638574D01*
X125260000Y-109361335D01*
X125260000Y-109078665D01*
X125204853Y-108801426D01*
X125096680Y-108540273D01*
X124939637Y-108305241D01*
X124739759Y-108105363D01*
X124507241Y-107950000D01*
X124739759Y-107794637D01*
X124939637Y-107594759D01*
X125096680Y-107359727D01*
X125204853Y-107098574D01*
X125260000Y-106821335D01*
X125260000Y-106538665D01*
X125204853Y-106261426D01*
X125096680Y-106000273D01*
X124939637Y-105765241D01*
X124739759Y-105565363D01*
X124507241Y-105410000D01*
X124739759Y-105254637D01*
X124939637Y-105054759D01*
X125096680Y-104819727D01*
X125204853Y-104558574D01*
X125260000Y-104281335D01*
X125260000Y-103998665D01*
X125204853Y-103721426D01*
X125096680Y-103460273D01*
X124939637Y-103225241D01*
X124739759Y-103025363D01*
X124507241Y-102870000D01*
X124739759Y-102714637D01*
X124939637Y-102514759D01*
X125096680Y-102279727D01*
X125204853Y-102018574D01*
X125260000Y-101741335D01*
X125260000Y-101458665D01*
X125204853Y-101181426D01*
X125096680Y-100920273D01*
X124939637Y-100685241D01*
X124739759Y-100485363D01*
X124507241Y-100330000D01*
X124739759Y-100174637D01*
X124939637Y-99974759D01*
X125096680Y-99739727D01*
X125204853Y-99478574D01*
X125260000Y-99201335D01*
X125260000Y-98918665D01*
X125204853Y-98641426D01*
X125096680Y-98380273D01*
X124939637Y-98145241D01*
X124739759Y-97945363D01*
X124504727Y-97788320D01*
X124494135Y-97783933D01*
X124680131Y-97672385D01*
X124888519Y-97483414D01*
X125056037Y-97257420D01*
X125176246Y-97003087D01*
X125216904Y-96869039D01*
X125094915Y-96647000D01*
X123952000Y-96647000D01*
X123952000Y-96667000D01*
X123698000Y-96667000D01*
X123698000Y-96647000D01*
X122555085Y-96647000D01*
X122433096Y-96869039D01*
X122473754Y-97003087D01*
X122593963Y-97257420D01*
X122761481Y-97483414D01*
X122969869Y-97672385D01*
X123155865Y-97783933D01*
X123145273Y-97788320D01*
X122910241Y-97945363D01*
X122710363Y-98145241D01*
X122553320Y-98380273D01*
X122445147Y-98641426D01*
X122390000Y-98918665D01*
X110020000Y-98918665D01*
X109964853Y-98641426D01*
X109856680Y-98380273D01*
X109699637Y-98145241D01*
X109499759Y-97945363D01*
X109267241Y-97790000D01*
X109499759Y-97634637D01*
X109699637Y-97434759D01*
X109856680Y-97199727D01*
X109964853Y-96938574D01*
X110020000Y-96661335D01*
X110020000Y-96378665D01*
X109964853Y-96101426D01*
X109856680Y-95840273D01*
X109699637Y-95605241D01*
X109501039Y-95406643D01*
X109509482Y-95405812D01*
X109629180Y-95369502D01*
X109739494Y-95310537D01*
X109836185Y-95231185D01*
X109915537Y-95134494D01*
X109974502Y-95024180D01*
X110010812Y-94904482D01*
X110023072Y-94780000D01*
X110023072Y-93838665D01*
X122390000Y-93838665D01*
X122390000Y-94121335D01*
X122445147Y-94398574D01*
X122553320Y-94659727D01*
X122710363Y-94894759D01*
X122910241Y-95094637D01*
X123145273Y-95251680D01*
X123155865Y-95256067D01*
X122969869Y-95367615D01*
X122761481Y-95556586D01*
X122593963Y-95782580D01*
X122473754Y-96036913D01*
X122433096Y-96170961D01*
X122555085Y-96393000D01*
X123698000Y-96393000D01*
X123698000Y-96373000D01*
X123952000Y-96373000D01*
X123952000Y-96393000D01*
X125094915Y-96393000D01*
X125216904Y-96170961D01*
X125176246Y-96036913D01*
X125056037Y-95782580D01*
X124888519Y-95556586D01*
X124680131Y-95367615D01*
X124494135Y-95256067D01*
X124504727Y-95251680D01*
X124739759Y-95094637D01*
X124939637Y-94894759D01*
X125096680Y-94659727D01*
X125204853Y-94398574D01*
X125260000Y-94121335D01*
X125260000Y-93838665D01*
X125259021Y-93833740D01*
X127420000Y-93833740D01*
X127420000Y-94126260D01*
X127477068Y-94413158D01*
X127589010Y-94683411D01*
X127751525Y-94926632D01*
X127958368Y-95133475D01*
X128132760Y-95250000D01*
X127958368Y-95366525D01*
X127751525Y-95573368D01*
X127589010Y-95816589D01*
X127477068Y-96086842D01*
X127420000Y-96373740D01*
X127420000Y-96666260D01*
X127477068Y-96953158D01*
X127589010Y-97223411D01*
X127751525Y-97466632D01*
X127958368Y-97673475D01*
X128140534Y-97795195D01*
X128023645Y-97864822D01*
X127807412Y-98059731D01*
X127633359Y-98293080D01*
X127508175Y-98555901D01*
X127463524Y-98703110D01*
X127584845Y-98933000D01*
X128778000Y-98933000D01*
X128778000Y-98913000D01*
X129032000Y-98913000D01*
X129032000Y-98933000D01*
X130225155Y-98933000D01*
X130346476Y-98703110D01*
X130301825Y-98555901D01*
X130176641Y-98293080D01*
X130002588Y-98059731D01*
X129786355Y-97864822D01*
X129669466Y-97795195D01*
X129851632Y-97673475D01*
X130058475Y-97466632D01*
X130220990Y-97223411D01*
X130332932Y-96953158D01*
X130390000Y-96666260D01*
X130390000Y-96373740D01*
X130332932Y-96086842D01*
X130220990Y-95816589D01*
X130058475Y-95573368D01*
X129851632Y-95366525D01*
X129677240Y-95250000D01*
X129851632Y-95133475D01*
X130058475Y-94926632D01*
X130220990Y-94683411D01*
X130332932Y-94413158D01*
X130390000Y-94126260D01*
X130390000Y-93833740D01*
X130332932Y-93546842D01*
X130220990Y-93276589D01*
X130058475Y-93033368D01*
X129851632Y-92826525D01*
X129608411Y-92664010D01*
X129338158Y-92552068D01*
X129051260Y-92495000D01*
X128758740Y-92495000D01*
X128471842Y-92552068D01*
X128201589Y-92664010D01*
X127958368Y-92826525D01*
X127751525Y-93033368D01*
X127589010Y-93276589D01*
X127477068Y-93546842D01*
X127420000Y-93833740D01*
X125259021Y-93833740D01*
X125204853Y-93561426D01*
X125096680Y-93300273D01*
X124939637Y-93065241D01*
X124739759Y-92865363D01*
X124504727Y-92708320D01*
X124243574Y-92600147D01*
X123966335Y-92545000D01*
X123683665Y-92545000D01*
X123406426Y-92600147D01*
X123145273Y-92708320D01*
X122910241Y-92865363D01*
X122710363Y-93065241D01*
X122553320Y-93300273D01*
X122445147Y-93561426D01*
X122390000Y-93838665D01*
X110023072Y-93838665D01*
X110023072Y-93180000D01*
X110010812Y-93055518D01*
X109974502Y-92935820D01*
X109915537Y-92825506D01*
X109836185Y-92728815D01*
X109739494Y-92649463D01*
X109629180Y-92590498D01*
X109509482Y-92554188D01*
X109385000Y-92541928D01*
X107785000Y-92541928D01*
X107660518Y-92554188D01*
X107540820Y-92590498D01*
X107430506Y-92649463D01*
X107333815Y-92728815D01*
X107254463Y-92825506D01*
X107195498Y-92935820D01*
X107159188Y-93055518D01*
X107146928Y-93180000D01*
X98533232Y-93180000D01*
X98511998Y-93110000D01*
X98526939Y-93110000D01*
X98726898Y-93070226D01*
X98915256Y-92992205D01*
X99084774Y-92878937D01*
X99128711Y-92835000D01*
X102801289Y-92835000D01*
X102845226Y-92878937D01*
X103014744Y-92992205D01*
X103203102Y-93070226D01*
X103403061Y-93110000D01*
X103606939Y-93110000D01*
X103806898Y-93070226D01*
X103995256Y-92992205D01*
X104164774Y-92878937D01*
X104308937Y-92734774D01*
X104422205Y-92565256D01*
X104500226Y-92376898D01*
X104540000Y-92176939D01*
X104540000Y-91973061D01*
X104506961Y-91806961D01*
X104673061Y-91840000D01*
X104876939Y-91840000D01*
X105076898Y-91800226D01*
X105265256Y-91722205D01*
X105434774Y-91608937D01*
X105578937Y-91464774D01*
X105692205Y-91295256D01*
X105770226Y-91106898D01*
X105810000Y-90906939D01*
X105810000Y-90703061D01*
X105770226Y-90503102D01*
X105692205Y-90314744D01*
X105578937Y-90145226D01*
X105434774Y-90001063D01*
X105265256Y-89887795D01*
X105076898Y-89809774D01*
X104876939Y-89770000D01*
X104673061Y-89770000D01*
X104473102Y-89809774D01*
X104284744Y-89887795D01*
X104115226Y-90001063D01*
X104071289Y-90045000D01*
X101869013Y-90045000D01*
X101882205Y-90025256D01*
X101960226Y-89836898D01*
X102000000Y-89636939D01*
X102000000Y-89433061D01*
X101966961Y-89266961D01*
X102133061Y-89300000D01*
X102336939Y-89300000D01*
X102536898Y-89260226D01*
X102725256Y-89182205D01*
X102894774Y-89068937D01*
X103038937Y-88924774D01*
X103152205Y-88755256D01*
X103230226Y-88566898D01*
X103270000Y-88366939D01*
X103270000Y-88163061D01*
X103230226Y-87963102D01*
X103152205Y-87774744D01*
X103038937Y-87605226D01*
X102894774Y-87461063D01*
X102725256Y-87347795D01*
X102536898Y-87269774D01*
X102336939Y-87230000D01*
X102133061Y-87230000D01*
X101933102Y-87269774D01*
X101744744Y-87347795D01*
X101575226Y-87461063D01*
X101531289Y-87505000D01*
X98383919Y-87505000D01*
X98487182Y-87311808D01*
X98569236Y-87041309D01*
X98590000Y-86830491D01*
X98590000Y-85889508D01*
X98569236Y-85678691D01*
X98487182Y-85408192D01*
X98353932Y-85158899D01*
X98174607Y-84940392D01*
X97956100Y-84761068D01*
X97706807Y-84627818D01*
X97436308Y-84545764D01*
X97155000Y-84518057D01*
X96873691Y-84545764D01*
X96603192Y-84627818D01*
X96353899Y-84761068D01*
X96135392Y-84940393D01*
X95956068Y-85158900D01*
X95885000Y-85291858D01*
X95813932Y-85158899D01*
X95634607Y-84940392D01*
X95416100Y-84761068D01*
X95166807Y-84627818D01*
X94896308Y-84545764D01*
X94615000Y-84518057D01*
X94333691Y-84545764D01*
X94063192Y-84627818D01*
X93813899Y-84761068D01*
X93595392Y-84940393D01*
X93416068Y-85158900D01*
X93345000Y-85291858D01*
X93273932Y-85158899D01*
X93094607Y-84940392D01*
X92876100Y-84761068D01*
X92626807Y-84627818D01*
X92356308Y-84545764D01*
X92075000Y-84518057D01*
X91793691Y-84545764D01*
X91523192Y-84627818D01*
X91273899Y-84761068D01*
X91055392Y-84940393D01*
X90876068Y-85158900D01*
X90807735Y-85286742D01*
X90657601Y-85057161D01*
X90459895Y-84855500D01*
X90226646Y-84696285D01*
X89966818Y-84585633D01*
X89884039Y-84568096D01*
X89662000Y-84690085D01*
X89662000Y-86233000D01*
X89682000Y-86233000D01*
X89682000Y-86487000D01*
X89662000Y-86487000D01*
X89662000Y-88029915D01*
X89884039Y-88151904D01*
X89966818Y-88134367D01*
X90226646Y-88023715D01*
X90459895Y-87864500D01*
X90657601Y-87662839D01*
X90807735Y-87433259D01*
X90876068Y-87561101D01*
X91055393Y-87779608D01*
X91273900Y-87958932D01*
X91523193Y-88092182D01*
X91793692Y-88174236D01*
X92075000Y-88201943D01*
X92356309Y-88174236D01*
X92626808Y-88092182D01*
X92876101Y-87958932D01*
X93094608Y-87779608D01*
X93273932Y-87561101D01*
X93345000Y-87428142D01*
X93416068Y-87561101D01*
X93595393Y-87779608D01*
X93813900Y-87958932D01*
X94063193Y-88092182D01*
X94333692Y-88174236D01*
X94615000Y-88201943D01*
X94850000Y-88178797D01*
X94850000Y-88366939D01*
X94889774Y-88566898D01*
X94967795Y-88755256D01*
X95081063Y-88924774D01*
X95225226Y-89068937D01*
X95394744Y-89182205D01*
X95583102Y-89260226D01*
X95783061Y-89300000D01*
X95986939Y-89300000D01*
X96186898Y-89260226D01*
X96375256Y-89182205D01*
X96544774Y-89068937D01*
X96588711Y-89025000D01*
X97520987Y-89025000D01*
X97507795Y-89044744D01*
X97429774Y-89233102D01*
X97390000Y-89433061D01*
X97390000Y-89636939D01*
X97429774Y-89836898D01*
X97507795Y-90025256D01*
X97520987Y-90045000D01*
X94017333Y-90045000D01*
X93980000Y-90041323D01*
X93942667Y-90045000D01*
X93831014Y-90055997D01*
X93687753Y-90099454D01*
X93555724Y-90170026D01*
X93439999Y-90264999D01*
X93416200Y-90293998D01*
X93305198Y-90405000D01*
X93243061Y-90405000D01*
X93043102Y-90444774D01*
X92854744Y-90522795D01*
X92685226Y-90636063D01*
X92541063Y-90780226D01*
X92427795Y-90949744D01*
X92349774Y-91138102D01*
X92310000Y-91338061D01*
X92310000Y-91541939D01*
X92349774Y-91741898D01*
X92427795Y-91930256D01*
X92541063Y-92099774D01*
X92685226Y-92243937D01*
X92854744Y-92357205D01*
X93043102Y-92435226D01*
X93243061Y-92475000D01*
X93446939Y-92475000D01*
X93646898Y-92435226D01*
X93835256Y-92357205D01*
X94004774Y-92243937D01*
X94148937Y-92099774D01*
X94262205Y-91930256D01*
X94340226Y-91741898D01*
X94375413Y-91565000D01*
X97520987Y-91565000D01*
X97507795Y-91584744D01*
X97429774Y-91773102D01*
X97390000Y-91973061D01*
X97390000Y-92161203D01*
X97155000Y-92138057D01*
X96873691Y-92165764D01*
X96603192Y-92247818D01*
X96353899Y-92381068D01*
X96135392Y-92560393D01*
X95956068Y-92778900D01*
X95885000Y-92911858D01*
X95813932Y-92778899D01*
X95634607Y-92560392D01*
X95416100Y-92381068D01*
X95166807Y-92247818D01*
X94896308Y-92165764D01*
X94615000Y-92138057D01*
X94333691Y-92165764D01*
X94063192Y-92247818D01*
X93813899Y-92381068D01*
X93595392Y-92560393D01*
X93416068Y-92778900D01*
X93345000Y-92911858D01*
X93273932Y-92778899D01*
X93094607Y-92560392D01*
X92876100Y-92381068D01*
X92626807Y-92247818D01*
X92356308Y-92165764D01*
X92075000Y-92138057D01*
X91793691Y-92165764D01*
X91523192Y-92247818D01*
X91273899Y-92381068D01*
X91055392Y-92560393D01*
X90876068Y-92778900D01*
X90807735Y-92906742D01*
X90657601Y-92677161D01*
X90459895Y-92475500D01*
X90226646Y-92316285D01*
X89966818Y-92205633D01*
X89884039Y-92188096D01*
X89662000Y-92310085D01*
X89662000Y-93853000D01*
X89682000Y-93853000D01*
X89682000Y-94107000D01*
X89662000Y-94107000D01*
X89662000Y-94127000D01*
X89408000Y-94127000D01*
X89408000Y-94107000D01*
X87122000Y-94107000D01*
X87122000Y-94127000D01*
X86868000Y-94127000D01*
X86868000Y-94107000D01*
X86848000Y-94107000D01*
X86848000Y-93853000D01*
X86868000Y-93853000D01*
X86868000Y-92310085D01*
X87122000Y-92310085D01*
X87122000Y-93853000D01*
X89408000Y-93853000D01*
X89408000Y-92310085D01*
X89185961Y-92188096D01*
X89103182Y-92205633D01*
X88843354Y-92316285D01*
X88610105Y-92475500D01*
X88412399Y-92677161D01*
X88265000Y-92902559D01*
X88117601Y-92677161D01*
X87919895Y-92475500D01*
X87686646Y-92316285D01*
X87426818Y-92205633D01*
X87344039Y-92188096D01*
X87122000Y-92310085D01*
X86868000Y-92310085D01*
X86645961Y-92188096D01*
X86563182Y-92205633D01*
X86303354Y-92316285D01*
X86070105Y-92475500D01*
X85872399Y-92677161D01*
X85722265Y-92906741D01*
X85653932Y-92778899D01*
X85474607Y-92560392D01*
X85256100Y-92381068D01*
X85006807Y-92247818D01*
X84736308Y-92165764D01*
X84455000Y-92138057D01*
X84173691Y-92165764D01*
X83903192Y-92247818D01*
X83653899Y-92381068D01*
X83435392Y-92560393D01*
X83256068Y-92778900D01*
X83185000Y-92911858D01*
X83113932Y-92778899D01*
X82934607Y-92560392D01*
X82716100Y-92381068D01*
X82466807Y-92247818D01*
X82196308Y-92165764D01*
X81915000Y-92138057D01*
X81633691Y-92165764D01*
X81363192Y-92247818D01*
X81113899Y-92381068D01*
X80895392Y-92560393D01*
X80802581Y-92673483D01*
X80800812Y-92655518D01*
X80764502Y-92535820D01*
X80705537Y-92425506D01*
X80626185Y-92328815D01*
X80529494Y-92249463D01*
X80419180Y-92190498D01*
X80299482Y-92154188D01*
X80175000Y-92141928D01*
X78575000Y-92141928D01*
X78450518Y-92154188D01*
X78330820Y-92190498D01*
X78220506Y-92249463D01*
X78123815Y-92328815D01*
X78044463Y-92425506D01*
X77985498Y-92535820D01*
X77949188Y-92655518D01*
X77936928Y-92780000D01*
X77936928Y-95180000D01*
X77949188Y-95304482D01*
X77985498Y-95424180D01*
X78044463Y-95534494D01*
X78123815Y-95631185D01*
X78128464Y-95635000D01*
X74833454Y-95635000D01*
X74785256Y-95602795D01*
X74596898Y-95524774D01*
X74396939Y-95485000D01*
X74193061Y-95485000D01*
X73993102Y-95524774D01*
X73804744Y-95602795D01*
X73635226Y-95716063D01*
X73491063Y-95860226D01*
X73377795Y-96029744D01*
X73299774Y-96218102D01*
X73260000Y-96418061D01*
X66118072Y-96418061D01*
X66118072Y-95530000D01*
X66105812Y-95405518D01*
X66069502Y-95285820D01*
X66010537Y-95175506D01*
X65931185Y-95078815D01*
X65834494Y-94999463D01*
X65724180Y-94940498D01*
X65604482Y-94904188D01*
X65480000Y-94891928D01*
X61520000Y-94891928D01*
X61395518Y-94904188D01*
X61275820Y-94940498D01*
X61165506Y-94999463D01*
X61068815Y-95078815D01*
X60989463Y-95175506D01*
X60930498Y-95285820D01*
X60894188Y-95405518D01*
X60881928Y-95530000D01*
X59182000Y-95530000D01*
X59182000Y-91520000D01*
X60877138Y-91520000D01*
X60908513Y-91838556D01*
X61001432Y-92144869D01*
X61152325Y-92427170D01*
X61355392Y-92674608D01*
X61602830Y-92877675D01*
X61885131Y-93028568D01*
X62191444Y-93121487D01*
X62430176Y-93145000D01*
X64569824Y-93145000D01*
X64808556Y-93121487D01*
X65114869Y-93028568D01*
X65397170Y-92877675D01*
X65644608Y-92674608D01*
X65847675Y-92427170D01*
X65998568Y-92144869D01*
X66091487Y-91838556D01*
X66122862Y-91520000D01*
X66091487Y-91201444D01*
X65998568Y-90895131D01*
X65847675Y-90612830D01*
X65644608Y-90365392D01*
X65397170Y-90162325D01*
X65114869Y-90011432D01*
X64808556Y-89918513D01*
X64569824Y-89895000D01*
X62430176Y-89895000D01*
X62191444Y-89918513D01*
X61885131Y-90011432D01*
X61602830Y-90162325D01*
X61355392Y-90365392D01*
X61152325Y-90612830D01*
X61001432Y-90895131D01*
X60908513Y-91201444D01*
X60877138Y-91520000D01*
X59182000Y-91520000D01*
X59182000Y-86520000D01*
X60877138Y-86520000D01*
X60908513Y-86838556D01*
X61001432Y-87144869D01*
X61152325Y-87427170D01*
X61355392Y-87674608D01*
X61602830Y-87877675D01*
X61885131Y-88028568D01*
X62191444Y-88121487D01*
X62430176Y-88145000D01*
X64569824Y-88145000D01*
X64808556Y-88121487D01*
X65114869Y-88028568D01*
X65397170Y-87877675D01*
X65644608Y-87674608D01*
X65847675Y-87427170D01*
X65998568Y-87144869D01*
X66091487Y-86838556D01*
X66122862Y-86520000D01*
X66091487Y-86201444D01*
X65998568Y-85895131D01*
X65995563Y-85889509D01*
X77940000Y-85889509D01*
X77940000Y-86830492D01*
X77960764Y-87041309D01*
X78042818Y-87311808D01*
X78176068Y-87561101D01*
X78355393Y-87779608D01*
X78573900Y-87958932D01*
X78823193Y-88092182D01*
X79093692Y-88174236D01*
X79375000Y-88201943D01*
X79656309Y-88174236D01*
X79926808Y-88092182D01*
X80176101Y-87958932D01*
X80394608Y-87779608D01*
X80573932Y-87561101D01*
X80645000Y-87428142D01*
X80716068Y-87561101D01*
X80895393Y-87779608D01*
X81113900Y-87958932D01*
X81363193Y-88092182D01*
X81633692Y-88174236D01*
X81915000Y-88201943D01*
X82196309Y-88174236D01*
X82466808Y-88092182D01*
X82716101Y-87958932D01*
X82934608Y-87779608D01*
X83113932Y-87561101D01*
X83185000Y-87428142D01*
X83256068Y-87561101D01*
X83435393Y-87779608D01*
X83653900Y-87958932D01*
X83903193Y-88092182D01*
X84173692Y-88174236D01*
X84455000Y-88201943D01*
X84736309Y-88174236D01*
X85006808Y-88092182D01*
X85256101Y-87958932D01*
X85474608Y-87779608D01*
X85653932Y-87561101D01*
X85722265Y-87433259D01*
X85872399Y-87662839D01*
X86070105Y-87864500D01*
X86303354Y-88023715D01*
X86563182Y-88134367D01*
X86645961Y-88151904D01*
X86868000Y-88029915D01*
X86868000Y-86487000D01*
X87122000Y-86487000D01*
X87122000Y-88029915D01*
X87344039Y-88151904D01*
X87426818Y-88134367D01*
X87686646Y-88023715D01*
X87919895Y-87864500D01*
X88117601Y-87662839D01*
X88265000Y-87437441D01*
X88412399Y-87662839D01*
X88610105Y-87864500D01*
X88843354Y-88023715D01*
X89103182Y-88134367D01*
X89185961Y-88151904D01*
X89408000Y-88029915D01*
X89408000Y-86487000D01*
X87122000Y-86487000D01*
X86868000Y-86487000D01*
X86848000Y-86487000D01*
X86848000Y-86233000D01*
X86868000Y-86233000D01*
X86868000Y-84690085D01*
X87122000Y-84690085D01*
X87122000Y-86233000D01*
X89408000Y-86233000D01*
X89408000Y-84690085D01*
X89185961Y-84568096D01*
X89103182Y-84585633D01*
X88843354Y-84696285D01*
X88610105Y-84855500D01*
X88412399Y-85057161D01*
X88265000Y-85282559D01*
X88117601Y-85057161D01*
X87919895Y-84855500D01*
X87686646Y-84696285D01*
X87426818Y-84585633D01*
X87344039Y-84568096D01*
X87122000Y-84690085D01*
X86868000Y-84690085D01*
X86645961Y-84568096D01*
X86563182Y-84585633D01*
X86303354Y-84696285D01*
X86070105Y-84855500D01*
X85872399Y-85057161D01*
X85722265Y-85286741D01*
X85653932Y-85158899D01*
X85474607Y-84940392D01*
X85256100Y-84761068D01*
X85006807Y-84627818D01*
X84736308Y-84545764D01*
X84455000Y-84518057D01*
X84173691Y-84545764D01*
X83903192Y-84627818D01*
X83653899Y-84761068D01*
X83435392Y-84940393D01*
X83256068Y-85158900D01*
X83185000Y-85291858D01*
X83113932Y-85158899D01*
X82934607Y-84940392D01*
X82716100Y-84761068D01*
X82466807Y-84627818D01*
X82196308Y-84545764D01*
X81915000Y-84518057D01*
X81633691Y-84545764D01*
X81363192Y-84627818D01*
X81113899Y-84761068D01*
X80895392Y-84940393D01*
X80716068Y-85158900D01*
X80645000Y-85291858D01*
X80573932Y-85158899D01*
X80394607Y-84940392D01*
X80176100Y-84761068D01*
X80135000Y-84739100D01*
X80135000Y-80713711D01*
X80178937Y-80669774D01*
X80292205Y-80500256D01*
X80370226Y-80311898D01*
X80410000Y-80111939D01*
X80410000Y-79908061D01*
X80370226Y-79708102D01*
X80292205Y-79519744D01*
X80178937Y-79350226D01*
X80128711Y-79300000D01*
X103781928Y-79300000D01*
X103781928Y-83260000D01*
X103794188Y-83384482D01*
X103830498Y-83504180D01*
X103889463Y-83614494D01*
X103968815Y-83711185D01*
X104065506Y-83790537D01*
X104175820Y-83849502D01*
X104295518Y-83885812D01*
X104420000Y-83898072D01*
X106400000Y-83898072D01*
X106524482Y-83885812D01*
X106644180Y-83849502D01*
X106754494Y-83790537D01*
X106851185Y-83711185D01*
X106930537Y-83614494D01*
X106989502Y-83504180D01*
X107025812Y-83384482D01*
X107038072Y-83260000D01*
X107038072Y-81407000D01*
X108785000Y-81407000D01*
X108785000Y-82397000D01*
X108841000Y-82711582D01*
X108957296Y-83009194D01*
X109129419Y-83278399D01*
X109350754Y-83508852D01*
X109612795Y-83691696D01*
X109905472Y-83819905D01*
X110031135Y-83850218D01*
X110283000Y-83730740D01*
X110283000Y-81407000D01*
X110537000Y-81407000D01*
X110537000Y-83730740D01*
X110788865Y-83850218D01*
X110914528Y-83819905D01*
X111207205Y-83691696D01*
X111469246Y-83508852D01*
X111690581Y-83278399D01*
X111862704Y-83009194D01*
X111979000Y-82711582D01*
X112035000Y-82397000D01*
X112035000Y-81407000D01*
X110537000Y-81407000D01*
X110283000Y-81407000D01*
X108785000Y-81407000D01*
X107038072Y-81407000D01*
X107038072Y-80163000D01*
X108785000Y-80163000D01*
X108785000Y-81153000D01*
X110283000Y-81153000D01*
X110283000Y-78829260D01*
X110537000Y-78829260D01*
X110537000Y-81153000D01*
X112035000Y-81153000D01*
X112035000Y-80163000D01*
X111979000Y-79848418D01*
X111862704Y-79550806D01*
X111690581Y-79281601D01*
X111469246Y-79051148D01*
X111207205Y-78868304D01*
X110914528Y-78740095D01*
X110788865Y-78709782D01*
X110537000Y-78829260D01*
X110283000Y-78829260D01*
X110031135Y-78709782D01*
X109905472Y-78740095D01*
X109612795Y-78868304D01*
X109350754Y-79051148D01*
X109129419Y-79281601D01*
X108957296Y-79550806D01*
X108841000Y-79848418D01*
X108785000Y-80163000D01*
X107038072Y-80163000D01*
X107038072Y-79300000D01*
X107025812Y-79175518D01*
X106989502Y-79055820D01*
X106930537Y-78945506D01*
X106851185Y-78848815D01*
X106754494Y-78769463D01*
X106644180Y-78710498D01*
X106524482Y-78674188D01*
X106400000Y-78661928D01*
X104420000Y-78661928D01*
X104295518Y-78674188D01*
X104175820Y-78710498D01*
X104065506Y-78769463D01*
X103968815Y-78848815D01*
X103889463Y-78945506D01*
X103830498Y-79055820D01*
X103794188Y-79175518D01*
X103781928Y-79300000D01*
X80128711Y-79300000D01*
X80034774Y-79206063D01*
X79865256Y-79092795D01*
X79676898Y-79014774D01*
X79476939Y-78975000D01*
X79273061Y-78975000D01*
X79073102Y-79014774D01*
X78884744Y-79092795D01*
X78715226Y-79206063D01*
X78571063Y-79350226D01*
X78457795Y-79519744D01*
X78379774Y-79708102D01*
X78340000Y-79908061D01*
X78340000Y-80111939D01*
X78379774Y-80311898D01*
X78457795Y-80500256D01*
X78571063Y-80669774D01*
X78615001Y-80713712D01*
X78615000Y-84739099D01*
X78573899Y-84761068D01*
X78355392Y-84940393D01*
X78176068Y-85158900D01*
X78042818Y-85408193D01*
X77960764Y-85678692D01*
X77940000Y-85889509D01*
X65995563Y-85889509D01*
X65847675Y-85612830D01*
X65644608Y-85365392D01*
X65397170Y-85162325D01*
X65114869Y-85011432D01*
X64808556Y-84918513D01*
X64569824Y-84895000D01*
X62430176Y-84895000D01*
X62191444Y-84918513D01*
X61885131Y-85011432D01*
X61602830Y-85162325D01*
X61355392Y-85365392D01*
X61152325Y-85612830D01*
X61001432Y-85895131D01*
X60908513Y-86201444D01*
X60877138Y-86520000D01*
X59182000Y-86520000D01*
X59182000Y-76779872D01*
X61765000Y-76779872D01*
X61765000Y-77220128D01*
X61850890Y-77651925D01*
X62019369Y-78058669D01*
X62263962Y-78424729D01*
X62575271Y-78736038D01*
X62941331Y-78980631D01*
X63348075Y-79149110D01*
X63779872Y-79235000D01*
X64220128Y-79235000D01*
X64651925Y-79149110D01*
X65058669Y-78980631D01*
X65424729Y-78736038D01*
X65736038Y-78424729D01*
X65980631Y-78058669D01*
X66149110Y-77651925D01*
X66235000Y-77220128D01*
X66235000Y-76779872D01*
X124765000Y-76779872D01*
X124765000Y-77220128D01*
X124850890Y-77651925D01*
X125019369Y-78058669D01*
X125263962Y-78424729D01*
X125575271Y-78736038D01*
X125941331Y-78980631D01*
X126348075Y-79149110D01*
X126779872Y-79235000D01*
X127220128Y-79235000D01*
X127651925Y-79149110D01*
X128058669Y-78980631D01*
X128424729Y-78736038D01*
X128736038Y-78424729D01*
X128980631Y-78058669D01*
X129149110Y-77651925D01*
X129235000Y-77220128D01*
X129235000Y-76779872D01*
X129149110Y-76348075D01*
X128980631Y-75941331D01*
X128736038Y-75575271D01*
X128424729Y-75263962D01*
X128058669Y-75019369D01*
X127651925Y-74850890D01*
X127220128Y-74765000D01*
X126779872Y-74765000D01*
X126348075Y-74850890D01*
X125941331Y-75019369D01*
X125575271Y-75263962D01*
X125263962Y-75575271D01*
X125019369Y-75941331D01*
X124850890Y-76348075D01*
X124765000Y-76779872D01*
X66235000Y-76779872D01*
X66149110Y-76348075D01*
X65980631Y-75941331D01*
X65736038Y-75575271D01*
X65424729Y-75263962D01*
X65058669Y-75019369D01*
X64651925Y-74850890D01*
X64220128Y-74765000D01*
X63779872Y-74765000D01*
X63348075Y-74850890D01*
X62941331Y-75019369D01*
X62575271Y-75263962D01*
X62263962Y-75575271D01*
X62019369Y-75941331D01*
X61850890Y-76348075D01*
X61765000Y-76779872D01*
X59182000Y-76779872D01*
X59182000Y-74422000D01*
X130683000Y-74422000D01*
X130683000Y-143383000D01*
M02*
