G04 #@! TF.GenerationSoftware,KiCad,Pcbnew,5.1.5+dfsg1-2build2*
G04 #@! TF.CreationDate,2022-06-06T13:39:04+02:00*
G04 #@! TF.ProjectId,Toro_Stepper_Differential,546f726f-5f53-4746-9570-7065725f4469,rev?*
G04 #@! TF.SameCoordinates,Original*
G04 #@! TF.FileFunction,Legend,Top*
G04 #@! TF.FilePolarity,Positive*
%FSLAX46Y46*%
G04 Gerber Fmt 4.6, Leading zero omitted, Abs format (unit mm)*
G04 Created by KiCad (PCBNEW 5.1.5+dfsg1-2build2) date 2022-06-06 13:39:04*
%MOMM*%
%LPD*%
G04 APERTURE LIST*
%ADD10C,0.150000*%
%ADD11C,0.300000*%
%ADD12C,0.120000*%
%ADD13C,3.200000*%
%ADD14O,1.700000X1.700000*%
%ADD15R,1.700000X1.700000*%
%ADD16C,1.600000*%
%ADD17R,1.600000X1.600000*%
%ADD18O,1.600000X1.600000*%
%ADD19R,3.960000X1.980000*%
%ADD20O,3.960000X1.980000*%
%ADD21O,1.980000X3.960000*%
%ADD22R,1.980000X3.960000*%
%ADD23R,1.600000X2.400000*%
%ADD24O,1.600000X2.400000*%
G04 APERTURE END LIST*
D10*
X103062738Y-136232380D02*
X103634166Y-136232380D01*
X103348452Y-137232380D02*
X103348452Y-136232380D01*
X104110357Y-137232380D02*
X104015119Y-137184761D01*
X103967500Y-137137142D01*
X103919880Y-137041904D01*
X103919880Y-136756190D01*
X103967500Y-136660952D01*
X104015119Y-136613333D01*
X104110357Y-136565714D01*
X104253214Y-136565714D01*
X104348452Y-136613333D01*
X104396071Y-136660952D01*
X104443690Y-136756190D01*
X104443690Y-137041904D01*
X104396071Y-137137142D01*
X104348452Y-137184761D01*
X104253214Y-137232380D01*
X104110357Y-137232380D01*
X104872261Y-137232380D02*
X104872261Y-136565714D01*
X104872261Y-136756190D02*
X104919880Y-136660952D01*
X104967500Y-136613333D01*
X105062738Y-136565714D01*
X105157976Y-136565714D01*
X105634166Y-137232380D02*
X105538928Y-137184761D01*
X105491309Y-137137142D01*
X105443690Y-137041904D01*
X105443690Y-136756190D01*
X105491309Y-136660952D01*
X105538928Y-136613333D01*
X105634166Y-136565714D01*
X105777023Y-136565714D01*
X105872261Y-136613333D01*
X105919880Y-136660952D01*
X105967500Y-136756190D01*
X105967500Y-137041904D01*
X105919880Y-137137142D01*
X105872261Y-137184761D01*
X105777023Y-137232380D01*
X105634166Y-137232380D01*
X107157976Y-137232380D02*
X107157976Y-136232380D01*
X107491309Y-136946666D01*
X107824642Y-136232380D01*
X107824642Y-137232380D01*
X108443690Y-137232380D02*
X108348452Y-137184761D01*
X108300833Y-137137142D01*
X108253214Y-137041904D01*
X108253214Y-136756190D01*
X108300833Y-136660952D01*
X108348452Y-136613333D01*
X108443690Y-136565714D01*
X108586547Y-136565714D01*
X108681785Y-136613333D01*
X108729404Y-136660952D01*
X108777023Y-136756190D01*
X108777023Y-137041904D01*
X108729404Y-137137142D01*
X108681785Y-137184761D01*
X108586547Y-137232380D01*
X108443690Y-137232380D01*
X109062738Y-136565714D02*
X109443690Y-136565714D01*
X109205595Y-136232380D02*
X109205595Y-137089523D01*
X109253214Y-137184761D01*
X109348452Y-137232380D01*
X109443690Y-137232380D01*
X109919880Y-137232380D02*
X109824642Y-137184761D01*
X109777023Y-137137142D01*
X109729404Y-137041904D01*
X109729404Y-136756190D01*
X109777023Y-136660952D01*
X109824642Y-136613333D01*
X109919880Y-136565714D01*
X110062738Y-136565714D01*
X110157976Y-136613333D01*
X110205595Y-136660952D01*
X110253214Y-136756190D01*
X110253214Y-137041904D01*
X110205595Y-137137142D01*
X110157976Y-137184761D01*
X110062738Y-137232380D01*
X109919880Y-137232380D01*
X110681785Y-137232380D02*
X110681785Y-136565714D01*
X110681785Y-136756190D02*
X110729404Y-136660952D01*
X110777023Y-136613333D01*
X110872261Y-136565714D01*
X110967500Y-136565714D01*
X112062738Y-137232380D02*
X112062738Y-136232380D01*
X112300833Y-136232380D01*
X112443690Y-136280000D01*
X112538928Y-136375238D01*
X112586547Y-136470476D01*
X112634166Y-136660952D01*
X112634166Y-136803809D01*
X112586547Y-136994285D01*
X112538928Y-137089523D01*
X112443690Y-137184761D01*
X112300833Y-137232380D01*
X112062738Y-137232380D01*
X113062738Y-137232380D02*
X113062738Y-136565714D01*
X113062738Y-136756190D02*
X113110357Y-136660952D01*
X113157976Y-136613333D01*
X113253214Y-136565714D01*
X113348452Y-136565714D01*
X113681785Y-137232380D02*
X113681785Y-136565714D01*
X113681785Y-136232380D02*
X113634166Y-136280000D01*
X113681785Y-136327619D01*
X113729404Y-136280000D01*
X113681785Y-136232380D01*
X113681785Y-136327619D01*
X114062738Y-136565714D02*
X114300833Y-137232380D01*
X114538928Y-136565714D01*
X115300833Y-137184761D02*
X115205595Y-137232380D01*
X115015119Y-137232380D01*
X114919880Y-137184761D01*
X114872261Y-137089523D01*
X114872261Y-136708571D01*
X114919880Y-136613333D01*
X115015119Y-136565714D01*
X115205595Y-136565714D01*
X115300833Y-136613333D01*
X115348452Y-136708571D01*
X115348452Y-136803809D01*
X114872261Y-136899047D01*
X115777023Y-137232380D02*
X115777023Y-136565714D01*
X115777023Y-136756190D02*
X115824642Y-136660952D01*
X115872261Y-136613333D01*
X115967500Y-136565714D01*
X116062738Y-136565714D01*
X117729404Y-137232380D02*
X117396071Y-136756190D01*
X117157976Y-137232380D02*
X117157976Y-136232380D01*
X117538928Y-136232380D01*
X117634166Y-136280000D01*
X117681785Y-136327619D01*
X117729404Y-136422857D01*
X117729404Y-136565714D01*
X117681785Y-136660952D01*
X117634166Y-136708571D01*
X117538928Y-136756190D01*
X117157976Y-136756190D01*
X118538928Y-137184761D02*
X118443690Y-137232380D01*
X118253214Y-137232380D01*
X118157976Y-137184761D01*
X118110357Y-137089523D01*
X118110357Y-136708571D01*
X118157976Y-136613333D01*
X118253214Y-136565714D01*
X118443690Y-136565714D01*
X118538928Y-136613333D01*
X118586547Y-136708571D01*
X118586547Y-136803809D01*
X118110357Y-136899047D01*
X118919880Y-136565714D02*
X119157976Y-137232380D01*
X119396071Y-136565714D01*
X119681785Y-136232380D02*
X120300833Y-136232380D01*
X119967500Y-136613333D01*
X120110357Y-136613333D01*
X120205595Y-136660952D01*
X120253214Y-136708571D01*
X120300833Y-136803809D01*
X120300833Y-137041904D01*
X120253214Y-137137142D01*
X120205595Y-137184761D01*
X120110357Y-137232380D01*
X119824642Y-137232380D01*
X119729404Y-137184761D01*
X119681785Y-137137142D01*
X103157976Y-137977619D02*
X103205595Y-137930000D01*
X103300833Y-137882380D01*
X103538928Y-137882380D01*
X103634166Y-137930000D01*
X103681785Y-137977619D01*
X103729404Y-138072857D01*
X103729404Y-138168095D01*
X103681785Y-138310952D01*
X103110357Y-138882380D01*
X103729404Y-138882380D01*
X104348452Y-137882380D02*
X104443690Y-137882380D01*
X104538928Y-137930000D01*
X104586547Y-137977619D01*
X104634166Y-138072857D01*
X104681785Y-138263333D01*
X104681785Y-138501428D01*
X104634166Y-138691904D01*
X104586547Y-138787142D01*
X104538928Y-138834761D01*
X104443690Y-138882380D01*
X104348452Y-138882380D01*
X104253214Y-138834761D01*
X104205595Y-138787142D01*
X104157976Y-138691904D01*
X104110357Y-138501428D01*
X104110357Y-138263333D01*
X104157976Y-138072857D01*
X104205595Y-137977619D01*
X104253214Y-137930000D01*
X104348452Y-137882380D01*
X105062738Y-137977619D02*
X105110357Y-137930000D01*
X105205595Y-137882380D01*
X105443690Y-137882380D01*
X105538928Y-137930000D01*
X105586547Y-137977619D01*
X105634166Y-138072857D01*
X105634166Y-138168095D01*
X105586547Y-138310952D01*
X105015119Y-138882380D01*
X105634166Y-138882380D01*
X106015119Y-137977619D02*
X106062738Y-137930000D01*
X106157976Y-137882380D01*
X106396071Y-137882380D01*
X106491309Y-137930000D01*
X106538928Y-137977619D01*
X106586547Y-138072857D01*
X106586547Y-138168095D01*
X106538928Y-138310952D01*
X105967500Y-138882380D01*
X106586547Y-138882380D01*
X107015119Y-138501428D02*
X107777023Y-138501428D01*
X108443690Y-137882380D02*
X108538928Y-137882380D01*
X108634166Y-137930000D01*
X108681785Y-137977619D01*
X108729404Y-138072857D01*
X108777023Y-138263333D01*
X108777023Y-138501428D01*
X108729404Y-138691904D01*
X108681785Y-138787142D01*
X108634166Y-138834761D01*
X108538928Y-138882380D01*
X108443690Y-138882380D01*
X108348452Y-138834761D01*
X108300833Y-138787142D01*
X108253214Y-138691904D01*
X108205595Y-138501428D01*
X108205595Y-138263333D01*
X108253214Y-138072857D01*
X108300833Y-137977619D01*
X108348452Y-137930000D01*
X108443690Y-137882380D01*
X109634166Y-137882380D02*
X109443690Y-137882380D01*
X109348452Y-137930000D01*
X109300833Y-137977619D01*
X109205595Y-138120476D01*
X109157976Y-138310952D01*
X109157976Y-138691904D01*
X109205595Y-138787142D01*
X109253214Y-138834761D01*
X109348452Y-138882380D01*
X109538928Y-138882380D01*
X109634166Y-138834761D01*
X109681785Y-138787142D01*
X109729404Y-138691904D01*
X109729404Y-138453809D01*
X109681785Y-138358571D01*
X109634166Y-138310952D01*
X109538928Y-138263333D01*
X109348452Y-138263333D01*
X109253214Y-138310952D01*
X109205595Y-138358571D01*
X109157976Y-138453809D01*
X110157976Y-138501428D02*
X110919880Y-138501428D01*
X111586547Y-137882380D02*
X111681785Y-137882380D01*
X111777023Y-137930000D01*
X111824642Y-137977619D01*
X111872261Y-138072857D01*
X111919880Y-138263333D01*
X111919880Y-138501428D01*
X111872261Y-138691904D01*
X111824642Y-138787142D01*
X111777023Y-138834761D01*
X111681785Y-138882380D01*
X111586547Y-138882380D01*
X111491309Y-138834761D01*
X111443690Y-138787142D01*
X111396071Y-138691904D01*
X111348452Y-138501428D01*
X111348452Y-138263333D01*
X111396071Y-138072857D01*
X111443690Y-137977619D01*
X111491309Y-137930000D01*
X111586547Y-137882380D01*
X112777023Y-137882380D02*
X112586547Y-137882380D01*
X112491309Y-137930000D01*
X112443690Y-137977619D01*
X112348452Y-138120476D01*
X112300833Y-138310952D01*
X112300833Y-138691904D01*
X112348452Y-138787142D01*
X112396071Y-138834761D01*
X112491309Y-138882380D01*
X112681785Y-138882380D01*
X112777023Y-138834761D01*
X112824642Y-138787142D01*
X112872261Y-138691904D01*
X112872261Y-138453809D01*
X112824642Y-138358571D01*
X112777023Y-138310952D01*
X112681785Y-138263333D01*
X112491309Y-138263333D01*
X112396071Y-138310952D01*
X112348452Y-138358571D01*
X112300833Y-138453809D01*
X103205595Y-140532380D02*
X103205595Y-139532380D01*
X103777023Y-140532380D01*
X103777023Y-139532380D01*
X104253214Y-140532380D02*
X104253214Y-139865714D01*
X104253214Y-139532380D02*
X104205595Y-139580000D01*
X104253214Y-139627619D01*
X104300833Y-139580000D01*
X104253214Y-139532380D01*
X104253214Y-139627619D01*
X105300833Y-140532380D02*
X104967500Y-140056190D01*
X104729404Y-140532380D02*
X104729404Y-139532380D01*
X105110357Y-139532380D01*
X105205595Y-139580000D01*
X105253214Y-139627619D01*
X105300833Y-139722857D01*
X105300833Y-139865714D01*
X105253214Y-139960952D01*
X105205595Y-140008571D01*
X105110357Y-140056190D01*
X104729404Y-140056190D01*
X105872261Y-140532380D02*
X105777023Y-140484761D01*
X105729404Y-140437142D01*
X105681785Y-140341904D01*
X105681785Y-140056190D01*
X105729404Y-139960952D01*
X105777023Y-139913333D01*
X105872261Y-139865714D01*
X106015119Y-139865714D01*
X106110357Y-139913333D01*
X106157976Y-139960952D01*
X106205595Y-140056190D01*
X106205595Y-140341904D01*
X106157976Y-140437142D01*
X106110357Y-140484761D01*
X106015119Y-140532380D01*
X105872261Y-140532380D01*
X107396071Y-140151428D02*
X108157976Y-140151428D01*
X109396071Y-140532380D02*
X109396071Y-139532380D01*
X109967500Y-140532380D01*
X109967500Y-139532380D01*
X110872261Y-139865714D02*
X110872261Y-140532380D01*
X110443690Y-139865714D02*
X110443690Y-140389523D01*
X110491309Y-140484761D01*
X110586547Y-140532380D01*
X110729404Y-140532380D01*
X110824642Y-140484761D01*
X110872261Y-140437142D01*
X111348452Y-140532380D02*
X111348452Y-139865714D01*
X111348452Y-140056190D02*
X111396071Y-139960952D01*
X111443690Y-139913333D01*
X111538928Y-139865714D01*
X111634166Y-139865714D01*
X113157976Y-140532380D02*
X113157976Y-139532380D01*
X113157976Y-140484761D02*
X113062738Y-140532380D01*
X112872261Y-140532380D01*
X112777023Y-140484761D01*
X112729404Y-140437142D01*
X112681785Y-140341904D01*
X112681785Y-140056190D01*
X112729404Y-139960952D01*
X112777023Y-139913333D01*
X112872261Y-139865714D01*
X113062738Y-139865714D01*
X113157976Y-139913333D01*
X114015119Y-140484761D02*
X113919880Y-140532380D01*
X113729404Y-140532380D01*
X113634166Y-140484761D01*
X113586547Y-140389523D01*
X113586547Y-140008571D01*
X113634166Y-139913333D01*
X113729404Y-139865714D01*
X113919880Y-139865714D01*
X114015119Y-139913333D01*
X114062738Y-140008571D01*
X114062738Y-140103809D01*
X113586547Y-140199047D01*
X114491309Y-140532380D02*
X114491309Y-139865714D01*
X114491309Y-140056190D02*
X114538928Y-139960952D01*
X114586547Y-139913333D01*
X114681785Y-139865714D01*
X114777023Y-139865714D01*
X115824642Y-140484761D02*
X115967500Y-140532380D01*
X116205595Y-140532380D01*
X116300833Y-140484761D01*
X116348452Y-140437142D01*
X116396071Y-140341904D01*
X116396071Y-140246666D01*
X116348452Y-140151428D01*
X116300833Y-140103809D01*
X116205595Y-140056190D01*
X116015119Y-140008571D01*
X115919880Y-139960952D01*
X115872261Y-139913333D01*
X115824642Y-139818095D01*
X115824642Y-139722857D01*
X115872261Y-139627619D01*
X115919880Y-139580000D01*
X116015119Y-139532380D01*
X116253214Y-139532380D01*
X116396071Y-139580000D01*
X117015119Y-139532380D02*
X117110357Y-139532380D01*
X117205595Y-139580000D01*
X117253214Y-139627619D01*
X117300833Y-139722857D01*
X117348452Y-139913333D01*
X117348452Y-140151428D01*
X117300833Y-140341904D01*
X117253214Y-140437142D01*
X117205595Y-140484761D01*
X117110357Y-140532380D01*
X117015119Y-140532380D01*
X116919880Y-140484761D01*
X116872261Y-140437142D01*
X116824642Y-140341904D01*
X116777023Y-140151428D01*
X116777023Y-139913333D01*
X116824642Y-139722857D01*
X116872261Y-139627619D01*
X116919880Y-139580000D01*
X117015119Y-139532380D01*
X118205595Y-139865714D02*
X118205595Y-140532380D01*
X117967500Y-139484761D02*
X117729404Y-140199047D01*
X118348452Y-140199047D01*
X72582738Y-75907380D02*
X73154166Y-75907380D01*
X72868452Y-76907380D02*
X72868452Y-75907380D01*
X73630357Y-76907380D02*
X73535119Y-76859761D01*
X73487500Y-76812142D01*
X73439880Y-76716904D01*
X73439880Y-76431190D01*
X73487500Y-76335952D01*
X73535119Y-76288333D01*
X73630357Y-76240714D01*
X73773214Y-76240714D01*
X73868452Y-76288333D01*
X73916071Y-76335952D01*
X73963690Y-76431190D01*
X73963690Y-76716904D01*
X73916071Y-76812142D01*
X73868452Y-76859761D01*
X73773214Y-76907380D01*
X73630357Y-76907380D01*
X74392261Y-76907380D02*
X74392261Y-76240714D01*
X74392261Y-76431190D02*
X74439880Y-76335952D01*
X74487500Y-76288333D01*
X74582738Y-76240714D01*
X74677976Y-76240714D01*
X75154166Y-76907380D02*
X75058928Y-76859761D01*
X75011309Y-76812142D01*
X74963690Y-76716904D01*
X74963690Y-76431190D01*
X75011309Y-76335952D01*
X75058928Y-76288333D01*
X75154166Y-76240714D01*
X75297023Y-76240714D01*
X75392261Y-76288333D01*
X75439880Y-76335952D01*
X75487500Y-76431190D01*
X75487500Y-76716904D01*
X75439880Y-76812142D01*
X75392261Y-76859761D01*
X75297023Y-76907380D01*
X75154166Y-76907380D01*
X76677976Y-76907380D02*
X76677976Y-75907380D01*
X77011309Y-76621666D01*
X77344642Y-75907380D01*
X77344642Y-76907380D01*
X77963690Y-76907380D02*
X77868452Y-76859761D01*
X77820833Y-76812142D01*
X77773214Y-76716904D01*
X77773214Y-76431190D01*
X77820833Y-76335952D01*
X77868452Y-76288333D01*
X77963690Y-76240714D01*
X78106547Y-76240714D01*
X78201785Y-76288333D01*
X78249404Y-76335952D01*
X78297023Y-76431190D01*
X78297023Y-76716904D01*
X78249404Y-76812142D01*
X78201785Y-76859761D01*
X78106547Y-76907380D01*
X77963690Y-76907380D01*
X78582738Y-76240714D02*
X78963690Y-76240714D01*
X78725595Y-75907380D02*
X78725595Y-76764523D01*
X78773214Y-76859761D01*
X78868452Y-76907380D01*
X78963690Y-76907380D01*
X79439880Y-76907380D02*
X79344642Y-76859761D01*
X79297023Y-76812142D01*
X79249404Y-76716904D01*
X79249404Y-76431190D01*
X79297023Y-76335952D01*
X79344642Y-76288333D01*
X79439880Y-76240714D01*
X79582738Y-76240714D01*
X79677976Y-76288333D01*
X79725595Y-76335952D01*
X79773214Y-76431190D01*
X79773214Y-76716904D01*
X79725595Y-76812142D01*
X79677976Y-76859761D01*
X79582738Y-76907380D01*
X79439880Y-76907380D01*
X80201785Y-76907380D02*
X80201785Y-76240714D01*
X80201785Y-76431190D02*
X80249404Y-76335952D01*
X80297023Y-76288333D01*
X80392261Y-76240714D01*
X80487500Y-76240714D01*
X81582738Y-76907380D02*
X81582738Y-75907380D01*
X81820833Y-75907380D01*
X81963690Y-75955000D01*
X82058928Y-76050238D01*
X82106547Y-76145476D01*
X82154166Y-76335952D01*
X82154166Y-76478809D01*
X82106547Y-76669285D01*
X82058928Y-76764523D01*
X81963690Y-76859761D01*
X81820833Y-76907380D01*
X81582738Y-76907380D01*
X82582738Y-76907380D02*
X82582738Y-76240714D01*
X82582738Y-76431190D02*
X82630357Y-76335952D01*
X82677976Y-76288333D01*
X82773214Y-76240714D01*
X82868452Y-76240714D01*
X83201785Y-76907380D02*
X83201785Y-76240714D01*
X83201785Y-75907380D02*
X83154166Y-75955000D01*
X83201785Y-76002619D01*
X83249404Y-75955000D01*
X83201785Y-75907380D01*
X83201785Y-76002619D01*
X83582738Y-76240714D02*
X83820833Y-76907380D01*
X84058928Y-76240714D01*
X84820833Y-76859761D02*
X84725595Y-76907380D01*
X84535119Y-76907380D01*
X84439880Y-76859761D01*
X84392261Y-76764523D01*
X84392261Y-76383571D01*
X84439880Y-76288333D01*
X84535119Y-76240714D01*
X84725595Y-76240714D01*
X84820833Y-76288333D01*
X84868452Y-76383571D01*
X84868452Y-76478809D01*
X84392261Y-76574047D01*
X85297023Y-76907380D02*
X85297023Y-76240714D01*
X85297023Y-76431190D02*
X85344642Y-76335952D01*
X85392261Y-76288333D01*
X85487500Y-76240714D01*
X85582738Y-76240714D01*
X87249404Y-76907380D02*
X86916071Y-76431190D01*
X86677976Y-76907380D02*
X86677976Y-75907380D01*
X87058928Y-75907380D01*
X87154166Y-75955000D01*
X87201785Y-76002619D01*
X87249404Y-76097857D01*
X87249404Y-76240714D01*
X87201785Y-76335952D01*
X87154166Y-76383571D01*
X87058928Y-76431190D01*
X86677976Y-76431190D01*
X88058928Y-76859761D02*
X87963690Y-76907380D01*
X87773214Y-76907380D01*
X87677976Y-76859761D01*
X87630357Y-76764523D01*
X87630357Y-76383571D01*
X87677976Y-76288333D01*
X87773214Y-76240714D01*
X87963690Y-76240714D01*
X88058928Y-76288333D01*
X88106547Y-76383571D01*
X88106547Y-76478809D01*
X87630357Y-76574047D01*
X88439880Y-76240714D02*
X88677976Y-76907380D01*
X88916071Y-76240714D01*
X89201785Y-75907380D02*
X89820833Y-75907380D01*
X89487500Y-76288333D01*
X89630357Y-76288333D01*
X89725595Y-76335952D01*
X89773214Y-76383571D01*
X89820833Y-76478809D01*
X89820833Y-76716904D01*
X89773214Y-76812142D01*
X89725595Y-76859761D01*
X89630357Y-76907380D01*
X89344642Y-76907380D01*
X89249404Y-76859761D01*
X89201785Y-76812142D01*
X72677976Y-77652619D02*
X72725595Y-77605000D01*
X72820833Y-77557380D01*
X73058928Y-77557380D01*
X73154166Y-77605000D01*
X73201785Y-77652619D01*
X73249404Y-77747857D01*
X73249404Y-77843095D01*
X73201785Y-77985952D01*
X72630357Y-78557380D01*
X73249404Y-78557380D01*
X73868452Y-77557380D02*
X73963690Y-77557380D01*
X74058928Y-77605000D01*
X74106547Y-77652619D01*
X74154166Y-77747857D01*
X74201785Y-77938333D01*
X74201785Y-78176428D01*
X74154166Y-78366904D01*
X74106547Y-78462142D01*
X74058928Y-78509761D01*
X73963690Y-78557380D01*
X73868452Y-78557380D01*
X73773214Y-78509761D01*
X73725595Y-78462142D01*
X73677976Y-78366904D01*
X73630357Y-78176428D01*
X73630357Y-77938333D01*
X73677976Y-77747857D01*
X73725595Y-77652619D01*
X73773214Y-77605000D01*
X73868452Y-77557380D01*
X74582738Y-77652619D02*
X74630357Y-77605000D01*
X74725595Y-77557380D01*
X74963690Y-77557380D01*
X75058928Y-77605000D01*
X75106547Y-77652619D01*
X75154166Y-77747857D01*
X75154166Y-77843095D01*
X75106547Y-77985952D01*
X74535119Y-78557380D01*
X75154166Y-78557380D01*
X75535119Y-77652619D02*
X75582738Y-77605000D01*
X75677976Y-77557380D01*
X75916071Y-77557380D01*
X76011309Y-77605000D01*
X76058928Y-77652619D01*
X76106547Y-77747857D01*
X76106547Y-77843095D01*
X76058928Y-77985952D01*
X75487500Y-78557380D01*
X76106547Y-78557380D01*
X76535119Y-78176428D02*
X77297023Y-78176428D01*
X77963690Y-77557380D02*
X78058928Y-77557380D01*
X78154166Y-77605000D01*
X78201785Y-77652619D01*
X78249404Y-77747857D01*
X78297023Y-77938333D01*
X78297023Y-78176428D01*
X78249404Y-78366904D01*
X78201785Y-78462142D01*
X78154166Y-78509761D01*
X78058928Y-78557380D01*
X77963690Y-78557380D01*
X77868452Y-78509761D01*
X77820833Y-78462142D01*
X77773214Y-78366904D01*
X77725595Y-78176428D01*
X77725595Y-77938333D01*
X77773214Y-77747857D01*
X77820833Y-77652619D01*
X77868452Y-77605000D01*
X77963690Y-77557380D01*
X79154166Y-77557380D02*
X78963690Y-77557380D01*
X78868452Y-77605000D01*
X78820833Y-77652619D01*
X78725595Y-77795476D01*
X78677976Y-77985952D01*
X78677976Y-78366904D01*
X78725595Y-78462142D01*
X78773214Y-78509761D01*
X78868452Y-78557380D01*
X79058928Y-78557380D01*
X79154166Y-78509761D01*
X79201785Y-78462142D01*
X79249404Y-78366904D01*
X79249404Y-78128809D01*
X79201785Y-78033571D01*
X79154166Y-77985952D01*
X79058928Y-77938333D01*
X78868452Y-77938333D01*
X78773214Y-77985952D01*
X78725595Y-78033571D01*
X78677976Y-78128809D01*
X79677976Y-78176428D02*
X80439880Y-78176428D01*
X81106547Y-77557380D02*
X81201785Y-77557380D01*
X81297023Y-77605000D01*
X81344642Y-77652619D01*
X81392261Y-77747857D01*
X81439880Y-77938333D01*
X81439880Y-78176428D01*
X81392261Y-78366904D01*
X81344642Y-78462142D01*
X81297023Y-78509761D01*
X81201785Y-78557380D01*
X81106547Y-78557380D01*
X81011309Y-78509761D01*
X80963690Y-78462142D01*
X80916071Y-78366904D01*
X80868452Y-78176428D01*
X80868452Y-77938333D01*
X80916071Y-77747857D01*
X80963690Y-77652619D01*
X81011309Y-77605000D01*
X81106547Y-77557380D01*
X82297023Y-77557380D02*
X82106547Y-77557380D01*
X82011309Y-77605000D01*
X81963690Y-77652619D01*
X81868452Y-77795476D01*
X81820833Y-77985952D01*
X81820833Y-78366904D01*
X81868452Y-78462142D01*
X81916071Y-78509761D01*
X82011309Y-78557380D01*
X82201785Y-78557380D01*
X82297023Y-78509761D01*
X82344642Y-78462142D01*
X82392261Y-78366904D01*
X82392261Y-78128809D01*
X82344642Y-78033571D01*
X82297023Y-77985952D01*
X82201785Y-77938333D01*
X82011309Y-77938333D01*
X81916071Y-77985952D01*
X81868452Y-78033571D01*
X81820833Y-78128809D01*
X72725595Y-80207380D02*
X72725595Y-79207380D01*
X73297023Y-80207380D01*
X73297023Y-79207380D01*
X73773214Y-80207380D02*
X73773214Y-79540714D01*
X73773214Y-79207380D02*
X73725595Y-79255000D01*
X73773214Y-79302619D01*
X73820833Y-79255000D01*
X73773214Y-79207380D01*
X73773214Y-79302619D01*
X74820833Y-80207380D02*
X74487500Y-79731190D01*
X74249404Y-80207380D02*
X74249404Y-79207380D01*
X74630357Y-79207380D01*
X74725595Y-79255000D01*
X74773214Y-79302619D01*
X74820833Y-79397857D01*
X74820833Y-79540714D01*
X74773214Y-79635952D01*
X74725595Y-79683571D01*
X74630357Y-79731190D01*
X74249404Y-79731190D01*
X75392261Y-80207380D02*
X75297023Y-80159761D01*
X75249404Y-80112142D01*
X75201785Y-80016904D01*
X75201785Y-79731190D01*
X75249404Y-79635952D01*
X75297023Y-79588333D01*
X75392261Y-79540714D01*
X75535119Y-79540714D01*
X75630357Y-79588333D01*
X75677976Y-79635952D01*
X75725595Y-79731190D01*
X75725595Y-80016904D01*
X75677976Y-80112142D01*
X75630357Y-80159761D01*
X75535119Y-80207380D01*
X75392261Y-80207380D01*
X76916071Y-79826428D02*
X77677976Y-79826428D01*
X78916071Y-80207380D02*
X78916071Y-79207380D01*
X79487500Y-80207380D01*
X79487500Y-79207380D01*
X80392261Y-79540714D02*
X80392261Y-80207380D01*
X79963690Y-79540714D02*
X79963690Y-80064523D01*
X80011309Y-80159761D01*
X80106547Y-80207380D01*
X80249404Y-80207380D01*
X80344642Y-80159761D01*
X80392261Y-80112142D01*
X80868452Y-80207380D02*
X80868452Y-79540714D01*
X80868452Y-79731190D02*
X80916071Y-79635952D01*
X80963690Y-79588333D01*
X81058928Y-79540714D01*
X81154166Y-79540714D01*
X82677976Y-80207380D02*
X82677976Y-79207380D01*
X82677976Y-80159761D02*
X82582738Y-80207380D01*
X82392261Y-80207380D01*
X82297023Y-80159761D01*
X82249404Y-80112142D01*
X82201785Y-80016904D01*
X82201785Y-79731190D01*
X82249404Y-79635952D01*
X82297023Y-79588333D01*
X82392261Y-79540714D01*
X82582738Y-79540714D01*
X82677976Y-79588333D01*
X83535119Y-80159761D02*
X83439880Y-80207380D01*
X83249404Y-80207380D01*
X83154166Y-80159761D01*
X83106547Y-80064523D01*
X83106547Y-79683571D01*
X83154166Y-79588333D01*
X83249404Y-79540714D01*
X83439880Y-79540714D01*
X83535119Y-79588333D01*
X83582738Y-79683571D01*
X83582738Y-79778809D01*
X83106547Y-79874047D01*
X84011309Y-80207380D02*
X84011309Y-79540714D01*
X84011309Y-79731190D02*
X84058928Y-79635952D01*
X84106547Y-79588333D01*
X84201785Y-79540714D01*
X84297023Y-79540714D01*
X85344642Y-80159761D02*
X85487500Y-80207380D01*
X85725595Y-80207380D01*
X85820833Y-80159761D01*
X85868452Y-80112142D01*
X85916071Y-80016904D01*
X85916071Y-79921666D01*
X85868452Y-79826428D01*
X85820833Y-79778809D01*
X85725595Y-79731190D01*
X85535119Y-79683571D01*
X85439880Y-79635952D01*
X85392261Y-79588333D01*
X85344642Y-79493095D01*
X85344642Y-79397857D01*
X85392261Y-79302619D01*
X85439880Y-79255000D01*
X85535119Y-79207380D01*
X85773214Y-79207380D01*
X85916071Y-79255000D01*
X86535119Y-79207380D02*
X86630357Y-79207380D01*
X86725595Y-79255000D01*
X86773214Y-79302619D01*
X86820833Y-79397857D01*
X86868452Y-79588333D01*
X86868452Y-79826428D01*
X86820833Y-80016904D01*
X86773214Y-80112142D01*
X86725595Y-80159761D01*
X86630357Y-80207380D01*
X86535119Y-80207380D01*
X86439880Y-80159761D01*
X86392261Y-80112142D01*
X86344642Y-80016904D01*
X86297023Y-79826428D01*
X86297023Y-79588333D01*
X86344642Y-79397857D01*
X86392261Y-79302619D01*
X86439880Y-79255000D01*
X86535119Y-79207380D01*
X87725595Y-79540714D02*
X87725595Y-80207380D01*
X87487500Y-79159761D02*
X87249404Y-79874047D01*
X87868452Y-79874047D01*
D11*
X116586190Y-76470000D02*
X116395714Y-76374761D01*
X116110000Y-76374761D01*
X115824285Y-76470000D01*
X115633809Y-76660476D01*
X115538571Y-76850952D01*
X115443333Y-77231904D01*
X115443333Y-77517619D01*
X115538571Y-77898571D01*
X115633809Y-78089047D01*
X115824285Y-78279523D01*
X116110000Y-78374761D01*
X116300476Y-78374761D01*
X116586190Y-78279523D01*
X116681428Y-78184285D01*
X116681428Y-77517619D01*
X116300476Y-77517619D01*
X117538571Y-78374761D02*
X117538571Y-76374761D01*
X118681428Y-78374761D01*
X118681428Y-76374761D01*
X119633809Y-78374761D02*
X119633809Y-76374761D01*
X120110000Y-76374761D01*
X120395714Y-76470000D01*
X120586190Y-76660476D01*
X120681428Y-76850952D01*
X120776666Y-77231904D01*
X120776666Y-77517619D01*
X120681428Y-77898571D01*
X120586190Y-78089047D01*
X120395714Y-78279523D01*
X120110000Y-78374761D01*
X119633809Y-78374761D01*
X94266190Y-77612857D02*
X95790000Y-77612857D01*
X95028095Y-78374761D02*
X95028095Y-76850952D01*
X97790000Y-78374761D02*
X96647142Y-78374761D01*
X97218571Y-78374761D02*
X97218571Y-76374761D01*
X97028095Y-76660476D01*
X96837619Y-76850952D01*
X96647142Y-76946190D01*
X98551904Y-76565238D02*
X98647142Y-76470000D01*
X98837619Y-76374761D01*
X99313809Y-76374761D01*
X99504285Y-76470000D01*
X99599523Y-76565238D01*
X99694761Y-76755714D01*
X99694761Y-76946190D01*
X99599523Y-77231904D01*
X98456666Y-78374761D01*
X99694761Y-78374761D01*
X100266190Y-76374761D02*
X100932857Y-78374761D01*
X101599523Y-76374761D01*
D10*
X73826666Y-102551428D02*
X73826666Y-102075238D01*
X74112380Y-102646666D02*
X73112380Y-102313333D01*
X74112380Y-101980000D01*
X73731428Y-100122857D02*
X73731428Y-99360952D01*
X73826666Y-97408571D02*
X73826666Y-96932380D01*
X74112380Y-97503809D02*
X73112380Y-97170476D01*
X74112380Y-96837142D01*
X73112380Y-96456190D02*
X73302857Y-96551428D01*
X73731428Y-94503809D02*
X73731428Y-93741904D01*
X73588571Y-91408571D02*
X73636190Y-91265714D01*
X73683809Y-91218095D01*
X73779047Y-91170476D01*
X73921904Y-91170476D01*
X74017142Y-91218095D01*
X74064761Y-91265714D01*
X74112380Y-91360952D01*
X74112380Y-91741904D01*
X73112380Y-91741904D01*
X73112380Y-91408571D01*
X73160000Y-91313333D01*
X73207619Y-91265714D01*
X73302857Y-91218095D01*
X73398095Y-91218095D01*
X73493333Y-91265714D01*
X73540952Y-91313333D01*
X73588571Y-91408571D01*
X73588571Y-91741904D01*
X73731428Y-89218095D02*
X73731428Y-88456190D01*
X73588571Y-86122857D02*
X73636190Y-85980000D01*
X73683809Y-85932380D01*
X73779047Y-85884761D01*
X73921904Y-85884761D01*
X74017142Y-85932380D01*
X74064761Y-85980000D01*
X74112380Y-86075238D01*
X74112380Y-86456190D01*
X73112380Y-86456190D01*
X73112380Y-86122857D01*
X73160000Y-86027619D01*
X73207619Y-85980000D01*
X73302857Y-85932380D01*
X73398095Y-85932380D01*
X73493333Y-85980000D01*
X73540952Y-86027619D01*
X73588571Y-86122857D01*
X73588571Y-86456190D01*
X73112380Y-85408571D02*
X73302857Y-85503809D01*
X74166666Y-122236428D02*
X74166666Y-121760238D01*
X74452380Y-122331666D02*
X73452380Y-121998333D01*
X74452380Y-121665000D01*
X74071428Y-119807857D02*
X74071428Y-119045952D01*
X74166666Y-117093571D02*
X74166666Y-116617380D01*
X74452380Y-117188809D02*
X73452380Y-116855476D01*
X74452380Y-116522142D01*
X73452380Y-116141190D02*
X73642857Y-116236428D01*
X74071428Y-114188809D02*
X74071428Y-113426904D01*
X73928571Y-111093571D02*
X73976190Y-110950714D01*
X74023809Y-110903095D01*
X74119047Y-110855476D01*
X74261904Y-110855476D01*
X74357142Y-110903095D01*
X74404761Y-110950714D01*
X74452380Y-111045952D01*
X74452380Y-111426904D01*
X73452380Y-111426904D01*
X73452380Y-111093571D01*
X73500000Y-110998333D01*
X73547619Y-110950714D01*
X73642857Y-110903095D01*
X73738095Y-110903095D01*
X73833333Y-110950714D01*
X73880952Y-110998333D01*
X73928571Y-111093571D01*
X73928571Y-111426904D01*
X74071428Y-108903095D02*
X74071428Y-108141190D01*
X73928571Y-105807857D02*
X73976190Y-105665000D01*
X74023809Y-105617380D01*
X74119047Y-105569761D01*
X74261904Y-105569761D01*
X74357142Y-105617380D01*
X74404761Y-105665000D01*
X74452380Y-105760238D01*
X74452380Y-106141190D01*
X73452380Y-106141190D01*
X73452380Y-105807857D01*
X73500000Y-105712619D01*
X73547619Y-105665000D01*
X73642857Y-105617380D01*
X73738095Y-105617380D01*
X73833333Y-105665000D01*
X73880952Y-105712619D01*
X73928571Y-105807857D01*
X73928571Y-106141190D01*
X73452380Y-105093571D02*
X73642857Y-105188809D01*
X72452380Y-101571428D02*
X72452380Y-102142857D01*
X72452380Y-101857142D02*
X71452380Y-101857142D01*
X71595238Y-101952380D01*
X71690476Y-102047619D01*
X71738095Y-102142857D01*
X72071428Y-99619047D02*
X72071428Y-98857142D01*
X71547619Y-96904761D02*
X71500000Y-96857142D01*
X71452380Y-96761904D01*
X71452380Y-96523809D01*
X71500000Y-96428571D01*
X71547619Y-96380952D01*
X71642857Y-96333333D01*
X71738095Y-96333333D01*
X71880952Y-96380952D01*
X72452380Y-96952380D01*
X72452380Y-96333333D01*
X72071428Y-94380952D02*
X72071428Y-93619047D01*
X71452380Y-91714285D02*
X71452380Y-91095238D01*
X71833333Y-91428571D01*
X71833333Y-91285714D01*
X71880952Y-91190476D01*
X71928571Y-91142857D01*
X72023809Y-91095238D01*
X72261904Y-91095238D01*
X72357142Y-91142857D01*
X72404761Y-91190476D01*
X72452380Y-91285714D01*
X72452380Y-91571428D01*
X72404761Y-91666666D01*
X72357142Y-91714285D01*
X72071428Y-89142857D02*
X72071428Y-88380952D01*
X71785714Y-85952380D02*
X72452380Y-85952380D01*
X71404761Y-86190476D02*
X72119047Y-86428571D01*
X72119047Y-85809523D01*
X72452380Y-121571428D02*
X72452380Y-122142857D01*
X72452380Y-121857142D02*
X71452380Y-121857142D01*
X71595238Y-121952380D01*
X71690476Y-122047619D01*
X71738095Y-122142857D01*
X72071428Y-119619047D02*
X72071428Y-118857142D01*
X71547619Y-116904761D02*
X71500000Y-116857142D01*
X71452380Y-116761904D01*
X71452380Y-116523809D01*
X71500000Y-116428571D01*
X71547619Y-116380952D01*
X71642857Y-116333333D01*
X71738095Y-116333333D01*
X71880952Y-116380952D01*
X72452380Y-116952380D01*
X72452380Y-116333333D01*
X72071428Y-114380952D02*
X72071428Y-113619047D01*
X71452380Y-111714285D02*
X71452380Y-111095238D01*
X71833333Y-111428571D01*
X71833333Y-111285714D01*
X71880952Y-111190476D01*
X71928571Y-111142857D01*
X72023809Y-111095238D01*
X72261904Y-111095238D01*
X72357142Y-111142857D01*
X72404761Y-111190476D01*
X72452380Y-111285714D01*
X72452380Y-111571428D01*
X72404761Y-111666666D01*
X72357142Y-111714285D01*
X72071428Y-109142857D02*
X72071428Y-108380952D01*
X71785714Y-105952380D02*
X72452380Y-105952380D01*
X71404761Y-106190476D02*
X72119047Y-106428571D01*
X72119047Y-105809523D01*
X131452380Y-114928571D02*
X131452380Y-115500000D01*
X131452380Y-115214285D02*
X130452380Y-115214285D01*
X130595238Y-115309523D01*
X130690476Y-115404761D01*
X130738095Y-115500000D01*
X130452380Y-114595238D02*
X130452380Y-113976190D01*
X130833333Y-114309523D01*
X130833333Y-114166666D01*
X130880952Y-114071428D01*
X130928571Y-114023809D01*
X131023809Y-113976190D01*
X131261904Y-113976190D01*
X131357142Y-114023809D01*
X131404761Y-114071428D01*
X131452380Y-114166666D01*
X131452380Y-114452380D01*
X131404761Y-114547619D01*
X131357142Y-114595238D01*
X131071428Y-113547619D02*
X131071428Y-112785714D01*
X131166666Y-112357142D02*
X131166666Y-111880952D01*
X131452380Y-112452380D02*
X130452380Y-112119047D01*
X131452380Y-111785714D01*
X130452380Y-111261904D02*
X130452380Y-111166666D01*
X130500000Y-111071428D01*
X130547619Y-111023809D01*
X130642857Y-110976190D01*
X130833333Y-110928571D01*
X131071428Y-110928571D01*
X131261904Y-110976190D01*
X131357142Y-111023809D01*
X131404761Y-111071428D01*
X131452380Y-111166666D01*
X131452380Y-111261904D01*
X131404761Y-111357142D01*
X131357142Y-111404761D01*
X131261904Y-111452380D01*
X131071428Y-111500000D01*
X130833333Y-111500000D01*
X130642857Y-111452380D01*
X130547619Y-111404761D01*
X130500000Y-111357142D01*
X130452380Y-111261904D01*
X131166666Y-110547619D02*
X131166666Y-110071428D01*
X131452380Y-110642857D02*
X130452380Y-110309523D01*
X131452380Y-109976190D01*
X131452380Y-109119047D02*
X131452380Y-109690476D01*
X131452380Y-109404761D02*
X130452380Y-109404761D01*
X130595238Y-109500000D01*
X130690476Y-109595238D01*
X130738095Y-109690476D01*
X131071428Y-108690476D02*
X131071428Y-107928571D01*
X131166666Y-107500000D02*
X131166666Y-107023809D01*
X131452380Y-107595238D02*
X130452380Y-107261904D01*
X131452380Y-106928571D01*
X130785714Y-106166666D02*
X131452380Y-106166666D01*
X130404761Y-106404761D02*
X131119047Y-106642857D01*
X131119047Y-106023809D01*
X131166666Y-105690476D02*
X131166666Y-105214285D01*
X131452380Y-105785714D02*
X130452380Y-105452380D01*
X131452380Y-105119047D01*
X130452380Y-104309523D02*
X130452380Y-104785714D01*
X130928571Y-104833333D01*
X130880952Y-104785714D01*
X130833333Y-104690476D01*
X130833333Y-104452380D01*
X130880952Y-104357142D01*
X130928571Y-104309523D01*
X131023809Y-104261904D01*
X131261904Y-104261904D01*
X131357142Y-104309523D01*
X131404761Y-104357142D01*
X131452380Y-104452380D01*
X131452380Y-104690476D01*
X131404761Y-104785714D01*
X131357142Y-104833333D01*
X131071428Y-103833333D02*
X131071428Y-103071428D01*
X130452380Y-102119047D02*
X130452380Y-102595238D01*
X130928571Y-102642857D01*
X130880952Y-102595238D01*
X130833333Y-102500000D01*
X130833333Y-102261904D01*
X130880952Y-102166666D01*
X130928571Y-102119047D01*
X131023809Y-102071428D01*
X131261904Y-102071428D01*
X131357142Y-102119047D01*
X131404761Y-102166666D01*
X131452380Y-102261904D01*
X131452380Y-102500000D01*
X131404761Y-102595238D01*
X131357142Y-102642857D01*
X130452380Y-101785714D02*
X131452380Y-101452380D01*
X130452380Y-101119047D01*
X130500000Y-100261904D02*
X130452380Y-100357142D01*
X130452380Y-100500000D01*
X130500000Y-100642857D01*
X130595238Y-100738095D01*
X130690476Y-100785714D01*
X130880952Y-100833333D01*
X131023809Y-100833333D01*
X131214285Y-100785714D01*
X131309523Y-100738095D01*
X131404761Y-100642857D01*
X131452380Y-100500000D01*
X131452380Y-100404761D01*
X131404761Y-100261904D01*
X131357142Y-100214285D01*
X131023809Y-100214285D01*
X131023809Y-100404761D01*
X131452380Y-99785714D02*
X130452380Y-99785714D01*
X131452380Y-99214285D01*
X130452380Y-99214285D01*
X131452380Y-98738095D02*
X130452380Y-98738095D01*
X130452380Y-98500000D01*
X130500000Y-98357142D01*
X130595238Y-98261904D01*
X130690476Y-98214285D01*
X130880952Y-98166666D01*
X131023809Y-98166666D01*
X131214285Y-98214285D01*
X131309523Y-98261904D01*
X131404761Y-98357142D01*
X131452380Y-98500000D01*
X131452380Y-98738095D01*
X131071428Y-97738095D02*
X131071428Y-96976190D01*
X130452380Y-96642857D02*
X131452380Y-96309523D01*
X130452380Y-95976190D01*
X131452380Y-95642857D02*
X130785714Y-95642857D01*
X130452380Y-95642857D02*
X130500000Y-95690476D01*
X130547619Y-95642857D01*
X130500000Y-95595238D01*
X130452380Y-95642857D01*
X130547619Y-95642857D01*
X130785714Y-95166666D02*
X131452380Y-95166666D01*
X130880952Y-95166666D02*
X130833333Y-95119047D01*
X130785714Y-95023809D01*
X130785714Y-94880952D01*
X130833333Y-94785714D01*
X130928571Y-94738095D01*
X131452380Y-94738095D01*
X131071428Y-94261904D02*
X131071428Y-93500000D01*
X130547619Y-93071428D02*
X130500000Y-93023809D01*
X130452380Y-92928571D01*
X130452380Y-92690476D01*
X130500000Y-92595238D01*
X130547619Y-92547619D01*
X130642857Y-92500000D01*
X130738095Y-92500000D01*
X130880952Y-92547619D01*
X131452380Y-93119047D01*
X131452380Y-92500000D01*
D12*
X128905000Y-115630000D02*
X127575000Y-115630000D01*
X127575000Y-115630000D02*
X127575000Y-114300000D01*
X127575000Y-113030000D02*
X127575000Y-92650000D01*
X130235000Y-92650000D02*
X127575000Y-92650000D01*
X130235000Y-113030000D02*
X130235000Y-92650000D01*
X130235000Y-113030000D02*
X127575000Y-113030000D01*
X67765000Y-128620225D02*
X67265000Y-128620225D01*
X67515000Y-128370225D02*
X67515000Y-128870225D01*
X66324000Y-133776000D02*
X65756000Y-133776000D01*
X66558000Y-133736000D02*
X65522000Y-133736000D01*
X66717000Y-133696000D02*
X65363000Y-133696000D01*
X66845000Y-133656000D02*
X65235000Y-133656000D01*
X66955000Y-133616000D02*
X65125000Y-133616000D01*
X67051000Y-133576000D02*
X65029000Y-133576000D01*
X67138000Y-133536000D02*
X64942000Y-133536000D01*
X67218000Y-133496000D02*
X64862000Y-133496000D01*
X67291000Y-133456000D02*
X64789000Y-133456000D01*
X67359000Y-133416000D02*
X64721000Y-133416000D01*
X67423000Y-133376000D02*
X64657000Y-133376000D01*
X67483000Y-133336000D02*
X64597000Y-133336000D01*
X67540000Y-133296000D02*
X64540000Y-133296000D01*
X67594000Y-133256000D02*
X64486000Y-133256000D01*
X67645000Y-133216000D02*
X64435000Y-133216000D01*
X65000000Y-133176000D02*
X64387000Y-133176000D01*
X67693000Y-133176000D02*
X67080000Y-133176000D01*
X65000000Y-133136000D02*
X64341000Y-133136000D01*
X67739000Y-133136000D02*
X67080000Y-133136000D01*
X65000000Y-133096000D02*
X64297000Y-133096000D01*
X67783000Y-133096000D02*
X67080000Y-133096000D01*
X65000000Y-133056000D02*
X64255000Y-133056000D01*
X67825000Y-133056000D02*
X67080000Y-133056000D01*
X65000000Y-133016000D02*
X64214000Y-133016000D01*
X67866000Y-133016000D02*
X67080000Y-133016000D01*
X65000000Y-132976000D02*
X64176000Y-132976000D01*
X67904000Y-132976000D02*
X67080000Y-132976000D01*
X65000000Y-132936000D02*
X64139000Y-132936000D01*
X67941000Y-132936000D02*
X67080000Y-132936000D01*
X65000000Y-132896000D02*
X64103000Y-132896000D01*
X67977000Y-132896000D02*
X67080000Y-132896000D01*
X65000000Y-132856000D02*
X64069000Y-132856000D01*
X68011000Y-132856000D02*
X67080000Y-132856000D01*
X65000000Y-132816000D02*
X64036000Y-132816000D01*
X68044000Y-132816000D02*
X67080000Y-132816000D01*
X65000000Y-132776000D02*
X64005000Y-132776000D01*
X68075000Y-132776000D02*
X67080000Y-132776000D01*
X65000000Y-132736000D02*
X63975000Y-132736000D01*
X68105000Y-132736000D02*
X67080000Y-132736000D01*
X65000000Y-132696000D02*
X63945000Y-132696000D01*
X68135000Y-132696000D02*
X67080000Y-132696000D01*
X65000000Y-132656000D02*
X63918000Y-132656000D01*
X68162000Y-132656000D02*
X67080000Y-132656000D01*
X65000000Y-132616000D02*
X63891000Y-132616000D01*
X68189000Y-132616000D02*
X67080000Y-132616000D01*
X65000000Y-132576000D02*
X63865000Y-132576000D01*
X68215000Y-132576000D02*
X67080000Y-132576000D01*
X65000000Y-132536000D02*
X63840000Y-132536000D01*
X68240000Y-132536000D02*
X67080000Y-132536000D01*
X65000000Y-132496000D02*
X63816000Y-132496000D01*
X68264000Y-132496000D02*
X67080000Y-132496000D01*
X65000000Y-132456000D02*
X63793000Y-132456000D01*
X68287000Y-132456000D02*
X67080000Y-132456000D01*
X65000000Y-132416000D02*
X63772000Y-132416000D01*
X68308000Y-132416000D02*
X67080000Y-132416000D01*
X65000000Y-132376000D02*
X63750000Y-132376000D01*
X68330000Y-132376000D02*
X67080000Y-132376000D01*
X65000000Y-132336000D02*
X63730000Y-132336000D01*
X68350000Y-132336000D02*
X67080000Y-132336000D01*
X65000000Y-132296000D02*
X63711000Y-132296000D01*
X68369000Y-132296000D02*
X67080000Y-132296000D01*
X65000000Y-132256000D02*
X63692000Y-132256000D01*
X68388000Y-132256000D02*
X67080000Y-132256000D01*
X65000000Y-132216000D02*
X63675000Y-132216000D01*
X68405000Y-132216000D02*
X67080000Y-132216000D01*
X65000000Y-132176000D02*
X63658000Y-132176000D01*
X68422000Y-132176000D02*
X67080000Y-132176000D01*
X65000000Y-132136000D02*
X63642000Y-132136000D01*
X68438000Y-132136000D02*
X67080000Y-132136000D01*
X65000000Y-132096000D02*
X63626000Y-132096000D01*
X68454000Y-132096000D02*
X67080000Y-132096000D01*
X65000000Y-132056000D02*
X63612000Y-132056000D01*
X68468000Y-132056000D02*
X67080000Y-132056000D01*
X65000000Y-132016000D02*
X63598000Y-132016000D01*
X68482000Y-132016000D02*
X67080000Y-132016000D01*
X65000000Y-131976000D02*
X63585000Y-131976000D01*
X68495000Y-131976000D02*
X67080000Y-131976000D01*
X65000000Y-131936000D02*
X63572000Y-131936000D01*
X68508000Y-131936000D02*
X67080000Y-131936000D01*
X65000000Y-131896000D02*
X63560000Y-131896000D01*
X68520000Y-131896000D02*
X67080000Y-131896000D01*
X65000000Y-131855000D02*
X63549000Y-131855000D01*
X68531000Y-131855000D02*
X67080000Y-131855000D01*
X65000000Y-131815000D02*
X63539000Y-131815000D01*
X68541000Y-131815000D02*
X67080000Y-131815000D01*
X65000000Y-131775000D02*
X63529000Y-131775000D01*
X68551000Y-131775000D02*
X67080000Y-131775000D01*
X65000000Y-131735000D02*
X63520000Y-131735000D01*
X68560000Y-131735000D02*
X67080000Y-131735000D01*
X65000000Y-131695000D02*
X63512000Y-131695000D01*
X68568000Y-131695000D02*
X67080000Y-131695000D01*
X65000000Y-131655000D02*
X63504000Y-131655000D01*
X68576000Y-131655000D02*
X67080000Y-131655000D01*
X65000000Y-131615000D02*
X63497000Y-131615000D01*
X68583000Y-131615000D02*
X67080000Y-131615000D01*
X65000000Y-131575000D02*
X63490000Y-131575000D01*
X68590000Y-131575000D02*
X67080000Y-131575000D01*
X65000000Y-131535000D02*
X63484000Y-131535000D01*
X68596000Y-131535000D02*
X67080000Y-131535000D01*
X65000000Y-131495000D02*
X63479000Y-131495000D01*
X68601000Y-131495000D02*
X67080000Y-131495000D01*
X65000000Y-131455000D02*
X63475000Y-131455000D01*
X68605000Y-131455000D02*
X67080000Y-131455000D01*
X65000000Y-131415000D02*
X63471000Y-131415000D01*
X68609000Y-131415000D02*
X67080000Y-131415000D01*
X65000000Y-131375000D02*
X63467000Y-131375000D01*
X68613000Y-131375000D02*
X67080000Y-131375000D01*
X65000000Y-131335000D02*
X63464000Y-131335000D01*
X68616000Y-131335000D02*
X67080000Y-131335000D01*
X65000000Y-131295000D02*
X63462000Y-131295000D01*
X68618000Y-131295000D02*
X67080000Y-131295000D01*
X65000000Y-131255000D02*
X63461000Y-131255000D01*
X68619000Y-131255000D02*
X67080000Y-131255000D01*
X68620000Y-131215000D02*
X67080000Y-131215000D01*
X65000000Y-131215000D02*
X63460000Y-131215000D01*
X68620000Y-131175000D02*
X67080000Y-131175000D01*
X65000000Y-131175000D02*
X63460000Y-131175000D01*
X68660000Y-131175000D02*
G75*
G03X68660000Y-131175000I-2620000J0D01*
G01*
X85150000Y-119490000D02*
X85150000Y-117840000D01*
X77410000Y-119490000D02*
X85150000Y-119490000D01*
X77410000Y-114190000D02*
X77410000Y-119490000D01*
X85150000Y-114190000D02*
X77410000Y-114190000D01*
X85150000Y-115840000D02*
X85150000Y-114190000D01*
X85150000Y-117840000D02*
G75*
G02X85150000Y-115840000I0J1000000D01*
G01*
X77410000Y-100855000D02*
X77410000Y-102505000D01*
X85150000Y-100855000D02*
X77410000Y-100855000D01*
X85150000Y-106155000D02*
X85150000Y-100855000D01*
X77410000Y-106155000D02*
X85150000Y-106155000D01*
X77410000Y-104505000D02*
X77410000Y-106155000D01*
X77410000Y-102505000D02*
G75*
G02X77410000Y-104505000I0J-1000000D01*
G01*
X90110000Y-100855000D02*
X90110000Y-102505000D01*
X97850000Y-100855000D02*
X90110000Y-100855000D01*
X97850000Y-106155000D02*
X97850000Y-100855000D01*
X90110000Y-106155000D02*
X97850000Y-106155000D01*
X90110000Y-104505000D02*
X90110000Y-106155000D01*
X90110000Y-102505000D02*
G75*
G02X90110000Y-104505000I0J-1000000D01*
G01*
X97850000Y-119490000D02*
X97850000Y-117840000D01*
X90110000Y-119490000D02*
X97850000Y-119490000D01*
X90110000Y-114190000D02*
X90110000Y-119490000D01*
X97850000Y-114190000D02*
X90110000Y-114190000D01*
X97850000Y-115840000D02*
X97850000Y-114190000D01*
X97850000Y-117840000D02*
G75*
G02X97850000Y-115840000I0J1000000D01*
G01*
X109855000Y-95250000D02*
X109855000Y-92710000D01*
X109855000Y-92710000D02*
X107185000Y-92710000D01*
X107185000Y-95250000D02*
X107185000Y-133480000D01*
X107185000Y-90040000D02*
X107185000Y-92710000D01*
X122555000Y-92710000D02*
X125225000Y-92710000D01*
X122555000Y-92710000D02*
X122555000Y-130810000D01*
X122555000Y-130810000D02*
X125225000Y-130810000D01*
X109855000Y-95250000D02*
X107185000Y-95250000D01*
X109855000Y-95250000D02*
X109855000Y-130810000D01*
X109855000Y-130810000D02*
X107185000Y-130810000D01*
X107185000Y-133480000D02*
X125225000Y-133480000D01*
X125225000Y-133480000D02*
X125225000Y-90040000D01*
X125225000Y-90040000D02*
X107185000Y-90040000D01*
X57200000Y-99170000D02*
X69800000Y-99170000D01*
X69800000Y-99170000D02*
X69800000Y-83770000D01*
X69800000Y-83770000D02*
X68850000Y-83770000D01*
X68850000Y-83770000D02*
X69150000Y-83270000D01*
X69150000Y-83270000D02*
X67150000Y-83270000D01*
X67150000Y-83270000D02*
X67400000Y-83770000D01*
X67400000Y-83770000D02*
X62000000Y-83770000D01*
X62000000Y-83770000D02*
X62250000Y-83270000D01*
X62250000Y-83270000D02*
X57200000Y-83270000D01*
X57200000Y-83270000D02*
X57200000Y-99170000D01*
X57200000Y-109330000D02*
X69800000Y-109330000D01*
X69800000Y-109330000D02*
X69800000Y-98980000D01*
X69800000Y-98980000D02*
X68850000Y-98980000D01*
X68850000Y-98980000D02*
X69100000Y-98480000D01*
X69100000Y-98480000D02*
X67200000Y-98480000D01*
X67200000Y-98480000D02*
X67150000Y-98480000D01*
X67150000Y-98480000D02*
X67400000Y-98980000D01*
X67400000Y-98980000D02*
X62000000Y-98980000D01*
X62000000Y-98980000D02*
X62300000Y-98480000D01*
X62300000Y-98480000D02*
X57200000Y-98480000D01*
X57200000Y-98480000D02*
X57200000Y-109330000D01*
X57200000Y-108510000D02*
X57200000Y-124410000D01*
X62250000Y-108510000D02*
X57200000Y-108510000D01*
X62000000Y-109010000D02*
X62250000Y-108510000D01*
X67400000Y-109010000D02*
X62000000Y-109010000D01*
X67150000Y-108510000D02*
X67400000Y-109010000D01*
X69150000Y-108510000D02*
X67150000Y-108510000D01*
X68850000Y-109010000D02*
X69150000Y-108510000D01*
X69800000Y-109010000D02*
X68850000Y-109010000D01*
X69800000Y-124410000D02*
X69800000Y-109010000D01*
X57200000Y-124410000D02*
X69800000Y-124410000D01*
X113610000Y-74980000D02*
X102760000Y-74980000D01*
X113610000Y-80080000D02*
X113610000Y-74980000D01*
X113110000Y-79780000D02*
X113610000Y-80080000D01*
X113110000Y-85180000D02*
X113110000Y-79780000D01*
X113610000Y-84930000D02*
X113110000Y-85180000D01*
X113610000Y-84980000D02*
X113610000Y-84930000D01*
X113610000Y-86880000D02*
X113610000Y-84980000D01*
X113110000Y-86630000D02*
X113610000Y-86880000D01*
X113110000Y-87580000D02*
X113110000Y-86630000D01*
X102760000Y-87580000D02*
X113110000Y-87580000D01*
X102760000Y-74980000D02*
X102760000Y-87580000D01*
X78045000Y-89170000D02*
G75*
G02X78045000Y-91170000I0J-1000000D01*
G01*
X78045000Y-91170000D02*
X78045000Y-92420000D01*
X78045000Y-92420000D02*
X98485000Y-92420000D01*
X98485000Y-92420000D02*
X98485000Y-87920000D01*
X98485000Y-87920000D02*
X78045000Y-87920000D01*
X78045000Y-87920000D02*
X78045000Y-89170000D01*
X78045000Y-128560000D02*
X78045000Y-129810000D01*
X98485000Y-128560000D02*
X78045000Y-128560000D01*
X98485000Y-133060000D02*
X98485000Y-128560000D01*
X78045000Y-133060000D02*
X98485000Y-133060000D01*
X78045000Y-131810000D02*
X78045000Y-133060000D01*
X78045000Y-129810000D02*
G75*
G02X78045000Y-131810000I0J-1000000D01*
G01*
D10*
X61952380Y-73702380D02*
X61619047Y-73226190D01*
X61380952Y-73702380D02*
X61380952Y-72702380D01*
X61761904Y-72702380D01*
X61857142Y-72750000D01*
X61904761Y-72797619D01*
X61952380Y-72892857D01*
X61952380Y-73035714D01*
X61904761Y-73130952D01*
X61857142Y-73178571D01*
X61761904Y-73226190D01*
X61380952Y-73226190D01*
X62380952Y-73178571D02*
X62714285Y-73178571D01*
X62857142Y-73702380D02*
X62380952Y-73702380D01*
X62380952Y-72702380D01*
X62857142Y-72702380D01*
X63619047Y-73178571D02*
X63285714Y-73178571D01*
X63285714Y-73702380D02*
X63285714Y-72702380D01*
X63761904Y-72702380D01*
X64142857Y-73702380D02*
X64142857Y-72702380D01*
X64142857Y-73178571D02*
X64714285Y-73178571D01*
X64714285Y-73702380D02*
X64714285Y-72702380D01*
X65380952Y-72702380D02*
X65476190Y-72702380D01*
X65571428Y-72750000D01*
X65619047Y-72797619D01*
X65666666Y-72892857D01*
X65714285Y-73083333D01*
X65714285Y-73321428D01*
X65666666Y-73511904D01*
X65619047Y-73607142D01*
X65571428Y-73654761D01*
X65476190Y-73702380D01*
X65380952Y-73702380D01*
X65285714Y-73654761D01*
X65238095Y-73607142D01*
X65190476Y-73511904D01*
X65142857Y-73321428D01*
X65142857Y-73083333D01*
X65190476Y-72892857D01*
X65238095Y-72797619D01*
X65285714Y-72750000D01*
X65380952Y-72702380D01*
X66666666Y-73702380D02*
X66095238Y-73702380D01*
X66380952Y-73702380D02*
X66380952Y-72702380D01*
X66285714Y-72845238D01*
X66190476Y-72940476D01*
X66095238Y-72988095D01*
X62761904Y-136702380D02*
X62761904Y-135702380D01*
X62761904Y-136178571D02*
X63333333Y-136178571D01*
X63333333Y-136702380D02*
X63333333Y-135702380D01*
X64000000Y-135702380D02*
X64095238Y-135702380D01*
X64190476Y-135750000D01*
X64238095Y-135797619D01*
X64285714Y-135892857D01*
X64333333Y-136083333D01*
X64333333Y-136321428D01*
X64285714Y-136511904D01*
X64238095Y-136607142D01*
X64190476Y-136654761D01*
X64095238Y-136702380D01*
X64000000Y-136702380D01*
X63904761Y-136654761D01*
X63857142Y-136607142D01*
X63809523Y-136511904D01*
X63761904Y-136321428D01*
X63761904Y-136083333D01*
X63809523Y-135892857D01*
X63857142Y-135797619D01*
X63904761Y-135750000D01*
X64000000Y-135702380D01*
X64666666Y-135702380D02*
X65285714Y-135702380D01*
X64952380Y-136083333D01*
X65095238Y-136083333D01*
X65190476Y-136130952D01*
X65238095Y-136178571D01*
X65285714Y-136273809D01*
X65285714Y-136511904D01*
X65238095Y-136607142D01*
X65190476Y-136654761D01*
X65095238Y-136702380D01*
X64809523Y-136702380D01*
X64714285Y-136654761D01*
X64666666Y-136607142D01*
X125761904Y-136342380D02*
X125761904Y-135342380D01*
X125761904Y-135818571D02*
X126333333Y-135818571D01*
X126333333Y-136342380D02*
X126333333Y-135342380D01*
X127000000Y-135342380D02*
X127095238Y-135342380D01*
X127190476Y-135390000D01*
X127238095Y-135437619D01*
X127285714Y-135532857D01*
X127333333Y-135723333D01*
X127333333Y-135961428D01*
X127285714Y-136151904D01*
X127238095Y-136247142D01*
X127190476Y-136294761D01*
X127095238Y-136342380D01*
X127000000Y-136342380D01*
X126904761Y-136294761D01*
X126857142Y-136247142D01*
X126809523Y-136151904D01*
X126761904Y-135961428D01*
X126761904Y-135723333D01*
X126809523Y-135532857D01*
X126857142Y-135437619D01*
X126904761Y-135390000D01*
X127000000Y-135342380D01*
X128190476Y-135675714D02*
X128190476Y-136342380D01*
X127952380Y-135294761D02*
X127714285Y-136009047D01*
X128333333Y-136009047D01*
X125761904Y-73702380D02*
X125761904Y-72702380D01*
X125761904Y-73178571D02*
X126333333Y-73178571D01*
X126333333Y-73702380D02*
X126333333Y-72702380D01*
X127000000Y-72702380D02*
X127095238Y-72702380D01*
X127190476Y-72750000D01*
X127238095Y-72797619D01*
X127285714Y-72892857D01*
X127333333Y-73083333D01*
X127333333Y-73321428D01*
X127285714Y-73511904D01*
X127238095Y-73607142D01*
X127190476Y-73654761D01*
X127095238Y-73702380D01*
X127000000Y-73702380D01*
X126904761Y-73654761D01*
X126857142Y-73607142D01*
X126809523Y-73511904D01*
X126761904Y-73321428D01*
X126761904Y-73083333D01*
X126809523Y-72892857D01*
X126857142Y-72797619D01*
X126904761Y-72750000D01*
X127000000Y-72702380D01*
X127714285Y-72797619D02*
X127761904Y-72750000D01*
X127857142Y-72702380D01*
X128095238Y-72702380D01*
X128190476Y-72750000D01*
X128238095Y-72797619D01*
X128285714Y-72892857D01*
X128285714Y-72988095D01*
X128238095Y-73130952D01*
X127666666Y-73702380D01*
X128285714Y-73702380D01*
X128571666Y-116522380D02*
X128571666Y-117236666D01*
X128524047Y-117379523D01*
X128428809Y-117474761D01*
X128285952Y-117522380D01*
X128190714Y-117522380D01*
X129524047Y-116522380D02*
X129047857Y-116522380D01*
X129000238Y-116998571D01*
X129047857Y-116950952D01*
X129143095Y-116903333D01*
X129381190Y-116903333D01*
X129476428Y-116950952D01*
X129524047Y-116998571D01*
X129571666Y-117093809D01*
X129571666Y-117331904D01*
X129524047Y-117427142D01*
X129476428Y-117474761D01*
X129381190Y-117522380D01*
X129143095Y-117522380D01*
X129047857Y-117474761D01*
X129000238Y-117427142D01*
X70147142Y-131341666D02*
X70194761Y-131389285D01*
X70242380Y-131532142D01*
X70242380Y-131627380D01*
X70194761Y-131770238D01*
X70099523Y-131865476D01*
X70004285Y-131913095D01*
X69813809Y-131960714D01*
X69670952Y-131960714D01*
X69480476Y-131913095D01*
X69385238Y-131865476D01*
X69290000Y-131770238D01*
X69242380Y-131627380D01*
X69242380Y-131532142D01*
X69290000Y-131389285D01*
X69337619Y-131341666D01*
X70242380Y-130389285D02*
X70242380Y-130960714D01*
X70242380Y-130675000D02*
X69242380Y-130675000D01*
X69385238Y-130770238D01*
X69480476Y-130865476D01*
X69528095Y-130960714D01*
X86602380Y-117578095D02*
X85602380Y-117578095D01*
X85602380Y-117340000D01*
X85650000Y-117197142D01*
X85745238Y-117101904D01*
X85840476Y-117054285D01*
X86030952Y-117006666D01*
X86173809Y-117006666D01*
X86364285Y-117054285D01*
X86459523Y-117101904D01*
X86554761Y-117197142D01*
X86602380Y-117340000D01*
X86602380Y-117578095D01*
X85935714Y-116149523D02*
X86602380Y-116149523D01*
X85554761Y-116387619D02*
X86269047Y-116625714D01*
X86269047Y-116006666D01*
X76862380Y-104243095D02*
X75862380Y-104243095D01*
X75862380Y-104005000D01*
X75910000Y-103862142D01*
X76005238Y-103766904D01*
X76100476Y-103719285D01*
X76290952Y-103671666D01*
X76433809Y-103671666D01*
X76624285Y-103719285D01*
X76719523Y-103766904D01*
X76814761Y-103862142D01*
X76862380Y-104005000D01*
X76862380Y-104243095D01*
X75862380Y-103338333D02*
X75862380Y-102719285D01*
X76243333Y-103052619D01*
X76243333Y-102909761D01*
X76290952Y-102814523D01*
X76338571Y-102766904D01*
X76433809Y-102719285D01*
X76671904Y-102719285D01*
X76767142Y-102766904D01*
X76814761Y-102814523D01*
X76862380Y-102909761D01*
X76862380Y-103195476D01*
X76814761Y-103290714D01*
X76767142Y-103338333D01*
X89562380Y-104243095D02*
X88562380Y-104243095D01*
X88562380Y-104005000D01*
X88610000Y-103862142D01*
X88705238Y-103766904D01*
X88800476Y-103719285D01*
X88990952Y-103671666D01*
X89133809Y-103671666D01*
X89324285Y-103719285D01*
X89419523Y-103766904D01*
X89514761Y-103862142D01*
X89562380Y-104005000D01*
X89562380Y-104243095D01*
X88657619Y-103290714D02*
X88610000Y-103243095D01*
X88562380Y-103147857D01*
X88562380Y-102909761D01*
X88610000Y-102814523D01*
X88657619Y-102766904D01*
X88752857Y-102719285D01*
X88848095Y-102719285D01*
X88990952Y-102766904D01*
X89562380Y-103338333D01*
X89562380Y-102719285D01*
X99302380Y-117578095D02*
X98302380Y-117578095D01*
X98302380Y-117340000D01*
X98350000Y-117197142D01*
X98445238Y-117101904D01*
X98540476Y-117054285D01*
X98730952Y-117006666D01*
X98873809Y-117006666D01*
X99064285Y-117054285D01*
X99159523Y-117101904D01*
X99254761Y-117197142D01*
X99302380Y-117340000D01*
X99302380Y-117578095D01*
X99302380Y-116054285D02*
X99302380Y-116625714D01*
X99302380Y-116340000D02*
X98302380Y-116340000D01*
X98445238Y-116435238D01*
X98540476Y-116530476D01*
X98588095Y-116625714D01*
X115490714Y-89066666D02*
X115966904Y-89066666D01*
X115395476Y-89352380D02*
X115728809Y-88352380D01*
X116062142Y-89352380D01*
X116919285Y-89352380D02*
X116347857Y-89352380D01*
X116633571Y-89352380D02*
X116633571Y-88352380D01*
X116538333Y-88495238D01*
X116443095Y-88590476D01*
X116347857Y-88638095D01*
X55852380Y-91853333D02*
X56566666Y-91853333D01*
X56709523Y-91900952D01*
X56804761Y-91996190D01*
X56852380Y-92139047D01*
X56852380Y-92234285D01*
X56852380Y-90853333D02*
X56852380Y-91424761D01*
X56852380Y-91139047D02*
X55852380Y-91139047D01*
X55995238Y-91234285D01*
X56090476Y-91329523D01*
X56138095Y-91424761D01*
X55962380Y-108933333D02*
X56676666Y-108933333D01*
X56819523Y-108980952D01*
X56914761Y-109076190D01*
X56962380Y-109219047D01*
X56962380Y-109314285D01*
X56057619Y-108504761D02*
X56010000Y-108457142D01*
X55962380Y-108361904D01*
X55962380Y-108123809D01*
X56010000Y-108028571D01*
X56057619Y-107980952D01*
X56152857Y-107933333D01*
X56248095Y-107933333D01*
X56390952Y-107980952D01*
X56962380Y-108552380D01*
X56962380Y-107933333D01*
X55852380Y-117093333D02*
X56566666Y-117093333D01*
X56709523Y-117140952D01*
X56804761Y-117236190D01*
X56852380Y-117379047D01*
X56852380Y-117474285D01*
X55852380Y-116712380D02*
X55852380Y-116093333D01*
X56233333Y-116426666D01*
X56233333Y-116283809D01*
X56280952Y-116188571D01*
X56328571Y-116140952D01*
X56423809Y-116093333D01*
X56661904Y-116093333D01*
X56757142Y-116140952D01*
X56804761Y-116188571D01*
X56852380Y-116283809D01*
X56852380Y-116569523D01*
X56804761Y-116664761D01*
X56757142Y-116712380D01*
X103156666Y-73742380D02*
X103156666Y-74456666D01*
X103109047Y-74599523D01*
X103013809Y-74694761D01*
X102870952Y-74742380D01*
X102775714Y-74742380D01*
X104061428Y-74075714D02*
X104061428Y-74742380D01*
X103823333Y-73694761D02*
X103585238Y-74409047D01*
X104204285Y-74409047D01*
X76497380Y-90931904D02*
X77306904Y-90931904D01*
X77402142Y-90884285D01*
X77449761Y-90836666D01*
X77497380Y-90741428D01*
X77497380Y-90550952D01*
X77449761Y-90455714D01*
X77402142Y-90408095D01*
X77306904Y-90360476D01*
X76497380Y-90360476D01*
X77497380Y-89360476D02*
X77497380Y-89931904D01*
X77497380Y-89646190D02*
X76497380Y-89646190D01*
X76640238Y-89741428D01*
X76735476Y-89836666D01*
X76783095Y-89931904D01*
X76497380Y-131571904D02*
X77306904Y-131571904D01*
X77402142Y-131524285D01*
X77449761Y-131476666D01*
X77497380Y-131381428D01*
X77497380Y-131190952D01*
X77449761Y-131095714D01*
X77402142Y-131048095D01*
X77306904Y-131000476D01*
X76497380Y-131000476D01*
X76592619Y-130571904D02*
X76545000Y-130524285D01*
X76497380Y-130429047D01*
X76497380Y-130190952D01*
X76545000Y-130095714D01*
X76592619Y-130048095D01*
X76687857Y-130000476D01*
X76783095Y-130000476D01*
X76925952Y-130048095D01*
X77497380Y-130619523D01*
X77497380Y-130000476D01*
%LPC*%
D13*
X64000000Y-77000000D03*
X64000000Y-140000000D03*
X127000000Y-140000000D03*
X127000000Y-77000000D03*
D14*
X128905000Y-93980000D03*
X128905000Y-96520000D03*
X128905000Y-99060000D03*
X128905000Y-101600000D03*
X128905000Y-104140000D03*
X128905000Y-106680000D03*
X128905000Y-109220000D03*
X128905000Y-111760000D03*
D15*
X128905000Y-114300000D03*
D16*
X66040000Y-132175000D03*
D17*
X66040000Y-130175000D03*
D18*
X83820000Y-120650000D03*
X78740000Y-113030000D03*
X78740000Y-120650000D03*
D17*
X83820000Y-113030000D03*
D18*
X78740000Y-99695000D03*
X83820000Y-107315000D03*
X83820000Y-99695000D03*
D17*
X78740000Y-107315000D03*
D18*
X91440000Y-99695000D03*
X96520000Y-107315000D03*
X96520000Y-99695000D03*
D17*
X91440000Y-107315000D03*
D18*
X96520000Y-120650000D03*
X91440000Y-113030000D03*
X91440000Y-120650000D03*
D17*
X96520000Y-113030000D03*
X108585000Y-93980000D03*
D18*
X123825000Y-127000000D03*
X108585000Y-96520000D03*
X123825000Y-124460000D03*
X108585000Y-99060000D03*
X123825000Y-121920000D03*
X108585000Y-101600000D03*
X123825000Y-119380000D03*
X108585000Y-104140000D03*
X123825000Y-116840000D03*
X108585000Y-106680000D03*
X123825000Y-114300000D03*
X108585000Y-109220000D03*
X123825000Y-111760000D03*
X108585000Y-111760000D03*
X123825000Y-109220000D03*
X108585000Y-114300000D03*
X123825000Y-106680000D03*
X108585000Y-116840000D03*
X123825000Y-104140000D03*
X108585000Y-119380000D03*
X123825000Y-101600000D03*
X108585000Y-121920000D03*
X123825000Y-99060000D03*
X108585000Y-124460000D03*
X123825000Y-96520000D03*
X108585000Y-127000000D03*
X123825000Y-93980000D03*
X108585000Y-129540000D03*
X123825000Y-129540000D03*
D19*
X63500000Y-96520000D03*
D20*
X63500000Y-91520000D03*
X63500000Y-86520000D03*
D19*
X63500000Y-106680000D03*
D20*
X63500000Y-101680000D03*
X63500000Y-111760000D03*
X63500000Y-116760000D03*
D19*
X63500000Y-121760000D03*
D21*
X110410000Y-81280000D03*
D22*
X105410000Y-81280000D03*
D23*
X79375000Y-93980000D03*
D24*
X97155000Y-86360000D03*
X81915000Y-93980000D03*
X94615000Y-86360000D03*
X84455000Y-93980000D03*
X92075000Y-86360000D03*
X86995000Y-93980000D03*
X89535000Y-86360000D03*
X89535000Y-93980000D03*
X86995000Y-86360000D03*
X92075000Y-93980000D03*
X84455000Y-86360000D03*
X94615000Y-93980000D03*
X81915000Y-86360000D03*
X97155000Y-93980000D03*
X79375000Y-86360000D03*
X79375000Y-127000000D03*
X97155000Y-134620000D03*
X81915000Y-127000000D03*
X94615000Y-134620000D03*
X84455000Y-127000000D03*
X92075000Y-134620000D03*
X86995000Y-127000000D03*
X89535000Y-134620000D03*
X89535000Y-127000000D03*
X86995000Y-134620000D03*
X92075000Y-127000000D03*
X84455000Y-134620000D03*
X94615000Y-127000000D03*
X81915000Y-134620000D03*
X97155000Y-127000000D03*
D23*
X79375000Y-134620000D03*
M02*
