G04 #@! TF.GenerationSoftware,KiCad,Pcbnew,5.1.5+dfsg1-2build2*
G04 #@! TF.CreationDate,2022-06-06T13:39:04+02:00*
G04 #@! TF.ProjectId,Toro_Stepper_Differential,546f726f-5f53-4746-9570-7065725f4469,rev?*
G04 #@! TF.SameCoordinates,Original*
G04 #@! TF.FileFunction,Copper,L1,Top*
G04 #@! TF.FilePolarity,Positive*
%FSLAX46Y46*%
G04 Gerber Fmt 4.6, Leading zero omitted, Abs format (unit mm)*
G04 Created by KiCad (PCBNEW 5.1.5+dfsg1-2build2) date 2022-06-06 13:39:04*
%MOMM*%
%LPD*%
G04 APERTURE LIST*
%ADD10O,1.700000X1.700000*%
%ADD11R,1.700000X1.700000*%
%ADD12C,1.600000*%
%ADD13R,1.600000X1.600000*%
%ADD14O,1.600000X1.600000*%
%ADD15R,3.960000X1.980000*%
%ADD16O,3.960000X1.980000*%
%ADD17O,1.980000X3.960000*%
%ADD18R,1.980000X3.960000*%
%ADD19R,1.600000X2.400000*%
%ADD20O,1.600000X2.400000*%
%ADD21C,0.800000*%
%ADD22C,0.250000*%
%ADD23C,0.500000*%
%ADD24C,0.254000*%
G04 APERTURE END LIST*
D10*
X128905000Y-93980000D03*
X128905000Y-96520000D03*
X128905000Y-99060000D03*
X128905000Y-101600000D03*
X128905000Y-104140000D03*
X128905000Y-106680000D03*
X128905000Y-109220000D03*
X128905000Y-111760000D03*
D11*
X128905000Y-114300000D03*
D12*
X66040000Y-132175000D03*
D13*
X66040000Y-130175000D03*
D14*
X83820000Y-120650000D03*
X78740000Y-113030000D03*
X78740000Y-120650000D03*
D13*
X83820000Y-113030000D03*
D14*
X78740000Y-99695000D03*
X83820000Y-107315000D03*
X83820000Y-99695000D03*
D13*
X78740000Y-107315000D03*
D14*
X91440000Y-99695000D03*
X96520000Y-107315000D03*
X96520000Y-99695000D03*
D13*
X91440000Y-107315000D03*
D14*
X96520000Y-120650000D03*
X91440000Y-113030000D03*
X91440000Y-120650000D03*
D13*
X96520000Y-113030000D03*
X108585000Y-93980000D03*
D14*
X123825000Y-127000000D03*
X108585000Y-96520000D03*
X123825000Y-124460000D03*
X108585000Y-99060000D03*
X123825000Y-121920000D03*
X108585000Y-101600000D03*
X123825000Y-119380000D03*
X108585000Y-104140000D03*
X123825000Y-116840000D03*
X108585000Y-106680000D03*
X123825000Y-114300000D03*
X108585000Y-109220000D03*
X123825000Y-111760000D03*
X108585000Y-111760000D03*
X123825000Y-109220000D03*
X108585000Y-114300000D03*
X123825000Y-106680000D03*
X108585000Y-116840000D03*
X123825000Y-104140000D03*
X108585000Y-119380000D03*
X123825000Y-101600000D03*
X108585000Y-121920000D03*
X123825000Y-99060000D03*
X108585000Y-124460000D03*
X123825000Y-96520000D03*
X108585000Y-127000000D03*
X123825000Y-93980000D03*
X108585000Y-129540000D03*
X123825000Y-129540000D03*
D15*
X63500000Y-96520000D03*
D16*
X63500000Y-91520000D03*
X63500000Y-86520000D03*
D15*
X63500000Y-106680000D03*
D16*
X63500000Y-101680000D03*
X63500000Y-111760000D03*
X63500000Y-116760000D03*
D15*
X63500000Y-121760000D03*
D17*
X110410000Y-81280000D03*
D18*
X105410000Y-81280000D03*
D19*
X79375000Y-93980000D03*
D20*
X97155000Y-86360000D03*
X81915000Y-93980000D03*
X94615000Y-86360000D03*
X84455000Y-93980000D03*
X92075000Y-86360000D03*
X86995000Y-93980000D03*
X89535000Y-86360000D03*
X89535000Y-93980000D03*
X86995000Y-86360000D03*
X92075000Y-93980000D03*
X84455000Y-86360000D03*
X94615000Y-93980000D03*
X81915000Y-86360000D03*
X97155000Y-93980000D03*
X79375000Y-86360000D03*
X79375000Y-127000000D03*
X97155000Y-134620000D03*
X81915000Y-127000000D03*
X94615000Y-134620000D03*
X84455000Y-127000000D03*
X92075000Y-134620000D03*
X86995000Y-127000000D03*
X89535000Y-134620000D03*
X89535000Y-127000000D03*
X86995000Y-134620000D03*
X92075000Y-127000000D03*
X84455000Y-134620000D03*
X94615000Y-127000000D03*
X81915000Y-134620000D03*
X97155000Y-127000000D03*
D19*
X79375000Y-134620000D03*
D21*
X98425000Y-92075000D03*
X103505000Y-92075000D03*
X95885000Y-88265000D03*
X102235000Y-88265000D03*
X98425000Y-89535000D03*
X100965000Y-89535000D03*
X79375000Y-80010000D03*
X71755000Y-127000000D03*
X97064999Y-128814999D03*
X101690001Y-128814999D03*
X98425000Y-129540000D03*
X102870000Y-129540000D03*
X97155000Y-130810000D03*
X104140000Y-130810000D03*
X104140000Y-127000000D03*
X93345000Y-91440000D03*
X104775000Y-90805000D03*
X95045000Y-97790000D03*
X74295000Y-102235000D03*
X88265000Y-120650000D03*
X91440000Y-96520000D03*
X74295000Y-96520000D03*
X83820000Y-102870000D03*
X73025000Y-118745000D03*
X76200000Y-124460000D03*
D22*
X127702919Y-111760000D02*
X126365000Y-113097919D01*
X128905000Y-111760000D02*
X127702919Y-111760000D01*
X126365000Y-119380000D02*
X123825000Y-121920000D01*
X126365000Y-113097919D02*
X126365000Y-119380000D01*
X128905000Y-109220000D02*
X125730000Y-112395000D01*
X125730000Y-112395000D02*
X125730000Y-117475000D01*
X125730000Y-117475000D02*
X123825000Y-119380000D01*
X128905000Y-92075000D02*
X128905000Y-93980000D01*
X127635000Y-90805000D02*
X128905000Y-92075000D01*
X111125000Y-90805000D02*
X127635000Y-90805000D01*
X110351370Y-91578630D02*
X111125000Y-90805000D01*
X110351370Y-103505000D02*
X110351370Y-91578630D01*
X109716370Y-104140000D02*
X110351370Y-103505000D01*
X108585000Y-104140000D02*
X109716370Y-104140000D01*
X94615000Y-92530000D02*
X95070000Y-92075000D01*
X94615000Y-93980000D02*
X94615000Y-92530000D01*
X95070000Y-92075000D02*
X98425000Y-92075000D01*
X98425000Y-92075000D02*
X98425000Y-92075000D01*
X102235000Y-93980000D02*
X102235000Y-105410000D01*
X103505000Y-92710000D02*
X102235000Y-93980000D01*
X103505000Y-106680000D02*
X108585000Y-106680000D01*
X102235000Y-105410000D02*
X103505000Y-106680000D01*
X103505000Y-92075000D02*
X103505000Y-92710000D01*
X94615000Y-87810000D02*
X95070000Y-88265000D01*
X94615000Y-86360000D02*
X94615000Y-87810000D01*
X95070000Y-88265000D02*
X95885000Y-88265000D01*
X95885000Y-88265000D02*
X95885000Y-88265000D01*
X101600000Y-92710000D02*
X102235000Y-92075000D01*
X102235000Y-92075000D02*
X102235000Y-88265000D01*
X108585000Y-109220000D02*
X102235000Y-109220000D01*
X102235000Y-109220000D02*
X101600000Y-108585000D01*
X101600000Y-108585000D02*
X101600000Y-92710000D01*
X128905000Y-106680000D02*
X123825000Y-111760000D01*
X81915000Y-86360000D02*
X81915000Y-87810000D01*
X81915000Y-87810000D02*
X81915000Y-88265000D01*
X100965000Y-90170000D02*
X100965000Y-90170000D01*
X81915000Y-88265000D02*
X83185000Y-89535000D01*
X83185000Y-89535000D02*
X98425000Y-89535000D01*
X98425000Y-89535000D02*
X98425000Y-89535000D01*
X100965000Y-89535000D02*
X100965000Y-89535000D01*
X100330000Y-92075000D02*
X100330000Y-111125000D01*
X100965000Y-91440000D02*
X100330000Y-92075000D01*
X100965000Y-89535000D02*
X100965000Y-91440000D01*
X100965000Y-111760000D02*
X100330000Y-111125000D01*
X108585000Y-111760000D02*
X100965000Y-111760000D01*
X128905000Y-104140000D02*
X123825000Y-109220000D01*
X79375000Y-93980000D02*
X79375000Y-92530000D01*
X99060000Y-86360000D02*
X97155000Y-86360000D01*
X99695000Y-86995000D02*
X99060000Y-86360000D01*
X80872500Y-91032500D02*
X80915009Y-90989991D01*
X99695000Y-90805000D02*
X99695000Y-86995000D01*
X80915009Y-90989991D02*
X79375000Y-92530000D01*
X81735000Y-90170000D02*
X80915009Y-90989991D01*
X97790000Y-90805000D02*
X97155000Y-90170000D01*
X97155000Y-90170000D02*
X81735000Y-90170000D01*
X99695000Y-90805000D02*
X97790000Y-90805000D01*
X100965000Y-114300000D02*
X108585000Y-114300000D01*
X99695000Y-113030000D02*
X100965000Y-114300000D01*
X99695000Y-90805000D02*
X99695000Y-113030000D01*
X98425000Y-132080000D02*
X99695000Y-130810000D01*
X83005000Y-132080000D02*
X98425000Y-132080000D01*
X81915000Y-133170000D02*
X83005000Y-132080000D01*
X81915000Y-134620000D02*
X81915000Y-133170000D01*
X99695000Y-130810000D02*
X99695000Y-123190000D01*
X99695000Y-123190000D02*
X100965000Y-121920000D01*
X100965000Y-121920000D02*
X104140000Y-121920000D01*
X104140000Y-121920000D02*
X104775000Y-121285000D01*
X104775000Y-120650000D02*
X108585000Y-116840000D01*
X104775000Y-121285000D02*
X104775000Y-120650000D01*
X105410000Y-123190000D02*
X106045000Y-122555000D01*
X100330000Y-124460000D02*
X101600000Y-123190000D01*
X107315000Y-119380000D02*
X108585000Y-119380000D01*
X106045000Y-120650000D02*
X107315000Y-119380000D01*
X101600000Y-123190000D02*
X105410000Y-123190000D01*
X100330000Y-130811410D02*
X100330000Y-124460000D01*
X98426410Y-132715000D02*
X100330000Y-130811410D01*
X96120000Y-132715000D02*
X98426410Y-132715000D01*
X94615000Y-134220000D02*
X96120000Y-132715000D01*
X106045000Y-122555000D02*
X106045000Y-120650000D01*
X94615000Y-134620000D02*
X94615000Y-134220000D01*
X123825000Y-101600000D02*
X128905000Y-101600000D01*
X130810000Y-91440000D02*
X130810000Y-99695000D01*
X128905000Y-89535000D02*
X130810000Y-91440000D01*
X111125000Y-78105000D02*
X113030000Y-80010000D01*
X102870000Y-78105000D02*
X111125000Y-78105000D01*
X100965000Y-80010000D02*
X102870000Y-78105000D01*
X130810000Y-99695000D02*
X128905000Y-101600000D01*
X79375000Y-80010000D02*
X100965000Y-80010000D01*
X113030000Y-88900000D02*
X113665000Y-89535000D01*
X113665000Y-89535000D02*
X128905000Y-89535000D01*
X113030000Y-80010000D02*
X113030000Y-88900000D01*
X121920000Y-99695000D02*
X123825000Y-101600000D01*
X71755000Y-127000000D02*
X71755000Y-138430000D01*
X113030000Y-91440000D02*
X121285000Y-91440000D01*
X105410000Y-132080000D02*
X106045000Y-131445000D01*
X93980000Y-138430000D02*
X97155000Y-138430000D01*
X71755000Y-138430000D02*
X74295000Y-140970000D01*
X74295000Y-140970000D02*
X91440000Y-140970000D01*
X97155000Y-138430000D02*
X99060000Y-136525000D01*
X99060000Y-136525000D02*
X99060000Y-133985000D01*
X99060000Y-133985000D02*
X100965000Y-132080000D01*
X100965000Y-132080000D02*
X105410000Y-132080000D01*
X121285000Y-91440000D02*
X121920000Y-92075000D01*
X106045000Y-131445000D02*
X109220000Y-131445000D01*
X121920000Y-92075000D02*
X121920000Y-99695000D01*
X109220000Y-131445000D02*
X111760000Y-128905000D01*
X111760000Y-92710000D02*
X113030000Y-91440000D01*
X91440000Y-140970000D02*
X93980000Y-138430000D01*
X111760000Y-128905000D02*
X111760000Y-92710000D01*
X94615000Y-128450000D02*
X95070000Y-128905000D01*
X94615000Y-127000000D02*
X94615000Y-128450000D01*
X95160001Y-128814999D02*
X97064999Y-128814999D01*
X95070000Y-128905000D02*
X95160001Y-128814999D01*
X97064999Y-128814999D02*
X97064999Y-128814999D01*
X106680000Y-123825000D02*
X108585000Y-121920000D01*
X106045000Y-124460000D02*
X106680000Y-123825000D01*
X102235000Y-124460000D02*
X106045000Y-124460000D01*
X101690001Y-125004999D02*
X102235000Y-124460000D01*
X101690001Y-128814999D02*
X101690001Y-125004999D01*
X81915000Y-128450000D02*
X83005000Y-129540000D01*
X81915000Y-127000000D02*
X81915000Y-128450000D01*
X83005000Y-129540000D02*
X98425000Y-129540000D01*
X98425000Y-129540000D02*
X98425000Y-129540000D01*
X107315000Y-125730000D02*
X108585000Y-124460000D01*
X103505000Y-125730000D02*
X107315000Y-125730000D01*
X102870000Y-126365000D02*
X103505000Y-125730000D01*
X102870000Y-129540000D02*
X102870000Y-126365000D01*
X79375000Y-133170000D02*
X81100000Y-131445000D01*
X79375000Y-134620000D02*
X79375000Y-133170000D01*
X81100000Y-131445000D02*
X96520000Y-131445000D01*
X96520000Y-131445000D02*
X97155000Y-130810000D01*
X97155000Y-130810000D02*
X97155000Y-130810000D01*
X104140000Y-130810000D02*
X104140000Y-127000000D01*
X104140000Y-127000000D02*
X108585000Y-127000000D01*
X126365000Y-93980000D02*
X128905000Y-96520000D01*
X123825000Y-93980000D02*
X126365000Y-93980000D01*
X81915000Y-92530000D02*
X83005000Y-91440000D01*
X81915000Y-93980000D02*
X81915000Y-92530000D01*
X83005000Y-91440000D02*
X93345000Y-91440000D01*
X104775000Y-90805000D02*
X104775000Y-92710000D01*
X104775000Y-92710000D02*
X102870000Y-94615000D01*
X102870000Y-94615000D02*
X102870000Y-104140000D01*
X102870000Y-104140000D02*
X104140000Y-105410000D01*
X104140000Y-105410000D02*
X109855000Y-105410000D01*
X109855000Y-105410000D02*
X110490000Y-106045000D01*
X110490000Y-127635000D02*
X108585000Y-129540000D01*
X110490000Y-106045000D02*
X110490000Y-127635000D01*
X128905000Y-116205000D02*
X128905000Y-114300000D01*
X127635000Y-117475000D02*
X128905000Y-116205000D01*
X124956370Y-129540000D02*
X127635000Y-126861370D01*
X127635000Y-126861370D02*
X127635000Y-117475000D01*
X123825000Y-129540000D02*
X124956370Y-129540000D01*
D23*
X94645000Y-116205000D02*
X96520000Y-114330000D01*
X83820000Y-114330000D02*
X85695000Y-116205000D01*
X96520000Y-114330000D02*
X96520000Y-113030000D01*
X83820000Y-113030000D02*
X83820000Y-114330000D01*
X90200000Y-104775000D02*
X91440000Y-106015000D01*
X79980000Y-104775000D02*
X90200000Y-104775000D01*
X91440000Y-106015000D02*
X91440000Y-107315000D01*
X78740000Y-106015000D02*
X79980000Y-104775000D01*
X78740000Y-107315000D02*
X78740000Y-106015000D01*
X77440000Y-107315000D02*
X76200000Y-108555000D01*
X78740000Y-107315000D02*
X77440000Y-107315000D01*
X76200000Y-108555000D02*
X76200000Y-115570000D01*
X76835000Y-116205000D02*
X85725000Y-116205000D01*
X76200000Y-115570000D02*
X76835000Y-116205000D01*
X85725000Y-116205000D02*
X94645000Y-116205000D01*
X85695000Y-116205000D02*
X85725000Y-116205000D01*
X97155000Y-95680000D02*
X95045000Y-97790000D01*
X97155000Y-93980000D02*
X97155000Y-95680000D01*
X95045000Y-97790000D02*
X95045000Y-97790000D01*
X74295000Y-102235000D02*
X76200000Y-104140000D01*
X76200000Y-104140000D02*
X76200000Y-108555000D01*
X67310000Y-102235000D02*
X74295000Y-102235000D01*
X66040000Y-103505000D02*
X67310000Y-102235000D01*
X97155000Y-136320000D02*
X96315000Y-137160000D01*
X61595000Y-125095000D02*
X60325000Y-123825000D01*
X97155000Y-134620000D02*
X97155000Y-136320000D01*
X93345000Y-137160000D02*
X90805000Y-139700000D01*
X90805000Y-139700000D02*
X74930000Y-139700000D01*
X73025000Y-127000000D02*
X71120000Y-125095000D01*
X74930000Y-139700000D02*
X73025000Y-137795000D01*
X61595000Y-103505000D02*
X66040000Y-103505000D01*
X73025000Y-137795000D02*
X73025000Y-127000000D01*
X60325000Y-123825000D02*
X60325000Y-104775000D01*
X96315000Y-137160000D02*
X93345000Y-137160000D01*
X60325000Y-104775000D02*
X61595000Y-103505000D01*
X60325000Y-84455000D02*
X60325000Y-104775000D01*
X63500000Y-81280000D02*
X60325000Y-84455000D01*
X105410000Y-81280000D02*
X63500000Y-81280000D01*
X66040000Y-130175000D02*
X66040000Y-125095000D01*
X66040000Y-125095000D02*
X61595000Y-125095000D01*
X71120000Y-125095000D02*
X66040000Y-125095000D01*
X84455000Y-126365000D02*
X84455000Y-127000000D01*
X88645010Y-125349990D02*
X85470010Y-125349990D01*
X89535000Y-124460000D02*
X88645010Y-125349990D01*
X85470010Y-125349990D02*
X84455000Y-126365000D01*
X89535000Y-119380000D02*
X89535000Y-124460000D01*
X90170000Y-118745000D02*
X89535000Y-119380000D01*
X92075000Y-118745000D02*
X90170000Y-118745000D01*
X93980000Y-120650000D02*
X92075000Y-118745000D01*
X96520000Y-120650000D02*
X93980000Y-120650000D01*
X76835000Y-117475000D02*
X88900000Y-117475000D01*
X74295000Y-120015000D02*
X76835000Y-117475000D01*
X68580000Y-120015000D02*
X74295000Y-120015000D01*
X66675000Y-118110000D02*
X68580000Y-120015000D01*
X66675000Y-114300000D02*
X66675000Y-118110000D01*
X66260000Y-113885000D02*
X66675000Y-114300000D01*
X64135000Y-113885000D02*
X66260000Y-113885000D01*
X88900000Y-117475000D02*
X90170000Y-118745000D01*
X63500000Y-113250000D02*
X64135000Y-113885000D01*
X63500000Y-111760000D02*
X63500000Y-113250000D01*
X91440000Y-126365000D02*
X92075000Y-127000000D01*
X91440000Y-120650000D02*
X91440000Y-126365000D01*
X63500000Y-118250000D02*
X64630000Y-119380000D01*
X63500000Y-116760000D02*
X63500000Y-118250000D01*
X64630000Y-119380000D02*
X66040000Y-119380000D01*
X66040000Y-119380000D02*
X67310000Y-120650000D01*
X67310000Y-120650000D02*
X67310000Y-121285000D01*
X67310000Y-121285000D02*
X67945000Y-121920000D01*
X67945000Y-121920000D02*
X74295000Y-121920000D01*
X74295000Y-121920000D02*
X77470000Y-118745000D01*
X77470000Y-118745000D02*
X79375000Y-118745000D01*
X79375000Y-118745000D02*
X86360000Y-118745000D01*
X86360000Y-118745000D02*
X86995000Y-118745000D01*
X86995000Y-118745000D02*
X88265000Y-120015000D01*
X88265000Y-120015000D02*
X88265000Y-120650000D01*
X88265000Y-120650000D02*
X88265000Y-120650000D01*
X91440000Y-94615000D02*
X92075000Y-93980000D01*
X91440000Y-99695000D02*
X91440000Y-96520000D01*
X63500000Y-90030000D02*
X64630000Y-88900000D01*
X63500000Y-91520000D02*
X63500000Y-90030000D01*
X64630000Y-88900000D02*
X66040000Y-88900000D01*
X66040000Y-88900000D02*
X67310000Y-87630000D01*
X67310000Y-87630000D02*
X73660000Y-87630000D01*
X73660000Y-87630000D02*
X74295000Y-88265000D01*
X74295000Y-88265000D02*
X74295000Y-96520000D01*
X91440000Y-96520000D02*
X91440000Y-94615000D01*
X74295000Y-96520000D02*
X74295000Y-96520000D01*
X96381370Y-101103630D02*
X96381370Y-100965000D01*
X90805000Y-101600000D02*
X95885000Y-101600000D01*
X96520000Y-100826370D02*
X96520000Y-99695000D01*
X89535000Y-100330000D02*
X90805000Y-101600000D01*
X96381370Y-100965000D02*
X96520000Y-100826370D01*
X89535000Y-97790000D02*
X89535000Y-100330000D01*
X88265000Y-96520000D02*
X89535000Y-97790000D01*
X95885000Y-101600000D02*
X96381370Y-101103630D01*
X84455000Y-95680000D02*
X85295000Y-96520000D01*
X84455000Y-93980000D02*
X84455000Y-95680000D01*
X85725000Y-100965000D02*
X85725000Y-96520000D01*
X85090000Y-101600000D02*
X85725000Y-100965000D01*
X77470000Y-101600000D02*
X85090000Y-101600000D01*
X72390000Y-96520000D02*
X77470000Y-101600000D01*
X63500000Y-96520000D02*
X72390000Y-96520000D01*
X85725000Y-96520000D02*
X88265000Y-96520000D01*
X85295000Y-96520000D02*
X85725000Y-96520000D01*
X92075000Y-84660000D02*
X92075000Y-86360000D01*
X89965000Y-82550000D02*
X92075000Y-84660000D01*
X77470000Y-82550000D02*
X89965000Y-82550000D01*
X75565000Y-84455000D02*
X77470000Y-82550000D01*
X77608630Y-99695000D02*
X75565000Y-97651370D01*
X78740000Y-99695000D02*
X77608630Y-99695000D01*
X75405000Y-86520000D02*
X75565000Y-86360000D01*
X63500000Y-86520000D02*
X75405000Y-86520000D01*
X75565000Y-86360000D02*
X75565000Y-84455000D01*
X75565000Y-97651370D02*
X75565000Y-86360000D01*
X84455000Y-84660000D02*
X84455000Y-86360000D01*
X83615000Y-83820000D02*
X84455000Y-84660000D01*
X78105000Y-83820000D02*
X83615000Y-83820000D01*
X76835000Y-85090000D02*
X78105000Y-83820000D01*
X76835000Y-95885000D02*
X76835000Y-85090000D01*
X77470000Y-96520000D02*
X76835000Y-95885000D01*
X81776370Y-96520000D02*
X77470000Y-96520000D01*
X83820000Y-98563630D02*
X83115685Y-97859315D01*
X83820000Y-99695000D02*
X83820000Y-98563630D01*
X65980000Y-101680000D02*
X66675000Y-100985000D01*
X63500000Y-101680000D02*
X65980000Y-101680000D01*
X66675000Y-100985000D02*
X66675000Y-99060000D01*
X66675000Y-99060000D02*
X67945000Y-97790000D01*
X83115685Y-97859315D02*
X81776370Y-96520000D01*
X67945000Y-97790000D02*
X71755000Y-97790000D01*
X71755000Y-97790000D02*
X76835000Y-102870000D01*
X76835000Y-102870000D02*
X83820000Y-102870000D01*
X83820000Y-102870000D02*
X83820000Y-102870000D01*
X83820000Y-121781370D02*
X83681370Y-121920000D01*
X83820000Y-120650000D02*
X83820000Y-121781370D01*
X83681370Y-121920000D02*
X83681370Y-122058630D01*
X83681370Y-122058630D02*
X82550000Y-123190000D01*
X82550000Y-123190000D02*
X76835000Y-123190000D01*
X76835000Y-123190000D02*
X76200000Y-123825000D01*
X76200000Y-123825000D02*
X76200000Y-124460000D01*
X76200000Y-136525000D02*
X76835000Y-137160000D01*
X83615000Y-137160000D02*
X84455000Y-136320000D01*
X84455000Y-136320000D02*
X84455000Y-134620000D01*
X76835000Y-137160000D02*
X83615000Y-137160000D01*
X65980000Y-106680000D02*
X66675000Y-107375000D01*
X63500000Y-106680000D02*
X65980000Y-106680000D01*
X66675000Y-107375000D02*
X66675000Y-112395000D01*
X66675000Y-112395000D02*
X68580000Y-114300000D01*
X68580000Y-114300000D02*
X68580000Y-118110000D01*
X68580000Y-118110000D02*
X69215000Y-118745000D01*
X69215000Y-118745000D02*
X72390000Y-118745000D01*
X72390000Y-118745000D02*
X73025000Y-118745000D01*
X73025000Y-118745000D02*
X73025000Y-118745000D01*
X76200000Y-124460000D02*
X76200000Y-136525000D01*
X89965000Y-138430000D02*
X92075000Y-136320000D01*
X75565000Y-138430000D02*
X89965000Y-138430000D01*
X74930000Y-137795000D02*
X75565000Y-138430000D01*
X74930000Y-123328630D02*
X74930000Y-137795000D01*
X92075000Y-136320000D02*
X92075000Y-134620000D01*
X77608630Y-120650000D02*
X74930000Y-123328630D01*
X78740000Y-120650000D02*
X77608630Y-120650000D01*
X63500000Y-123250000D02*
X63500000Y-121760000D01*
X63578630Y-123328630D02*
X63500000Y-123250000D01*
X74930000Y-123328630D02*
X63578630Y-123328630D01*
D24*
G36*
X130683000Y-90238198D02*
G01*
X129468804Y-89024003D01*
X129445001Y-88994999D01*
X129329276Y-88900026D01*
X129197247Y-88829454D01*
X129053986Y-88785997D01*
X128942333Y-88775000D01*
X128942322Y-88775000D01*
X128905000Y-88771324D01*
X128867678Y-88775000D01*
X113979802Y-88775000D01*
X113790000Y-88585199D01*
X113790000Y-80047323D01*
X113793676Y-80010000D01*
X113790000Y-79972677D01*
X113790000Y-79972667D01*
X113779003Y-79861014D01*
X113735546Y-79717753D01*
X113664974Y-79585724D01*
X113570001Y-79469999D01*
X113541004Y-79446202D01*
X111688804Y-77594003D01*
X111665001Y-77564999D01*
X111549276Y-77470026D01*
X111417247Y-77399454D01*
X111273986Y-77355997D01*
X111162333Y-77345000D01*
X111162322Y-77345000D01*
X111125000Y-77341324D01*
X111087678Y-77345000D01*
X102907323Y-77345000D01*
X102870000Y-77341324D01*
X102832677Y-77345000D01*
X102832667Y-77345000D01*
X102721014Y-77355997D01*
X102577753Y-77399454D01*
X102445724Y-77470026D01*
X102329999Y-77564999D01*
X102306201Y-77593997D01*
X100650199Y-79250000D01*
X80078711Y-79250000D01*
X80034774Y-79206063D01*
X79865256Y-79092795D01*
X79676898Y-79014774D01*
X79476939Y-78975000D01*
X79273061Y-78975000D01*
X79073102Y-79014774D01*
X78884744Y-79092795D01*
X78715226Y-79206063D01*
X78571063Y-79350226D01*
X78457795Y-79519744D01*
X78379774Y-79708102D01*
X78340000Y-79908061D01*
X78340000Y-80111939D01*
X78379774Y-80311898D01*
X78457795Y-80500256D01*
X78571063Y-80669774D01*
X78715226Y-80813937D01*
X78884744Y-80927205D01*
X79073102Y-81005226D01*
X79273061Y-81045000D01*
X79476939Y-81045000D01*
X79676898Y-81005226D01*
X79865256Y-80927205D01*
X80034774Y-80813937D01*
X80078711Y-80770000D01*
X100927678Y-80770000D01*
X100965000Y-80773676D01*
X101002322Y-80770000D01*
X101002333Y-80770000D01*
X101113986Y-80759003D01*
X101257247Y-80715546D01*
X101389276Y-80644974D01*
X101505001Y-80550001D01*
X101528804Y-80520997D01*
X103184802Y-78865000D01*
X103955532Y-78865000D01*
X103889463Y-78945506D01*
X103830498Y-79055820D01*
X103794188Y-79175518D01*
X103781928Y-79300000D01*
X103785000Y-80994250D01*
X103943750Y-81153000D01*
X105283000Y-81153000D01*
X105283000Y-81133000D01*
X105537000Y-81133000D01*
X105537000Y-81153000D01*
X106876250Y-81153000D01*
X107035000Y-80994250D01*
X107038072Y-79300000D01*
X107025812Y-79175518D01*
X106989502Y-79055820D01*
X106930537Y-78945506D01*
X106864468Y-78865000D01*
X109628786Y-78865000D01*
X109502830Y-78932325D01*
X109255392Y-79135392D01*
X109052325Y-79382831D01*
X108901432Y-79665132D01*
X108808513Y-79971445D01*
X108785000Y-80210177D01*
X108785001Y-82349824D01*
X108808514Y-82588556D01*
X108901433Y-82894869D01*
X109052326Y-83177170D01*
X109255393Y-83424608D01*
X109502831Y-83627675D01*
X109785132Y-83778568D01*
X110091445Y-83871487D01*
X110410000Y-83902862D01*
X110728556Y-83871487D01*
X111034869Y-83778568D01*
X111317170Y-83627675D01*
X111564608Y-83424608D01*
X111767675Y-83177170D01*
X111918568Y-82894869D01*
X112011487Y-82588556D01*
X112035000Y-82349824D01*
X112035000Y-80210176D01*
X112021849Y-80076651D01*
X112270000Y-80324802D01*
X112270001Y-88862668D01*
X112266324Y-88900000D01*
X112270001Y-88937333D01*
X112280998Y-89048986D01*
X112292405Y-89086589D01*
X112324454Y-89192246D01*
X112395026Y-89324276D01*
X112452296Y-89394059D01*
X112490000Y-89440001D01*
X112518998Y-89463799D01*
X113100198Y-90045000D01*
X111162322Y-90045000D01*
X111124999Y-90041324D01*
X111087676Y-90045000D01*
X111087667Y-90045000D01*
X110976014Y-90055997D01*
X110834912Y-90098799D01*
X110832753Y-90099454D01*
X110700723Y-90170026D01*
X110617083Y-90238668D01*
X110584999Y-90264999D01*
X110561201Y-90293997D01*
X109840368Y-91014831D01*
X109811370Y-91038629D01*
X109787572Y-91067627D01*
X109787571Y-91067628D01*
X109716396Y-91154354D01*
X109645824Y-91286384D01*
X109620825Y-91368799D01*
X109602368Y-91429644D01*
X109591991Y-91534999D01*
X109587694Y-91578630D01*
X109591371Y-91615962D01*
X109591371Y-92579029D01*
X109509482Y-92554188D01*
X109385000Y-92541928D01*
X107785000Y-92541928D01*
X107660518Y-92554188D01*
X107540820Y-92590498D01*
X107430506Y-92649463D01*
X107333815Y-92728815D01*
X107254463Y-92825506D01*
X107195498Y-92935820D01*
X107159188Y-93055518D01*
X107146928Y-93180000D01*
X107146928Y-94780000D01*
X107159188Y-94904482D01*
X107195498Y-95024180D01*
X107254463Y-95134494D01*
X107333815Y-95231185D01*
X107430506Y-95310537D01*
X107540820Y-95369502D01*
X107660518Y-95405812D01*
X107668961Y-95406643D01*
X107470363Y-95605241D01*
X107313320Y-95840273D01*
X107205147Y-96101426D01*
X107150000Y-96378665D01*
X107150000Y-96661335D01*
X107205147Y-96938574D01*
X107313320Y-97199727D01*
X107470363Y-97434759D01*
X107670241Y-97634637D01*
X107902759Y-97790000D01*
X107670241Y-97945363D01*
X107470363Y-98145241D01*
X107313320Y-98380273D01*
X107205147Y-98641426D01*
X107150000Y-98918665D01*
X107150000Y-99201335D01*
X107205147Y-99478574D01*
X107313320Y-99739727D01*
X107470363Y-99974759D01*
X107670241Y-100174637D01*
X107902759Y-100330000D01*
X107670241Y-100485363D01*
X107470363Y-100685241D01*
X107313320Y-100920273D01*
X107205147Y-101181426D01*
X107150000Y-101458665D01*
X107150000Y-101741335D01*
X107205147Y-102018574D01*
X107313320Y-102279727D01*
X107470363Y-102514759D01*
X107670241Y-102714637D01*
X107902759Y-102870000D01*
X107670241Y-103025363D01*
X107470363Y-103225241D01*
X107313320Y-103460273D01*
X107205147Y-103721426D01*
X107150000Y-103998665D01*
X107150000Y-104281335D01*
X107205147Y-104558574D01*
X107243017Y-104650000D01*
X104454802Y-104650000D01*
X103630000Y-103825199D01*
X103630000Y-94929801D01*
X105286003Y-93273799D01*
X105315001Y-93250001D01*
X105409974Y-93134276D01*
X105480546Y-93002247D01*
X105524003Y-92858986D01*
X105535000Y-92747333D01*
X105535000Y-92747323D01*
X105538676Y-92710000D01*
X105535000Y-92672677D01*
X105535000Y-91508711D01*
X105578937Y-91464774D01*
X105692205Y-91295256D01*
X105770226Y-91106898D01*
X105810000Y-90906939D01*
X105810000Y-90703061D01*
X105770226Y-90503102D01*
X105692205Y-90314744D01*
X105578937Y-90145226D01*
X105434774Y-90001063D01*
X105265256Y-89887795D01*
X105076898Y-89809774D01*
X104876939Y-89770000D01*
X104673061Y-89770000D01*
X104473102Y-89809774D01*
X104284744Y-89887795D01*
X104115226Y-90001063D01*
X103971063Y-90145226D01*
X103857795Y-90314744D01*
X103779774Y-90503102D01*
X103740000Y-90703061D01*
X103740000Y-90906939D01*
X103773039Y-91073039D01*
X103606939Y-91040000D01*
X103403061Y-91040000D01*
X103203102Y-91079774D01*
X103014744Y-91157795D01*
X102995000Y-91170987D01*
X102995000Y-88968711D01*
X103038937Y-88924774D01*
X103152205Y-88755256D01*
X103230226Y-88566898D01*
X103270000Y-88366939D01*
X103270000Y-88163061D01*
X103230226Y-87963102D01*
X103152205Y-87774744D01*
X103038937Y-87605226D01*
X102894774Y-87461063D01*
X102725256Y-87347795D01*
X102536898Y-87269774D01*
X102336939Y-87230000D01*
X102133061Y-87230000D01*
X101933102Y-87269774D01*
X101744744Y-87347795D01*
X101575226Y-87461063D01*
X101431063Y-87605226D01*
X101317795Y-87774744D01*
X101239774Y-87963102D01*
X101200000Y-88163061D01*
X101200000Y-88366939D01*
X101233039Y-88533039D01*
X101066939Y-88500000D01*
X100863061Y-88500000D01*
X100663102Y-88539774D01*
X100474744Y-88617795D01*
X100455000Y-88630987D01*
X100455000Y-87032333D01*
X100458677Y-86995000D01*
X100444003Y-86846014D01*
X100400546Y-86702753D01*
X100329974Y-86570724D01*
X100258799Y-86483997D01*
X100235001Y-86454999D01*
X100206002Y-86431200D01*
X99623803Y-85849002D01*
X99600001Y-85819999D01*
X99484276Y-85725026D01*
X99352247Y-85654454D01*
X99208986Y-85610997D01*
X99097333Y-85600000D01*
X99097322Y-85600000D01*
X99060000Y-85596324D01*
X99022678Y-85600000D01*
X98545366Y-85600000D01*
X98487182Y-85408192D01*
X98353932Y-85158899D01*
X98174607Y-84940392D01*
X97956100Y-84761068D01*
X97706807Y-84627818D01*
X97436308Y-84545764D01*
X97155000Y-84518057D01*
X96873691Y-84545764D01*
X96603192Y-84627818D01*
X96353899Y-84761068D01*
X96135392Y-84940393D01*
X95956068Y-85158900D01*
X95885000Y-85291858D01*
X95813932Y-85158899D01*
X95634607Y-84940392D01*
X95416100Y-84761068D01*
X95166807Y-84627818D01*
X94896308Y-84545764D01*
X94615000Y-84518057D01*
X94333691Y-84545764D01*
X94063192Y-84627818D01*
X93813899Y-84761068D01*
X93595392Y-84940393D01*
X93416068Y-85158900D01*
X93345000Y-85291858D01*
X93273932Y-85158899D01*
X93094607Y-84940392D01*
X92960000Y-84829923D01*
X92960000Y-84703469D01*
X92964281Y-84660000D01*
X92960000Y-84616531D01*
X92960000Y-84616523D01*
X92947195Y-84486510D01*
X92905963Y-84350589D01*
X92896589Y-84319686D01*
X92814411Y-84165941D01*
X92731532Y-84064953D01*
X92731530Y-84064951D01*
X92703817Y-84031183D01*
X92670050Y-84003471D01*
X91926579Y-83260000D01*
X103781928Y-83260000D01*
X103794188Y-83384482D01*
X103830498Y-83504180D01*
X103889463Y-83614494D01*
X103968815Y-83711185D01*
X104065506Y-83790537D01*
X104175820Y-83849502D01*
X104295518Y-83885812D01*
X104420000Y-83898072D01*
X105124250Y-83895000D01*
X105283000Y-83736250D01*
X105283000Y-81407000D01*
X105537000Y-81407000D01*
X105537000Y-83736250D01*
X105695750Y-83895000D01*
X106400000Y-83898072D01*
X106524482Y-83885812D01*
X106644180Y-83849502D01*
X106754494Y-83790537D01*
X106851185Y-83711185D01*
X106930537Y-83614494D01*
X106989502Y-83504180D01*
X107025812Y-83384482D01*
X107038072Y-83260000D01*
X107035000Y-81565750D01*
X106876250Y-81407000D01*
X105537000Y-81407000D01*
X105283000Y-81407000D01*
X103943750Y-81407000D01*
X103785000Y-81565750D01*
X103781928Y-83260000D01*
X91926579Y-83260000D01*
X90621534Y-81954956D01*
X90593817Y-81921183D01*
X90459059Y-81810589D01*
X90305313Y-81728411D01*
X90138490Y-81677805D01*
X90008477Y-81665000D01*
X90008469Y-81665000D01*
X89965000Y-81660719D01*
X89921531Y-81665000D01*
X77513469Y-81665000D01*
X77470000Y-81660719D01*
X77426531Y-81665000D01*
X77426523Y-81665000D01*
X77296510Y-81677805D01*
X77129687Y-81728411D01*
X76975941Y-81810589D01*
X76874953Y-81893468D01*
X76874951Y-81893470D01*
X76841183Y-81921183D01*
X76813470Y-81954951D01*
X74969951Y-83798471D01*
X74936184Y-83826183D01*
X74908471Y-83859951D01*
X74908468Y-83859954D01*
X74825590Y-83960941D01*
X74743412Y-84114687D01*
X74692805Y-84281510D01*
X74675719Y-84455000D01*
X74680001Y-84498479D01*
X74680000Y-85635000D01*
X65859525Y-85635000D01*
X65847675Y-85612830D01*
X65644608Y-85365392D01*
X65397170Y-85162325D01*
X65114869Y-85011432D01*
X64808556Y-84918513D01*
X64569824Y-84895000D01*
X62430176Y-84895000D01*
X62191444Y-84918513D01*
X61885131Y-85011432D01*
X61602830Y-85162325D01*
X61355392Y-85365392D01*
X61152325Y-85612830D01*
X61001432Y-85895131D01*
X60908513Y-86201444D01*
X60877138Y-86520000D01*
X60908513Y-86838556D01*
X61001432Y-87144869D01*
X61152325Y-87427170D01*
X61355392Y-87674608D01*
X61602830Y-87877675D01*
X61885131Y-88028568D01*
X62191444Y-88121487D01*
X62430176Y-88145000D01*
X64165106Y-88145000D01*
X64135941Y-88160589D01*
X64135939Y-88160590D01*
X64135940Y-88160590D01*
X64034953Y-88243468D01*
X64034951Y-88243470D01*
X64001183Y-88271183D01*
X63973470Y-88304951D01*
X62904951Y-89373471D01*
X62871184Y-89401183D01*
X62843471Y-89434951D01*
X62843468Y-89434954D01*
X62760590Y-89535941D01*
X62678412Y-89689687D01*
X62627805Y-89856510D01*
X62624014Y-89895000D01*
X62430176Y-89895000D01*
X62191444Y-89918513D01*
X61885131Y-90011432D01*
X61602830Y-90162325D01*
X61355392Y-90365392D01*
X61152325Y-90612830D01*
X61001432Y-90895131D01*
X60908513Y-91201444D01*
X60877138Y-91520000D01*
X60908513Y-91838556D01*
X61001432Y-92144869D01*
X61152325Y-92427170D01*
X61355392Y-92674608D01*
X61602830Y-92877675D01*
X61885131Y-93028568D01*
X62191444Y-93121487D01*
X62430176Y-93145000D01*
X64569824Y-93145000D01*
X64808556Y-93121487D01*
X65114869Y-93028568D01*
X65397170Y-92877675D01*
X65644608Y-92674608D01*
X65847675Y-92427170D01*
X65998568Y-92144869D01*
X66091487Y-91838556D01*
X66122862Y-91520000D01*
X66091487Y-91201444D01*
X65998568Y-90895131D01*
X65847675Y-90612830D01*
X65644608Y-90365392D01*
X65397170Y-90162325D01*
X65114869Y-90011432D01*
X64850379Y-89931200D01*
X64996579Y-89785000D01*
X65996531Y-89785000D01*
X66040000Y-89789281D01*
X66083469Y-89785000D01*
X66083477Y-89785000D01*
X66213490Y-89772195D01*
X66380313Y-89721589D01*
X66534059Y-89639411D01*
X66668817Y-89528817D01*
X66696534Y-89495044D01*
X67676579Y-88515000D01*
X73293422Y-88515000D01*
X73410000Y-88631579D01*
X73410001Y-95981544D01*
X73377795Y-96029744D01*
X73311462Y-96189884D01*
X73046534Y-95924956D01*
X73018817Y-95891183D01*
X72884059Y-95780589D01*
X72730313Y-95698411D01*
X72563490Y-95647805D01*
X72433477Y-95635000D01*
X72433469Y-95635000D01*
X72390000Y-95630719D01*
X72346531Y-95635000D01*
X66118072Y-95635000D01*
X66118072Y-95530000D01*
X66105812Y-95405518D01*
X66069502Y-95285820D01*
X66010537Y-95175506D01*
X65931185Y-95078815D01*
X65834494Y-94999463D01*
X65724180Y-94940498D01*
X65604482Y-94904188D01*
X65480000Y-94891928D01*
X61520000Y-94891928D01*
X61395518Y-94904188D01*
X61275820Y-94940498D01*
X61165506Y-94999463D01*
X61068815Y-95078815D01*
X60989463Y-95175506D01*
X60930498Y-95285820D01*
X60894188Y-95405518D01*
X60881928Y-95530000D01*
X60881928Y-97510000D01*
X60894188Y-97634482D01*
X60930498Y-97754180D01*
X60989463Y-97864494D01*
X61068815Y-97961185D01*
X61165506Y-98040537D01*
X61275820Y-98099502D01*
X61395518Y-98135812D01*
X61520000Y-98148072D01*
X65480000Y-98148072D01*
X65604482Y-98135812D01*
X65724180Y-98099502D01*
X65834494Y-98040537D01*
X65931185Y-97961185D01*
X66010537Y-97864494D01*
X66069502Y-97754180D01*
X66105812Y-97634482D01*
X66118072Y-97510000D01*
X66118072Y-97405000D01*
X67078421Y-97405000D01*
X66079951Y-98403471D01*
X66046184Y-98431183D01*
X66018471Y-98464951D01*
X66018468Y-98464954D01*
X65935590Y-98565941D01*
X65853412Y-98719687D01*
X65802805Y-98886510D01*
X65785719Y-99060000D01*
X65790001Y-99103479D01*
X65790000Y-100618421D01*
X65752077Y-100656344D01*
X65644608Y-100525392D01*
X65397170Y-100322325D01*
X65114869Y-100171432D01*
X64808556Y-100078513D01*
X64569824Y-100055000D01*
X62430176Y-100055000D01*
X62191444Y-100078513D01*
X61885131Y-100171432D01*
X61602830Y-100322325D01*
X61355392Y-100525392D01*
X61152325Y-100772830D01*
X61001432Y-101055131D01*
X60908513Y-101361444D01*
X60877138Y-101680000D01*
X60908513Y-101998556D01*
X61001432Y-102304869D01*
X61152325Y-102587170D01*
X61355392Y-102834608D01*
X61602830Y-103037675D01*
X61885131Y-103188568D01*
X62191444Y-103281487D01*
X62430176Y-103305000D01*
X64569824Y-103305000D01*
X64808556Y-103281487D01*
X65114869Y-103188568D01*
X65397170Y-103037675D01*
X65644608Y-102834608D01*
X65847675Y-102587170D01*
X65859525Y-102565000D01*
X65936531Y-102565000D01*
X65980000Y-102569281D01*
X66023469Y-102565000D01*
X66023477Y-102565000D01*
X66153490Y-102552195D01*
X66320313Y-102501589D01*
X66474059Y-102419411D01*
X66608817Y-102308817D01*
X66636534Y-102275044D01*
X67270050Y-101641529D01*
X67303817Y-101613817D01*
X67343240Y-101565781D01*
X67414410Y-101479060D01*
X67414411Y-101479059D01*
X67496589Y-101325313D01*
X67547195Y-101158490D01*
X67560000Y-101028477D01*
X67560000Y-101028467D01*
X67564281Y-100985001D01*
X67560000Y-100941535D01*
X67560000Y-99426578D01*
X68311579Y-98675000D01*
X71388422Y-98675000D01*
X76178470Y-103465049D01*
X76206183Y-103498817D01*
X76239951Y-103526530D01*
X76239953Y-103526532D01*
X76340941Y-103609411D01*
X76494687Y-103691589D01*
X76661510Y-103742195D01*
X76791523Y-103755000D01*
X76791531Y-103755000D01*
X76835000Y-103759281D01*
X76878469Y-103755000D01*
X83281546Y-103755000D01*
X83329744Y-103787205D01*
X83518102Y-103865226D01*
X83718061Y-103905000D01*
X83921939Y-103905000D01*
X84121898Y-103865226D01*
X84310256Y-103787205D01*
X84479774Y-103673937D01*
X84623937Y-103529774D01*
X84737205Y-103360256D01*
X84815226Y-103171898D01*
X84855000Y-102971939D01*
X84855000Y-102768061D01*
X84815226Y-102568102D01*
X84780804Y-102485000D01*
X85046531Y-102485000D01*
X85090000Y-102489281D01*
X85133469Y-102485000D01*
X85133477Y-102485000D01*
X85263490Y-102472195D01*
X85430313Y-102421589D01*
X85584059Y-102339411D01*
X85718817Y-102228817D01*
X85746534Y-102195044D01*
X86320050Y-101621529D01*
X86353817Y-101593817D01*
X86447997Y-101479060D01*
X86464411Y-101459059D01*
X86546589Y-101305314D01*
X86597195Y-101138490D01*
X86602069Y-101088998D01*
X86610000Y-101008477D01*
X86610000Y-101008469D01*
X86614281Y-100965000D01*
X86610000Y-100921531D01*
X86610000Y-97405000D01*
X87898422Y-97405000D01*
X88650000Y-98156579D01*
X88650001Y-100286521D01*
X88645719Y-100330000D01*
X88662805Y-100503490D01*
X88713412Y-100670313D01*
X88795590Y-100824059D01*
X88878468Y-100925046D01*
X88878471Y-100925049D01*
X88906184Y-100958817D01*
X88939951Y-100986529D01*
X90148470Y-102195049D01*
X90176183Y-102228817D01*
X90209951Y-102256530D01*
X90209953Y-102256532D01*
X90232399Y-102274953D01*
X90310941Y-102339411D01*
X90464687Y-102421589D01*
X90631510Y-102472195D01*
X90761523Y-102485000D01*
X90761533Y-102485000D01*
X90804999Y-102489281D01*
X90848465Y-102485000D01*
X95841531Y-102485000D01*
X95885000Y-102489281D01*
X95928469Y-102485000D01*
X95928477Y-102485000D01*
X96058490Y-102472195D01*
X96225313Y-102421589D01*
X96379059Y-102339411D01*
X96513817Y-102228817D01*
X96541534Y-102195044D01*
X96976415Y-101760163D01*
X97010187Y-101732447D01*
X97120781Y-101597689D01*
X97202959Y-101443943D01*
X97229296Y-101357124D01*
X97259411Y-101320429D01*
X97341589Y-101166683D01*
X97392195Y-100999860D01*
X97405000Y-100869847D01*
X97405000Y-100869837D01*
X97409250Y-100826681D01*
X97434759Y-100809637D01*
X97634637Y-100609759D01*
X97791680Y-100374727D01*
X97899853Y-100113574D01*
X97955000Y-99836335D01*
X97955000Y-99553665D01*
X97899853Y-99276426D01*
X97791680Y-99015273D01*
X97634637Y-98780241D01*
X97434759Y-98580363D01*
X97199727Y-98423320D01*
X96938574Y-98315147D01*
X96661335Y-98260000D01*
X96378665Y-98260000D01*
X96101426Y-98315147D01*
X95840273Y-98423320D01*
X95605241Y-98580363D01*
X95405363Y-98780241D01*
X95248320Y-99015273D01*
X95140147Y-99276426D01*
X95085000Y-99553665D01*
X95085000Y-99836335D01*
X95140147Y-100113574D01*
X95248320Y-100374727D01*
X95405363Y-100609759D01*
X95510604Y-100715000D01*
X92449396Y-100715000D01*
X92554637Y-100609759D01*
X92711680Y-100374727D01*
X92819853Y-100113574D01*
X92875000Y-99836335D01*
X92875000Y-99553665D01*
X92819853Y-99276426D01*
X92711680Y-99015273D01*
X92554637Y-98780241D01*
X92354759Y-98580363D01*
X92325000Y-98560479D01*
X92325000Y-97058454D01*
X92357205Y-97010256D01*
X92435226Y-96821898D01*
X92475000Y-96621939D01*
X92475000Y-96418061D01*
X92435226Y-96218102D01*
X92357205Y-96029744D01*
X92325000Y-95981546D01*
X92325000Y-95797320D01*
X92356309Y-95794236D01*
X92626808Y-95712182D01*
X92876101Y-95578932D01*
X93094608Y-95399608D01*
X93273932Y-95181101D01*
X93345000Y-95048142D01*
X93416068Y-95181101D01*
X93595393Y-95399608D01*
X93813900Y-95578932D01*
X94063193Y-95712182D01*
X94333692Y-95794236D01*
X94615000Y-95821943D01*
X94896309Y-95794236D01*
X95166808Y-95712182D01*
X95416101Y-95578932D01*
X95634608Y-95399608D01*
X95813932Y-95181101D01*
X95882265Y-95053259D01*
X96032399Y-95282839D01*
X96230105Y-95484500D01*
X96463354Y-95643715D01*
X96723182Y-95754367D01*
X96805961Y-95771904D01*
X97028000Y-95649915D01*
X97028000Y-94107000D01*
X97282000Y-94107000D01*
X97282000Y-95649915D01*
X97504039Y-95771904D01*
X97586818Y-95754367D01*
X97846646Y-95643715D01*
X98079895Y-95484500D01*
X98277601Y-95282839D01*
X98432166Y-95046483D01*
X98537650Y-94784514D01*
X98590000Y-94507000D01*
X98590000Y-94107000D01*
X97282000Y-94107000D01*
X97028000Y-94107000D01*
X97008000Y-94107000D01*
X97008000Y-93853000D01*
X97028000Y-93853000D01*
X97028000Y-93833000D01*
X97282000Y-93833000D01*
X97282000Y-93853000D01*
X98590000Y-93853000D01*
X98590000Y-93453000D01*
X98537650Y-93175486D01*
X98511282Y-93110000D01*
X98526939Y-93110000D01*
X98726898Y-93070226D01*
X98915256Y-92992205D01*
X98935000Y-92979012D01*
X98935001Y-112992667D01*
X98931324Y-113030000D01*
X98935001Y-113067333D01*
X98945998Y-113178986D01*
X98948712Y-113187932D01*
X98989454Y-113322246D01*
X99060026Y-113454276D01*
X99127361Y-113536323D01*
X99155000Y-113570001D01*
X99183998Y-113593799D01*
X100401201Y-114811003D01*
X100424999Y-114840001D01*
X100540724Y-114934974D01*
X100672753Y-115005546D01*
X100816014Y-115049003D01*
X100927667Y-115060000D01*
X100927676Y-115060000D01*
X100964999Y-115063676D01*
X101002322Y-115060000D01*
X107366957Y-115060000D01*
X107470363Y-115214759D01*
X107670241Y-115414637D01*
X107902759Y-115570000D01*
X107670241Y-115725363D01*
X107470363Y-115925241D01*
X107313320Y-116160273D01*
X107205147Y-116421426D01*
X107150000Y-116698665D01*
X107150000Y-116981335D01*
X107186312Y-117163886D01*
X104263998Y-120086201D01*
X104235000Y-120109999D01*
X104211202Y-120138997D01*
X104211201Y-120138998D01*
X104140026Y-120225724D01*
X104103126Y-120294759D01*
X104069454Y-120357753D01*
X104025997Y-120501014D01*
X104015000Y-120612667D01*
X104015000Y-120612678D01*
X104011324Y-120650000D01*
X104015000Y-120687322D01*
X104015000Y-120970198D01*
X103825199Y-121160000D01*
X101002322Y-121160000D01*
X100964999Y-121156324D01*
X100927676Y-121160000D01*
X100927667Y-121160000D01*
X100816014Y-121170997D01*
X100672753Y-121214454D01*
X100540724Y-121285026D01*
X100424999Y-121379999D01*
X100401201Y-121408997D01*
X99183998Y-122626201D01*
X99155000Y-122649999D01*
X99131202Y-122678997D01*
X99131201Y-122678998D01*
X99060026Y-122765724D01*
X98989454Y-122897754D01*
X98972755Y-122952805D01*
X98945998Y-123041014D01*
X98942502Y-123076510D01*
X98931324Y-123190000D01*
X98935001Y-123227332D01*
X98935000Y-128635988D01*
X98915256Y-128622795D01*
X98726898Y-128544774D01*
X98526939Y-128505000D01*
X98323061Y-128505000D01*
X98123102Y-128544774D01*
X98070832Y-128566425D01*
X98060290Y-128513427D01*
X98174608Y-128419608D01*
X98353932Y-128201101D01*
X98487182Y-127951808D01*
X98569236Y-127681309D01*
X98590000Y-127470491D01*
X98590000Y-126529508D01*
X98569236Y-126318691D01*
X98487182Y-126048192D01*
X98353932Y-125798899D01*
X98174607Y-125580392D01*
X97956100Y-125401068D01*
X97706807Y-125267818D01*
X97436308Y-125185764D01*
X97155000Y-125158057D01*
X96873691Y-125185764D01*
X96603192Y-125267818D01*
X96353899Y-125401068D01*
X96135392Y-125580393D01*
X95956068Y-125798900D01*
X95885000Y-125931858D01*
X95813932Y-125798899D01*
X95634607Y-125580392D01*
X95416100Y-125401068D01*
X95166807Y-125267818D01*
X94896308Y-125185764D01*
X94615000Y-125158057D01*
X94333691Y-125185764D01*
X94063192Y-125267818D01*
X93813899Y-125401068D01*
X93595392Y-125580393D01*
X93416068Y-125798900D01*
X93345000Y-125931858D01*
X93273932Y-125798899D01*
X93094607Y-125580392D01*
X92876100Y-125401068D01*
X92626807Y-125267818D01*
X92356308Y-125185764D01*
X92325000Y-125182680D01*
X92325000Y-121784521D01*
X92354759Y-121764637D01*
X92554637Y-121564759D01*
X92711680Y-121329727D01*
X92819853Y-121068574D01*
X92874130Y-120795709D01*
X93323468Y-121245047D01*
X93351183Y-121278817D01*
X93384951Y-121306530D01*
X93384953Y-121306532D01*
X93485940Y-121389410D01*
X93485941Y-121389411D01*
X93639687Y-121471589D01*
X93806510Y-121522195D01*
X93936523Y-121535000D01*
X93936531Y-121535000D01*
X93980000Y-121539281D01*
X94023469Y-121535000D01*
X95385479Y-121535000D01*
X95405363Y-121564759D01*
X95605241Y-121764637D01*
X95840273Y-121921680D01*
X96101426Y-122029853D01*
X96378665Y-122085000D01*
X96661335Y-122085000D01*
X96938574Y-122029853D01*
X97199727Y-121921680D01*
X97434759Y-121764637D01*
X97634637Y-121564759D01*
X97791680Y-121329727D01*
X97899853Y-121068574D01*
X97955000Y-120791335D01*
X97955000Y-120508665D01*
X97899853Y-120231426D01*
X97791680Y-119970273D01*
X97634637Y-119735241D01*
X97434759Y-119535363D01*
X97199727Y-119378320D01*
X96938574Y-119270147D01*
X96661335Y-119215000D01*
X96378665Y-119215000D01*
X96101426Y-119270147D01*
X95840273Y-119378320D01*
X95605241Y-119535363D01*
X95405363Y-119735241D01*
X95385479Y-119765000D01*
X94346579Y-119765000D01*
X92731534Y-118149956D01*
X92703817Y-118116183D01*
X92569059Y-118005589D01*
X92415313Y-117923411D01*
X92248490Y-117872805D01*
X92118477Y-117860000D01*
X92118469Y-117860000D01*
X92075000Y-117855719D01*
X92031531Y-117860000D01*
X90536579Y-117860000D01*
X89556534Y-116879956D01*
X89528817Y-116846183D01*
X89394059Y-116735589D01*
X89240313Y-116653411D01*
X89073490Y-116602805D01*
X88943477Y-116590000D01*
X88943469Y-116590000D01*
X88900000Y-116585719D01*
X88856531Y-116590000D01*
X76878465Y-116590000D01*
X76834999Y-116585719D01*
X76791533Y-116590000D01*
X76791523Y-116590000D01*
X76661510Y-116602805D01*
X76494687Y-116653411D01*
X76340941Y-116735589D01*
X76340939Y-116735590D01*
X76340940Y-116735590D01*
X76239953Y-116818468D01*
X76239951Y-116818470D01*
X76206183Y-116846183D01*
X76178470Y-116879951D01*
X74022387Y-119036035D01*
X74060000Y-118846939D01*
X74060000Y-118643061D01*
X74020226Y-118443102D01*
X73942205Y-118254744D01*
X73828937Y-118085226D01*
X73684774Y-117941063D01*
X73515256Y-117827795D01*
X73326898Y-117749774D01*
X73126939Y-117710000D01*
X72923061Y-117710000D01*
X72723102Y-117749774D01*
X72534744Y-117827795D01*
X72486546Y-117860000D01*
X69581579Y-117860000D01*
X69465000Y-117743422D01*
X69465000Y-114343469D01*
X69469281Y-114300000D01*
X69465000Y-114256531D01*
X69465000Y-114256523D01*
X69452195Y-114126510D01*
X69401589Y-113959687D01*
X69319411Y-113805941D01*
X69281707Y-113759999D01*
X69236532Y-113704953D01*
X69236530Y-113704951D01*
X69208817Y-113671183D01*
X69175050Y-113643471D01*
X68420244Y-112888665D01*
X77305000Y-112888665D01*
X77305000Y-113171335D01*
X77360147Y-113448574D01*
X77468320Y-113709727D01*
X77625363Y-113944759D01*
X77825241Y-114144637D01*
X78060273Y-114301680D01*
X78321426Y-114409853D01*
X78598665Y-114465000D01*
X78881335Y-114465000D01*
X79158574Y-114409853D01*
X79419727Y-114301680D01*
X79654759Y-114144637D01*
X79854637Y-113944759D01*
X79931316Y-113830000D01*
X82381928Y-113830000D01*
X82394188Y-113954482D01*
X82430498Y-114074180D01*
X82489463Y-114184494D01*
X82568815Y-114281185D01*
X82665506Y-114360537D01*
X82775820Y-114419502D01*
X82895518Y-114455812D01*
X83020000Y-114468072D01*
X83534250Y-114465000D01*
X83693000Y-114306250D01*
X83693000Y-113157000D01*
X83947000Y-113157000D01*
X83947000Y-114306250D01*
X84105750Y-114465000D01*
X84620000Y-114468072D01*
X84744482Y-114455812D01*
X84864180Y-114419502D01*
X84974494Y-114360537D01*
X85071185Y-114281185D01*
X85150537Y-114184494D01*
X85209502Y-114074180D01*
X85245812Y-113954482D01*
X85258072Y-113830000D01*
X85255000Y-113315750D01*
X85096250Y-113157000D01*
X83947000Y-113157000D01*
X83693000Y-113157000D01*
X82543750Y-113157000D01*
X82385000Y-113315750D01*
X82381928Y-113830000D01*
X79931316Y-113830000D01*
X80011680Y-113709727D01*
X80119853Y-113448574D01*
X80175000Y-113171335D01*
X80175000Y-112888665D01*
X80119853Y-112611426D01*
X80011680Y-112350273D01*
X79931317Y-112230000D01*
X82381928Y-112230000D01*
X82385000Y-112744250D01*
X82543750Y-112903000D01*
X83693000Y-112903000D01*
X83693000Y-111753750D01*
X83947000Y-111753750D01*
X83947000Y-112903000D01*
X85096250Y-112903000D01*
X85110585Y-112888665D01*
X90005000Y-112888665D01*
X90005000Y-113171335D01*
X90060147Y-113448574D01*
X90168320Y-113709727D01*
X90325363Y-113944759D01*
X90525241Y-114144637D01*
X90760273Y-114301680D01*
X91021426Y-114409853D01*
X91298665Y-114465000D01*
X91581335Y-114465000D01*
X91858574Y-114409853D01*
X92119727Y-114301680D01*
X92354759Y-114144637D01*
X92554637Y-113944759D01*
X92631316Y-113830000D01*
X95081928Y-113830000D01*
X95094188Y-113954482D01*
X95130498Y-114074180D01*
X95189463Y-114184494D01*
X95268815Y-114281185D01*
X95365506Y-114360537D01*
X95475820Y-114419502D01*
X95595518Y-114455812D01*
X95720000Y-114468072D01*
X96234250Y-114465000D01*
X96393000Y-114306250D01*
X96393000Y-113157000D01*
X96647000Y-113157000D01*
X96647000Y-114306250D01*
X96805750Y-114465000D01*
X97320000Y-114468072D01*
X97444482Y-114455812D01*
X97564180Y-114419502D01*
X97674494Y-114360537D01*
X97771185Y-114281185D01*
X97850537Y-114184494D01*
X97909502Y-114074180D01*
X97945812Y-113954482D01*
X97958072Y-113830000D01*
X97955000Y-113315750D01*
X97796250Y-113157000D01*
X96647000Y-113157000D01*
X96393000Y-113157000D01*
X95243750Y-113157000D01*
X95085000Y-113315750D01*
X95081928Y-113830000D01*
X92631316Y-113830000D01*
X92711680Y-113709727D01*
X92819853Y-113448574D01*
X92875000Y-113171335D01*
X92875000Y-112888665D01*
X92819853Y-112611426D01*
X92711680Y-112350273D01*
X92631317Y-112230000D01*
X95081928Y-112230000D01*
X95085000Y-112744250D01*
X95243750Y-112903000D01*
X96393000Y-112903000D01*
X96393000Y-111753750D01*
X96647000Y-111753750D01*
X96647000Y-112903000D01*
X97796250Y-112903000D01*
X97955000Y-112744250D01*
X97958072Y-112230000D01*
X97945812Y-112105518D01*
X97909502Y-111985820D01*
X97850537Y-111875506D01*
X97771185Y-111778815D01*
X97674494Y-111699463D01*
X97564180Y-111640498D01*
X97444482Y-111604188D01*
X97320000Y-111591928D01*
X96805750Y-111595000D01*
X96647000Y-111753750D01*
X96393000Y-111753750D01*
X96234250Y-111595000D01*
X95720000Y-111591928D01*
X95595518Y-111604188D01*
X95475820Y-111640498D01*
X95365506Y-111699463D01*
X95268815Y-111778815D01*
X95189463Y-111875506D01*
X95130498Y-111985820D01*
X95094188Y-112105518D01*
X95081928Y-112230000D01*
X92631317Y-112230000D01*
X92554637Y-112115241D01*
X92354759Y-111915363D01*
X92119727Y-111758320D01*
X91858574Y-111650147D01*
X91581335Y-111595000D01*
X91298665Y-111595000D01*
X91021426Y-111650147D01*
X90760273Y-111758320D01*
X90525241Y-111915363D01*
X90325363Y-112115241D01*
X90168320Y-112350273D01*
X90060147Y-112611426D01*
X90005000Y-112888665D01*
X85110585Y-112888665D01*
X85255000Y-112744250D01*
X85258072Y-112230000D01*
X85245812Y-112105518D01*
X85209502Y-111985820D01*
X85150537Y-111875506D01*
X85071185Y-111778815D01*
X84974494Y-111699463D01*
X84864180Y-111640498D01*
X84744482Y-111604188D01*
X84620000Y-111591928D01*
X84105750Y-111595000D01*
X83947000Y-111753750D01*
X83693000Y-111753750D01*
X83534250Y-111595000D01*
X83020000Y-111591928D01*
X82895518Y-111604188D01*
X82775820Y-111640498D01*
X82665506Y-111699463D01*
X82568815Y-111778815D01*
X82489463Y-111875506D01*
X82430498Y-111985820D01*
X82394188Y-112105518D01*
X82381928Y-112230000D01*
X79931317Y-112230000D01*
X79854637Y-112115241D01*
X79654759Y-111915363D01*
X79419727Y-111758320D01*
X79158574Y-111650147D01*
X78881335Y-111595000D01*
X78598665Y-111595000D01*
X78321426Y-111650147D01*
X78060273Y-111758320D01*
X77825241Y-111915363D01*
X77625363Y-112115241D01*
X77468320Y-112350273D01*
X77360147Y-112611426D01*
X77305000Y-112888665D01*
X68420244Y-112888665D01*
X67560000Y-112028422D01*
X67560000Y-108115000D01*
X77301928Y-108115000D01*
X77314188Y-108239482D01*
X77350498Y-108359180D01*
X77409463Y-108469494D01*
X77488815Y-108566185D01*
X77585506Y-108645537D01*
X77695820Y-108704502D01*
X77815518Y-108740812D01*
X77940000Y-108753072D01*
X78454250Y-108750000D01*
X78613000Y-108591250D01*
X78613000Y-107442000D01*
X78867000Y-107442000D01*
X78867000Y-108591250D01*
X79025750Y-108750000D01*
X79540000Y-108753072D01*
X79664482Y-108740812D01*
X79784180Y-108704502D01*
X79894494Y-108645537D01*
X79991185Y-108566185D01*
X80070537Y-108469494D01*
X80129502Y-108359180D01*
X80165812Y-108239482D01*
X80178072Y-108115000D01*
X80175000Y-107600750D01*
X80016250Y-107442000D01*
X78867000Y-107442000D01*
X78613000Y-107442000D01*
X77463750Y-107442000D01*
X77305000Y-107600750D01*
X77301928Y-108115000D01*
X67560000Y-108115000D01*
X67560000Y-107418465D01*
X67564281Y-107374999D01*
X67560000Y-107331533D01*
X67560000Y-107331523D01*
X67547195Y-107201510D01*
X67496589Y-107034687D01*
X67414411Y-106880941D01*
X67371772Y-106828986D01*
X67331532Y-106779953D01*
X67331530Y-106779951D01*
X67303817Y-106746183D01*
X67270050Y-106718471D01*
X67066579Y-106515000D01*
X77301928Y-106515000D01*
X77305000Y-107029250D01*
X77463750Y-107188000D01*
X78613000Y-107188000D01*
X78613000Y-106038750D01*
X78867000Y-106038750D01*
X78867000Y-107188000D01*
X80016250Y-107188000D01*
X80030585Y-107173665D01*
X82385000Y-107173665D01*
X82385000Y-107456335D01*
X82440147Y-107733574D01*
X82548320Y-107994727D01*
X82705363Y-108229759D01*
X82905241Y-108429637D01*
X83140273Y-108586680D01*
X83401426Y-108694853D01*
X83678665Y-108750000D01*
X83961335Y-108750000D01*
X84238574Y-108694853D01*
X84499727Y-108586680D01*
X84734759Y-108429637D01*
X84934637Y-108229759D01*
X85011316Y-108115000D01*
X90001928Y-108115000D01*
X90014188Y-108239482D01*
X90050498Y-108359180D01*
X90109463Y-108469494D01*
X90188815Y-108566185D01*
X90285506Y-108645537D01*
X90395820Y-108704502D01*
X90515518Y-108740812D01*
X90640000Y-108753072D01*
X91154250Y-108750000D01*
X91313000Y-108591250D01*
X91313000Y-107442000D01*
X91567000Y-107442000D01*
X91567000Y-108591250D01*
X91725750Y-108750000D01*
X92240000Y-108753072D01*
X92364482Y-108740812D01*
X92484180Y-108704502D01*
X92594494Y-108645537D01*
X92691185Y-108566185D01*
X92770537Y-108469494D01*
X92829502Y-108359180D01*
X92865812Y-108239482D01*
X92878072Y-108115000D01*
X92875000Y-107600750D01*
X92716250Y-107442000D01*
X91567000Y-107442000D01*
X91313000Y-107442000D01*
X90163750Y-107442000D01*
X90005000Y-107600750D01*
X90001928Y-108115000D01*
X85011316Y-108115000D01*
X85091680Y-107994727D01*
X85199853Y-107733574D01*
X85255000Y-107456335D01*
X85255000Y-107173665D01*
X85199853Y-106896426D01*
X85091680Y-106635273D01*
X85011317Y-106515000D01*
X90001928Y-106515000D01*
X90005000Y-107029250D01*
X90163750Y-107188000D01*
X91313000Y-107188000D01*
X91313000Y-106038750D01*
X91567000Y-106038750D01*
X91567000Y-107188000D01*
X92716250Y-107188000D01*
X92730585Y-107173665D01*
X95085000Y-107173665D01*
X95085000Y-107456335D01*
X95140147Y-107733574D01*
X95248320Y-107994727D01*
X95405363Y-108229759D01*
X95605241Y-108429637D01*
X95840273Y-108586680D01*
X96101426Y-108694853D01*
X96378665Y-108750000D01*
X96661335Y-108750000D01*
X96938574Y-108694853D01*
X97199727Y-108586680D01*
X97434759Y-108429637D01*
X97634637Y-108229759D01*
X97791680Y-107994727D01*
X97899853Y-107733574D01*
X97955000Y-107456335D01*
X97955000Y-107173665D01*
X97899853Y-106896426D01*
X97791680Y-106635273D01*
X97634637Y-106400241D01*
X97434759Y-106200363D01*
X97199727Y-106043320D01*
X96938574Y-105935147D01*
X96661335Y-105880000D01*
X96378665Y-105880000D01*
X96101426Y-105935147D01*
X95840273Y-106043320D01*
X95605241Y-106200363D01*
X95405363Y-106400241D01*
X95248320Y-106635273D01*
X95140147Y-106896426D01*
X95085000Y-107173665D01*
X92730585Y-107173665D01*
X92875000Y-107029250D01*
X92878072Y-106515000D01*
X92865812Y-106390518D01*
X92829502Y-106270820D01*
X92770537Y-106160506D01*
X92691185Y-106063815D01*
X92594494Y-105984463D01*
X92484180Y-105925498D01*
X92364482Y-105889188D01*
X92240000Y-105876928D01*
X91725750Y-105880000D01*
X91567000Y-106038750D01*
X91313000Y-106038750D01*
X91154250Y-105880000D01*
X90640000Y-105876928D01*
X90515518Y-105889188D01*
X90395820Y-105925498D01*
X90285506Y-105984463D01*
X90188815Y-106063815D01*
X90109463Y-106160506D01*
X90050498Y-106270820D01*
X90014188Y-106390518D01*
X90001928Y-106515000D01*
X85011317Y-106515000D01*
X84934637Y-106400241D01*
X84734759Y-106200363D01*
X84499727Y-106043320D01*
X84238574Y-105935147D01*
X83961335Y-105880000D01*
X83678665Y-105880000D01*
X83401426Y-105935147D01*
X83140273Y-106043320D01*
X82905241Y-106200363D01*
X82705363Y-106400241D01*
X82548320Y-106635273D01*
X82440147Y-106896426D01*
X82385000Y-107173665D01*
X80030585Y-107173665D01*
X80175000Y-107029250D01*
X80178072Y-106515000D01*
X80165812Y-106390518D01*
X80129502Y-106270820D01*
X80070537Y-106160506D01*
X79991185Y-106063815D01*
X79894494Y-105984463D01*
X79784180Y-105925498D01*
X79664482Y-105889188D01*
X79540000Y-105876928D01*
X79025750Y-105880000D01*
X78867000Y-106038750D01*
X78613000Y-106038750D01*
X78454250Y-105880000D01*
X77940000Y-105876928D01*
X77815518Y-105889188D01*
X77695820Y-105925498D01*
X77585506Y-105984463D01*
X77488815Y-106063815D01*
X77409463Y-106160506D01*
X77350498Y-106270820D01*
X77314188Y-106390518D01*
X77301928Y-106515000D01*
X67066579Y-106515000D01*
X66636534Y-106084956D01*
X66608817Y-106051183D01*
X66474059Y-105940589D01*
X66320313Y-105858411D01*
X66153490Y-105807805D01*
X66118072Y-105804317D01*
X66118072Y-105690000D01*
X66105812Y-105565518D01*
X66069502Y-105445820D01*
X66010537Y-105335506D01*
X65931185Y-105238815D01*
X65834494Y-105159463D01*
X65724180Y-105100498D01*
X65604482Y-105064188D01*
X65480000Y-105051928D01*
X61520000Y-105051928D01*
X61395518Y-105064188D01*
X61275820Y-105100498D01*
X61165506Y-105159463D01*
X61068815Y-105238815D01*
X60989463Y-105335506D01*
X60930498Y-105445820D01*
X60894188Y-105565518D01*
X60881928Y-105690000D01*
X60881928Y-107670000D01*
X60894188Y-107794482D01*
X60930498Y-107914180D01*
X60989463Y-108024494D01*
X61068815Y-108121185D01*
X61165506Y-108200537D01*
X61275820Y-108259502D01*
X61395518Y-108295812D01*
X61520000Y-108308072D01*
X65480000Y-108308072D01*
X65604482Y-108295812D01*
X65724180Y-108259502D01*
X65790000Y-108224320D01*
X65790001Y-110782554D01*
X65644608Y-110605392D01*
X65397170Y-110402325D01*
X65114869Y-110251432D01*
X64808556Y-110158513D01*
X64569824Y-110135000D01*
X62430176Y-110135000D01*
X62191444Y-110158513D01*
X61885131Y-110251432D01*
X61602830Y-110402325D01*
X61355392Y-110605392D01*
X61152325Y-110852830D01*
X61001432Y-111135131D01*
X60908513Y-111441444D01*
X60877138Y-111760000D01*
X60908513Y-112078556D01*
X61001432Y-112384869D01*
X61152325Y-112667170D01*
X61355392Y-112914608D01*
X61602830Y-113117675D01*
X61885131Y-113268568D01*
X62191444Y-113361487D01*
X62430176Y-113385000D01*
X62624014Y-113385000D01*
X62627805Y-113423490D01*
X62678412Y-113590313D01*
X62760590Y-113744059D01*
X62843468Y-113845046D01*
X62843471Y-113845049D01*
X62871184Y-113878817D01*
X62904951Y-113906529D01*
X63478470Y-114480049D01*
X63506183Y-114513817D01*
X63539951Y-114541530D01*
X63539953Y-114541532D01*
X63640941Y-114624411D01*
X63794686Y-114706589D01*
X63852992Y-114724276D01*
X63961510Y-114757195D01*
X64091523Y-114770000D01*
X64091531Y-114770000D01*
X64135000Y-114774281D01*
X64178469Y-114770000D01*
X65790000Y-114770000D01*
X65790000Y-115782553D01*
X65644608Y-115605392D01*
X65397170Y-115402325D01*
X65114869Y-115251432D01*
X64808556Y-115158513D01*
X64569824Y-115135000D01*
X62430176Y-115135000D01*
X62191444Y-115158513D01*
X61885131Y-115251432D01*
X61602830Y-115402325D01*
X61355392Y-115605392D01*
X61152325Y-115852830D01*
X61001432Y-116135131D01*
X60908513Y-116441444D01*
X60877138Y-116760000D01*
X60908513Y-117078556D01*
X61001432Y-117384869D01*
X61152325Y-117667170D01*
X61355392Y-117914608D01*
X61602830Y-118117675D01*
X61885131Y-118268568D01*
X62191444Y-118361487D01*
X62430176Y-118385000D01*
X62624014Y-118385000D01*
X62627805Y-118423490D01*
X62678412Y-118590313D01*
X62760590Y-118744059D01*
X62843468Y-118845046D01*
X62843471Y-118845049D01*
X62871184Y-118878817D01*
X62904951Y-118906529D01*
X63973470Y-119975049D01*
X64001183Y-120008817D01*
X64034951Y-120036530D01*
X64034953Y-120036532D01*
X64057399Y-120054953D01*
X64135941Y-120119411D01*
X64159359Y-120131928D01*
X61520000Y-120131928D01*
X61395518Y-120144188D01*
X61275820Y-120180498D01*
X61165506Y-120239463D01*
X61068815Y-120318815D01*
X60989463Y-120415506D01*
X60930498Y-120525820D01*
X60894188Y-120645518D01*
X60881928Y-120770000D01*
X60881928Y-122750000D01*
X60894188Y-122874482D01*
X60930498Y-122994180D01*
X60989463Y-123104494D01*
X61068815Y-123201185D01*
X61165506Y-123280537D01*
X61275820Y-123339502D01*
X61395518Y-123375812D01*
X61520000Y-123388072D01*
X62624317Y-123388072D01*
X62627805Y-123423489D01*
X62678411Y-123590312D01*
X62760589Y-123744058D01*
X62871183Y-123878817D01*
X62904956Y-123906534D01*
X62922096Y-123923674D01*
X62949813Y-123957447D01*
X63084571Y-124068041D01*
X63238317Y-124150219D01*
X63405140Y-124200825D01*
X63535153Y-124213630D01*
X63535161Y-124213630D01*
X63578630Y-124217911D01*
X63622099Y-124213630D01*
X74045000Y-124213630D01*
X74045001Y-137751521D01*
X74040719Y-137795000D01*
X74057805Y-137968490D01*
X74108412Y-138135313D01*
X74190590Y-138289059D01*
X74273468Y-138390046D01*
X74273471Y-138390049D01*
X74301184Y-138423817D01*
X74334951Y-138451529D01*
X74908470Y-139025049D01*
X74936183Y-139058817D01*
X74969951Y-139086530D01*
X74969953Y-139086532D01*
X75070941Y-139169411D01*
X75224686Y-139251589D01*
X75391510Y-139302195D01*
X75521523Y-139315000D01*
X75521531Y-139315000D01*
X75565000Y-139319281D01*
X75608469Y-139315000D01*
X89921531Y-139315000D01*
X89965000Y-139319281D01*
X90008469Y-139315000D01*
X90008477Y-139315000D01*
X90138490Y-139302195D01*
X90305313Y-139251589D01*
X90459059Y-139169411D01*
X90593817Y-139058817D01*
X90621534Y-139025044D01*
X92670050Y-136976529D01*
X92703817Y-136948817D01*
X92814411Y-136814059D01*
X92814412Y-136814058D01*
X92896589Y-136660314D01*
X92947195Y-136493490D01*
X92955230Y-136411904D01*
X92960000Y-136363477D01*
X92960000Y-136363469D01*
X92964281Y-136320000D01*
X92960000Y-136276531D01*
X92960000Y-136150078D01*
X93094608Y-136039608D01*
X93273932Y-135821101D01*
X93345000Y-135688142D01*
X93416068Y-135821101D01*
X93595393Y-136039608D01*
X93813900Y-136218932D01*
X94063193Y-136352182D01*
X94333692Y-136434236D01*
X94615000Y-136461943D01*
X94896309Y-136434236D01*
X95166808Y-136352182D01*
X95416101Y-136218932D01*
X95634608Y-136039608D01*
X95813932Y-135821101D01*
X95882265Y-135693259D01*
X96032399Y-135922839D01*
X96230105Y-136124500D01*
X96463354Y-136283715D01*
X96723182Y-136394367D01*
X96805961Y-136411904D01*
X97028000Y-136289915D01*
X97028000Y-134747000D01*
X97008000Y-134747000D01*
X97008000Y-134493000D01*
X97028000Y-134493000D01*
X97028000Y-134473000D01*
X97282000Y-134473000D01*
X97282000Y-134493000D01*
X97302000Y-134493000D01*
X97302000Y-134747000D01*
X97282000Y-134747000D01*
X97282000Y-136289915D01*
X97504039Y-136411904D01*
X97586818Y-136394367D01*
X97846646Y-136283715D01*
X98079895Y-136124500D01*
X98277601Y-135922839D01*
X98300000Y-135888587D01*
X98300000Y-136210198D01*
X96840199Y-137670000D01*
X94017322Y-137670000D01*
X93979999Y-137666324D01*
X93942676Y-137670000D01*
X93942667Y-137670000D01*
X93831014Y-137680997D01*
X93687753Y-137724454D01*
X93555724Y-137795026D01*
X93555722Y-137795027D01*
X93555723Y-137795027D01*
X93468996Y-137866201D01*
X93468992Y-137866205D01*
X93439999Y-137889999D01*
X93416205Y-137918992D01*
X91125199Y-140210000D01*
X74609803Y-140210000D01*
X72515000Y-138115199D01*
X72515000Y-127703711D01*
X72558937Y-127659774D01*
X72672205Y-127490256D01*
X72750226Y-127301898D01*
X72790000Y-127101939D01*
X72790000Y-126898061D01*
X72750226Y-126698102D01*
X72672205Y-126509744D01*
X72558937Y-126340226D01*
X72414774Y-126196063D01*
X72245256Y-126082795D01*
X72056898Y-126004774D01*
X71856939Y-125965000D01*
X71653061Y-125965000D01*
X71453102Y-126004774D01*
X71264744Y-126082795D01*
X71095226Y-126196063D01*
X70951063Y-126340226D01*
X70837795Y-126509744D01*
X70759774Y-126698102D01*
X70720000Y-126898061D01*
X70720000Y-127101939D01*
X70759774Y-127301898D01*
X70837795Y-127490256D01*
X70951063Y-127659774D01*
X70995000Y-127703711D01*
X70995001Y-138392668D01*
X70991324Y-138430000D01*
X70995001Y-138467333D01*
X71005998Y-138578986D01*
X71013431Y-138603490D01*
X71049454Y-138722246D01*
X71120026Y-138854276D01*
X71177296Y-138924059D01*
X71215000Y-138970001D01*
X71243998Y-138993799D01*
X73731205Y-141481008D01*
X73754999Y-141510001D01*
X73783992Y-141533795D01*
X73783996Y-141533799D01*
X73854685Y-141591811D01*
X73870724Y-141604974D01*
X74002753Y-141675546D01*
X74146014Y-141719003D01*
X74257667Y-141730000D01*
X74257676Y-141730000D01*
X74294999Y-141733676D01*
X74332322Y-141730000D01*
X91402678Y-141730000D01*
X91440000Y-141733676D01*
X91477322Y-141730000D01*
X91477333Y-141730000D01*
X91588986Y-141719003D01*
X91732247Y-141675546D01*
X91864276Y-141604974D01*
X91980001Y-141510001D01*
X92003804Y-141480997D01*
X93704930Y-139779872D01*
X124765000Y-139779872D01*
X124765000Y-140220128D01*
X124850890Y-140651925D01*
X125019369Y-141058669D01*
X125263962Y-141424729D01*
X125575271Y-141736038D01*
X125941331Y-141980631D01*
X126348075Y-142149110D01*
X126779872Y-142235000D01*
X127220128Y-142235000D01*
X127651925Y-142149110D01*
X128058669Y-141980631D01*
X128424729Y-141736038D01*
X128736038Y-141424729D01*
X128980631Y-141058669D01*
X129149110Y-140651925D01*
X129235000Y-140220128D01*
X129235000Y-139779872D01*
X129149110Y-139348075D01*
X128980631Y-138941331D01*
X128736038Y-138575271D01*
X128424729Y-138263962D01*
X128058669Y-138019369D01*
X127651925Y-137850890D01*
X127220128Y-137765000D01*
X126779872Y-137765000D01*
X126348075Y-137850890D01*
X125941331Y-138019369D01*
X125575271Y-138263962D01*
X125263962Y-138575271D01*
X125019369Y-138941331D01*
X124850890Y-139348075D01*
X124765000Y-139779872D01*
X93704930Y-139779872D01*
X94294803Y-139190000D01*
X97117678Y-139190000D01*
X97155000Y-139193676D01*
X97192322Y-139190000D01*
X97192333Y-139190000D01*
X97303986Y-139179003D01*
X97447247Y-139135546D01*
X97579276Y-139064974D01*
X97695001Y-138970001D01*
X97718804Y-138940997D01*
X99571004Y-137088798D01*
X99600001Y-137065001D01*
X99694974Y-136949276D01*
X99765546Y-136817247D01*
X99809003Y-136673986D01*
X99820000Y-136562333D01*
X99820000Y-136562323D01*
X99823676Y-136525000D01*
X99820000Y-136487677D01*
X99820000Y-134299801D01*
X101279802Y-132840000D01*
X105372678Y-132840000D01*
X105410000Y-132843676D01*
X105447322Y-132840000D01*
X105447333Y-132840000D01*
X105558986Y-132829003D01*
X105702247Y-132785546D01*
X105834276Y-132714974D01*
X105950001Y-132620001D01*
X105973803Y-132590998D01*
X106359802Y-132205000D01*
X109182678Y-132205000D01*
X109220000Y-132208676D01*
X109257322Y-132205000D01*
X109257333Y-132205000D01*
X109368986Y-132194003D01*
X109512247Y-132150546D01*
X109644276Y-132079974D01*
X109760001Y-131985001D01*
X109783804Y-131955997D01*
X112271009Y-129468794D01*
X112300001Y-129445001D01*
X112323795Y-129416008D01*
X112323799Y-129416004D01*
X112394973Y-129329277D01*
X112394974Y-129329276D01*
X112465546Y-129197247D01*
X112509003Y-129053986D01*
X112520000Y-128942333D01*
X112520000Y-128942324D01*
X112523676Y-128905001D01*
X112520000Y-128867678D01*
X112520000Y-93024801D01*
X113344802Y-92200000D01*
X120970199Y-92200000D01*
X121160000Y-92389802D01*
X121160001Y-99657668D01*
X121156324Y-99695000D01*
X121160001Y-99732333D01*
X121170245Y-99836335D01*
X121170998Y-99843985D01*
X121214454Y-99987246D01*
X121285026Y-100119276D01*
X121342296Y-100189059D01*
X121380000Y-100235001D01*
X121408998Y-100258799D01*
X122426312Y-101276114D01*
X122390000Y-101458665D01*
X122390000Y-101741335D01*
X122445147Y-102018574D01*
X122553320Y-102279727D01*
X122710363Y-102514759D01*
X122910241Y-102714637D01*
X123142759Y-102870000D01*
X122910241Y-103025363D01*
X122710363Y-103225241D01*
X122553320Y-103460273D01*
X122445147Y-103721426D01*
X122390000Y-103998665D01*
X122390000Y-104281335D01*
X122445147Y-104558574D01*
X122553320Y-104819727D01*
X122710363Y-105054759D01*
X122910241Y-105254637D01*
X123142759Y-105410000D01*
X122910241Y-105565363D01*
X122710363Y-105765241D01*
X122553320Y-106000273D01*
X122445147Y-106261426D01*
X122390000Y-106538665D01*
X122390000Y-106821335D01*
X122445147Y-107098574D01*
X122553320Y-107359727D01*
X122710363Y-107594759D01*
X122910241Y-107794637D01*
X123142759Y-107950000D01*
X122910241Y-108105363D01*
X122710363Y-108305241D01*
X122553320Y-108540273D01*
X122445147Y-108801426D01*
X122390000Y-109078665D01*
X122390000Y-109361335D01*
X122445147Y-109638574D01*
X122553320Y-109899727D01*
X122710363Y-110134759D01*
X122910241Y-110334637D01*
X123142759Y-110490000D01*
X122910241Y-110645363D01*
X122710363Y-110845241D01*
X122553320Y-111080273D01*
X122445147Y-111341426D01*
X122390000Y-111618665D01*
X122390000Y-111901335D01*
X122445147Y-112178574D01*
X122553320Y-112439727D01*
X122710363Y-112674759D01*
X122910241Y-112874637D01*
X123142759Y-113030000D01*
X122910241Y-113185363D01*
X122710363Y-113385241D01*
X122553320Y-113620273D01*
X122445147Y-113881426D01*
X122390000Y-114158665D01*
X122390000Y-114441335D01*
X122445147Y-114718574D01*
X122553320Y-114979727D01*
X122710363Y-115214759D01*
X122910241Y-115414637D01*
X123142759Y-115570000D01*
X122910241Y-115725363D01*
X122710363Y-115925241D01*
X122553320Y-116160273D01*
X122445147Y-116421426D01*
X122390000Y-116698665D01*
X122390000Y-116981335D01*
X122445147Y-117258574D01*
X122553320Y-117519727D01*
X122710363Y-117754759D01*
X122910241Y-117954637D01*
X123142759Y-118110000D01*
X122910241Y-118265363D01*
X122710363Y-118465241D01*
X122553320Y-118700273D01*
X122445147Y-118961426D01*
X122390000Y-119238665D01*
X122390000Y-119521335D01*
X122445147Y-119798574D01*
X122553320Y-120059727D01*
X122710363Y-120294759D01*
X122910241Y-120494637D01*
X123142759Y-120650000D01*
X122910241Y-120805363D01*
X122710363Y-121005241D01*
X122553320Y-121240273D01*
X122445147Y-121501426D01*
X122390000Y-121778665D01*
X122390000Y-122061335D01*
X122445147Y-122338574D01*
X122553320Y-122599727D01*
X122710363Y-122834759D01*
X122910241Y-123034637D01*
X123142759Y-123190000D01*
X122910241Y-123345363D01*
X122710363Y-123545241D01*
X122553320Y-123780273D01*
X122445147Y-124041426D01*
X122390000Y-124318665D01*
X122390000Y-124601335D01*
X122445147Y-124878574D01*
X122553320Y-125139727D01*
X122710363Y-125374759D01*
X122910241Y-125574637D01*
X123142759Y-125730000D01*
X122910241Y-125885363D01*
X122710363Y-126085241D01*
X122553320Y-126320273D01*
X122445147Y-126581426D01*
X122390000Y-126858665D01*
X122390000Y-127141335D01*
X122445147Y-127418574D01*
X122553320Y-127679727D01*
X122710363Y-127914759D01*
X122910241Y-128114637D01*
X123142759Y-128270000D01*
X122910241Y-128425363D01*
X122710363Y-128625241D01*
X122553320Y-128860273D01*
X122445147Y-129121426D01*
X122390000Y-129398665D01*
X122390000Y-129681335D01*
X122445147Y-129958574D01*
X122553320Y-130219727D01*
X122710363Y-130454759D01*
X122910241Y-130654637D01*
X123145273Y-130811680D01*
X123406426Y-130919853D01*
X123683665Y-130975000D01*
X123966335Y-130975000D01*
X124243574Y-130919853D01*
X124504727Y-130811680D01*
X124739759Y-130654637D01*
X124939637Y-130454759D01*
X125046519Y-130294798D01*
X125105356Y-130289003D01*
X125248617Y-130245546D01*
X125380646Y-130174974D01*
X125496371Y-130080001D01*
X125520174Y-130050997D01*
X128146004Y-127425168D01*
X128175001Y-127401371D01*
X128225110Y-127340313D01*
X128269974Y-127285647D01*
X128340546Y-127153617D01*
X128344272Y-127141335D01*
X128384003Y-127010356D01*
X128395000Y-126898703D01*
X128395000Y-126898693D01*
X128398676Y-126861370D01*
X128395000Y-126824047D01*
X128395000Y-117789801D01*
X129416004Y-116768798D01*
X129445001Y-116745001D01*
X129539974Y-116629276D01*
X129610546Y-116497247D01*
X129654003Y-116353986D01*
X129665000Y-116242333D01*
X129665000Y-116242324D01*
X129668676Y-116205001D01*
X129665000Y-116167678D01*
X129665000Y-115788072D01*
X129755000Y-115788072D01*
X129879482Y-115775812D01*
X129999180Y-115739502D01*
X130109494Y-115680537D01*
X130206185Y-115601185D01*
X130285537Y-115504494D01*
X130344502Y-115394180D01*
X130380812Y-115274482D01*
X130393072Y-115150000D01*
X130393072Y-113450000D01*
X130380812Y-113325518D01*
X130344502Y-113205820D01*
X130285537Y-113095506D01*
X130206185Y-112998815D01*
X130109494Y-112919463D01*
X129999180Y-112860498D01*
X129926620Y-112838487D01*
X130058475Y-112706632D01*
X130220990Y-112463411D01*
X130332932Y-112193158D01*
X130390000Y-111906260D01*
X130390000Y-111613740D01*
X130332932Y-111326842D01*
X130220990Y-111056589D01*
X130058475Y-110813368D01*
X129851632Y-110606525D01*
X129677240Y-110490000D01*
X129851632Y-110373475D01*
X130058475Y-110166632D01*
X130220990Y-109923411D01*
X130332932Y-109653158D01*
X130390000Y-109366260D01*
X130390000Y-109073740D01*
X130332932Y-108786842D01*
X130220990Y-108516589D01*
X130058475Y-108273368D01*
X129851632Y-108066525D01*
X129677240Y-107950000D01*
X129851632Y-107833475D01*
X130058475Y-107626632D01*
X130220990Y-107383411D01*
X130332932Y-107113158D01*
X130390000Y-106826260D01*
X130390000Y-106533740D01*
X130332932Y-106246842D01*
X130220990Y-105976589D01*
X130058475Y-105733368D01*
X129851632Y-105526525D01*
X129677240Y-105410000D01*
X129851632Y-105293475D01*
X130058475Y-105086632D01*
X130220990Y-104843411D01*
X130332932Y-104573158D01*
X130390000Y-104286260D01*
X130390000Y-103993740D01*
X130332932Y-103706842D01*
X130220990Y-103436589D01*
X130058475Y-103193368D01*
X129851632Y-102986525D01*
X129677240Y-102870000D01*
X129851632Y-102753475D01*
X130058475Y-102546632D01*
X130220990Y-102303411D01*
X130332932Y-102033158D01*
X130390000Y-101746260D01*
X130390000Y-101453740D01*
X130346209Y-101233592D01*
X130683000Y-100896801D01*
X130683000Y-143383000D01*
X59182000Y-143383000D01*
X59182000Y-139779872D01*
X61765000Y-139779872D01*
X61765000Y-140220128D01*
X61850890Y-140651925D01*
X62019369Y-141058669D01*
X62263962Y-141424729D01*
X62575271Y-141736038D01*
X62941331Y-141980631D01*
X63348075Y-142149110D01*
X63779872Y-142235000D01*
X64220128Y-142235000D01*
X64651925Y-142149110D01*
X65058669Y-141980631D01*
X65424729Y-141736038D01*
X65736038Y-141424729D01*
X65980631Y-141058669D01*
X66149110Y-140651925D01*
X66235000Y-140220128D01*
X66235000Y-139779872D01*
X66149110Y-139348075D01*
X65980631Y-138941331D01*
X65736038Y-138575271D01*
X65424729Y-138263962D01*
X65058669Y-138019369D01*
X64651925Y-137850890D01*
X64220128Y-137765000D01*
X63779872Y-137765000D01*
X63348075Y-137850890D01*
X62941331Y-138019369D01*
X62575271Y-138263962D01*
X62263962Y-138575271D01*
X62019369Y-138941331D01*
X61850890Y-139348075D01*
X61765000Y-139779872D01*
X59182000Y-139779872D01*
X59182000Y-130975000D01*
X64601928Y-130975000D01*
X64614188Y-131099482D01*
X64650498Y-131219180D01*
X64709463Y-131329494D01*
X64788815Y-131426185D01*
X64805393Y-131439790D01*
X64768320Y-131495273D01*
X64660147Y-131756426D01*
X64605000Y-132033665D01*
X64605000Y-132316335D01*
X64660147Y-132593574D01*
X64768320Y-132854727D01*
X64925363Y-133089759D01*
X65125241Y-133289637D01*
X65360273Y-133446680D01*
X65621426Y-133554853D01*
X65898665Y-133610000D01*
X66181335Y-133610000D01*
X66458574Y-133554853D01*
X66719727Y-133446680D01*
X66954759Y-133289637D01*
X67154637Y-133089759D01*
X67311680Y-132854727D01*
X67419853Y-132593574D01*
X67475000Y-132316335D01*
X67475000Y-132033665D01*
X67419853Y-131756426D01*
X67311680Y-131495273D01*
X67274607Y-131439790D01*
X67291185Y-131426185D01*
X67370537Y-131329494D01*
X67429502Y-131219180D01*
X67465812Y-131099482D01*
X67478072Y-130975000D01*
X67475000Y-130460750D01*
X67316250Y-130302000D01*
X66167000Y-130302000D01*
X66167000Y-130322000D01*
X65913000Y-130322000D01*
X65913000Y-130302000D01*
X64763750Y-130302000D01*
X64605000Y-130460750D01*
X64601928Y-130975000D01*
X59182000Y-130975000D01*
X59182000Y-129375000D01*
X64601928Y-129375000D01*
X64605000Y-129889250D01*
X64763750Y-130048000D01*
X65913000Y-130048000D01*
X65913000Y-128898750D01*
X66167000Y-128898750D01*
X66167000Y-130048000D01*
X67316250Y-130048000D01*
X67475000Y-129889250D01*
X67478072Y-129375000D01*
X67465812Y-129250518D01*
X67429502Y-129130820D01*
X67370537Y-129020506D01*
X67291185Y-128923815D01*
X67194494Y-128844463D01*
X67084180Y-128785498D01*
X66964482Y-128749188D01*
X66840000Y-128736928D01*
X66325750Y-128740000D01*
X66167000Y-128898750D01*
X65913000Y-128898750D01*
X65754250Y-128740000D01*
X65240000Y-128736928D01*
X65115518Y-128749188D01*
X64995820Y-128785498D01*
X64885506Y-128844463D01*
X64788815Y-128923815D01*
X64709463Y-129020506D01*
X64650498Y-129130820D01*
X64614188Y-129250518D01*
X64601928Y-129375000D01*
X59182000Y-129375000D01*
X59182000Y-76779872D01*
X61765000Y-76779872D01*
X61765000Y-77220128D01*
X61850890Y-77651925D01*
X62019369Y-78058669D01*
X62263962Y-78424729D01*
X62575271Y-78736038D01*
X62941331Y-78980631D01*
X63348075Y-79149110D01*
X63779872Y-79235000D01*
X64220128Y-79235000D01*
X64651925Y-79149110D01*
X65058669Y-78980631D01*
X65424729Y-78736038D01*
X65736038Y-78424729D01*
X65980631Y-78058669D01*
X66149110Y-77651925D01*
X66235000Y-77220128D01*
X66235000Y-76779872D01*
X124765000Y-76779872D01*
X124765000Y-77220128D01*
X124850890Y-77651925D01*
X125019369Y-78058669D01*
X125263962Y-78424729D01*
X125575271Y-78736038D01*
X125941331Y-78980631D01*
X126348075Y-79149110D01*
X126779872Y-79235000D01*
X127220128Y-79235000D01*
X127651925Y-79149110D01*
X128058669Y-78980631D01*
X128424729Y-78736038D01*
X128736038Y-78424729D01*
X128980631Y-78058669D01*
X129149110Y-77651925D01*
X129235000Y-77220128D01*
X129235000Y-76779872D01*
X129149110Y-76348075D01*
X128980631Y-75941331D01*
X128736038Y-75575271D01*
X128424729Y-75263962D01*
X128058669Y-75019369D01*
X127651925Y-74850890D01*
X127220128Y-74765000D01*
X126779872Y-74765000D01*
X126348075Y-74850890D01*
X125941331Y-75019369D01*
X125575271Y-75263962D01*
X125263962Y-75575271D01*
X125019369Y-75941331D01*
X124850890Y-76348075D01*
X124765000Y-76779872D01*
X66235000Y-76779872D01*
X66149110Y-76348075D01*
X65980631Y-75941331D01*
X65736038Y-75575271D01*
X65424729Y-75263962D01*
X65058669Y-75019369D01*
X64651925Y-74850890D01*
X64220128Y-74765000D01*
X63779872Y-74765000D01*
X63348075Y-74850890D01*
X62941331Y-75019369D01*
X62575271Y-75263962D01*
X62263962Y-75575271D01*
X62019369Y-75941331D01*
X61850890Y-76348075D01*
X61765000Y-76779872D01*
X59182000Y-76779872D01*
X59182000Y-74422000D01*
X130683000Y-74422000D01*
X130683000Y-90238198D01*
G37*
X130683000Y-90238198D02*
X129468804Y-89024003D01*
X129445001Y-88994999D01*
X129329276Y-88900026D01*
X129197247Y-88829454D01*
X129053986Y-88785997D01*
X128942333Y-88775000D01*
X128942322Y-88775000D01*
X128905000Y-88771324D01*
X128867678Y-88775000D01*
X113979802Y-88775000D01*
X113790000Y-88585199D01*
X113790000Y-80047323D01*
X113793676Y-80010000D01*
X113790000Y-79972677D01*
X113790000Y-79972667D01*
X113779003Y-79861014D01*
X113735546Y-79717753D01*
X113664974Y-79585724D01*
X113570001Y-79469999D01*
X113541004Y-79446202D01*
X111688804Y-77594003D01*
X111665001Y-77564999D01*
X111549276Y-77470026D01*
X111417247Y-77399454D01*
X111273986Y-77355997D01*
X111162333Y-77345000D01*
X111162322Y-77345000D01*
X111125000Y-77341324D01*
X111087678Y-77345000D01*
X102907323Y-77345000D01*
X102870000Y-77341324D01*
X102832677Y-77345000D01*
X102832667Y-77345000D01*
X102721014Y-77355997D01*
X102577753Y-77399454D01*
X102445724Y-77470026D01*
X102329999Y-77564999D01*
X102306201Y-77593997D01*
X100650199Y-79250000D01*
X80078711Y-79250000D01*
X80034774Y-79206063D01*
X79865256Y-79092795D01*
X79676898Y-79014774D01*
X79476939Y-78975000D01*
X79273061Y-78975000D01*
X79073102Y-79014774D01*
X78884744Y-79092795D01*
X78715226Y-79206063D01*
X78571063Y-79350226D01*
X78457795Y-79519744D01*
X78379774Y-79708102D01*
X78340000Y-79908061D01*
X78340000Y-80111939D01*
X78379774Y-80311898D01*
X78457795Y-80500256D01*
X78571063Y-80669774D01*
X78715226Y-80813937D01*
X78884744Y-80927205D01*
X79073102Y-81005226D01*
X79273061Y-81045000D01*
X79476939Y-81045000D01*
X79676898Y-81005226D01*
X79865256Y-80927205D01*
X80034774Y-80813937D01*
X80078711Y-80770000D01*
X100927678Y-80770000D01*
X100965000Y-80773676D01*
X101002322Y-80770000D01*
X101002333Y-80770000D01*
X101113986Y-80759003D01*
X101257247Y-80715546D01*
X101389276Y-80644974D01*
X101505001Y-80550001D01*
X101528804Y-80520997D01*
X103184802Y-78865000D01*
X103955532Y-78865000D01*
X103889463Y-78945506D01*
X103830498Y-79055820D01*
X103794188Y-79175518D01*
X103781928Y-79300000D01*
X103785000Y-80994250D01*
X103943750Y-81153000D01*
X105283000Y-81153000D01*
X105283000Y-81133000D01*
X105537000Y-81133000D01*
X105537000Y-81153000D01*
X106876250Y-81153000D01*
X107035000Y-80994250D01*
X107038072Y-79300000D01*
X107025812Y-79175518D01*
X106989502Y-79055820D01*
X106930537Y-78945506D01*
X106864468Y-78865000D01*
X109628786Y-78865000D01*
X109502830Y-78932325D01*
X109255392Y-79135392D01*
X109052325Y-79382831D01*
X108901432Y-79665132D01*
X108808513Y-79971445D01*
X108785000Y-80210177D01*
X108785001Y-82349824D01*
X108808514Y-82588556D01*
X108901433Y-82894869D01*
X109052326Y-83177170D01*
X109255393Y-83424608D01*
X109502831Y-83627675D01*
X109785132Y-83778568D01*
X110091445Y-83871487D01*
X110410000Y-83902862D01*
X110728556Y-83871487D01*
X111034869Y-83778568D01*
X111317170Y-83627675D01*
X111564608Y-83424608D01*
X111767675Y-83177170D01*
X111918568Y-82894869D01*
X112011487Y-82588556D01*
X112035000Y-82349824D01*
X112035000Y-80210176D01*
X112021849Y-80076651D01*
X112270000Y-80324802D01*
X112270001Y-88862668D01*
X112266324Y-88900000D01*
X112270001Y-88937333D01*
X112280998Y-89048986D01*
X112292405Y-89086589D01*
X112324454Y-89192246D01*
X112395026Y-89324276D01*
X112452296Y-89394059D01*
X112490000Y-89440001D01*
X112518998Y-89463799D01*
X113100198Y-90045000D01*
X111162322Y-90045000D01*
X111124999Y-90041324D01*
X111087676Y-90045000D01*
X111087667Y-90045000D01*
X110976014Y-90055997D01*
X110834912Y-90098799D01*
X110832753Y-90099454D01*
X110700723Y-90170026D01*
X110617083Y-90238668D01*
X110584999Y-90264999D01*
X110561201Y-90293997D01*
X109840368Y-91014831D01*
X109811370Y-91038629D01*
X109787572Y-91067627D01*
X109787571Y-91067628D01*
X109716396Y-91154354D01*
X109645824Y-91286384D01*
X109620825Y-91368799D01*
X109602368Y-91429644D01*
X109591991Y-91534999D01*
X109587694Y-91578630D01*
X109591371Y-91615962D01*
X109591371Y-92579029D01*
X109509482Y-92554188D01*
X109385000Y-92541928D01*
X107785000Y-92541928D01*
X107660518Y-92554188D01*
X107540820Y-92590498D01*
X107430506Y-92649463D01*
X107333815Y-92728815D01*
X107254463Y-92825506D01*
X107195498Y-92935820D01*
X107159188Y-93055518D01*
X107146928Y-93180000D01*
X107146928Y-94780000D01*
X107159188Y-94904482D01*
X107195498Y-95024180D01*
X107254463Y-95134494D01*
X107333815Y-95231185D01*
X107430506Y-95310537D01*
X107540820Y-95369502D01*
X107660518Y-95405812D01*
X107668961Y-95406643D01*
X107470363Y-95605241D01*
X107313320Y-95840273D01*
X107205147Y-96101426D01*
X107150000Y-96378665D01*
X107150000Y-96661335D01*
X107205147Y-96938574D01*
X107313320Y-97199727D01*
X107470363Y-97434759D01*
X107670241Y-97634637D01*
X107902759Y-97790000D01*
X107670241Y-97945363D01*
X107470363Y-98145241D01*
X107313320Y-98380273D01*
X107205147Y-98641426D01*
X107150000Y-98918665D01*
X107150000Y-99201335D01*
X107205147Y-99478574D01*
X107313320Y-99739727D01*
X107470363Y-99974759D01*
X107670241Y-100174637D01*
X107902759Y-100330000D01*
X107670241Y-100485363D01*
X107470363Y-100685241D01*
X107313320Y-100920273D01*
X107205147Y-101181426D01*
X107150000Y-101458665D01*
X107150000Y-101741335D01*
X107205147Y-102018574D01*
X107313320Y-102279727D01*
X107470363Y-102514759D01*
X107670241Y-102714637D01*
X107902759Y-102870000D01*
X107670241Y-103025363D01*
X107470363Y-103225241D01*
X107313320Y-103460273D01*
X107205147Y-103721426D01*
X107150000Y-103998665D01*
X107150000Y-104281335D01*
X107205147Y-104558574D01*
X107243017Y-104650000D01*
X104454802Y-104650000D01*
X103630000Y-103825199D01*
X103630000Y-94929801D01*
X105286003Y-93273799D01*
X105315001Y-93250001D01*
X105409974Y-93134276D01*
X105480546Y-93002247D01*
X105524003Y-92858986D01*
X105535000Y-92747333D01*
X105535000Y-92747323D01*
X105538676Y-92710000D01*
X105535000Y-92672677D01*
X105535000Y-91508711D01*
X105578937Y-91464774D01*
X105692205Y-91295256D01*
X105770226Y-91106898D01*
X105810000Y-90906939D01*
X105810000Y-90703061D01*
X105770226Y-90503102D01*
X105692205Y-90314744D01*
X105578937Y-90145226D01*
X105434774Y-90001063D01*
X105265256Y-89887795D01*
X105076898Y-89809774D01*
X104876939Y-89770000D01*
X104673061Y-89770000D01*
X104473102Y-89809774D01*
X104284744Y-89887795D01*
X104115226Y-90001063D01*
X103971063Y-90145226D01*
X103857795Y-90314744D01*
X103779774Y-90503102D01*
X103740000Y-90703061D01*
X103740000Y-90906939D01*
X103773039Y-91073039D01*
X103606939Y-91040000D01*
X103403061Y-91040000D01*
X103203102Y-91079774D01*
X103014744Y-91157795D01*
X102995000Y-91170987D01*
X102995000Y-88968711D01*
X103038937Y-88924774D01*
X103152205Y-88755256D01*
X103230226Y-88566898D01*
X103270000Y-88366939D01*
X103270000Y-88163061D01*
X103230226Y-87963102D01*
X103152205Y-87774744D01*
X103038937Y-87605226D01*
X102894774Y-87461063D01*
X102725256Y-87347795D01*
X102536898Y-87269774D01*
X102336939Y-87230000D01*
X102133061Y-87230000D01*
X101933102Y-87269774D01*
X101744744Y-87347795D01*
X101575226Y-87461063D01*
X101431063Y-87605226D01*
X101317795Y-87774744D01*
X101239774Y-87963102D01*
X101200000Y-88163061D01*
X101200000Y-88366939D01*
X101233039Y-88533039D01*
X101066939Y-88500000D01*
X100863061Y-88500000D01*
X100663102Y-88539774D01*
X100474744Y-88617795D01*
X100455000Y-88630987D01*
X100455000Y-87032333D01*
X100458677Y-86995000D01*
X100444003Y-86846014D01*
X100400546Y-86702753D01*
X100329974Y-86570724D01*
X100258799Y-86483997D01*
X100235001Y-86454999D01*
X100206002Y-86431200D01*
X99623803Y-85849002D01*
X99600001Y-85819999D01*
X99484276Y-85725026D01*
X99352247Y-85654454D01*
X99208986Y-85610997D01*
X99097333Y-85600000D01*
X99097322Y-85600000D01*
X99060000Y-85596324D01*
X99022678Y-85600000D01*
X98545366Y-85600000D01*
X98487182Y-85408192D01*
X98353932Y-85158899D01*
X98174607Y-84940392D01*
X97956100Y-84761068D01*
X97706807Y-84627818D01*
X97436308Y-84545764D01*
X97155000Y-84518057D01*
X96873691Y-84545764D01*
X96603192Y-84627818D01*
X96353899Y-84761068D01*
X96135392Y-84940393D01*
X95956068Y-85158900D01*
X95885000Y-85291858D01*
X95813932Y-85158899D01*
X95634607Y-84940392D01*
X95416100Y-84761068D01*
X95166807Y-84627818D01*
X94896308Y-84545764D01*
X94615000Y-84518057D01*
X94333691Y-84545764D01*
X94063192Y-84627818D01*
X93813899Y-84761068D01*
X93595392Y-84940393D01*
X93416068Y-85158900D01*
X93345000Y-85291858D01*
X93273932Y-85158899D01*
X93094607Y-84940392D01*
X92960000Y-84829923D01*
X92960000Y-84703469D01*
X92964281Y-84660000D01*
X92960000Y-84616531D01*
X92960000Y-84616523D01*
X92947195Y-84486510D01*
X92905963Y-84350589D01*
X92896589Y-84319686D01*
X92814411Y-84165941D01*
X92731532Y-84064953D01*
X92731530Y-84064951D01*
X92703817Y-84031183D01*
X92670050Y-84003471D01*
X91926579Y-83260000D01*
X103781928Y-83260000D01*
X103794188Y-83384482D01*
X103830498Y-83504180D01*
X103889463Y-83614494D01*
X103968815Y-83711185D01*
X104065506Y-83790537D01*
X104175820Y-83849502D01*
X104295518Y-83885812D01*
X104420000Y-83898072D01*
X105124250Y-83895000D01*
X105283000Y-83736250D01*
X105283000Y-81407000D01*
X105537000Y-81407000D01*
X105537000Y-83736250D01*
X105695750Y-83895000D01*
X106400000Y-83898072D01*
X106524482Y-83885812D01*
X106644180Y-83849502D01*
X106754494Y-83790537D01*
X106851185Y-83711185D01*
X106930537Y-83614494D01*
X106989502Y-83504180D01*
X107025812Y-83384482D01*
X107038072Y-83260000D01*
X107035000Y-81565750D01*
X106876250Y-81407000D01*
X105537000Y-81407000D01*
X105283000Y-81407000D01*
X103943750Y-81407000D01*
X103785000Y-81565750D01*
X103781928Y-83260000D01*
X91926579Y-83260000D01*
X90621534Y-81954956D01*
X90593817Y-81921183D01*
X90459059Y-81810589D01*
X90305313Y-81728411D01*
X90138490Y-81677805D01*
X90008477Y-81665000D01*
X90008469Y-81665000D01*
X89965000Y-81660719D01*
X89921531Y-81665000D01*
X77513469Y-81665000D01*
X77470000Y-81660719D01*
X77426531Y-81665000D01*
X77426523Y-81665000D01*
X77296510Y-81677805D01*
X77129687Y-81728411D01*
X76975941Y-81810589D01*
X76874953Y-81893468D01*
X76874951Y-81893470D01*
X76841183Y-81921183D01*
X76813470Y-81954951D01*
X74969951Y-83798471D01*
X74936184Y-83826183D01*
X74908471Y-83859951D01*
X74908468Y-83859954D01*
X74825590Y-83960941D01*
X74743412Y-84114687D01*
X74692805Y-84281510D01*
X74675719Y-84455000D01*
X74680001Y-84498479D01*
X74680000Y-85635000D01*
X65859525Y-85635000D01*
X65847675Y-85612830D01*
X65644608Y-85365392D01*
X65397170Y-85162325D01*
X65114869Y-85011432D01*
X64808556Y-84918513D01*
X64569824Y-84895000D01*
X62430176Y-84895000D01*
X62191444Y-84918513D01*
X61885131Y-85011432D01*
X61602830Y-85162325D01*
X61355392Y-85365392D01*
X61152325Y-85612830D01*
X61001432Y-85895131D01*
X60908513Y-86201444D01*
X60877138Y-86520000D01*
X60908513Y-86838556D01*
X61001432Y-87144869D01*
X61152325Y-87427170D01*
X61355392Y-87674608D01*
X61602830Y-87877675D01*
X61885131Y-88028568D01*
X62191444Y-88121487D01*
X62430176Y-88145000D01*
X64165106Y-88145000D01*
X64135941Y-88160589D01*
X64135939Y-88160590D01*
X64135940Y-88160590D01*
X64034953Y-88243468D01*
X64034951Y-88243470D01*
X64001183Y-88271183D01*
X63973470Y-88304951D01*
X62904951Y-89373471D01*
X62871184Y-89401183D01*
X62843471Y-89434951D01*
X62843468Y-89434954D01*
X62760590Y-89535941D01*
X62678412Y-89689687D01*
X62627805Y-89856510D01*
X62624014Y-89895000D01*
X62430176Y-89895000D01*
X62191444Y-89918513D01*
X61885131Y-90011432D01*
X61602830Y-90162325D01*
X61355392Y-90365392D01*
X61152325Y-90612830D01*
X61001432Y-90895131D01*
X60908513Y-91201444D01*
X60877138Y-91520000D01*
X60908513Y-91838556D01*
X61001432Y-92144869D01*
X61152325Y-92427170D01*
X61355392Y-92674608D01*
X61602830Y-92877675D01*
X61885131Y-93028568D01*
X62191444Y-93121487D01*
X62430176Y-93145000D01*
X64569824Y-93145000D01*
X64808556Y-93121487D01*
X65114869Y-93028568D01*
X65397170Y-92877675D01*
X65644608Y-92674608D01*
X65847675Y-92427170D01*
X65998568Y-92144869D01*
X66091487Y-91838556D01*
X66122862Y-91520000D01*
X66091487Y-91201444D01*
X65998568Y-90895131D01*
X65847675Y-90612830D01*
X65644608Y-90365392D01*
X65397170Y-90162325D01*
X65114869Y-90011432D01*
X64850379Y-89931200D01*
X64996579Y-89785000D01*
X65996531Y-89785000D01*
X66040000Y-89789281D01*
X66083469Y-89785000D01*
X66083477Y-89785000D01*
X66213490Y-89772195D01*
X66380313Y-89721589D01*
X66534059Y-89639411D01*
X66668817Y-89528817D01*
X66696534Y-89495044D01*
X67676579Y-88515000D01*
X73293422Y-88515000D01*
X73410000Y-88631579D01*
X73410001Y-95981544D01*
X73377795Y-96029744D01*
X73311462Y-96189884D01*
X73046534Y-95924956D01*
X73018817Y-95891183D01*
X72884059Y-95780589D01*
X72730313Y-95698411D01*
X72563490Y-95647805D01*
X72433477Y-95635000D01*
X72433469Y-95635000D01*
X72390000Y-95630719D01*
X72346531Y-95635000D01*
X66118072Y-95635000D01*
X66118072Y-95530000D01*
X66105812Y-95405518D01*
X66069502Y-95285820D01*
X66010537Y-95175506D01*
X65931185Y-95078815D01*
X65834494Y-94999463D01*
X65724180Y-94940498D01*
X65604482Y-94904188D01*
X65480000Y-94891928D01*
X61520000Y-94891928D01*
X61395518Y-94904188D01*
X61275820Y-94940498D01*
X61165506Y-94999463D01*
X61068815Y-95078815D01*
X60989463Y-95175506D01*
X60930498Y-95285820D01*
X60894188Y-95405518D01*
X60881928Y-95530000D01*
X60881928Y-97510000D01*
X60894188Y-97634482D01*
X60930498Y-97754180D01*
X60989463Y-97864494D01*
X61068815Y-97961185D01*
X61165506Y-98040537D01*
X61275820Y-98099502D01*
X61395518Y-98135812D01*
X61520000Y-98148072D01*
X65480000Y-98148072D01*
X65604482Y-98135812D01*
X65724180Y-98099502D01*
X65834494Y-98040537D01*
X65931185Y-97961185D01*
X66010537Y-97864494D01*
X66069502Y-97754180D01*
X66105812Y-97634482D01*
X66118072Y-97510000D01*
X66118072Y-97405000D01*
X67078421Y-97405000D01*
X66079951Y-98403471D01*
X66046184Y-98431183D01*
X66018471Y-98464951D01*
X66018468Y-98464954D01*
X65935590Y-98565941D01*
X65853412Y-98719687D01*
X65802805Y-98886510D01*
X65785719Y-99060000D01*
X65790001Y-99103479D01*
X65790000Y-100618421D01*
X65752077Y-100656344D01*
X65644608Y-100525392D01*
X65397170Y-100322325D01*
X65114869Y-100171432D01*
X64808556Y-100078513D01*
X64569824Y-100055000D01*
X62430176Y-100055000D01*
X62191444Y-100078513D01*
X61885131Y-100171432D01*
X61602830Y-100322325D01*
X61355392Y-100525392D01*
X61152325Y-100772830D01*
X61001432Y-101055131D01*
X60908513Y-101361444D01*
X60877138Y-101680000D01*
X60908513Y-101998556D01*
X61001432Y-102304869D01*
X61152325Y-102587170D01*
X61355392Y-102834608D01*
X61602830Y-103037675D01*
X61885131Y-103188568D01*
X62191444Y-103281487D01*
X62430176Y-103305000D01*
X64569824Y-103305000D01*
X64808556Y-103281487D01*
X65114869Y-103188568D01*
X65397170Y-103037675D01*
X65644608Y-102834608D01*
X65847675Y-102587170D01*
X65859525Y-102565000D01*
X65936531Y-102565000D01*
X65980000Y-102569281D01*
X66023469Y-102565000D01*
X66023477Y-102565000D01*
X66153490Y-102552195D01*
X66320313Y-102501589D01*
X66474059Y-102419411D01*
X66608817Y-102308817D01*
X66636534Y-102275044D01*
X67270050Y-101641529D01*
X67303817Y-101613817D01*
X67343240Y-101565781D01*
X67414410Y-101479060D01*
X67414411Y-101479059D01*
X67496589Y-101325313D01*
X67547195Y-101158490D01*
X67560000Y-101028477D01*
X67560000Y-101028467D01*
X67564281Y-100985001D01*
X67560000Y-100941535D01*
X67560000Y-99426578D01*
X68311579Y-98675000D01*
X71388422Y-98675000D01*
X76178470Y-103465049D01*
X76206183Y-103498817D01*
X76239951Y-103526530D01*
X76239953Y-103526532D01*
X76340941Y-103609411D01*
X76494687Y-103691589D01*
X76661510Y-103742195D01*
X76791523Y-103755000D01*
X76791531Y-103755000D01*
X76835000Y-103759281D01*
X76878469Y-103755000D01*
X83281546Y-103755000D01*
X83329744Y-103787205D01*
X83518102Y-103865226D01*
X83718061Y-103905000D01*
X83921939Y-103905000D01*
X84121898Y-103865226D01*
X84310256Y-103787205D01*
X84479774Y-103673937D01*
X84623937Y-103529774D01*
X84737205Y-103360256D01*
X84815226Y-103171898D01*
X84855000Y-102971939D01*
X84855000Y-102768061D01*
X84815226Y-102568102D01*
X84780804Y-102485000D01*
X85046531Y-102485000D01*
X85090000Y-102489281D01*
X85133469Y-102485000D01*
X85133477Y-102485000D01*
X85263490Y-102472195D01*
X85430313Y-102421589D01*
X85584059Y-102339411D01*
X85718817Y-102228817D01*
X85746534Y-102195044D01*
X86320050Y-101621529D01*
X86353817Y-101593817D01*
X86447997Y-101479060D01*
X86464411Y-101459059D01*
X86546589Y-101305314D01*
X86597195Y-101138490D01*
X86602069Y-101088998D01*
X86610000Y-101008477D01*
X86610000Y-101008469D01*
X86614281Y-100965000D01*
X86610000Y-100921531D01*
X86610000Y-97405000D01*
X87898422Y-97405000D01*
X88650000Y-98156579D01*
X88650001Y-100286521D01*
X88645719Y-100330000D01*
X88662805Y-100503490D01*
X88713412Y-100670313D01*
X88795590Y-100824059D01*
X88878468Y-100925046D01*
X88878471Y-100925049D01*
X88906184Y-100958817D01*
X88939951Y-100986529D01*
X90148470Y-102195049D01*
X90176183Y-102228817D01*
X90209951Y-102256530D01*
X90209953Y-102256532D01*
X90232399Y-102274953D01*
X90310941Y-102339411D01*
X90464687Y-102421589D01*
X90631510Y-102472195D01*
X90761523Y-102485000D01*
X90761533Y-102485000D01*
X90804999Y-102489281D01*
X90848465Y-102485000D01*
X95841531Y-102485000D01*
X95885000Y-102489281D01*
X95928469Y-102485000D01*
X95928477Y-102485000D01*
X96058490Y-102472195D01*
X96225313Y-102421589D01*
X96379059Y-102339411D01*
X96513817Y-102228817D01*
X96541534Y-102195044D01*
X96976415Y-101760163D01*
X97010187Y-101732447D01*
X97120781Y-101597689D01*
X97202959Y-101443943D01*
X97229296Y-101357124D01*
X97259411Y-101320429D01*
X97341589Y-101166683D01*
X97392195Y-100999860D01*
X97405000Y-100869847D01*
X97405000Y-100869837D01*
X97409250Y-100826681D01*
X97434759Y-100809637D01*
X97634637Y-100609759D01*
X97791680Y-100374727D01*
X97899853Y-100113574D01*
X97955000Y-99836335D01*
X97955000Y-99553665D01*
X97899853Y-99276426D01*
X97791680Y-99015273D01*
X97634637Y-98780241D01*
X97434759Y-98580363D01*
X97199727Y-98423320D01*
X96938574Y-98315147D01*
X96661335Y-98260000D01*
X96378665Y-98260000D01*
X96101426Y-98315147D01*
X95840273Y-98423320D01*
X95605241Y-98580363D01*
X95405363Y-98780241D01*
X95248320Y-99015273D01*
X95140147Y-99276426D01*
X95085000Y-99553665D01*
X95085000Y-99836335D01*
X95140147Y-100113574D01*
X95248320Y-100374727D01*
X95405363Y-100609759D01*
X95510604Y-100715000D01*
X92449396Y-100715000D01*
X92554637Y-100609759D01*
X92711680Y-100374727D01*
X92819853Y-100113574D01*
X92875000Y-99836335D01*
X92875000Y-99553665D01*
X92819853Y-99276426D01*
X92711680Y-99015273D01*
X92554637Y-98780241D01*
X92354759Y-98580363D01*
X92325000Y-98560479D01*
X92325000Y-97058454D01*
X92357205Y-97010256D01*
X92435226Y-96821898D01*
X92475000Y-96621939D01*
X92475000Y-96418061D01*
X92435226Y-96218102D01*
X92357205Y-96029744D01*
X92325000Y-95981546D01*
X92325000Y-95797320D01*
X92356309Y-95794236D01*
X92626808Y-95712182D01*
X92876101Y-95578932D01*
X93094608Y-95399608D01*
X93273932Y-95181101D01*
X93345000Y-95048142D01*
X93416068Y-95181101D01*
X93595393Y-95399608D01*
X93813900Y-95578932D01*
X94063193Y-95712182D01*
X94333692Y-95794236D01*
X94615000Y-95821943D01*
X94896309Y-95794236D01*
X95166808Y-95712182D01*
X95416101Y-95578932D01*
X95634608Y-95399608D01*
X95813932Y-95181101D01*
X95882265Y-95053259D01*
X96032399Y-95282839D01*
X96230105Y-95484500D01*
X96463354Y-95643715D01*
X96723182Y-95754367D01*
X96805961Y-95771904D01*
X97028000Y-95649915D01*
X97028000Y-94107000D01*
X97282000Y-94107000D01*
X97282000Y-95649915D01*
X97504039Y-95771904D01*
X97586818Y-95754367D01*
X97846646Y-95643715D01*
X98079895Y-95484500D01*
X98277601Y-95282839D01*
X98432166Y-95046483D01*
X98537650Y-94784514D01*
X98590000Y-94507000D01*
X98590000Y-94107000D01*
X97282000Y-94107000D01*
X97028000Y-94107000D01*
X97008000Y-94107000D01*
X97008000Y-93853000D01*
X97028000Y-93853000D01*
X97028000Y-93833000D01*
X97282000Y-93833000D01*
X97282000Y-93853000D01*
X98590000Y-93853000D01*
X98590000Y-93453000D01*
X98537650Y-93175486D01*
X98511282Y-93110000D01*
X98526939Y-93110000D01*
X98726898Y-93070226D01*
X98915256Y-92992205D01*
X98935000Y-92979012D01*
X98935001Y-112992667D01*
X98931324Y-113030000D01*
X98935001Y-113067333D01*
X98945998Y-113178986D01*
X98948712Y-113187932D01*
X98989454Y-113322246D01*
X99060026Y-113454276D01*
X99127361Y-113536323D01*
X99155000Y-113570001D01*
X99183998Y-113593799D01*
X100401201Y-114811003D01*
X100424999Y-114840001D01*
X100540724Y-114934974D01*
X100672753Y-115005546D01*
X100816014Y-115049003D01*
X100927667Y-115060000D01*
X100927676Y-115060000D01*
X100964999Y-115063676D01*
X101002322Y-115060000D01*
X107366957Y-115060000D01*
X107470363Y-115214759D01*
X107670241Y-115414637D01*
X107902759Y-115570000D01*
X107670241Y-115725363D01*
X107470363Y-115925241D01*
X107313320Y-116160273D01*
X107205147Y-116421426D01*
X107150000Y-116698665D01*
X107150000Y-116981335D01*
X107186312Y-117163886D01*
X104263998Y-120086201D01*
X104235000Y-120109999D01*
X104211202Y-120138997D01*
X104211201Y-120138998D01*
X104140026Y-120225724D01*
X104103126Y-120294759D01*
X104069454Y-120357753D01*
X104025997Y-120501014D01*
X104015000Y-120612667D01*
X104015000Y-120612678D01*
X104011324Y-120650000D01*
X104015000Y-120687322D01*
X104015000Y-120970198D01*
X103825199Y-121160000D01*
X101002322Y-121160000D01*
X100964999Y-121156324D01*
X100927676Y-121160000D01*
X100927667Y-121160000D01*
X100816014Y-121170997D01*
X100672753Y-121214454D01*
X100540724Y-121285026D01*
X100424999Y-121379999D01*
X100401201Y-121408997D01*
X99183998Y-122626201D01*
X99155000Y-122649999D01*
X99131202Y-122678997D01*
X99131201Y-122678998D01*
X99060026Y-122765724D01*
X98989454Y-122897754D01*
X98972755Y-122952805D01*
X98945998Y-123041014D01*
X98942502Y-123076510D01*
X98931324Y-123190000D01*
X98935001Y-123227332D01*
X98935000Y-128635988D01*
X98915256Y-128622795D01*
X98726898Y-128544774D01*
X98526939Y-128505000D01*
X98323061Y-128505000D01*
X98123102Y-128544774D01*
X98070832Y-128566425D01*
X98060290Y-128513427D01*
X98174608Y-128419608D01*
X98353932Y-128201101D01*
X98487182Y-127951808D01*
X98569236Y-127681309D01*
X98590000Y-127470491D01*
X98590000Y-126529508D01*
X98569236Y-126318691D01*
X98487182Y-126048192D01*
X98353932Y-125798899D01*
X98174607Y-125580392D01*
X97956100Y-125401068D01*
X97706807Y-125267818D01*
X97436308Y-125185764D01*
X97155000Y-125158057D01*
X96873691Y-125185764D01*
X96603192Y-125267818D01*
X96353899Y-125401068D01*
X96135392Y-125580393D01*
X95956068Y-125798900D01*
X95885000Y-125931858D01*
X95813932Y-125798899D01*
X95634607Y-125580392D01*
X95416100Y-125401068D01*
X95166807Y-125267818D01*
X94896308Y-125185764D01*
X94615000Y-125158057D01*
X94333691Y-125185764D01*
X94063192Y-125267818D01*
X93813899Y-125401068D01*
X93595392Y-125580393D01*
X93416068Y-125798900D01*
X93345000Y-125931858D01*
X93273932Y-125798899D01*
X93094607Y-125580392D01*
X92876100Y-125401068D01*
X92626807Y-125267818D01*
X92356308Y-125185764D01*
X92325000Y-125182680D01*
X92325000Y-121784521D01*
X92354759Y-121764637D01*
X92554637Y-121564759D01*
X92711680Y-121329727D01*
X92819853Y-121068574D01*
X92874130Y-120795709D01*
X93323468Y-121245047D01*
X93351183Y-121278817D01*
X93384951Y-121306530D01*
X93384953Y-121306532D01*
X93485940Y-121389410D01*
X93485941Y-121389411D01*
X93639687Y-121471589D01*
X93806510Y-121522195D01*
X93936523Y-121535000D01*
X93936531Y-121535000D01*
X93980000Y-121539281D01*
X94023469Y-121535000D01*
X95385479Y-121535000D01*
X95405363Y-121564759D01*
X95605241Y-121764637D01*
X95840273Y-121921680D01*
X96101426Y-122029853D01*
X96378665Y-122085000D01*
X96661335Y-122085000D01*
X96938574Y-122029853D01*
X97199727Y-121921680D01*
X97434759Y-121764637D01*
X97634637Y-121564759D01*
X97791680Y-121329727D01*
X97899853Y-121068574D01*
X97955000Y-120791335D01*
X97955000Y-120508665D01*
X97899853Y-120231426D01*
X97791680Y-119970273D01*
X97634637Y-119735241D01*
X97434759Y-119535363D01*
X97199727Y-119378320D01*
X96938574Y-119270147D01*
X96661335Y-119215000D01*
X96378665Y-119215000D01*
X96101426Y-119270147D01*
X95840273Y-119378320D01*
X95605241Y-119535363D01*
X95405363Y-119735241D01*
X95385479Y-119765000D01*
X94346579Y-119765000D01*
X92731534Y-118149956D01*
X92703817Y-118116183D01*
X92569059Y-118005589D01*
X92415313Y-117923411D01*
X92248490Y-117872805D01*
X92118477Y-117860000D01*
X92118469Y-117860000D01*
X92075000Y-117855719D01*
X92031531Y-117860000D01*
X90536579Y-117860000D01*
X89556534Y-116879956D01*
X89528817Y-116846183D01*
X89394059Y-116735589D01*
X89240313Y-116653411D01*
X89073490Y-116602805D01*
X88943477Y-116590000D01*
X88943469Y-116590000D01*
X88900000Y-116585719D01*
X88856531Y-116590000D01*
X76878465Y-116590000D01*
X76834999Y-116585719D01*
X76791533Y-116590000D01*
X76791523Y-116590000D01*
X76661510Y-116602805D01*
X76494687Y-116653411D01*
X76340941Y-116735589D01*
X76340939Y-116735590D01*
X76340940Y-116735590D01*
X76239953Y-116818468D01*
X76239951Y-116818470D01*
X76206183Y-116846183D01*
X76178470Y-116879951D01*
X74022387Y-119036035D01*
X74060000Y-118846939D01*
X74060000Y-118643061D01*
X74020226Y-118443102D01*
X73942205Y-118254744D01*
X73828937Y-118085226D01*
X73684774Y-117941063D01*
X73515256Y-117827795D01*
X73326898Y-117749774D01*
X73126939Y-117710000D01*
X72923061Y-117710000D01*
X72723102Y-117749774D01*
X72534744Y-117827795D01*
X72486546Y-117860000D01*
X69581579Y-117860000D01*
X69465000Y-117743422D01*
X69465000Y-114343469D01*
X69469281Y-114300000D01*
X69465000Y-114256531D01*
X69465000Y-114256523D01*
X69452195Y-114126510D01*
X69401589Y-113959687D01*
X69319411Y-113805941D01*
X69281707Y-113759999D01*
X69236532Y-113704953D01*
X69236530Y-113704951D01*
X69208817Y-113671183D01*
X69175050Y-113643471D01*
X68420244Y-112888665D01*
X77305000Y-112888665D01*
X77305000Y-113171335D01*
X77360147Y-113448574D01*
X77468320Y-113709727D01*
X77625363Y-113944759D01*
X77825241Y-114144637D01*
X78060273Y-114301680D01*
X78321426Y-114409853D01*
X78598665Y-114465000D01*
X78881335Y-114465000D01*
X79158574Y-114409853D01*
X79419727Y-114301680D01*
X79654759Y-114144637D01*
X79854637Y-113944759D01*
X79931316Y-113830000D01*
X82381928Y-113830000D01*
X82394188Y-113954482D01*
X82430498Y-114074180D01*
X82489463Y-114184494D01*
X82568815Y-114281185D01*
X82665506Y-114360537D01*
X82775820Y-114419502D01*
X82895518Y-114455812D01*
X83020000Y-114468072D01*
X83534250Y-114465000D01*
X83693000Y-114306250D01*
X83693000Y-113157000D01*
X83947000Y-113157000D01*
X83947000Y-114306250D01*
X84105750Y-114465000D01*
X84620000Y-114468072D01*
X84744482Y-114455812D01*
X84864180Y-114419502D01*
X84974494Y-114360537D01*
X85071185Y-114281185D01*
X85150537Y-114184494D01*
X85209502Y-114074180D01*
X85245812Y-113954482D01*
X85258072Y-113830000D01*
X85255000Y-113315750D01*
X85096250Y-113157000D01*
X83947000Y-113157000D01*
X83693000Y-113157000D01*
X82543750Y-113157000D01*
X82385000Y-113315750D01*
X82381928Y-113830000D01*
X79931316Y-113830000D01*
X80011680Y-113709727D01*
X80119853Y-113448574D01*
X80175000Y-113171335D01*
X80175000Y-112888665D01*
X80119853Y-112611426D01*
X80011680Y-112350273D01*
X79931317Y-112230000D01*
X82381928Y-112230000D01*
X82385000Y-112744250D01*
X82543750Y-112903000D01*
X83693000Y-112903000D01*
X83693000Y-111753750D01*
X83947000Y-111753750D01*
X83947000Y-112903000D01*
X85096250Y-112903000D01*
X85110585Y-112888665D01*
X90005000Y-112888665D01*
X90005000Y-113171335D01*
X90060147Y-113448574D01*
X90168320Y-113709727D01*
X90325363Y-113944759D01*
X90525241Y-114144637D01*
X90760273Y-114301680D01*
X91021426Y-114409853D01*
X91298665Y-114465000D01*
X91581335Y-114465000D01*
X91858574Y-114409853D01*
X92119727Y-114301680D01*
X92354759Y-114144637D01*
X92554637Y-113944759D01*
X92631316Y-113830000D01*
X95081928Y-113830000D01*
X95094188Y-113954482D01*
X95130498Y-114074180D01*
X95189463Y-114184494D01*
X95268815Y-114281185D01*
X95365506Y-114360537D01*
X95475820Y-114419502D01*
X95595518Y-114455812D01*
X95720000Y-114468072D01*
X96234250Y-114465000D01*
X96393000Y-114306250D01*
X96393000Y-113157000D01*
X96647000Y-113157000D01*
X96647000Y-114306250D01*
X96805750Y-114465000D01*
X97320000Y-114468072D01*
X97444482Y-114455812D01*
X97564180Y-114419502D01*
X97674494Y-114360537D01*
X97771185Y-114281185D01*
X97850537Y-114184494D01*
X97909502Y-114074180D01*
X97945812Y-113954482D01*
X97958072Y-113830000D01*
X97955000Y-113315750D01*
X97796250Y-113157000D01*
X96647000Y-113157000D01*
X96393000Y-113157000D01*
X95243750Y-113157000D01*
X95085000Y-113315750D01*
X95081928Y-113830000D01*
X92631316Y-113830000D01*
X92711680Y-113709727D01*
X92819853Y-113448574D01*
X92875000Y-113171335D01*
X92875000Y-112888665D01*
X92819853Y-112611426D01*
X92711680Y-112350273D01*
X92631317Y-112230000D01*
X95081928Y-112230000D01*
X95085000Y-112744250D01*
X95243750Y-112903000D01*
X96393000Y-112903000D01*
X96393000Y-111753750D01*
X96647000Y-111753750D01*
X96647000Y-112903000D01*
X97796250Y-112903000D01*
X97955000Y-112744250D01*
X97958072Y-112230000D01*
X97945812Y-112105518D01*
X97909502Y-111985820D01*
X97850537Y-111875506D01*
X97771185Y-111778815D01*
X97674494Y-111699463D01*
X97564180Y-111640498D01*
X97444482Y-111604188D01*
X97320000Y-111591928D01*
X96805750Y-111595000D01*
X96647000Y-111753750D01*
X96393000Y-111753750D01*
X96234250Y-111595000D01*
X95720000Y-111591928D01*
X95595518Y-111604188D01*
X95475820Y-111640498D01*
X95365506Y-111699463D01*
X95268815Y-111778815D01*
X95189463Y-111875506D01*
X95130498Y-111985820D01*
X95094188Y-112105518D01*
X95081928Y-112230000D01*
X92631317Y-112230000D01*
X92554637Y-112115241D01*
X92354759Y-111915363D01*
X92119727Y-111758320D01*
X91858574Y-111650147D01*
X91581335Y-111595000D01*
X91298665Y-111595000D01*
X91021426Y-111650147D01*
X90760273Y-111758320D01*
X90525241Y-111915363D01*
X90325363Y-112115241D01*
X90168320Y-112350273D01*
X90060147Y-112611426D01*
X90005000Y-112888665D01*
X85110585Y-112888665D01*
X85255000Y-112744250D01*
X85258072Y-112230000D01*
X85245812Y-112105518D01*
X85209502Y-111985820D01*
X85150537Y-111875506D01*
X85071185Y-111778815D01*
X84974494Y-111699463D01*
X84864180Y-111640498D01*
X84744482Y-111604188D01*
X84620000Y-111591928D01*
X84105750Y-111595000D01*
X83947000Y-111753750D01*
X83693000Y-111753750D01*
X83534250Y-111595000D01*
X83020000Y-111591928D01*
X82895518Y-111604188D01*
X82775820Y-111640498D01*
X82665506Y-111699463D01*
X82568815Y-111778815D01*
X82489463Y-111875506D01*
X82430498Y-111985820D01*
X82394188Y-112105518D01*
X82381928Y-112230000D01*
X79931317Y-112230000D01*
X79854637Y-112115241D01*
X79654759Y-111915363D01*
X79419727Y-111758320D01*
X79158574Y-111650147D01*
X78881335Y-111595000D01*
X78598665Y-111595000D01*
X78321426Y-111650147D01*
X78060273Y-111758320D01*
X77825241Y-111915363D01*
X77625363Y-112115241D01*
X77468320Y-112350273D01*
X77360147Y-112611426D01*
X77305000Y-112888665D01*
X68420244Y-112888665D01*
X67560000Y-112028422D01*
X67560000Y-108115000D01*
X77301928Y-108115000D01*
X77314188Y-108239482D01*
X77350498Y-108359180D01*
X77409463Y-108469494D01*
X77488815Y-108566185D01*
X77585506Y-108645537D01*
X77695820Y-108704502D01*
X77815518Y-108740812D01*
X77940000Y-108753072D01*
X78454250Y-108750000D01*
X78613000Y-108591250D01*
X78613000Y-107442000D01*
X78867000Y-107442000D01*
X78867000Y-108591250D01*
X79025750Y-108750000D01*
X79540000Y-108753072D01*
X79664482Y-108740812D01*
X79784180Y-108704502D01*
X79894494Y-108645537D01*
X79991185Y-108566185D01*
X80070537Y-108469494D01*
X80129502Y-108359180D01*
X80165812Y-108239482D01*
X80178072Y-108115000D01*
X80175000Y-107600750D01*
X80016250Y-107442000D01*
X78867000Y-107442000D01*
X78613000Y-107442000D01*
X77463750Y-107442000D01*
X77305000Y-107600750D01*
X77301928Y-108115000D01*
X67560000Y-108115000D01*
X67560000Y-107418465D01*
X67564281Y-107374999D01*
X67560000Y-107331533D01*
X67560000Y-107331523D01*
X67547195Y-107201510D01*
X67496589Y-107034687D01*
X67414411Y-106880941D01*
X67371772Y-106828986D01*
X67331532Y-106779953D01*
X67331530Y-106779951D01*
X67303817Y-106746183D01*
X67270050Y-106718471D01*
X67066579Y-106515000D01*
X77301928Y-106515000D01*
X77305000Y-107029250D01*
X77463750Y-107188000D01*
X78613000Y-107188000D01*
X78613000Y-106038750D01*
X78867000Y-106038750D01*
X78867000Y-107188000D01*
X80016250Y-107188000D01*
X80030585Y-107173665D01*
X82385000Y-107173665D01*
X82385000Y-107456335D01*
X82440147Y-107733574D01*
X82548320Y-107994727D01*
X82705363Y-108229759D01*
X82905241Y-108429637D01*
X83140273Y-108586680D01*
X83401426Y-108694853D01*
X83678665Y-108750000D01*
X83961335Y-108750000D01*
X84238574Y-108694853D01*
X84499727Y-108586680D01*
X84734759Y-108429637D01*
X84934637Y-108229759D01*
X85011316Y-108115000D01*
X90001928Y-108115000D01*
X90014188Y-108239482D01*
X90050498Y-108359180D01*
X90109463Y-108469494D01*
X90188815Y-108566185D01*
X90285506Y-108645537D01*
X90395820Y-108704502D01*
X90515518Y-108740812D01*
X90640000Y-108753072D01*
X91154250Y-108750000D01*
X91313000Y-108591250D01*
X91313000Y-107442000D01*
X91567000Y-107442000D01*
X91567000Y-108591250D01*
X91725750Y-108750000D01*
X92240000Y-108753072D01*
X92364482Y-108740812D01*
X92484180Y-108704502D01*
X92594494Y-108645537D01*
X92691185Y-108566185D01*
X92770537Y-108469494D01*
X92829502Y-108359180D01*
X92865812Y-108239482D01*
X92878072Y-108115000D01*
X92875000Y-107600750D01*
X92716250Y-107442000D01*
X91567000Y-107442000D01*
X91313000Y-107442000D01*
X90163750Y-107442000D01*
X90005000Y-107600750D01*
X90001928Y-108115000D01*
X85011316Y-108115000D01*
X85091680Y-107994727D01*
X85199853Y-107733574D01*
X85255000Y-107456335D01*
X85255000Y-107173665D01*
X85199853Y-106896426D01*
X85091680Y-106635273D01*
X85011317Y-106515000D01*
X90001928Y-106515000D01*
X90005000Y-107029250D01*
X90163750Y-107188000D01*
X91313000Y-107188000D01*
X91313000Y-106038750D01*
X91567000Y-106038750D01*
X91567000Y-107188000D01*
X92716250Y-107188000D01*
X92730585Y-107173665D01*
X95085000Y-107173665D01*
X95085000Y-107456335D01*
X95140147Y-107733574D01*
X95248320Y-107994727D01*
X95405363Y-108229759D01*
X95605241Y-108429637D01*
X95840273Y-108586680D01*
X96101426Y-108694853D01*
X96378665Y-108750000D01*
X96661335Y-108750000D01*
X96938574Y-108694853D01*
X97199727Y-108586680D01*
X97434759Y-108429637D01*
X97634637Y-108229759D01*
X97791680Y-107994727D01*
X97899853Y-107733574D01*
X97955000Y-107456335D01*
X97955000Y-107173665D01*
X97899853Y-106896426D01*
X97791680Y-106635273D01*
X97634637Y-106400241D01*
X97434759Y-106200363D01*
X97199727Y-106043320D01*
X96938574Y-105935147D01*
X96661335Y-105880000D01*
X96378665Y-105880000D01*
X96101426Y-105935147D01*
X95840273Y-106043320D01*
X95605241Y-106200363D01*
X95405363Y-106400241D01*
X95248320Y-106635273D01*
X95140147Y-106896426D01*
X95085000Y-107173665D01*
X92730585Y-107173665D01*
X92875000Y-107029250D01*
X92878072Y-106515000D01*
X92865812Y-106390518D01*
X92829502Y-106270820D01*
X92770537Y-106160506D01*
X92691185Y-106063815D01*
X92594494Y-105984463D01*
X92484180Y-105925498D01*
X92364482Y-105889188D01*
X92240000Y-105876928D01*
X91725750Y-105880000D01*
X91567000Y-106038750D01*
X91313000Y-106038750D01*
X91154250Y-105880000D01*
X90640000Y-105876928D01*
X90515518Y-105889188D01*
X90395820Y-105925498D01*
X90285506Y-105984463D01*
X90188815Y-106063815D01*
X90109463Y-106160506D01*
X90050498Y-106270820D01*
X90014188Y-106390518D01*
X90001928Y-106515000D01*
X85011317Y-106515000D01*
X84934637Y-106400241D01*
X84734759Y-106200363D01*
X84499727Y-106043320D01*
X84238574Y-105935147D01*
X83961335Y-105880000D01*
X83678665Y-105880000D01*
X83401426Y-105935147D01*
X83140273Y-106043320D01*
X82905241Y-106200363D01*
X82705363Y-106400241D01*
X82548320Y-106635273D01*
X82440147Y-106896426D01*
X82385000Y-107173665D01*
X80030585Y-107173665D01*
X80175000Y-107029250D01*
X80178072Y-106515000D01*
X80165812Y-106390518D01*
X80129502Y-106270820D01*
X80070537Y-106160506D01*
X79991185Y-106063815D01*
X79894494Y-105984463D01*
X79784180Y-105925498D01*
X79664482Y-105889188D01*
X79540000Y-105876928D01*
X79025750Y-105880000D01*
X78867000Y-106038750D01*
X78613000Y-106038750D01*
X78454250Y-105880000D01*
X77940000Y-105876928D01*
X77815518Y-105889188D01*
X77695820Y-105925498D01*
X77585506Y-105984463D01*
X77488815Y-106063815D01*
X77409463Y-106160506D01*
X77350498Y-106270820D01*
X77314188Y-106390518D01*
X77301928Y-106515000D01*
X67066579Y-106515000D01*
X66636534Y-106084956D01*
X66608817Y-106051183D01*
X66474059Y-105940589D01*
X66320313Y-105858411D01*
X66153490Y-105807805D01*
X66118072Y-105804317D01*
X66118072Y-105690000D01*
X66105812Y-105565518D01*
X66069502Y-105445820D01*
X66010537Y-105335506D01*
X65931185Y-105238815D01*
X65834494Y-105159463D01*
X65724180Y-105100498D01*
X65604482Y-105064188D01*
X65480000Y-105051928D01*
X61520000Y-105051928D01*
X61395518Y-105064188D01*
X61275820Y-105100498D01*
X61165506Y-105159463D01*
X61068815Y-105238815D01*
X60989463Y-105335506D01*
X60930498Y-105445820D01*
X60894188Y-105565518D01*
X60881928Y-105690000D01*
X60881928Y-107670000D01*
X60894188Y-107794482D01*
X60930498Y-107914180D01*
X60989463Y-108024494D01*
X61068815Y-108121185D01*
X61165506Y-108200537D01*
X61275820Y-108259502D01*
X61395518Y-108295812D01*
X61520000Y-108308072D01*
X65480000Y-108308072D01*
X65604482Y-108295812D01*
X65724180Y-108259502D01*
X65790000Y-108224320D01*
X65790001Y-110782554D01*
X65644608Y-110605392D01*
X65397170Y-110402325D01*
X65114869Y-110251432D01*
X64808556Y-110158513D01*
X64569824Y-110135000D01*
X62430176Y-110135000D01*
X62191444Y-110158513D01*
X61885131Y-110251432D01*
X61602830Y-110402325D01*
X61355392Y-110605392D01*
X61152325Y-110852830D01*
X61001432Y-111135131D01*
X60908513Y-111441444D01*
X60877138Y-111760000D01*
X60908513Y-112078556D01*
X61001432Y-112384869D01*
X61152325Y-112667170D01*
X61355392Y-112914608D01*
X61602830Y-113117675D01*
X61885131Y-113268568D01*
X62191444Y-113361487D01*
X62430176Y-113385000D01*
X62624014Y-113385000D01*
X62627805Y-113423490D01*
X62678412Y-113590313D01*
X62760590Y-113744059D01*
X62843468Y-113845046D01*
X62843471Y-113845049D01*
X62871184Y-113878817D01*
X62904951Y-113906529D01*
X63478470Y-114480049D01*
X63506183Y-114513817D01*
X63539951Y-114541530D01*
X63539953Y-114541532D01*
X63640941Y-114624411D01*
X63794686Y-114706589D01*
X63852992Y-114724276D01*
X63961510Y-114757195D01*
X64091523Y-114770000D01*
X64091531Y-114770000D01*
X64135000Y-114774281D01*
X64178469Y-114770000D01*
X65790000Y-114770000D01*
X65790000Y-115782553D01*
X65644608Y-115605392D01*
X65397170Y-115402325D01*
X65114869Y-115251432D01*
X64808556Y-115158513D01*
X64569824Y-115135000D01*
X62430176Y-115135000D01*
X62191444Y-115158513D01*
X61885131Y-115251432D01*
X61602830Y-115402325D01*
X61355392Y-115605392D01*
X61152325Y-115852830D01*
X61001432Y-116135131D01*
X60908513Y-116441444D01*
X60877138Y-116760000D01*
X60908513Y-117078556D01*
X61001432Y-117384869D01*
X61152325Y-117667170D01*
X61355392Y-117914608D01*
X61602830Y-118117675D01*
X61885131Y-118268568D01*
X62191444Y-118361487D01*
X62430176Y-118385000D01*
X62624014Y-118385000D01*
X62627805Y-118423490D01*
X62678412Y-118590313D01*
X62760590Y-118744059D01*
X62843468Y-118845046D01*
X62843471Y-118845049D01*
X62871184Y-118878817D01*
X62904951Y-118906529D01*
X63973470Y-119975049D01*
X64001183Y-120008817D01*
X64034951Y-120036530D01*
X64034953Y-120036532D01*
X64057399Y-120054953D01*
X64135941Y-120119411D01*
X64159359Y-120131928D01*
X61520000Y-120131928D01*
X61395518Y-120144188D01*
X61275820Y-120180498D01*
X61165506Y-120239463D01*
X61068815Y-120318815D01*
X60989463Y-120415506D01*
X60930498Y-120525820D01*
X60894188Y-120645518D01*
X60881928Y-120770000D01*
X60881928Y-122750000D01*
X60894188Y-122874482D01*
X60930498Y-122994180D01*
X60989463Y-123104494D01*
X61068815Y-123201185D01*
X61165506Y-123280537D01*
X61275820Y-123339502D01*
X61395518Y-123375812D01*
X61520000Y-123388072D01*
X62624317Y-123388072D01*
X62627805Y-123423489D01*
X62678411Y-123590312D01*
X62760589Y-123744058D01*
X62871183Y-123878817D01*
X62904956Y-123906534D01*
X62922096Y-123923674D01*
X62949813Y-123957447D01*
X63084571Y-124068041D01*
X63238317Y-124150219D01*
X63405140Y-124200825D01*
X63535153Y-124213630D01*
X63535161Y-124213630D01*
X63578630Y-124217911D01*
X63622099Y-124213630D01*
X74045000Y-124213630D01*
X74045001Y-137751521D01*
X74040719Y-137795000D01*
X74057805Y-137968490D01*
X74108412Y-138135313D01*
X74190590Y-138289059D01*
X74273468Y-138390046D01*
X74273471Y-138390049D01*
X74301184Y-138423817D01*
X74334951Y-138451529D01*
X74908470Y-139025049D01*
X74936183Y-139058817D01*
X74969951Y-139086530D01*
X74969953Y-139086532D01*
X75070941Y-139169411D01*
X75224686Y-139251589D01*
X75391510Y-139302195D01*
X75521523Y-139315000D01*
X75521531Y-139315000D01*
X75565000Y-139319281D01*
X75608469Y-139315000D01*
X89921531Y-139315000D01*
X89965000Y-139319281D01*
X90008469Y-139315000D01*
X90008477Y-139315000D01*
X90138490Y-139302195D01*
X90305313Y-139251589D01*
X90459059Y-139169411D01*
X90593817Y-139058817D01*
X90621534Y-139025044D01*
X92670050Y-136976529D01*
X92703817Y-136948817D01*
X92814411Y-136814059D01*
X92814412Y-136814058D01*
X92896589Y-136660314D01*
X92947195Y-136493490D01*
X92955230Y-136411904D01*
X92960000Y-136363477D01*
X92960000Y-136363469D01*
X92964281Y-136320000D01*
X92960000Y-136276531D01*
X92960000Y-136150078D01*
X93094608Y-136039608D01*
X93273932Y-135821101D01*
X93345000Y-135688142D01*
X93416068Y-135821101D01*
X93595393Y-136039608D01*
X93813900Y-136218932D01*
X94063193Y-136352182D01*
X94333692Y-136434236D01*
X94615000Y-136461943D01*
X94896309Y-136434236D01*
X95166808Y-136352182D01*
X95416101Y-136218932D01*
X95634608Y-136039608D01*
X95813932Y-135821101D01*
X95882265Y-135693259D01*
X96032399Y-135922839D01*
X96230105Y-136124500D01*
X96463354Y-136283715D01*
X96723182Y-136394367D01*
X96805961Y-136411904D01*
X97028000Y-136289915D01*
X97028000Y-134747000D01*
X97008000Y-134747000D01*
X97008000Y-134493000D01*
X97028000Y-134493000D01*
X97028000Y-134473000D01*
X97282000Y-134473000D01*
X97282000Y-134493000D01*
X97302000Y-134493000D01*
X97302000Y-134747000D01*
X97282000Y-134747000D01*
X97282000Y-136289915D01*
X97504039Y-136411904D01*
X97586818Y-136394367D01*
X97846646Y-136283715D01*
X98079895Y-136124500D01*
X98277601Y-135922839D01*
X98300000Y-135888587D01*
X98300000Y-136210198D01*
X96840199Y-137670000D01*
X94017322Y-137670000D01*
X93979999Y-137666324D01*
X93942676Y-137670000D01*
X93942667Y-137670000D01*
X93831014Y-137680997D01*
X93687753Y-137724454D01*
X93555724Y-137795026D01*
X93555722Y-137795027D01*
X93555723Y-137795027D01*
X93468996Y-137866201D01*
X93468992Y-137866205D01*
X93439999Y-137889999D01*
X93416205Y-137918992D01*
X91125199Y-140210000D01*
X74609803Y-140210000D01*
X72515000Y-138115199D01*
X72515000Y-127703711D01*
X72558937Y-127659774D01*
X72672205Y-127490256D01*
X72750226Y-127301898D01*
X72790000Y-127101939D01*
X72790000Y-126898061D01*
X72750226Y-126698102D01*
X72672205Y-126509744D01*
X72558937Y-126340226D01*
X72414774Y-126196063D01*
X72245256Y-126082795D01*
X72056898Y-126004774D01*
X71856939Y-125965000D01*
X71653061Y-125965000D01*
X71453102Y-126004774D01*
X71264744Y-126082795D01*
X71095226Y-126196063D01*
X70951063Y-126340226D01*
X70837795Y-126509744D01*
X70759774Y-126698102D01*
X70720000Y-126898061D01*
X70720000Y-127101939D01*
X70759774Y-127301898D01*
X70837795Y-127490256D01*
X70951063Y-127659774D01*
X70995000Y-127703711D01*
X70995001Y-138392668D01*
X70991324Y-138430000D01*
X70995001Y-138467333D01*
X71005998Y-138578986D01*
X71013431Y-138603490D01*
X71049454Y-138722246D01*
X71120026Y-138854276D01*
X71177296Y-138924059D01*
X71215000Y-138970001D01*
X71243998Y-138993799D01*
X73731205Y-141481008D01*
X73754999Y-141510001D01*
X73783992Y-141533795D01*
X73783996Y-141533799D01*
X73854685Y-141591811D01*
X73870724Y-141604974D01*
X74002753Y-141675546D01*
X74146014Y-141719003D01*
X74257667Y-141730000D01*
X74257676Y-141730000D01*
X74294999Y-141733676D01*
X74332322Y-141730000D01*
X91402678Y-141730000D01*
X91440000Y-141733676D01*
X91477322Y-141730000D01*
X91477333Y-141730000D01*
X91588986Y-141719003D01*
X91732247Y-141675546D01*
X91864276Y-141604974D01*
X91980001Y-141510001D01*
X92003804Y-141480997D01*
X93704930Y-139779872D01*
X124765000Y-139779872D01*
X124765000Y-140220128D01*
X124850890Y-140651925D01*
X125019369Y-141058669D01*
X125263962Y-141424729D01*
X125575271Y-141736038D01*
X125941331Y-141980631D01*
X126348075Y-142149110D01*
X126779872Y-142235000D01*
X127220128Y-142235000D01*
X127651925Y-142149110D01*
X128058669Y-141980631D01*
X128424729Y-141736038D01*
X128736038Y-141424729D01*
X128980631Y-141058669D01*
X129149110Y-140651925D01*
X129235000Y-140220128D01*
X129235000Y-139779872D01*
X129149110Y-139348075D01*
X128980631Y-138941331D01*
X128736038Y-138575271D01*
X128424729Y-138263962D01*
X128058669Y-138019369D01*
X127651925Y-137850890D01*
X127220128Y-137765000D01*
X126779872Y-137765000D01*
X126348075Y-137850890D01*
X125941331Y-138019369D01*
X125575271Y-138263962D01*
X125263962Y-138575271D01*
X125019369Y-138941331D01*
X124850890Y-139348075D01*
X124765000Y-139779872D01*
X93704930Y-139779872D01*
X94294803Y-139190000D01*
X97117678Y-139190000D01*
X97155000Y-139193676D01*
X97192322Y-139190000D01*
X97192333Y-139190000D01*
X97303986Y-139179003D01*
X97447247Y-139135546D01*
X97579276Y-139064974D01*
X97695001Y-138970001D01*
X97718804Y-138940997D01*
X99571004Y-137088798D01*
X99600001Y-137065001D01*
X99694974Y-136949276D01*
X99765546Y-136817247D01*
X99809003Y-136673986D01*
X99820000Y-136562333D01*
X99820000Y-136562323D01*
X99823676Y-136525000D01*
X99820000Y-136487677D01*
X99820000Y-134299801D01*
X101279802Y-132840000D01*
X105372678Y-132840000D01*
X105410000Y-132843676D01*
X105447322Y-132840000D01*
X105447333Y-132840000D01*
X105558986Y-132829003D01*
X105702247Y-132785546D01*
X105834276Y-132714974D01*
X105950001Y-132620001D01*
X105973803Y-132590998D01*
X106359802Y-132205000D01*
X109182678Y-132205000D01*
X109220000Y-132208676D01*
X109257322Y-132205000D01*
X109257333Y-132205000D01*
X109368986Y-132194003D01*
X109512247Y-132150546D01*
X109644276Y-132079974D01*
X109760001Y-131985001D01*
X109783804Y-131955997D01*
X112271009Y-129468794D01*
X112300001Y-129445001D01*
X112323795Y-129416008D01*
X112323799Y-129416004D01*
X112394973Y-129329277D01*
X112394974Y-129329276D01*
X112465546Y-129197247D01*
X112509003Y-129053986D01*
X112520000Y-128942333D01*
X112520000Y-128942324D01*
X112523676Y-128905001D01*
X112520000Y-128867678D01*
X112520000Y-93024801D01*
X113344802Y-92200000D01*
X120970199Y-92200000D01*
X121160000Y-92389802D01*
X121160001Y-99657668D01*
X121156324Y-99695000D01*
X121160001Y-99732333D01*
X121170245Y-99836335D01*
X121170998Y-99843985D01*
X121214454Y-99987246D01*
X121285026Y-100119276D01*
X121342296Y-100189059D01*
X121380000Y-100235001D01*
X121408998Y-100258799D01*
X122426312Y-101276114D01*
X122390000Y-101458665D01*
X122390000Y-101741335D01*
X122445147Y-102018574D01*
X122553320Y-102279727D01*
X122710363Y-102514759D01*
X122910241Y-102714637D01*
X123142759Y-102870000D01*
X122910241Y-103025363D01*
X122710363Y-103225241D01*
X122553320Y-103460273D01*
X122445147Y-103721426D01*
X122390000Y-103998665D01*
X122390000Y-104281335D01*
X122445147Y-104558574D01*
X122553320Y-104819727D01*
X122710363Y-105054759D01*
X122910241Y-105254637D01*
X123142759Y-105410000D01*
X122910241Y-105565363D01*
X122710363Y-105765241D01*
X122553320Y-106000273D01*
X122445147Y-106261426D01*
X122390000Y-106538665D01*
X122390000Y-106821335D01*
X122445147Y-107098574D01*
X122553320Y-107359727D01*
X122710363Y-107594759D01*
X122910241Y-107794637D01*
X123142759Y-107950000D01*
X122910241Y-108105363D01*
X122710363Y-108305241D01*
X122553320Y-108540273D01*
X122445147Y-108801426D01*
X122390000Y-109078665D01*
X122390000Y-109361335D01*
X122445147Y-109638574D01*
X122553320Y-109899727D01*
X122710363Y-110134759D01*
X122910241Y-110334637D01*
X123142759Y-110490000D01*
X122910241Y-110645363D01*
X122710363Y-110845241D01*
X122553320Y-111080273D01*
X122445147Y-111341426D01*
X122390000Y-111618665D01*
X122390000Y-111901335D01*
X122445147Y-112178574D01*
X122553320Y-112439727D01*
X122710363Y-112674759D01*
X122910241Y-112874637D01*
X123142759Y-113030000D01*
X122910241Y-113185363D01*
X122710363Y-113385241D01*
X122553320Y-113620273D01*
X122445147Y-113881426D01*
X122390000Y-114158665D01*
X122390000Y-114441335D01*
X122445147Y-114718574D01*
X122553320Y-114979727D01*
X122710363Y-115214759D01*
X122910241Y-115414637D01*
X123142759Y-115570000D01*
X122910241Y-115725363D01*
X122710363Y-115925241D01*
X122553320Y-116160273D01*
X122445147Y-116421426D01*
X122390000Y-116698665D01*
X122390000Y-116981335D01*
X122445147Y-117258574D01*
X122553320Y-117519727D01*
X122710363Y-117754759D01*
X122910241Y-117954637D01*
X123142759Y-118110000D01*
X122910241Y-118265363D01*
X122710363Y-118465241D01*
X122553320Y-118700273D01*
X122445147Y-118961426D01*
X122390000Y-119238665D01*
X122390000Y-119521335D01*
X122445147Y-119798574D01*
X122553320Y-120059727D01*
X122710363Y-120294759D01*
X122910241Y-120494637D01*
X123142759Y-120650000D01*
X122910241Y-120805363D01*
X122710363Y-121005241D01*
X122553320Y-121240273D01*
X122445147Y-121501426D01*
X122390000Y-121778665D01*
X122390000Y-122061335D01*
X122445147Y-122338574D01*
X122553320Y-122599727D01*
X122710363Y-122834759D01*
X122910241Y-123034637D01*
X123142759Y-123190000D01*
X122910241Y-123345363D01*
X122710363Y-123545241D01*
X122553320Y-123780273D01*
X122445147Y-124041426D01*
X122390000Y-124318665D01*
X122390000Y-124601335D01*
X122445147Y-124878574D01*
X122553320Y-125139727D01*
X122710363Y-125374759D01*
X122910241Y-125574637D01*
X123142759Y-125730000D01*
X122910241Y-125885363D01*
X122710363Y-126085241D01*
X122553320Y-126320273D01*
X122445147Y-126581426D01*
X122390000Y-126858665D01*
X122390000Y-127141335D01*
X122445147Y-127418574D01*
X122553320Y-127679727D01*
X122710363Y-127914759D01*
X122910241Y-128114637D01*
X123142759Y-128270000D01*
X122910241Y-128425363D01*
X122710363Y-128625241D01*
X122553320Y-128860273D01*
X122445147Y-129121426D01*
X122390000Y-129398665D01*
X122390000Y-129681335D01*
X122445147Y-129958574D01*
X122553320Y-130219727D01*
X122710363Y-130454759D01*
X122910241Y-130654637D01*
X123145273Y-130811680D01*
X123406426Y-130919853D01*
X123683665Y-130975000D01*
X123966335Y-130975000D01*
X124243574Y-130919853D01*
X124504727Y-130811680D01*
X124739759Y-130654637D01*
X124939637Y-130454759D01*
X125046519Y-130294798D01*
X125105356Y-130289003D01*
X125248617Y-130245546D01*
X125380646Y-130174974D01*
X125496371Y-130080001D01*
X125520174Y-130050997D01*
X128146004Y-127425168D01*
X128175001Y-127401371D01*
X128225110Y-127340313D01*
X128269974Y-127285647D01*
X128340546Y-127153617D01*
X128344272Y-127141335D01*
X128384003Y-127010356D01*
X128395000Y-126898703D01*
X128395000Y-126898693D01*
X128398676Y-126861370D01*
X128395000Y-126824047D01*
X128395000Y-117789801D01*
X129416004Y-116768798D01*
X129445001Y-116745001D01*
X129539974Y-116629276D01*
X129610546Y-116497247D01*
X129654003Y-116353986D01*
X129665000Y-116242333D01*
X129665000Y-116242324D01*
X129668676Y-116205001D01*
X129665000Y-116167678D01*
X129665000Y-115788072D01*
X129755000Y-115788072D01*
X129879482Y-115775812D01*
X129999180Y-115739502D01*
X130109494Y-115680537D01*
X130206185Y-115601185D01*
X130285537Y-115504494D01*
X130344502Y-115394180D01*
X130380812Y-115274482D01*
X130393072Y-115150000D01*
X130393072Y-113450000D01*
X130380812Y-113325518D01*
X130344502Y-113205820D01*
X130285537Y-113095506D01*
X130206185Y-112998815D01*
X130109494Y-112919463D01*
X129999180Y-112860498D01*
X129926620Y-112838487D01*
X130058475Y-112706632D01*
X130220990Y-112463411D01*
X130332932Y-112193158D01*
X130390000Y-111906260D01*
X130390000Y-111613740D01*
X130332932Y-111326842D01*
X130220990Y-111056589D01*
X130058475Y-110813368D01*
X129851632Y-110606525D01*
X129677240Y-110490000D01*
X129851632Y-110373475D01*
X130058475Y-110166632D01*
X130220990Y-109923411D01*
X130332932Y-109653158D01*
X130390000Y-109366260D01*
X130390000Y-109073740D01*
X130332932Y-108786842D01*
X130220990Y-108516589D01*
X130058475Y-108273368D01*
X129851632Y-108066525D01*
X129677240Y-107950000D01*
X129851632Y-107833475D01*
X130058475Y-107626632D01*
X130220990Y-107383411D01*
X130332932Y-107113158D01*
X130390000Y-106826260D01*
X130390000Y-106533740D01*
X130332932Y-106246842D01*
X130220990Y-105976589D01*
X130058475Y-105733368D01*
X129851632Y-105526525D01*
X129677240Y-105410000D01*
X129851632Y-105293475D01*
X130058475Y-105086632D01*
X130220990Y-104843411D01*
X130332932Y-104573158D01*
X130390000Y-104286260D01*
X130390000Y-103993740D01*
X130332932Y-103706842D01*
X130220990Y-103436589D01*
X130058475Y-103193368D01*
X129851632Y-102986525D01*
X129677240Y-102870000D01*
X129851632Y-102753475D01*
X130058475Y-102546632D01*
X130220990Y-102303411D01*
X130332932Y-102033158D01*
X130390000Y-101746260D01*
X130390000Y-101453740D01*
X130346209Y-101233592D01*
X130683000Y-100896801D01*
X130683000Y-143383000D01*
X59182000Y-143383000D01*
X59182000Y-139779872D01*
X61765000Y-139779872D01*
X61765000Y-140220128D01*
X61850890Y-140651925D01*
X62019369Y-141058669D01*
X62263962Y-141424729D01*
X62575271Y-141736038D01*
X62941331Y-141980631D01*
X63348075Y-142149110D01*
X63779872Y-142235000D01*
X64220128Y-142235000D01*
X64651925Y-142149110D01*
X65058669Y-141980631D01*
X65424729Y-141736038D01*
X65736038Y-141424729D01*
X65980631Y-141058669D01*
X66149110Y-140651925D01*
X66235000Y-140220128D01*
X66235000Y-139779872D01*
X66149110Y-139348075D01*
X65980631Y-138941331D01*
X65736038Y-138575271D01*
X65424729Y-138263962D01*
X65058669Y-138019369D01*
X64651925Y-137850890D01*
X64220128Y-137765000D01*
X63779872Y-137765000D01*
X63348075Y-137850890D01*
X62941331Y-138019369D01*
X62575271Y-138263962D01*
X62263962Y-138575271D01*
X62019369Y-138941331D01*
X61850890Y-139348075D01*
X61765000Y-139779872D01*
X59182000Y-139779872D01*
X59182000Y-130975000D01*
X64601928Y-130975000D01*
X64614188Y-131099482D01*
X64650498Y-131219180D01*
X64709463Y-131329494D01*
X64788815Y-131426185D01*
X64805393Y-131439790D01*
X64768320Y-131495273D01*
X64660147Y-131756426D01*
X64605000Y-132033665D01*
X64605000Y-132316335D01*
X64660147Y-132593574D01*
X64768320Y-132854727D01*
X64925363Y-133089759D01*
X65125241Y-133289637D01*
X65360273Y-133446680D01*
X65621426Y-133554853D01*
X65898665Y-133610000D01*
X66181335Y-133610000D01*
X66458574Y-133554853D01*
X66719727Y-133446680D01*
X66954759Y-133289637D01*
X67154637Y-133089759D01*
X67311680Y-132854727D01*
X67419853Y-132593574D01*
X67475000Y-132316335D01*
X67475000Y-132033665D01*
X67419853Y-131756426D01*
X67311680Y-131495273D01*
X67274607Y-131439790D01*
X67291185Y-131426185D01*
X67370537Y-131329494D01*
X67429502Y-131219180D01*
X67465812Y-131099482D01*
X67478072Y-130975000D01*
X67475000Y-130460750D01*
X67316250Y-130302000D01*
X66167000Y-130302000D01*
X66167000Y-130322000D01*
X65913000Y-130322000D01*
X65913000Y-130302000D01*
X64763750Y-130302000D01*
X64605000Y-130460750D01*
X64601928Y-130975000D01*
X59182000Y-130975000D01*
X59182000Y-129375000D01*
X64601928Y-129375000D01*
X64605000Y-129889250D01*
X64763750Y-130048000D01*
X65913000Y-130048000D01*
X65913000Y-128898750D01*
X66167000Y-128898750D01*
X66167000Y-130048000D01*
X67316250Y-130048000D01*
X67475000Y-129889250D01*
X67478072Y-129375000D01*
X67465812Y-129250518D01*
X67429502Y-129130820D01*
X67370537Y-129020506D01*
X67291185Y-128923815D01*
X67194494Y-128844463D01*
X67084180Y-128785498D01*
X66964482Y-128749188D01*
X66840000Y-128736928D01*
X66325750Y-128740000D01*
X66167000Y-128898750D01*
X65913000Y-128898750D01*
X65754250Y-128740000D01*
X65240000Y-128736928D01*
X65115518Y-128749188D01*
X64995820Y-128785498D01*
X64885506Y-128844463D01*
X64788815Y-128923815D01*
X64709463Y-129020506D01*
X64650498Y-129130820D01*
X64614188Y-129250518D01*
X64601928Y-129375000D01*
X59182000Y-129375000D01*
X59182000Y-76779872D01*
X61765000Y-76779872D01*
X61765000Y-77220128D01*
X61850890Y-77651925D01*
X62019369Y-78058669D01*
X62263962Y-78424729D01*
X62575271Y-78736038D01*
X62941331Y-78980631D01*
X63348075Y-79149110D01*
X63779872Y-79235000D01*
X64220128Y-79235000D01*
X64651925Y-79149110D01*
X65058669Y-78980631D01*
X65424729Y-78736038D01*
X65736038Y-78424729D01*
X65980631Y-78058669D01*
X66149110Y-77651925D01*
X66235000Y-77220128D01*
X66235000Y-76779872D01*
X124765000Y-76779872D01*
X124765000Y-77220128D01*
X124850890Y-77651925D01*
X125019369Y-78058669D01*
X125263962Y-78424729D01*
X125575271Y-78736038D01*
X125941331Y-78980631D01*
X126348075Y-79149110D01*
X126779872Y-79235000D01*
X127220128Y-79235000D01*
X127651925Y-79149110D01*
X128058669Y-78980631D01*
X128424729Y-78736038D01*
X128736038Y-78424729D01*
X128980631Y-78058669D01*
X129149110Y-77651925D01*
X129235000Y-77220128D01*
X129235000Y-76779872D01*
X129149110Y-76348075D01*
X128980631Y-75941331D01*
X128736038Y-75575271D01*
X128424729Y-75263962D01*
X128058669Y-75019369D01*
X127651925Y-74850890D01*
X127220128Y-74765000D01*
X126779872Y-74765000D01*
X126348075Y-74850890D01*
X125941331Y-75019369D01*
X125575271Y-75263962D01*
X125263962Y-75575271D01*
X125019369Y-75941331D01*
X124850890Y-76348075D01*
X124765000Y-76779872D01*
X66235000Y-76779872D01*
X66149110Y-76348075D01*
X65980631Y-75941331D01*
X65736038Y-75575271D01*
X65424729Y-75263962D01*
X65058669Y-75019369D01*
X64651925Y-74850890D01*
X64220128Y-74765000D01*
X63779872Y-74765000D01*
X63348075Y-74850890D01*
X62941331Y-75019369D01*
X62575271Y-75263962D01*
X62263962Y-75575271D01*
X62019369Y-75941331D01*
X61850890Y-76348075D01*
X61765000Y-76779872D01*
X59182000Y-76779872D01*
X59182000Y-74422000D01*
X130683000Y-74422000D01*
X130683000Y-90238198D01*
M02*
